<svg width="93" height="79" viewBox="0 0 93 79" fill="none" xmlns="http://www.w3.org/2000/svg">
<g opacity="0.3">
<g opacity="0.3">
<path opacity="0.3" d="M92.7181 78.1231C92.7181 78.1231 89.3166 73.9701 87.2126 71.9332C82.4945 67.3702 76.6441 63.0115 71.1638 59.3396L65.0425 34.716L66.0174 35.2842C66.0237 35.2873 66.03 35.2905 66.0347 35.2952L66.041 35.2984V35.2952C66.0583 35.3047 66.0756 35.3095 66.0914 35.3158L67.1307 35.596V35.5928C67.1859 35.6165 67.2536 35.6102 67.3307 35.5643C67.504 35.463 67.6441 35.2208 67.6441 35.0214C67.6441 34.9312 67.6158 34.8695 67.5701 34.8315V34.8283L66.8079 34.0639C66.7859 34.0433 66.7654 34.0243 66.7339 34.0133L64.6363 32.7946L63.8174 29.7843L65.2457 30.6136C65.2536 30.6168 65.2583 30.6199 65.2662 30.6231L65.2693 30.6294V30.6263C65.2867 30.6358 65.304 30.6421 65.3229 30.6468H65.3213L66.3591 30.927V30.9238C66.4142 30.946 66.4819 30.9396 66.5607 30.8953C66.7339 30.794 66.8725 30.5519 66.8725 30.3509C66.8725 30.2623 66.8426 30.1989 66.7985 30.161L66.8016 30.1578L66.0394 29.3949V29.3965C66.0174 29.3744 65.9922 29.3569 65.9622 29.3427L58.6504 25.0963C58.6268 25.0884 58.6048 25.0789 58.578 25.0757L57.4725 24.756C57.4205 24.745 57.3622 24.756 57.2945 24.794C57.1244 24.8921 56.9843 25.1359 56.9843 25.3353C56.9843 25.4144 57.0032 25.4714 57.0363 25.5094V25.511L57.9229 26.3593L57.9276 26.3561C57.9339 26.3593 57.937 26.3656 57.9402 26.3688L59.0237 27.0003L40.7197 41.2288L35.2441 37.9985L35.4016 26.9117L33.3685 25.7341L25.2111 32.0744L22.6614 30.5693C21.9197 30.2084 20.8363 30.0518 19.4677 30.2053L12.4992 27.7189C12.4567 27.7014 12.4063 27.684 12.3559 27.6666H12.3544C11.9181 27.5305 11.3292 27.5004 10.6284 27.6049C8.8079 27.8835 6.90082 28.9613 6.39845 30.0233C6.20633 30.4269 6.24412 30.7719 6.46774 31.0219L6.47562 31.0299C6.50396 31.0615 6.53389 31.09 6.57168 31.1201L10.7449 35.1655C10.4583 36.0059 10.7433 36.6912 11.4536 37.1343L13.9528 38.6142L2.98743 43.3638L5.01893 44.543L23.83 44.4527L29.5969 47.865L4.34806 58.7999L2.45672 57.7047C2.43152 57.692 2.4079 57.6873 2.38428 57.6841L1.27877 57.3612C1.22837 57.3502 1.16696 57.3612 1.10082 57.3992C0.929162 57.4989 0.787429 57.7427 0.790579 57.9437C0.790579 58.0212 0.811051 58.0782 0.845697 58.1162L1.73074 58.9677L1.73546 58.9645C1.74019 58.9677 1.74333 58.9724 1.74806 58.9772L9.05357 63.222C9.05987 63.2252 9.06617 63.2267 9.07247 63.2315L9.07719 63.2331C9.09452 63.2426 9.11184 63.2473 9.13074 63.2536L10.167 63.5338L10.1701 63.5306C10.2205 63.5528 10.2929 63.5496 10.367 63.5021C10.5402 63.4008 10.6803 63.1587 10.6803 62.9608C10.6819 62.8706 10.652 62.8042 10.6048 62.7693L10.6063 62.7662L9.84727 62.0017C9.82365 61.9796 9.80003 61.9622 9.77011 61.9511L8.8457 61.4145L15.2174 61.9463L17.6441 63.3549C17.6473 63.3581 17.6536 63.3628 17.6599 63.3676L17.6662 63.3692C17.6835 63.3755 17.6992 63.3834 17.7181 63.3866V63.3898L18.7544 63.6667C18.8095 63.6857 18.8788 63.681 18.9575 63.6382C19.1292 63.5369 19.2693 63.2932 19.2693 63.0922C19.2693 63.0036 19.2394 62.9387 19.1937 62.9023L19.1953 62.8991L18.5197 62.2217L62.3433 65.8904L61.9055 65.6324C68.0693 68.5937 75.2961 71.8461 82.5055 74.6C85.9512 75.9184 92.7181 78.1231 92.7181 78.1231Z" fill="#121214"/>
</g>
</g>
<path d="M62.822 57.3786C62.0614 56.9402 61.4346 57.2979 61.4346 58.189C61.4346 59.0801 62.0598 60.1579 62.822 60.6058C63.5968 61.0474 64.2157 60.6865 64.2157 59.8018C64.2157 58.9107 63.5968 57.8249 62.822 57.3786Z" fill="#474747"/>
<path d="M64.0945 56.6522C63.7149 56.4306 63.3764 56.4037 63.1275 56.5398L61.8488 57.2805C62.1008 57.1412 62.4441 57.1634 62.8205 57.3786C63.5953 57.8265 64.2142 58.9107 64.2142 59.8018C64.2142 60.2259 64.0661 60.5346 63.8362 60.6849L65.1039 59.9521V59.9458C65.3386 59.7986 65.4803 59.4931 65.4803 59.0642C65.4803 58.1747 64.8614 57.0906 64.0945 56.6522Z" fill="#333333"/>
<path d="M62.822 57.8519C62.2771 57.5369 61.8378 57.7949 61.8378 58.4248C61.8378 59.0579 62.2771 59.8255 62.822 60.1389C63.3701 60.4539 63.8094 60.1959 63.8094 59.5676C63.8094 58.9313 63.3701 58.17 62.822 57.8519Z" fill="#1F1F1F"/>
<path d="M62.8834 59.9458C62.4078 59.6751 62.0267 58.9993 62.0267 58.4517C62.0267 58.2191 62.0882 58.0481 62.2 57.9437C62.0582 58.037 61.9637 58.2285 61.9637 58.496C61.9637 59.05 62.3512 59.721 62.8205 59.9901C63.1024 60.1515 63.3401 60.1452 63.4992 60.0043C63.3433 60.0993 63.126 60.0866 62.8834 59.9458Z" fill="#0F0F0F"/>
<path d="M62.8221 57.9991C62.5843 57.8551 62.3606 57.8456 62.2063 57.9421L62.2 57.9437C62.0898 58.0482 62.0252 58.2191 62.0252 58.4517C62.0252 58.9993 62.4079 59.6751 62.8835 59.9458C63.1276 60.0866 63.3417 60.0993 63.4992 60.0043H63.5071C63.6189 59.8967 63.6835 59.7242 63.6835 59.4931C63.6835 58.9455 63.3008 58.2697 62.8221 57.9991Z" fill="#919191"/>
<path d="M62.9496 59.5137C62.6378 59.3381 62.3921 58.9076 62.3921 58.5515C62.3921 58.447 62.4094 58.3663 62.4441 58.2998C62.3433 58.3584 62.2693 58.4818 62.2693 58.6702C62.2693 59.0279 62.5213 59.4568 62.8221 59.6388C63.0457 59.7622 63.2331 59.729 63.3181 59.5628C63.2236 59.615 63.0913 59.5992 62.9496 59.5137Z" fill="#3B3B3B"/>
<path d="M62.8221 58.3489C62.6803 58.2618 62.5418 58.2523 62.4441 58.2998C62.4095 58.3663 62.3922 58.447 62.3922 58.5499C62.3922 58.9076 62.6378 59.3381 62.9512 59.5138C63.0898 59.6008 63.2221 59.6151 63.3165 59.5629C63.3559 59.5027 63.3811 59.4188 63.3811 59.3159C63.3811 58.9582 63.1323 58.5246 62.8221 58.3489Z" fill="#787878"/>
<path d="M62.9291 54.4839L63.7307 54.0186V59.9347L62.9291 60.4032V54.4839Z" fill="#666666"/>
<path d="M61.0536 53.3918L62.9291 54.4823V60.4016L61.0504 59.3111L61.0536 53.3918Z" fill="#808080"/>
<path d="M62.9291 54.4839L63.7307 54.0186L61.8535 52.9297L61.0535 53.3934L62.9291 54.4839Z" fill="#ADADAD"/>
<path d="M60.6961 58.6163C59.937 58.1779 59.3118 58.5356 59.3118 59.4267C59.3118 60.3162 59.9355 61.3971 60.6961 61.8403C61.4709 62.285 62.093 61.9242 62.093 61.0394C62.093 60.1468 61.4709 59.0642 60.6961 58.6163Z" fill="#474747"/>
<path d="M61.9716 57.8867C61.5921 57.6683 61.2535 57.6429 61.0047 57.7775L59.7275 58.5182C59.9764 58.3773 60.3212 58.4011 60.696 58.6163C61.4709 59.0642 62.0929 60.1484 62.0929 61.0394C62.0929 61.4636 61.9449 61.7707 61.7134 61.9194L62.9795 61.1898V61.1835C63.2142 61.0331 63.3575 60.7292 63.3575 60.3003C63.3575 59.4124 62.7354 58.3283 61.9716 57.8867Z" fill="#333333"/>
<path d="M60.6961 59.0896C60.1528 58.7762 59.715 59.0294 59.715 59.6641C59.715 60.2956 60.1528 61.0632 60.6961 61.375C61.2457 61.6915 61.6866 61.4351 61.6866 60.8052C61.6866 60.1674 61.2457 59.4061 60.6961 59.0896Z" fill="#1F1F1F"/>
<path d="M60.7606 61.1835C60.2834 60.9128 59.9023 60.237 59.9023 59.6863C59.9023 59.4552 59.9669 59.2859 60.0756 59.1814C59.9323 59.2716 59.8378 59.4615 59.8378 59.7322C59.8378 60.2829 60.2252 60.9556 60.696 61.2262C60.9763 61.3877 61.2157 61.3829 61.3748 61.2421C61.2189 61.3323 61.0047 61.3243 60.7606 61.1835Z" fill="#0F0F0F"/>
<path d="M60.696 59.2367C60.4598 59.0927 60.2378 59.0801 60.0819 59.1782L60.0756 59.1813C59.9669 59.2858 59.9023 59.4552 59.9023 59.6862C59.9023 60.237 60.2834 60.9128 60.7606 61.1835C61.0031 61.3243 61.2189 61.3322 61.3748 61.242H61.3842C61.4929 61.1344 61.5574 60.9619 61.5574 60.7277C61.5574 60.18 61.1763 59.5074 60.696 59.2367Z" fill="#919191"/>
<path d="M60.8252 60.7514C60.515 60.5757 60.2662 60.1437 60.2662 59.7891C60.2662 59.6847 60.2851 59.6039 60.3213 59.5375C60.2189 59.596 60.1465 59.7195 60.1465 59.9062C60.1465 60.2639 60.3953 60.6928 60.6977 60.8764C60.9229 60.9999 61.1103 60.9619 61.1953 60.8005C61.0977 60.8511 60.9654 60.8385 60.8252 60.7514Z" fill="#3B3B3B"/>
<path d="M60.696 59.5849C60.5543 59.4963 60.4173 59.4899 60.3212 59.5358C60.285 59.6023 60.2677 59.683 60.2677 59.7875C60.2677 60.142 60.5118 60.5741 60.8252 60.7498C60.9669 60.8369 61.0992 60.8511 61.1921 60.7989C61.233 60.7387 61.2582 60.6549 61.2582 60.5488C61.2598 60.1959 61.0094 59.7606 60.696 59.5849Z" fill="#787878"/>
<path d="M57.7559 22.5054C57.7528 22.3028 57.8945 22.0607 58.0646 21.9594C58.2394 21.8597 58.3796 21.942 58.378 22.1414C58.378 22.3408 58.2362 22.583 58.0646 22.6874C57.8913 22.784 57.7559 22.7033 57.7559 22.5054Z" fill="#ADADAD"/>
<path d="M59.4236 22.2617L58.6976 23.5263L57.8079 22.678L58.2441 21.9214L59.4236 22.2617Z" fill="#ADADAD"/>
<path d="M58.7134 23.5374C58.6252 23.4804 58.567 23.3664 58.567 23.2082C58.567 22.8774 58.8 22.477 59.0803 22.3124C59.2126 22.2301 59.3292 22.2221 59.4221 22.2617L66.7355 26.5081L66.0394 27.7948L58.7134 23.5374Z" fill="#D1D3D4"/>
<path d="M64.4441 23.9758L62.6504 22.9343V24.5614L64.4441 25.6028V23.9758Z" fill="#ADADAD"/>
<path d="M64.6362 23.8634L64.4441 23.9742V25.6012L64.6362 25.4904V23.8634Z" fill="#808080"/>
<path d="M64.4441 23.9758L62.6504 22.9344L62.8441 22.822L64.6362 23.8634L64.4441 23.9758Z" fill="#B7B9BD"/>
<path d="M65.8772 27.4514C65.874 27.119 66.1071 26.7186 66.3906 26.554C66.674 26.3894 66.9055 26.5239 66.9024 26.8547C66.9024 27.1823 66.6725 27.5827 66.3874 27.7505C66.1071 27.9151 65.8772 27.7821 65.8772 27.4514Z" fill="#ADADAD"/>
<path d="M67.5717 27.3232L67.1307 28.0908L66.0913 27.8138L66.811 26.5619L67.5717 27.3232Z" fill="#ADADAD"/>
<path d="M67.0236 27.8803C67.0205 27.6777 67.1622 27.4356 67.3323 27.3358C67.5039 27.2377 67.6456 27.3184 67.6456 27.5179C67.6456 27.7188 67.5039 27.961 67.3323 28.0623C67.159 28.1604 67.0236 28.0797 67.0236 27.8803Z" fill="#808080"/>
<path d="M33.3685 15.282L24.274 22.3551L35.2283 28.708L35.4016 16.4627L33.3685 15.282Z" fill="#B7B9BD"/>
<path d="M56.9843 14.8863C56.9843 14.6838 57.1228 14.4416 57.2976 14.3403C57.4677 14.2422 57.6079 14.3245 57.6063 14.5223C57.6063 14.7217 57.4677 14.967 57.2913 15.0683C57.1228 15.1665 56.9843 15.0857 56.9843 14.8863Z" fill="#ADADAD"/>
<path d="M58.6504 14.6473L57.926 15.9071L57.0378 15.0604L57.4724 14.3054L58.6504 14.6473Z" fill="#ADADAD"/>
<path d="M57.9402 15.9182C57.852 15.8613 57.7953 15.7489 57.7953 15.589C57.7953 15.2583 58.0268 14.8578 58.3102 14.6932C58.4425 14.6125 58.5606 14.6046 58.6504 14.6473L65.9622 18.889L65.2693 20.1757L57.9402 15.9182Z" fill="#D1D3D4"/>
<path d="M65.1039 19.8338C65.1039 19.503 65.337 19.101 65.6205 18.9365C65.9039 18.7734 66.137 18.908 66.1354 19.2372C66.1354 19.5648 65.9039 19.9668 65.6173 20.1329C65.3354 20.2975 65.1039 20.1662 65.1039 19.8338Z" fill="#ADADAD"/>
<path d="M66.8016 19.7072L66.3591 20.4749L65.3213 20.1979L66.0394 18.946L66.8016 19.7072Z" fill="#ADADAD"/>
<path d="M66.252 20.2627C66.252 20.0617 66.3905 19.8196 66.559 19.7167C66.7354 19.6202 66.8756 19.7009 66.874 19.9003C66.874 20.1013 66.7354 20.3434 66.559 20.4447C66.3905 20.5429 66.252 20.4606 66.252 20.2627Z" fill="#808080"/>
<path d="M60.4898 16.7966L40.2787 32.0412L71.474 50.1393L63.6394 18.6215L60.4898 16.7966Z" fill="#B7B9BD"/>
<path d="M52.8567 33.9025C51.1181 32.8927 51.1181 31.2546 52.8567 30.2448C54.5968 29.2351 57.4204 29.2351 59.159 30.2448C60.8976 31.2546 60.8976 32.8927 59.159 33.9025C57.4204 34.9122 54.5968 34.9122 52.8567 33.9025Z" fill="#808080"/>
<path d="M58.4236 33.4419L56.274 33.0177L54.452 33.8043L54.4803 32.4875L52.6252 31.7262L54.7953 31.3353L55.4709 30.0755L56.7842 31.1517L59.0551 31.1343L57.6945 32.1915L58.4236 33.4419Z" fill="white"/>
<path d="M59.2047 16.4088L39.3386 31.8529L42.0976 33.0937L60.4897 16.7966L59.2047 16.4088Z" fill="#939598"/>
<path d="M6.70076 20.7391C6.69604 19.1817 7.78894 17.292 9.11807 16.5133C10.4598 15.7457 11.5511 16.3804 11.5385 17.9298C11.5385 19.4777 10.4551 21.3595 9.10862 22.143C7.78422 22.9122 6.70076 22.2886 6.70076 20.7391Z" fill="#575757"/>
<path d="M19.6346 18.8763L14.011 28.6685L7.13074 22.086L10.4992 16.2221L19.6346 18.8763Z" fill="#575757"/>
<path d="M13.3496 29.3221C12.5449 28.8236 12.0362 27.8059 12.0362 26.3831C12.0315 23.4123 14.1165 19.8149 16.6551 18.3414C17.833 17.626 18.8913 17.5484 19.7023 17.9172L53.3433 37.4509L47.1181 48.9682L13.3496 29.3221Z" fill="#A7A9AC"/>
<path d="M83.3307 64.8221C86.5386 65.8635 92.6866 67.386 92.6866 67.386C92.6866 67.386 88.4519 62.4718 86.0299 60.1578L83.3307 64.8221Z" fill="#EB5C44"/>
<path d="M86.0331 60.1563C71.4488 46.2127 51.0031 36.104 51.0031 36.104L41.411 34.257L47.1165 48.9682C47.1165 48.9682 65.9102 59.1718 83.3307 64.8205L86.0331 60.1563Z" fill="#A7A9AC"/>
<path d="M82.5779 63.4942C82.5764 62.2597 83.4409 60.7625 84.4929 60.1468C85.5559 59.5374 86.4204 60.0407 86.4142 61.2673C86.4142 62.4955 85.5559 63.9864 84.4866 64.6084C83.4362 65.2162 82.5779 64.7224 82.5779 63.4942Z" fill="#EB5C44"/>
<g opacity="0.3">
<g opacity="0.3">
<path opacity="0.3" d="M86.0331 60.1563C72.1559 46.8917 52.9764 37.0963 51.1433 36.1736L19.6992 17.9172C18.8914 17.5484 17.8315 17.626 16.6536 18.3414C16.0252 18.7085 15.4252 19.2039 14.8756 19.7864C14.8756 19.7864 14.9984 19.7547 15.8016 20.2548L55.3087 43.1391C55.3087 43.1391 65.5606 54.419 76.4772 55.4382C82.7543 58.8458 92.6866 67.3845 92.6866 67.3845C92.6866 67.3845 88.4536 62.4702 86.0331 60.1563Z" fill="white"/>
</g>
</g>
<g opacity="0.2">
<g opacity="0.2">
<path opacity="0.2" d="M46.1496 46.477L14.7039 28.2222L12.0362 26.3846C12.0362 27.8075 12.5449 28.8236 13.3496 29.3237L47.1165 48.9698C47.1165 48.9698 65.9086 59.1734 83.3307 64.8221C86.5386 65.8635 92.6866 67.3845 92.6866 67.3845C92.6866 67.3845 73.0299 62.6854 46.1496 46.477Z" fill="black"/>
</g>
</g>
<path d="M31.959 26.8753L31.3323 27.2393L30.0157 25.7484L11.674 0.478987L12.3039 0.111801L19.1228 4.06855L31.959 26.8753Z" fill="#D1D3D4"/>
<path d="M31.3323 27.2409L16.326 18.536L11.6724 0.479004L18.4929 4.43575L31.3323 27.2409Z" fill="#A7A9AC"/>
<path d="M30.1024 23.569L29.4693 23.9346L28.5071 22.7776L28.3496 21.9388L28.9795 21.5748L30.1024 23.569Z" fill="#808080"/>
<path d="M28.3496 21.9388L15.2457 14.3355L15.6551 15.9182L29.4677 23.9346L28.3496 21.9388Z" fill="#575757"/>
<path d="M20.4835 15.9182L16.2079 13.4397V10.8283L20.4835 13.3115V15.9182Z" fill="#DAE5F8"/>
<path d="M9.37482 50.5746C9.37482 50.3752 9.51656 50.1314 9.68822 50.0301C9.86146 49.932 10 50.0127 9.9969 50.2122C9.9969 50.4148 9.86146 50.657 9.68507 50.7567C9.51656 50.8548 9.37482 50.7741 9.37482 50.5746Z" fill="#ADADAD"/>
<path d="M11.0441 50.3356L10.3181 51.5955L9.43304 50.7471L9.86612 49.9922L11.0441 50.3356Z" fill="#ADADAD"/>
<path d="M10.3354 51.6081C10.2441 51.5527 10.189 51.4372 10.189 51.2789C10.189 50.9466 10.422 50.5477 10.7055 50.3816C10.8346 50.3008 10.9543 50.2913 11.0441 50.3356L18.3575 54.5773L17.6646 55.864L10.3354 51.6081Z" fill="#D1D3D4"/>
<path d="M16.0662 52.045L14.2725 51.0035V52.6306L16.0662 53.672V52.045Z" fill="#ADADAD"/>
<path d="M16.2583 51.9341L16.0662 52.0449V53.672L16.2583 53.5628V51.9341Z" fill="#808080"/>
<path d="M16.0662 52.0449L14.2725 51.0035L14.4646 50.8912L16.2599 51.9341L16.0662 52.0449Z" fill="#B7B9BD"/>
<path d="M17.4976 55.5222C17.4976 55.193 17.7275 54.7894 18.0142 54.6248C18.2976 54.4602 18.5307 54.5963 18.5276 54.9239C18.5276 55.2563 18.2976 55.6535 18.011 55.8213C17.7275 55.9859 17.4976 55.8529 17.4976 55.5222Z" fill="#ADADAD"/>
<path d="M19.1937 55.3971L18.7528 56.1616L17.715 55.8846L18.4315 54.6326L19.1937 55.3971Z" fill="#ADADAD"/>
<path d="M18.6425 55.9511C18.6425 55.75 18.7827 55.5063 18.9512 55.4066C19.126 55.3069 19.2677 55.3892 19.2645 55.5902C19.2645 55.7896 19.126 56.0318 18.9512 56.1331C18.7827 56.2312 18.6425 56.1505 18.6425 55.9511Z" fill="#808080"/>
<path d="M3.59058 48.9761L30.2063 38.0698L59.2945 54.9477C59.2945 54.9477 61.7449 55.2642 62.3433 55.4383C62.6205 56.4038 62.9953 56.7741 62.9953 56.7741L8.0268 51.5496L3.59058 48.9761Z" fill="#808080"/>
<path d="M4.42206 48.802L28.9433 38.3942H32.9622L62.3417 55.4366L8.02678 50.8911L4.42206 48.802Z" fill="#B7B9BD"/>
<path d="M28.0315 48.3082C26.2913 47.2984 26.2913 45.6635 28.0315 44.6506C29.7701 43.6408 32.5921 43.6408 34.3307 44.6506C36.0708 45.6635 36.0708 47.2984 34.3307 48.3082C32.5937 49.3179 29.7701 49.3179 28.0315 48.3082Z" fill="#808080"/>
<path d="M33.5984 47.8461L31.4456 47.4219L29.6252 48.2117L29.6519 46.8948L27.7984 46.132L29.9701 45.7395L30.6425 44.4828L31.9543 45.559L34.2267 45.5416L32.8677 46.5973L33.5984 47.8461Z" fill="white"/>
<path d="M3.59058 48.6801L30.2063 37.1502L32.9622 38.3942L4.87089 49.0695L3.59058 48.6801Z" fill="#939598"/>
<path d="M2.98584 33.5954V32.9101L4.42836 32.9608L15.1717 28.2221L24.7307 33.7648L26.1276 33.9911L26.4236 34.9866L5.01891 34.7745L2.98584 33.5954Z" fill="#808080"/>
<path d="M2.98584 32.9101L15.1717 27.635L26.1276 33.9895L5.01891 34.0908L2.98584 32.9101Z" fill="#B7B9BD"/>
<path d="M0.788992 47.4915C0.785842 47.2921 0.927579 47.0484 1.09924 46.9502C1.2709 46.8489 1.41263 46.9312 1.41106 47.1307C1.41106 47.3301 1.2709 47.5722 1.09609 47.6735C0.927579 47.7732 0.788992 47.6941 0.788992 47.4915Z" fill="#ADADAD"/>
<path d="M2.45673 47.2526L1.73073 48.5139L0.842529 47.6656L1.27876 46.9091L2.45673 47.2526Z" fill="#ADADAD"/>
<path d="M1.74644 48.5234C1.65826 48.4696 1.60156 48.3573 1.60156 48.1974C1.60156 47.865 1.83306 47.4646 2.11495 47.3C2.24723 47.2209 2.36534 47.2114 2.45668 47.2509L9.76849 51.4974L9.07401 52.7841L1.74644 48.5234Z" fill="#D1D3D4"/>
<path d="M8.91022 52.4406C8.91022 52.1098 9.14014 51.7078 9.42676 51.5417C9.7118 51.3802 9.9433 51.5163 9.94015 51.844C9.94015 52.1747 9.71023 52.5735 9.42361 52.7413C9.13857 52.9027 8.91022 52.7698 8.91022 52.4406Z" fill="#ADADAD"/>
<path d="M10.6047 52.314L10.1638 53.0816L9.12756 52.8031L9.8441 51.5511L10.6047 52.314Z" fill="#ADADAD"/>
<path d="M10.0567 52.8711C10.0535 52.6701 10.1953 52.428 10.3653 52.3251C10.5386 52.2269 10.6787 52.3092 10.6787 52.5071C10.6787 52.7065 10.5386 52.9487 10.3638 53.05C10.1953 53.1513 10.0567 53.0706 10.0567 52.8711Z" fill="#808080"/>
<path d="M58.6205 44.4021C61.2504 46.7777 70.5244 53.4915 75.0882 53.9663C75.7055 54.0296 76.3213 53.4377 76.3213 53.0056C76.3244 52.3631 73.2961 47.9695 69.0599 44.5525C64.8252 41.1354 58.1433 39.8661 57.0709 40.6954C55.9968 41.5232 57.0016 42.9397 58.6205 44.4021Z" fill="#00537D"/>
<path d="M59.0331 41.1592C59.8457 41.2842 60.6394 41.5026 61.4236 41.7432C62.2047 41.9964 62.9764 42.2797 63.7307 42.6089C65.241 43.2594 66.7008 44.0634 68.0551 45.0146C69.4047 45.9532 70.6819 47.0072 71.8598 48.1563C72.4504 48.7308 73.0079 49.337 73.5449 49.9605C74.0677 50.5952 74.5827 51.2378 75.0157 51.9389C74.4189 51.3739 73.822 50.8215 73.211 50.2897C72.6063 49.75 71.9858 49.2309 71.3638 48.7165C70.1134 47.6925 68.8331 46.7176 67.5118 45.7996C66.1937 44.8833 64.8252 44.0539 63.4079 43.2847C62.6976 42.9065 61.9827 42.5298 61.2504 42.1816C60.5213 41.8223 59.7795 41.4884 59.0331 41.1592Z" fill="#1078AD"/>
<path d="M58.6205 44.4021C61.2504 46.7777 70.5244 53.4915 75.0882 53.9663C75.7055 54.0296 76.3213 53.4377 76.3213 53.0056C75.1402 54.3699 69.5292 51.4055 65.0362 48.3367C60.0189 44.9038 56.0835 42.0613 57.0693 40.6954C55.9969 41.5232 57.0016 42.9397 58.6205 44.4021Z" fill="#003552"/>
</svg>
