<svg width="73" height="82" viewBox="0 0 73 82" fill="none" xmlns="http://www.w3.org/2000/svg">
<path d="M61.25 69.4726C63.7771 70.9329 65.8323 69.7602 65.8421 66.8545C65.8495 63.9462 63.8066 60.4111 61.2795 58.9509L24.3674 37.6493C21.8377 36.189 19.7826 37.3617 19.7752 40.265C19.7653 43.1757 21.8082 46.7108 24.3354 48.171L61.25 69.4726Z" fill="#331D27"/>
<path d="M63.9984 68.9293C64.2541 68.7794 64.4557 68.5335 64.5958 68.209C64.7556 67.8452 64.8441 67.383 64.8416 66.8496C64.8416 65.6352 64.4065 64.1823 63.6444 62.8572C62.8823 61.5396 61.8375 60.4284 60.7829 59.8187L23.8708 38.5172C23.4012 38.2443 22.9489 38.0821 22.5457 38.0378C22.1917 37.996 21.8746 38.0477 21.6239 38.1927C21.0879 38.5 20.7831 39.2572 20.7807 40.2651C20.7782 41.482 21.2133 42.9398 21.9754 44.2574C22.74 45.5825 23.7823 46.6912 24.8369 47.3009L61.7515 68.6048C62.6439 69.1211 63.4649 69.2366 63.9984 68.9293Z" fill="#405234"/>
<path d="M64.5955 68.209C64.7553 67.8452 64.8438 67.383 64.8414 66.8495C64.8414 65.6351 64.4062 64.1822 63.6442 62.8572C62.8821 61.5395 61.8373 60.4284 60.7826 59.8187L23.8706 38.5172C23.401 38.2443 22.9487 38.0821 22.5455 38.0378C22.3857 38.4017 22.3022 38.8614 22.2997 39.3899C22.2972 40.6068 22.7324 42.0621 23.492 43.3823C24.259 44.7073 25.3038 45.816 26.356 46.4232L63.2705 67.7296C63.7425 67.9976 64.1973 68.1598 64.5955 68.209Z" fill="#363522"/>
<path d="M23.8018 36.8357L21.8253 37.9763L27.1673 47.2271L29.1439 46.0864C29.8248 45.6906 30.2477 44.845 30.2477 43.6404C30.2477 41.2337 27.7205 38.7876 25.6333 37.583C24.591 36.9807 24.4853 36.4399 23.8018 36.8357Z" fill="#405234"/>
<path d="M20.7217 40.4199C20.7217 38.0132 22.413 37.0347 24.4977 38.2393C26.5823 39.4439 28.2737 42.3718 28.2737 44.7785C28.2737 47.1852 26.5823 48.1637 24.4977 46.9615C22.413 45.7545 20.7217 42.8266 20.7217 40.4199Z" fill="#94BD78"/>
<path d="M22.2336 38.6818C22.354 38.6154 22.4892 38.5712 22.6343 38.5515C23.0423 38.4999 23.5512 38.6326 24.0896 38.9448C24.9599 39.4488 25.8252 40.3658 26.4594 41.4622C27.0937 42.5586 27.4551 43.7681 27.4551 44.7785C27.4551 45.398 27.3174 45.9044 27.0691 46.2314C26.9806 46.3518 26.8774 46.4477 26.7569 46.5141C26.3169 46.7698 25.6408 46.6714 24.9058 46.251C24.0331 45.7471 23.1677 44.8277 22.5335 43.7312C21.8992 42.6348 21.5378 41.4253 21.5378 40.4198C21.5378 39.5717 21.796 38.9399 22.2336 38.6818Z" fill="#363522"/>
<path d="M22.6343 38.554C23.0424 38.5024 23.5512 38.6351 24.0896 38.9473C24.9599 39.4513 25.8252 40.3683 26.4594 41.4647C27.0937 42.5611 27.4551 43.7706 27.4551 44.781C27.4551 45.4005 27.3174 45.9069 27.0691 46.2338C26.6635 46.2879 26.1546 46.1552 25.6138 45.8454C24.7411 45.339 23.8757 44.422 23.2415 43.3256C22.6072 42.2292 22.2458 41.0197 22.2458 40.0143C22.2458 39.3874 22.386 38.881 22.6343 38.554Z" fill="#405234"/>
<path d="M24.2199 41.0272C24.2592 41.0051 24.3035 40.9904 24.3526 40.983C24.4878 40.9658 24.6575 41.0125 24.8345 41.1157C25.1245 41.2804 25.4097 41.5852 25.6211 41.9515C25.8325 42.3178 25.953 42.7185 25.953 43.0528C25.953 43.2593 25.9063 43.4264 25.8227 43.5346C25.7932 43.5739 25.7613 43.6059 25.7195 43.628C25.572 43.7116 25.3483 43.6796 25.1049 43.5395C24.8148 43.3724 24.5296 43.07 24.3182 42.7037C24.1068 42.3375 23.9863 41.9368 23.9863 41.6049C23.9863 41.3222 24.0724 41.1133 24.2199 41.0272Z" fill="#363522"/>
<path d="M33.0599 42.3128L31.0858 43.4535L36.4253 52.7042L38.4018 51.5636C39.0852 51.1702 39.5081 50.3221 39.5081 49.12C39.5081 46.7132 36.9784 44.2672 34.8938 43.0626C33.849 42.4603 33.7433 41.9195 33.0599 42.3128Z" fill="#405234"/>
<path d="M29.9796 45.8996C29.9796 43.4929 31.671 42.5144 33.7557 43.7166C35.8404 44.9212 37.5317 47.8515 37.5317 50.2582C37.5317 52.6649 35.8404 53.6434 33.7557 52.4388C31.6685 51.2342 29.9796 48.3088 29.9796 45.8996Z" fill="#94BD78"/>
<path d="M31.4941 44.1642C31.6121 44.0953 31.7473 44.0511 31.8923 44.0339C32.3004 43.9822 32.8093 44.115 33.3476 44.4272C34.2204 44.9287 35.0832 45.8481 35.7175 46.9421C36.3517 48.0409 36.7131 49.2479 36.7156 50.2583C36.7156 50.8778 36.5754 51.3867 36.3272 51.7136C36.2411 51.8341 36.1354 51.9275 36.0174 51.9963C35.5749 52.252 34.8989 52.1512 34.1638 51.7308C33.2911 51.2269 32.4258 50.3099 31.7915 49.2135C31.1573 48.1171 30.7959 46.9076 30.7984 45.8997C30.7984 45.0492 31.0516 44.4198 31.4941 44.1642Z" fill="#363522"/>
<path d="M31.8922 44.0339C32.3003 43.9822 32.8092 44.115 33.3476 44.4272C34.2203 44.9287 35.0832 45.8481 35.7175 46.9421C36.3517 48.0409 36.7131 49.248 36.7156 50.2584C36.7156 50.8779 36.5754 51.3867 36.3271 51.7137C35.9215 51.7678 35.4126 51.635 34.8718 51.3228C33.9991 50.8189 33.1337 49.8994 32.4994 48.803C31.8652 47.7066 31.5038 46.4971 31.5038 45.4917C31.5038 44.8648 31.6439 44.3608 31.8922 44.0339Z" fill="#405234"/>
<path d="M33.4755 46.5068C33.5148 46.4822 33.5591 46.4674 33.6082 46.4625C33.7434 46.4429 33.9131 46.4896 34.0901 46.5928C34.3802 46.76 34.6653 47.0649 34.8767 47.4312C35.0882 47.7975 35.2086 48.1957 35.2086 48.5301C35.2086 48.7366 35.1619 48.9038 35.0808 49.0119C35.0488 49.0537 35.0169 49.0832 34.9775 49.1054C34.8276 49.1914 34.6063 49.157 34.3605 49.0193C34.0704 48.8522 33.7852 48.5473 33.5738 48.181C33.3624 47.8147 33.2419 47.414 33.2419 47.0821C33.2444 46.7993 33.3304 46.5904 33.4755 46.5068Z" fill="#363522"/>
<path d="M42.372 47.7434L40.3955 48.8841L45.7375 58.1324L47.7141 56.9942C48.395 56.5984 48.8179 55.7528 48.8179 54.5482C48.8179 52.1414 47.1265 49.2111 45.0418 48.0089C43.9995 47.4042 43.0555 47.3476 42.372 47.7434Z" fill="#405234"/>
<path d="M39.2917 51.3277C39.2917 48.921 40.9831 47.9426 43.0678 49.1472C45.1525 50.3493 46.8439 53.2796 46.8439 55.6863C46.8439 58.093 45.1525 59.0715 43.0678 57.8669C40.9807 56.6648 39.2917 53.7369 39.2917 51.3277Z" fill="#94BD78"/>
<path d="M40.8037 49.5921C40.9242 49.5258 41.0594 49.4815 41.2045 49.4618C41.6125 49.4102 42.1214 49.543 42.6598 49.8552C43.5325 50.3591 44.3954 51.2761 45.0296 52.3725C45.6639 53.4689 46.0253 54.6785 46.0277 55.6864C46.0253 56.3083 45.8876 56.8148 45.6393 57.1417C45.5508 57.2622 45.4451 57.358 45.3271 57.4244C44.8846 57.6801 44.211 57.5818 43.476 57.1614C42.6032 56.655 41.7379 55.738 41.1037 54.6416C40.4694 53.5452 40.108 52.3356 40.108 51.3302C40.108 50.4796 40.3637 49.8478 40.8037 49.5921Z" fill="#363522"/>
<path d="M41.2043 49.4618C41.6124 49.4102 42.1213 49.543 42.6597 49.8552C43.5324 50.3591 44.3953 51.2761 45.0295 52.3725C45.6638 53.4689 46.0251 54.6784 46.0276 55.6863C46.0251 56.3083 45.8875 56.8147 45.6392 57.1417C45.2335 57.1958 44.7247 57.063 44.1838 56.7533C43.3111 56.2468 42.4458 55.3299 41.8115 54.2335C41.1773 53.1346 40.8159 51.9276 40.8159 50.9196C40.8159 50.2928 40.9536 49.7888 41.2043 49.4618Z" fill="#405234"/>
<path d="M42.7876 51.935C42.8294 51.9128 42.8736 51.8981 42.9228 51.8907C43.058 51.8735 43.2252 51.9178 43.4046 52.021C43.6947 52.1882 43.9799 52.493 44.1913 52.8593C44.4027 53.2256 44.5232 53.6263 44.5232 53.9581C44.5232 54.1646 44.4765 54.3343 44.3929 54.4424C44.3634 54.4818 44.329 54.5137 44.2897 54.5358C44.1422 54.6194 43.9209 54.5875 43.6751 54.4473C43.385 54.2802 43.0974 53.9753 42.8884 53.6115C42.677 53.2477 42.5565 52.8445 42.5565 52.5102C42.5565 52.23 42.6401 52.0185 42.7876 51.935Z" fill="#363522"/>
<path d="M51.6842 53.1713L49.7076 54.312L55.0497 63.5627L57.0237 62.4221C57.7072 62.0287 58.13 61.1806 58.13 59.9785C58.13 57.5693 55.6028 55.1232 53.5157 53.9211C52.4708 53.3188 52.3651 52.7779 51.6842 53.1713Z" fill="#405234"/>
<path d="M48.6016 56.7556C48.6016 54.3488 50.2929 53.3728 52.3776 54.575C54.4647 55.7796 56.1536 58.71 56.1536 61.1167C56.1536 63.5235 54.4622 64.4995 52.3776 63.2973C50.2904 62.0927 48.6016 59.1672 48.6016 56.7556Z" fill="#94BD78"/>
<path d="M50.1159 55.0224C50.2339 54.9536 50.3715 54.9093 50.5166 54.8896C50.9222 54.838 51.4311 54.9732 51.9719 55.283C52.8422 55.7869 53.7075 56.7039 54.3418 57.8003C54.976 58.8968 55.3374 60.1063 55.3374 61.1167C55.3374 61.7362 55.1997 62.2451 54.9514 62.572C54.8629 62.6925 54.7572 62.7859 54.6392 62.8547C54.1967 63.1104 53.5231 63.0096 52.7856 62.5892C51.9129 62.0853 51.0501 61.1683 50.4158 60.0694C49.7815 58.973 49.4202 57.7659 49.4202 56.758C49.4202 55.9074 49.6734 55.2756 50.1159 55.0224Z" fill="#363522"/>
<path d="M50.5165 54.8896C50.9221 54.838 51.431 54.9732 51.9718 55.283C52.8421 55.7869 53.7074 56.7039 54.3417 57.8003C54.9759 58.8968 55.3373 60.1063 55.3373 61.1167C55.3373 61.7362 55.1996 62.2451 54.9513 62.572C54.5457 62.6236 54.0368 62.4909 53.4935 62.1811C52.6208 61.6772 51.7579 60.7578 51.1237 59.6613C50.4894 58.5649 50.1281 57.3554 50.1281 56.3499C50.1281 55.723 50.2682 55.2166 50.5165 54.8896Z" fill="#405234"/>
<path d="M52.0997 57.3653C52.1415 57.3407 52.1833 57.326 52.2349 57.3211C52.3702 57.3014 52.5373 57.3481 52.7168 57.4513C53.0069 57.6185 53.292 57.9233 53.5034 58.2872C53.7124 58.651 53.8353 59.0541 53.8353 59.3885C53.8353 59.595 53.7862 59.7621 53.705 59.8703C53.6755 59.9121 53.6411 59.9416 53.6018 59.9637C53.4543 60.0498 53.2306 60.0153 52.9872 59.8777C52.6971 59.7105 52.4095 59.4057 52.2005 59.0394C51.9891 58.6756 51.8687 58.2724 51.8687 57.9405C51.8687 57.6578 51.9522 57.4489 52.0997 57.3653Z" fill="#363522"/>
<path d="M60.9963 58.5994L59.0198 59.7425L64.3593 68.9908L66.3358 67.8501C67.0193 67.4568 66.6038 67.093 66.6038 65.8908C66.6038 63.4817 65.7507 60.0695 63.6661 58.8649C62.6213 58.2626 61.6773 58.2061 60.9963 58.5994Z" fill="#363522"/>
<path d="M57.9137 62.1861C57.9137 59.7769 59.605 58.801 61.6897 60.0056C63.7768 61.2077 65.4657 64.1381 65.4657 66.5448C65.4657 68.9515 63.7744 69.9299 61.6897 68.7253C59.605 67.5207 57.9137 64.5953 57.9137 62.1861Z" fill="#94BD78"/>
<path d="M59.428 60.4505C59.546 60.3841 59.6812 60.3374 59.8263 60.3202C60.2343 60.2686 60.7432 60.4013 61.2816 60.7135C62.1543 61.215 63.0197 62.132 63.6539 63.2309C64.2857 64.3273 64.6495 65.5344 64.6495 66.5448C64.6495 67.1667 64.5094 67.6731 64.2636 68.0001C64.1751 68.1206 64.0694 68.2164 63.9514 68.2828C63.5089 68.5385 62.8328 68.4402 62.0978 68.0198C61.2251 67.5134 60.3597 66.5964 59.7279 65.5C59.0912 64.4035 58.7323 63.194 58.7323 62.1861C58.7323 61.3355 58.9855 60.7061 59.428 60.4505Z" fill="#363522"/>
<path d="M59.8263 60.3202C60.2344 60.2686 60.7432 60.4013 61.2816 60.7135C62.1543 61.215 63.0197 62.132 63.6539 63.2309C64.2857 64.3273 64.6495 65.5343 64.6495 66.5447C64.6495 67.1667 64.5094 67.6731 64.2636 68.0001C63.8555 68.0542 63.3491 67.9214 62.8058 67.6092C61.9331 67.1052 61.0702 66.1883 60.436 65.0894C59.8017 63.993 59.4379 62.7859 59.4379 61.778C59.4403 61.1511 59.5804 60.6471 59.8263 60.3202Z" fill="#405234"/>
<path d="M61.4119 62.7934C61.4512 62.7712 61.4955 62.754 61.5447 62.7491C61.6823 62.7319 61.8495 62.7761 62.0289 62.8794C62.3166 63.0466 62.6042 63.3514 62.8131 63.7177C63.0246 64.0815 63.145 64.4847 63.145 64.8165C63.145 65.023 63.0983 65.1902 63.0172 65.3008C62.9877 65.3402 62.9533 65.3697 62.9139 65.3942C62.7664 65.4778 62.5427 65.4459 62.2969 65.3057C62.0093 65.1386 61.7217 64.8337 61.5102 64.4675C61.3013 64.1036 61.1784 63.7029 61.1808 63.3686C61.1808 63.0884 61.2644 62.8769 61.4119 62.7934Z" fill="#1D1D1B"/>
<path d="M64.507 69.7924L71.6633 65.6304C72.0615 65.3944 72.3885 65.0404 72.6146 64.566C72.8482 64.0989 72.9834 63.5015 72.9982 62.8058C73.0006 62.7689 73.0006 62.7296 72.9982 62.6878C73.0031 62.4149 72.9834 62.1273 72.9416 61.8446C72.8851 61.3234 72.7646 60.785 72.5852 60.2565C72.4967 59.9713 72.3959 59.6935 72.2754 59.4157C72.0738 58.9363 71.8378 58.4693 71.5625 58.0218C71.4101 57.7613 71.2453 57.5154 71.0733 57.2745C70.7684 56.8467 70.439 56.446 70.0826 56.0871C69.8662 55.8634 69.6401 55.652 69.409 55.4627C69.0968 55.2046 68.7698 54.9759 68.4379 54.7842L68.1601 54.6244L67.2874 54.1229L65.8321 53.2846L64.9618 52.7856L63.504 51.9423L62.6338 51.4433L61.1833 50.6025L60.3131 50.101L58.8553 49.2578L57.985 48.7588L56.5297 47.9205L55.6643 47.4165L54.2065 46.5782L53.3363 46.0743L51.8785 45.236L51.0107 44.7369L49.5578 43.8962L48.6851 43.3922L47.2322 42.5514L46.362 42.0524L44.9066 41.2141L44.0364 40.7101L42.581 39.8694L41.7108 39.3703L40.2579 38.5296L39.3901 38.0281L37.9298 37.1873L37.062 36.6858L35.6042 35.8475L34.7413 35.346L33.2762 34.5053L32.4133 34.0013L31.5037 33.4801C31.3021 33.3621 31.1104 33.2663 30.9186 33.1876C30.5081 33.0081 30.1098 32.9024 29.7386 32.868C29.1781 32.809 28.6692 32.9123 28.2489 33.1605L26.7738 34.0234C26.7689 34.0283 23.8853 35.7025 23.8853 35.7025L21.1 37.3225C21.5081 37.0865 21.9924 36.9857 22.5283 37.0324C22.9019 37.0595 23.3076 37.1603 23.7304 37.3397C23.9295 37.4258 24.1385 37.5241 24.3475 37.647L25.2251 38.1535L26.0929 38.655L27.5507 39.4982L28.4209 39.9972L29.8738 40.838L30.7416 41.3395L32.2019 42.1802L33.0697 42.6817L34.5275 43.52L35.3953 44.0191L36.8555 44.8623L37.7233 45.3613L39.1762 46.2045L40.0465 46.7036L41.5018 47.5419L42.3721 48.0459L43.8274 48.8842L44.6977 49.3857L46.1481 50.2264L47.0233 50.7279L48.4737 51.5687L49.3439 52.0677L50.7968 52.9085L51.6646 53.41L53.1249 54.2532L53.9927 54.7522L55.4505 55.5905L56.3183 56.092L57.7785 56.9352L58.6463 57.4343L60.0992 58.275L60.9695 58.7741L61.2817 58.9536C61.6037 59.1428 61.9233 59.3641 62.2281 59.6124C62.4592 59.8017 62.6854 60.0131 62.8993 60.2368C63.2582 60.5957 63.5925 60.9964 63.8949 61.4193C64.0744 61.6602 64.2366 61.906 64.389 62.1666C64.6619 62.6116 64.9053 63.0787 65.1019 63.5605C65.2249 63.8285 65.3281 64.1136 65.4215 64.3939C65.5936 64.9249 65.719 65.4608 65.7804 65.982C65.8247 66.2745 65.8419 66.5695 65.8395 66.8547C65.8395 66.8842 65.837 66.9112 65.8345 66.9383C65.8247 67.6217 65.6993 68.2092 65.4756 68.6837C65.2519 69.1803 64.9176 69.5515 64.507 69.7924Z" fill="#405234"/>
<path d="M61.2424 69.4604L24.3278 48.1563C21.8007 46.696 19.7578 43.1609 19.7676 40.2527C19.775 37.3445 21.8302 36.1767 24.3573 37.637L61.2719 58.9386C63.7991 60.3989 65.842 63.934 65.8321 66.8422C65.8272 69.748 63.772 70.9206 61.2424 69.4604ZM64.5882 68.1943C64.7455 67.833 64.8365 67.3683 64.834 66.8373C64.834 65.6229 64.4014 64.17 63.6368 62.845C62.8747 61.5273 61.8299 60.4161 60.7753 59.804L23.8608 38.5023C23.3937 38.2319 22.9389 38.0697 22.5382 38.0254C22.1842 37.9836 21.867 38.0353 21.6138 38.1803C21.0804 38.4876 20.7755 39.2448 20.7731 40.2527C20.7706 41.4696 21.2057 42.9249 21.9678 44.2451C22.7324 45.5701 23.7747 46.6788 24.8293 47.286L61.7439 68.5926C62.6363 69.1064 63.4574 69.2244 63.9908 68.9146C64.2465 68.7696 64.4456 68.5213 64.5882 68.1943Z" fill="#1D1D1B"/>
<path d="M60.9694 58.7716L68.1576 54.6243L67.2873 54.1228L60.1016 58.2726L60.9694 58.7716Z" fill="#363522"/>
<path d="M65.6034 55.5977L64.4824 54.9512L61.5864 56.6204L62.7074 57.2694L65.6034 55.5977Z" fill="#363522"/>
<path d="M58.6488 57.4318L65.8346 53.2846L64.9643 52.7855L57.781 56.9327L58.6488 57.4318Z" fill="#363522"/>
<path d="M63.2335 54.2826L62.1125 53.6361L59.2191 55.3052L60.3401 55.9542L63.2335 54.2826Z" fill="#363522"/>
<path d="M56.3207 56.092L63.5063 51.9423L62.6386 51.4432L55.4553 55.5881L56.3207 56.092Z" fill="#363522"/>
<path d="M60.8662 52.9675L59.7452 52.3209L56.8492 53.9926L57.9703 54.6392L60.8662 52.9675Z" fill="#363522"/>
<path d="M53.9977 54.7522L61.1884 50.6026L60.3181 50.1011L53.1323 54.2532L53.9977 54.7522Z" fill="#363522"/>
<path d="M58.4963 51.6522L57.3753 51.0056L54.4818 52.6773L55.6004 53.3239L58.4963 51.6522Z" fill="#363522"/>
<path d="M51.672 53.4099L58.8627 49.2577L57.9924 48.7587L50.8042 52.9084L51.672 53.4099Z" fill="#363522"/>
<path d="M56.1265 50.3394L55.0054 49.6904L52.1144 51.3621L53.2354 52.0087L56.1265 50.3394Z" fill="#363522"/>
<path d="M49.3514 52.0677L56.5371 47.9206L55.6742 47.4166L48.4836 51.5687L49.3514 52.0677Z" fill="#363522"/>
<path d="M53.7593 49.0243L52.6383 48.3752L49.7449 50.0469L50.8659 50.6935L53.7593 49.0243Z" fill="#363522"/>
<path d="M47.033 50.7279L54.2163 46.5782L53.3461 46.0742L46.1578 50.2264L47.033 50.7279Z" fill="#363522"/>
<path d="M51.3916 47.7065L50.2706 47.0599L47.3771 48.7293L48.4981 49.3783L51.3916 47.7065Z" fill="#363522"/>
<path d="M44.7075 49.3856L51.8909 45.2383L51.0231 44.7368L43.8373 48.8841L44.7075 49.3856Z" fill="#363522"/>
<path d="M49.0243 46.3913L47.9033 45.7448L45.0073 47.414L46.1283 48.063L49.0243 46.3913Z" fill="#363522"/>
<path d="M42.3843 48.0459L49.5701 43.8986L48.6974 43.3947L41.5116 47.5419L42.3843 48.0459Z" fill="#363522"/>
<path d="M46.6544 45.0763L45.5334 44.4298L42.6376 46.1014L43.7586 46.7479L46.6544 45.0763Z" fill="#363522"/>
<path d="M40.0564 46.7036L47.2446 42.5539L46.3768 42.0548L39.1886 46.2046L40.0564 46.7036Z" fill="#363522"/>
<path d="M44.2845 43.7609L43.1636 43.1144L40.2701 44.786L41.3911 45.4325L44.2845 43.7609Z" fill="#363522"/>
<path d="M37.7355 45.3615L44.9213 41.2166L44.0485 40.7126L41.4796 42.1926L38.5934 43.8692L36.8677 44.8624L37.7355 45.3615Z" fill="#363522"/>
<path d="M41.9172 42.4482L40.7962 41.7992L37.9003 43.471L39.0213 44.1176L41.9172 42.4482Z" fill="#363522"/>
<path d="M35.41 44.019L42.5934 39.8718L41.7256 39.3728L34.5422 43.52L35.41 44.019Z" fill="#363522"/>
<path d="M39.5475 41.133L38.4265 40.484L35.5305 42.1557L36.654 42.8022L39.5475 41.133Z" fill="#363522"/>
<path d="M33.0843 42.6818L40.2725 38.5321L39.4071 38.0306L32.219 42.1803L33.0843 42.6818Z" fill="#363522"/>
<path d="M37.1799 39.8154L36.0565 39.1688L33.1654 40.8381L34.2864 41.4871L37.1799 39.8154Z" fill="#363522"/>
<path d="M30.7587 41.3419L37.9469 37.1897L37.0791 36.6882L29.8909 40.838L30.7587 41.3419Z" fill="#363522"/>
<path d="M34.8101 38.5001L33.6891 37.8535L30.7957 39.5252L31.9166 40.1718L34.8101 38.5001Z" fill="#363522"/>
<path d="M28.4404 39.9998L35.6238 35.85L34.7609 35.3485L27.5702 39.5007L28.4404 39.9998Z" fill="#363522"/>
<path d="M32.4426 37.1849L31.3216 36.5383L28.4281 38.2076L29.5491 38.8566L32.4426 37.1849Z" fill="#363522"/>
<path d="M26.1125 38.6575L33.2959 34.5076L32.4355 34.0037L25.2472 38.1559L26.1125 38.6575Z" fill="#363522"/>
<path d="M30.0753 35.8696L28.9543 35.223L26.0583 36.8947L27.1794 37.5413L30.0753 35.8696Z" fill="#363522"/>
<path d="M23.7501 37.3422L30.9382 33.1924C30.5277 33.0129 30.1294 32.9072 29.7582 32.8728L22.548 37.0349C22.9241 37.0594 23.3297 37.1602 23.7501 37.3422Z" fill="#363522"/>
<path d="M24.8121 36.2236L27.7031 34.5544L27.2704 34.3061L26.7935 34.0259L23.9049 35.7049L24.3794 35.9753L24.8121 36.2236Z" fill="#363522"/>
<path d="M60.9694 58.7716L68.1576 54.6243L67.2873 54.1228L60.1016 58.2726L60.9694 58.7716Z" fill="#1D1D1B"/>
<path d="M65.6034 55.5977L64.4824 54.9512L61.5864 56.6204L62.7074 57.2694L65.6034 55.5977Z" fill="#1D1D1B"/>
<path d="M58.6488 57.4318L65.8346 53.2846L64.9643 52.7855L57.781 56.9327L58.6488 57.4318Z" fill="#1D1D1B"/>
<path d="M63.2335 54.2826L62.1125 53.6361L59.2191 55.3052L60.3401 55.9542L63.2335 54.2826Z" fill="#1D1D1B"/>
<path d="M56.3207 56.092L63.5063 51.9423L62.6386 51.4432L55.4553 55.5881L56.3207 56.092Z" fill="#1D1D1B"/>
<path d="M60.8662 52.9675L59.7452 52.3209L56.8492 53.9926L57.9703 54.6392L60.8662 52.9675Z" fill="#1D1D1B"/>
<path d="M53.9977 54.7522L61.1884 50.6026L60.3181 50.1011L53.1323 54.2532L53.9977 54.7522Z" fill="#1D1D1B"/>
<path d="M58.4963 51.6522L57.3753 51.0056L54.4818 52.6773L55.6004 53.3239L58.4963 51.6522Z" fill="#1D1D1B"/>
<path d="M51.672 53.4099L58.8627 49.2577L57.9924 48.7587L50.8042 52.9084L51.672 53.4099Z" fill="#1D1D1B"/>
<path d="M56.1265 50.3394L55.0054 49.6904L52.1144 51.3621L53.2354 52.0087L56.1265 50.3394Z" fill="#1D1D1B"/>
<path d="M49.3514 52.0677L56.5371 47.9206L55.6742 47.4166L48.4836 51.5687L49.3514 52.0677Z" fill="#1D1D1B"/>
<path d="M53.7593 49.0243L52.6383 48.3752L49.7449 50.0469L50.8659 50.6935L53.7593 49.0243Z" fill="#1D1D1B"/>
<path d="M47.033 50.7279L54.2163 46.5782L53.3461 46.0742L46.1578 50.2264L47.033 50.7279Z" fill="#1D1D1B"/>
<path d="M51.3916 47.7065L50.2706 47.0599L47.3771 48.7293L48.4981 49.3783L51.3916 47.7065Z" fill="#1D1D1B"/>
<path d="M44.7075 49.3856L51.8909 45.2383L51.0231 44.7368L43.8373 48.8841L44.7075 49.3856Z" fill="#1D1D1B"/>
<path d="M49.0243 46.3913L47.9033 45.7448L45.0073 47.414L46.1283 48.063L49.0243 46.3913Z" fill="#1D1D1B"/>
<path d="M42.3843 48.0459L49.5701 43.8986L48.6974 43.3947L41.5116 47.5419L42.3843 48.0459Z" fill="#1D1D1B"/>
<path d="M46.6544 45.0763L45.5334 44.4298L42.6376 46.1014L43.7586 46.7479L46.6544 45.0763Z" fill="#1D1D1B"/>
<path d="M40.0564 46.7036L47.2446 42.5539L46.3768 42.0548L39.1886 46.2046L40.0564 46.7036Z" fill="#1D1D1B"/>
<path d="M44.2845 43.7609L43.1636 43.1144L40.2701 44.786L41.3911 45.4325L44.2845 43.7609Z" fill="#1D1D1B"/>
<path d="M37.7355 45.3615L44.9213 41.2166L44.0485 40.7126L41.4796 42.1926L38.5934 43.8692L36.8677 44.8624L37.7355 45.3615Z" fill="#1D1D1B"/>
<path d="M41.9172 42.4482L40.7962 41.7992L37.9003 43.471L39.0213 44.1176L41.9172 42.4482Z" fill="#1D1D1B"/>
<path d="M35.41 44.019L42.5934 39.8718L41.7256 39.3728L34.5422 43.52L35.41 44.019Z" fill="#1D1D1B"/>
<path d="M39.5475 41.133L38.4265 40.484L35.5305 42.1557L36.654 42.8022L39.5475 41.133Z" fill="#1D1D1B"/>
<path d="M33.0843 42.6818L40.2725 38.5321L39.4071 38.0306L32.219 42.1803L33.0843 42.6818Z" fill="#1D1D1B"/>
<path d="M37.1799 39.8154L36.0565 39.1688L33.1654 40.8381L34.2864 41.4871L37.1799 39.8154Z" fill="#1D1D1B"/>
<path d="M30.7587 41.3419L37.9469 37.1897L37.0791 36.6882L29.8909 40.838L30.7587 41.3419Z" fill="#1D1D1B"/>
<path d="M34.8101 38.5001L33.6891 37.8535L30.7957 39.5252L31.9166 40.1718L34.8101 38.5001Z" fill="#1D1D1B"/>
<path d="M28.4404 39.9998L35.6238 35.85L34.7609 35.3485L27.5702 39.5007L28.4404 39.9998Z" fill="#1D1D1B"/>
<path d="M32.4426 37.1849L31.3216 36.5383L28.4281 38.2076L29.5491 38.8566L32.4426 37.1849Z" fill="#1D1D1B"/>
<path d="M26.1125 38.6575L33.2959 34.5076L32.4355 34.0037L25.2472 38.1559L26.1125 38.6575Z" fill="#1D1D1B"/>
<path d="M30.0753 35.8696L28.9543 35.223L26.0583 36.8947L27.1794 37.5413L30.0753 35.8696Z" fill="#1D1D1B"/>
<path d="M23.7501 37.3422L30.9382 33.1924C30.5277 33.0129 30.1294 32.9072 29.7582 32.8728L22.548 37.0349C22.9241 37.0594 23.3297 37.1602 23.7501 37.3422Z" fill="#1D1D1B"/>
<path d="M24.8121 36.2236L27.7031 34.5544L27.2704 34.3061L26.7935 34.0259L23.9049 35.7049L24.3794 35.9753L24.8121 36.2236Z" fill="#1D1D1B"/>
<path d="M62.8993 60.2343L70.0801 56.087C69.8637 55.8632 69.6376 55.6518 69.4065 55.4625L62.2281 59.6098C62.4592 59.7991 62.6829 60.0105 62.8993 60.2343Z" fill="#363522"/>
<path d="M67.366 57.1514L66.6407 56.2566L63.7448 57.9307L64.47 58.8231L67.366 57.1514Z" fill="#363522"/>
<path d="M62.8993 60.2343L70.0801 56.087C69.8637 55.8632 69.6376 55.6518 69.4065 55.4625L62.2281 59.6098C62.4592 59.7991 62.6829 60.0105 62.8993 60.2343Z" fill="#1D1D1B"/>
<path d="M67.366 57.1514L66.6407 56.2566L63.7448 57.9307L64.47 58.8231L67.366 57.1514Z" fill="#1D1D1B"/>
<path d="M64.3916 62.1639L71.5626 58.0217C71.4102 57.7612 71.2455 57.5153 71.0734 57.2744L63.8975 61.4166C64.0769 61.6575 64.2367 61.9058 64.3916 62.1639Z" fill="#363522"/>
<path d="M68.9373 59.0247L68.3227 58.0487L65.4292 59.7204L66.0438 60.6989L68.9373 59.0247Z" fill="#363522"/>
<path d="M64.3916 62.1639L71.5626 58.0217C71.4102 57.7612 71.2455 57.5153 71.0734 57.2744L63.8975 61.4166C64.0769 61.6575 64.2367 61.9058 64.3916 62.1639Z" fill="#1D1D1B"/>
<path d="M68.9373 59.0247L68.3227 58.0487L65.4292 59.7204L66.0438 60.6989L68.9373 59.0247Z" fill="#1D1D1B"/>
<path d="M65.4241 64.3938L72.5852 60.2587C72.4967 59.9736 72.3959 59.6958 72.2755 59.418L65.1045 63.5604C65.2274 63.8284 65.3307 64.1111 65.4241 64.3938Z" fill="#363522"/>
<path d="M70.1439 61.1586L69.7334 60.0844L66.8374 61.7536L67.248 62.8303L70.1439 61.1586Z" fill="#363522"/>
<path d="M65.4241 64.3938L72.5852 60.2587C72.4967 59.9736 72.3959 59.6958 72.2755 59.418L65.1045 63.5604C65.2274 63.8284 65.3307 64.1111 65.4241 64.3938Z" fill="#1D1D1B"/>
<path d="M70.1439 61.1586L69.7334 60.0844L66.8374 61.7536L67.248 62.8303L70.1439 61.1586Z" fill="#1D1D1B"/>
<path d="M65.8395 66.9381L72.9982 62.8056C73.0006 62.7687 73.0006 62.7294 72.9982 62.6876C73.0031 62.4147 72.9834 62.1271 72.9416 61.8444L65.7854 65.9793C65.8297 66.2719 65.8469 66.5669 65.8444 66.8521C65.8444 66.8816 65.8419 66.9111 65.8395 66.9381Z" fill="#363522"/>
<path d="M70.8127 63.5728L70.5841 62.4248L67.6906 64.0939L67.9167 65.2419L70.8127 63.5728Z" fill="#363522"/>
<path d="M65.8395 66.9381L72.9982 62.8056C73.0006 62.7687 73.0006 62.7294 72.9982 62.6876C73.0031 62.4147 72.9834 62.1271 72.9416 61.8444L65.7854 65.9793C65.8297 66.2719 65.8469 66.5669 65.8444 66.8521C65.8444 66.8816 65.8419 66.9111 65.8395 66.9381Z" fill="#1D1D1B"/>
<path d="M70.8127 63.5728L70.5841 62.4248L67.6906 64.0939L67.9167 65.2419L70.8127 63.5728Z" fill="#1D1D1B"/>
<path d="M64.507 69.7922L71.6632 65.6303C72.0615 65.3943 72.3885 65.0403 72.6146 64.5658L65.4829 68.6835C65.2518 69.1801 64.9175 69.5513 64.507 69.7922Z" fill="#363522"/>
<path d="M70.8126 66.0014L70.9896 64.8805L68.0961 66.5496L67.9166 67.6705L70.8126 66.0014Z" fill="#363522"/>
<path d="M64.507 69.7922L71.6632 65.6303C72.0615 65.3943 72.3885 65.0403 72.6146 64.5658L65.4829 68.6835C65.2518 69.1801 64.9175 69.5513 64.507 69.7922Z" fill="#1D1D1B"/>
<path d="M70.8126 66.0014L70.9896 64.8805L68.0961 66.5496L67.9166 67.6705L70.8126 66.0014Z" fill="#1D1D1B"/>
<path d="M14.8339 43.7411L14.8584 51.6324L53.9731 74.3623L53.9535 66.471L14.8339 43.7411Z" fill="#363522"/>
<path d="M14.8339 43.7411L14.8584 51.6324L53.9731 74.3623L53.9535 66.471L14.8339 43.7411Z" fill="#1D1D1B"/>
<path d="M53.9534 66.4711L53.973 74.3623L61.449 70.048L61.4293 62.1567L53.9534 66.4711Z" fill="#607A4E"/>
<path d="M14.8337 43.7412L53.9535 66.4711L61.4293 62.1567L22.3096 39.4243L14.8337 43.7412Z" fill="#C43338"/>
<path d="M41.4771 80.7785C44.0068 82.2388 46.0619 81.0686 46.0693 78.1604C46.0791 75.2546 44.0363 71.7195 41.5091 70.2593L4.59453 48.9528C2.06735 47.4925 0.0121711 48.6651 0.00479609 51.5684C-0.0050373 54.4791 2.03785 58.0142 4.56503 59.4745L41.4771 80.7785Z" fill="#331D27"/>
<path d="M44.228 80.2352C44.4836 80.0853 44.6827 79.8394 44.8253 79.5149C44.9827 79.1511 45.0712 78.6889 45.0712 78.1555C45.0712 76.9411 44.636 75.4882 43.8739 74.1656C43.1119 72.8455 42.0671 71.7368 41.0124 71.1246L4.09788 49.8231C3.62833 49.5502 3.17354 49.388 2.77283 49.3437C2.42128 49.3044 2.1017 49.3536 1.84849 49.4986C1.31503 49.8083 1.01019 50.5631 1.00773 51.571C1.00281 52.7879 1.4404 54.2457 2.20003 55.5658C2.96704 56.8884 4.01183 57.9971 5.06155 58.6067L41.9786 79.9107C42.8734 80.427 43.6945 80.5425 44.228 80.2352Z" fill="#405234"/>
<path d="M44.8255 79.515C44.9828 79.1512 45.0713 78.689 45.0713 78.1555C45.0713 76.9411 44.6362 75.4882 43.8741 74.1657C43.112 72.8455 42.0672 71.7368 41.0126 71.1247L4.098 49.8231C3.62845 49.5503 3.17366 49.388 2.77295 49.3438C2.61315 49.7076 2.52957 50.1673 2.52711 50.6958C2.52465 51.9127 2.95978 53.3681 3.71941 54.6882C4.48641 56.0132 5.52875 57.122 6.58093 57.7292L43.4979 79.0356C43.9724 79.3036 44.4272 79.4658 44.8255 79.515Z" fill="#1D1D1B"/>
<path d="M4.03155 48.1392L2.05505 49.2799L7.39701 58.5306L9.37105 57.3899C10.0545 56.9966 10.4773 56.1485 10.4773 54.9463C10.4773 52.5396 7.95013 50.0911 5.86301 48.889C4.82068 48.2867 4.71497 47.7459 4.03155 48.1392Z" fill="#405234"/>
<path d="M0.951294 51.7234C0.951294 49.3167 2.64263 48.3407 4.7273 49.5429C6.81198 50.7475 8.50085 53.6778 8.50085 56.0846C8.50085 58.4913 6.81198 59.4697 4.7273 58.2651C2.64263 57.0605 0.951294 54.1326 0.951294 51.7234Z" fill="#94BD78"/>
<path d="M2.46329 49.9904C2.58375 49.9216 2.71896 49.8773 2.864 49.8601C3.27208 49.8085 3.7785 49.9388 4.31933 50.251C5.18958 50.7549 6.05492 51.6719 6.68917 52.7683C7.32342 53.8672 7.6848 55.0742 7.68726 56.0846C7.6848 56.7041 7.54713 57.213 7.29884 57.5375C7.21034 57.6579 7.10463 57.7538 6.98663 57.8226C6.54413 58.0783 5.87054 57.9775 5.1355 57.5571C4.26279 57.0532 3.39746 56.1362 2.76321 55.0373C2.12895 53.9409 1.76758 52.7339 1.76758 51.726C1.76758 50.8754 2.0257 50.2461 2.46329 49.9904Z" fill="#363522"/>
<path d="M2.86388 49.8601C3.27196 49.8085 3.77838 49.9388 4.31921 50.251C5.18947 50.7549 6.0548 51.6719 6.68905 52.7683C7.3233 53.8672 7.68468 55.0743 7.68713 56.0847C7.68468 56.7042 7.54701 57.213 7.29872 57.5375C6.89309 57.5916 6.38422 57.4613 5.84338 57.1491C4.97067 56.6427 4.10534 55.7257 3.47109 54.6293C2.83684 53.5329 2.47546 52.3234 2.47546 51.3179C2.47546 50.691 2.61559 50.1846 2.86388 49.8601Z" fill="#405234"/>
<path d="M4.44703 52.3307C4.48882 52.3086 4.53061 52.2938 4.58224 52.2865C4.71744 52.2692 4.88461 52.316 5.06407 52.4192C5.35416 52.5864 5.63932 52.8888 5.85074 53.2551C6.0597 53.6189 6.18262 54.0221 6.18262 54.3565C6.18262 54.563 6.13591 54.7301 6.05233 54.8383C6.02283 54.8801 5.98841 54.9096 5.94907 54.9317C5.80157 55.0178 5.58032 54.9834 5.33449 54.8457C5.0444 54.6785 4.75678 54.3737 4.54782 54.0074C4.3364 53.6435 4.21594 53.2403 4.21594 52.9084C4.21594 52.6257 4.29953 52.4167 4.44703 52.3307Z" fill="#1D1D1B"/>
<path d="M13.2897 53.6213L11.3132 54.7595L16.6552 64.0127L18.6317 62.8696C19.3126 62.4762 19.7355 61.6306 19.7355 60.426C19.7355 58.0192 17.2083 55.5732 15.1212 54.3686C14.0789 53.7639 13.9731 53.2255 13.2897 53.6213Z" fill="#405234"/>
<path d="M10.2095 57.2055C10.2095 54.7987 11.9008 53.8203 13.9855 55.0249C16.0701 56.2271 17.7615 59.1574 17.7615 61.5642C17.7615 63.9709 16.0701 64.9493 13.9855 63.7447C11.8983 62.5426 10.2095 59.6122 10.2095 57.2055Z" fill="#94BD78"/>
<path d="M11.7238 55.4699C11.8418 55.4011 11.9746 55.3593 12.1221 55.3396C12.5302 55.288 13.0391 55.4207 13.5774 55.7329C14.4502 56.2344 15.3131 57.1539 15.9473 58.2503C16.5816 59.3467 16.943 60.5562 16.9454 61.5642C16.943 62.1861 16.8053 62.6926 16.557 63.0195C16.4685 63.14 16.3653 63.2359 16.2448 63.3022C15.8023 63.5579 15.1287 63.4596 14.3936 63.0392C13.5209 62.5328 12.6555 61.6158 12.0213 60.5194C11.387 59.4229 11.0256 58.2134 11.0256 57.2055C11.0256 56.3549 11.2813 55.7231 11.7238 55.4699Z" fill="#363522"/>
<path d="M12.1221 55.3396C12.5301 55.288 13.039 55.4207 13.5774 55.7329C14.4501 56.2344 15.313 57.1539 15.9472 58.2503C16.5815 59.3467 16.9429 60.5562 16.9453 61.5641C16.9429 62.1861 16.8052 62.6925 16.5569 63.0195C16.1513 63.0736 15.6424 62.9408 15.1016 62.6311C14.2289 62.1246 13.3635 61.2077 12.7293 60.1112C12.095 59.0124 11.7336 57.8053 11.7336 56.7974C11.7361 56.1705 11.8713 55.6666 12.1221 55.3396Z" fill="#405234"/>
<path d="M13.7052 57.8126C13.747 57.7881 13.7912 57.7758 13.8404 57.7684C13.9756 57.7512 14.1452 57.7954 14.3222 57.8987C14.6123 58.0659 14.8975 58.3707 15.1089 58.737C15.3203 59.1033 15.4408 59.5016 15.4408 59.8359C15.4408 60.0424 15.3941 60.2096 15.3105 60.3178C15.281 60.3596 15.249 60.3891 15.2073 60.4136C15.0598 60.4972 14.8385 60.4653 14.5927 60.3251C14.3026 60.158 14.0174 59.8531 13.806 59.4868C13.5946 59.1205 13.4741 58.7247 13.4741 58.3879C13.4741 58.1077 13.5602 57.8962 13.7052 57.8126Z" fill="#1D1D1B"/>
<path d="M22.6021 59.0493L20.6256 60.1899L25.9676 69.4407L27.9416 68.3C28.625 67.9042 29.0479 67.0585 29.0479 65.854C29.0479 63.4472 27.3565 60.5169 25.2719 59.3148C24.2295 58.71 23.2831 58.6559 22.6021 59.0493Z" fill="#405234"/>
<path d="M19.5194 62.6336C19.5194 60.2269 21.2108 59.2509 23.2955 60.453C25.3826 61.6576 27.0715 64.5855 27.0715 66.9947C27.0715 69.4014 25.3802 70.3774 23.2955 69.1753C21.2083 67.9707 19.5194 65.0403 19.5194 62.6336Z" fill="#94BD78"/>
<path d="M21.0338 60.8979C21.1518 60.8315 21.2895 60.7872 21.4346 60.7676C21.8402 60.7159 22.3491 60.8487 22.8899 61.1609C23.7602 61.6649 24.6255 62.5818 25.2597 63.6783C25.894 64.7747 26.2554 65.9842 26.2554 66.9946C26.2554 67.6141 26.1177 68.123 25.8694 68.4475C25.7809 68.568 25.6752 68.6638 25.5572 68.7327C25.1147 68.9883 24.4411 68.8875 23.7061 68.4672C22.8334 67.9607 21.968 67.0438 21.3338 65.9473C20.6995 64.8509 20.3381 63.6414 20.3381 62.6359C20.3381 61.7853 20.5913 61.1535 21.0338 60.8979Z" fill="#363522"/>
<path d="M21.4344 60.7676C21.8401 60.7159 22.3489 60.8487 22.8898 61.1609C23.76 61.6649 24.6254 62.5819 25.2596 63.6783C25.8939 64.7747 26.2552 65.9843 26.2552 66.9947C26.2552 67.6142 26.1176 68.1231 25.8693 68.4476C25.4637 68.5017 24.9548 68.3689 24.4115 68.0592C23.5412 67.5527 22.6759 66.6357 22.0416 65.5393C21.4074 64.4429 21.046 63.2333 21.046 62.2279C21.046 61.601 21.1837 61.0945 21.4344 60.7676Z" fill="#405234"/>
<path d="M23.0176 63.241C23.0594 63.2189 23.1012 63.2041 23.1528 63.1967C23.288 63.1795 23.4552 63.2262 23.6346 63.3295C23.9247 63.4942 24.2099 63.799 24.4213 64.1653C24.6303 64.5291 24.7532 64.9322 24.7532 65.2665C24.7532 65.473 24.704 65.6402 24.6229 65.7483C24.5934 65.7901 24.559 65.8196 24.5196 65.8418C24.3721 65.9253 24.1484 65.8934 23.905 65.7557C23.615 65.5861 23.3273 65.2837 23.1184 64.9175C22.907 64.5537 22.7865 64.1505 22.7865 63.8187C22.7865 63.536 22.8701 63.327 23.0176 63.241Z" fill="#1D1D1B"/>
<path d="M31.9142 64.4773L29.9377 65.618L35.2772 74.8688L37.2537 73.7281C37.9372 73.3348 38.36 72.4891 38.36 71.2845C38.36 68.8778 35.8304 66.4293 33.7457 65.2271C32.7009 64.6224 32.5952 64.084 31.9142 64.4773Z" fill="#405234"/>
<path d="M28.8315 68.0642C28.8315 65.655 30.5229 64.6791 32.6075 65.8812C34.6947 67.0858 36.3835 70.0161 36.3835 72.4228C36.3835 74.8294 34.6922 75.8078 32.6075 74.6033C30.5204 73.4012 28.8315 70.4709 28.8315 68.0642Z" fill="#94BD78"/>
<path d="M30.3459 66.3285C30.4639 66.2597 30.6015 66.2154 30.7441 66.1958C31.1522 66.1442 31.6611 66.2794 32.1995 66.5916C33.0722 67.0931 33.9375 68.0125 34.5718 69.1089C35.2035 70.2053 35.5674 71.4123 35.5674 72.4227C35.5674 73.0422 35.4273 73.5511 35.1814 73.878C35.0929 73.9985 34.9872 74.0919 34.8692 74.1608C34.4267 74.4164 33.7507 74.3181 33.0156 73.8977C32.1429 73.3913 31.2776 72.4743 30.6458 71.3779C30.0115 70.2791 29.6501 69.072 29.6501 68.0641C29.6501 67.2135 29.9034 66.5817 30.3459 66.3285Z" fill="#363522"/>
<path d="M30.7441 66.1958C31.1522 66.1442 31.6611 66.2794 32.1995 66.5916C33.0722 67.0931 33.9375 68.0125 34.5718 69.1089C35.2035 70.2053 35.5674 71.4123 35.5674 72.4227C35.5674 73.0422 35.4273 73.5511 35.1814 73.878C34.7733 73.9321 34.2669 73.7993 33.7236 73.4871C32.8509 72.9832 31.988 72.0662 31.3538 70.9674C30.7195 69.871 30.3557 68.6639 30.3582 67.656C30.3582 67.0292 30.4983 66.5252 30.7441 66.1958Z" fill="#405234"/>
<path d="M32.3297 68.6712C32.3691 68.6466 32.4133 68.6319 32.4625 68.627C32.6002 68.6073 32.7673 68.654 32.9468 68.7573C33.2344 68.9244 33.522 69.2293 33.731 69.5956C33.9424 69.9569 34.0628 70.3601 34.0653 70.6944C34.0628 70.901 34.0161 71.0681 33.935 71.1763C33.9055 71.2181 33.8711 71.2476 33.8318 71.2722C33.6843 71.3558 33.4606 71.3238 33.2147 71.1837C32.9271 71.0165 32.6395 70.7117 32.4305 70.3454C32.2191 69.9815 32.0962 69.5784 32.0987 69.2465C32.0987 68.9638 32.1823 68.7548 32.3297 68.6712Z" fill="#1D1D1B"/>
<path d="M41.2239 69.9077L39.2474 71.0484L44.5894 80.2991L46.5659 79.1585C47.2493 78.7627 46.8314 78.4013 46.8314 77.1967C46.8314 74.79 45.9784 71.3754 43.8961 70.1732C42.8514 69.5685 41.9074 69.5119 41.2239 69.9077Z" fill="#363522"/>
<path d="M38.1437 73.4921C38.1437 71.0854 39.835 70.1069 41.9197 71.3115C44.0068 72.5137 45.6957 75.444 45.6957 77.8507C45.6957 80.2574 44.0043 81.2358 41.9197 80.0312C39.8326 78.8291 38.1437 75.8988 38.1437 73.4921Z" fill="#94BD78"/>
<path d="M39.658 71.7564C39.776 71.69 39.9112 71.6458 40.0563 71.6261C40.4643 71.5745 40.9732 71.7072 41.5116 72.0194C42.3843 72.5209 43.2496 73.4404 43.8814 74.5368C44.5157 75.6332 44.8771 76.8427 44.8795 77.8507C44.8795 78.4726 44.7394 78.9791 44.4911 79.306C44.4051 79.4265 44.2993 79.5224 44.1813 79.5887C43.7388 79.8444 43.0628 79.7461 42.3278 79.3257C41.455 78.8193 40.5922 77.9023 39.9555 76.8059C39.3237 75.7094 38.9598 74.4999 38.9623 73.4944C38.9623 72.6414 39.2155 72.0096 39.658 71.7564Z" fill="#363522"/>
<path d="M40.0563 71.6261C40.4643 71.5745 40.9732 71.7072 41.5116 72.0194C42.3843 72.5209 43.2496 73.4404 43.8814 74.5368C44.5157 75.6332 44.8771 76.8427 44.8795 77.8506C44.8795 78.4726 44.7394 78.979 44.4911 79.306C44.0855 79.3601 43.5791 79.2273 43.0358 78.9176C42.1631 78.4111 41.2977 77.4942 40.6635 76.3977C40.0292 75.3013 39.6678 74.0918 39.6703 73.0839C39.6703 72.457 39.8104 71.953 40.0563 71.6261Z" fill="#405234"/>
<path d="M41.6419 74.0993C41.6812 74.0771 41.7255 74.0624 41.7746 74.055C41.9098 74.0378 42.0795 74.0821 42.2565 74.1878C42.5465 74.3525 42.8342 74.6573 43.0431 75.0236C43.2545 75.3875 43.375 75.7906 43.375 76.1225C43.375 76.329 43.3283 76.4962 43.2472 76.6068C43.2152 76.6462 43.1832 76.6781 43.1439 76.7003C42.994 76.7839 42.7727 76.7519 42.5269 76.6118C42.2368 76.4446 41.9516 76.1397 41.7402 75.7734C41.5288 75.4121 41.4083 75.0089 41.4083 74.6745C41.4083 74.3943 41.4944 74.1828 41.6419 74.0993Z" fill="#1D1D1B"/>
<path d="M44.7347 81.0957L51.8934 76.9337C52.2892 76.6977 52.6186 76.3437 52.8448 75.8693C53.0758 75.4022 53.2111 74.8048 53.2258 74.1091C53.2283 74.0722 53.2283 74.0329 53.2283 73.9911C53.2332 73.7182 53.2135 73.4306 53.1717 73.1503C53.1152 72.6267 52.9947 72.0883 52.8153 71.5623C52.7268 71.2771 52.626 70.9993 52.5055 70.7215C52.3039 70.2421 52.0679 69.775 51.7926 69.3276C51.6402 69.0695 51.4755 68.8212 51.3034 68.5803C50.9985 68.1525 50.6691 67.7518 50.3127 67.3929C50.0963 67.1717 49.8702 66.9602 49.6391 66.7685C49.3269 66.5104 48.9999 66.2817 48.668 66.0924L48.3902 65.9302L47.52 65.4311L46.0646 64.5904L45.1944 64.0913L43.7366 63.2481L42.8663 62.7491L41.4159 61.9083L40.5456 61.4068L39.0854 60.5661L38.2176 60.0646L36.7598 59.2263L35.8969 58.7248L34.4391 57.884L33.5688 57.3801L32.111 56.5418L31.2432 56.0427L29.7904 55.202L28.9152 54.698L27.4648 53.8573L26.5945 53.3582L25.1392 52.5199L24.2689 52.016L22.8136 51.1777L21.9433 50.6762L20.4904 49.8354L19.6226 49.3364L18.1624 48.4932L17.3093 47.9941L15.8515 47.1583L14.9886 46.6543L13.5259 45.8136L12.663 45.3121L11.7559 44.7884C11.5543 44.6729 11.3601 44.577 11.1708 44.4959C10.7603 44.3164 10.362 44.2107 9.99081 44.1763C9.42785 44.1198 8.92143 44.2206 8.50105 44.4688L7.02359 45.3342C7.01867 45.3366 4.13748 47.0132 4.13748 47.0132L1.35217 48.6333C1.76026 48.3948 2.24455 48.2965 2.78047 48.3407C3.15414 48.3678 3.55977 48.4686 3.98261 48.648C4.18173 48.7341 4.39069 48.8349 4.59965 48.9553L5.47482 49.4617L6.34508 49.9632L7.80288 50.8065L8.67314 51.3055L10.126 52.1463L10.9938 52.6478L12.4516 53.4885L13.3219 53.99L14.7797 54.8283L15.6475 55.3298L17.1077 56.1706L17.9755 56.6721L19.4284 57.5128L20.2987 58.0119L21.754 58.8502L22.6243 59.3566L24.0821 60.1924L24.9499 60.6939L26.4028 61.5347L27.2779 62.0362L28.7284 62.8769L29.5986 63.3784L31.0515 64.2192L31.9193 64.7182L33.3796 65.5614L34.2473 66.0629L35.7051 66.8988L36.5729 67.4003L38.0332 68.2435L38.901 68.7425L40.3539 69.5833L41.2241 70.0848L41.5339 70.2618C41.8584 70.4511 42.178 70.6723 42.4828 70.9206C42.7139 71.1099 42.9401 71.3213 43.1539 71.545C43.5129 71.904 43.8447 72.3047 44.1496 72.7275C44.3266 72.9684 44.4888 73.2143 44.6437 73.4748C44.9166 73.9198 45.1575 74.3869 45.3566 74.8687C45.4771 75.1391 45.5828 75.4218 45.6762 75.7021C45.8483 76.2356 45.9737 76.7715 46.0351 77.2902C46.0794 77.5852 46.0966 77.8802 46.0917 78.1629C46.0917 78.1949 46.0917 78.2219 46.0892 78.2465C46.0769 78.9299 45.954 79.5175 45.7303 79.9944C45.482 80.4836 45.1477 80.8597 44.7347 81.0957Z" fill="#405234"/>
<path d="M41.4699 80.7664L4.56027 59.4647C2.03309 58.0045 -0.00979804 54.4693 3.53511e-05 51.5586C0.00741039 48.6529 2.06259 47.4827 4.58977 48.943L41.5043 70.2446C44.0315 71.7073 46.0719 75.2425 46.0646 78.1482C46.0572 81.054 44.002 82.2242 41.4699 80.7664ZM44.8182 79.5003C44.9755 79.139 45.064 78.6768 45.064 78.1433C45.064 76.9289 44.6289 75.476 43.8668 74.1534C43.1047 72.8333 42.0599 71.7246 41.0053 71.11L4.09073 49.8108C3.62118 49.5379 3.16639 49.3756 2.76568 49.3314C2.41167 49.292 2.09455 49.3437 1.84134 49.4863C1.30788 49.7935 1.00304 50.5507 1.00058 51.5586C0.995666 52.7755 1.43325 54.2333 2.19288 55.551C2.95989 56.8761 4.00223 57.9848 5.0544 58.5945L41.9714 79.8986C42.8638 80.4124 43.6849 80.5304 44.2183 80.2231C44.4765 80.0731 44.6731 79.8273 44.8182 79.5003Z" fill="#1D1D1B"/>
<path d="M41.1995 70.08L48.3876 65.9303L47.5173 65.4288L40.3317 69.5785L41.1995 70.08Z" fill="#363522"/>
<path d="M45.8334 66.9038L44.7124 66.2548L41.8164 67.9264L42.9374 68.5754L45.8334 66.9038Z" fill="#363522"/>
<path d="M38.8788 68.7375L46.0646 64.5904L45.1943 64.0889L38.011 68.2385L38.8788 68.7375Z" fill="#363522"/>
<path d="M43.4636 65.5883L42.3426 64.9418L39.4467 66.6135L40.5701 67.26L43.4636 65.5883Z" fill="#363522"/>
<path d="M36.5506 67.3954L43.7365 63.2481L42.8686 62.749L35.6853 66.8939L36.5506 67.3954Z" fill="#363522"/>
<path d="M41.0962 64.2758L39.9727 63.6268L37.0792 65.2984L38.2002 65.9449L41.0962 64.2758Z" fill="#363522"/>
<path d="M34.2276 66.058L41.4183 61.9084L40.5481 61.4069L33.3623 65.5565L34.2276 66.058Z" fill="#363522"/>
<path d="M38.7263 62.958L37.6053 62.3114L34.7095 63.9831L35.8305 64.6296L38.7263 62.958Z" fill="#363522"/>
<path d="M31.902 64.7134L39.0902 60.5661L38.2224 60.0646L31.0342 64.2143L31.902 64.7134Z" fill="#363522"/>
<path d="M36.3564 61.6429L35.2355 60.9963L32.3445 62.6656L33.4655 63.3146L36.3564 61.6429Z" fill="#363522"/>
<path d="M29.5839 63.3735L36.7646 59.2262L35.9042 58.7247L28.7136 62.872L29.5839 63.3735Z" fill="#363522"/>
<path d="M33.9894 60.3275L32.8684 59.6809L29.9749 61.3501L31.0959 61.9991L33.9894 60.3275Z" fill="#363522"/>
<path d="M27.2631 62.0336L34.4464 57.884L33.5786 57.38L26.3879 61.5296L27.2631 62.0336Z" fill="#363522"/>
<path d="M31.6217 59.0124L30.5007 58.3634L27.6047 60.0351L28.7282 60.6841L31.6217 59.0124Z" fill="#363522"/>
<path d="M24.9351 60.6915L32.1208 56.5419L31.253 56.0428L24.0673 60.19L24.9351 60.6915Z" fill="#363522"/>
<path d="M29.2518 57.6972L28.1308 57.0507L25.2374 58.7223L26.3584 59.3689L29.2518 57.6972Z" fill="#363522"/>
<path d="M22.6118 59.3541L29.8 55.2021L28.9249 54.6981L21.7416 58.8477L22.6118 59.3541Z" fill="#363522"/>
<path d="M26.8845 56.3845L25.7635 55.7355L22.8676 57.4072L23.9886 58.0537L26.8845 56.3845Z" fill="#363522"/>
<path d="M20.2864 58.0094L27.4746 53.8572L26.6068 53.3582L19.4186 57.5104L20.2864 58.0094Z" fill="#363522"/>
<path d="M24.5146 55.0692L23.3936 54.4202L20.5001 56.0919L21.6211 56.7384L24.5146 55.0692Z" fill="#363522"/>
<path d="M17.9655 56.6697L25.1512 52.52L24.2785 52.016L21.7095 53.5008L18.8234 55.175L17.0977 56.1682L17.9655 56.6697Z" fill="#363522"/>
<path d="M22.1472 53.7515L21.0262 53.105L18.1304 54.7742L19.2513 55.4232L22.1472 53.7515Z" fill="#363522"/>
<path d="M15.64 55.3274L22.8234 51.1801L21.9556 50.6761L14.7722 54.8259L15.64 55.3274Z" fill="#363522"/>
<path d="M19.7773 52.4363L18.6563 51.7897L15.7604 53.459L16.8814 54.108L19.7773 52.4363Z" fill="#363522"/>
<path d="M13.3143 53.9875L20.5026 49.8379L19.6372 49.3364L12.4465 53.4861L13.3143 53.9875Z" fill="#363522"/>
<path d="M17.4075 51.1211L16.2865 50.472L13.3955 52.1438L14.5165 52.7928L17.4075 51.1211Z" fill="#363522"/>
<path d="M10.989 52.6453L18.1771 48.4956L17.3093 47.9941L10.1212 52.1438L10.989 52.6453Z" fill="#363522"/>
<path d="M15.0404 49.8059L13.9194 49.1593L11.0259 50.831L12.1469 51.4775L15.0404 49.8059Z" fill="#363522"/>
<path d="M8.67054 51.303L15.8538 47.1583L14.9909 46.6543L7.80029 50.8039L8.67054 51.303Z" fill="#363522"/>
<path d="M12.6726 48.4931L11.5516 47.8441L8.6582 49.5158L9.77919 50.1624L12.6726 48.4931Z" fill="#363522"/>
<path d="M6.34264 49.9607L13.5259 45.8135L12.663 45.312L5.47485 49.4592L6.34264 49.9607Z" fill="#363522"/>
<path d="M10.3057 47.1778L9.18219 46.5288L6.2887 48.2005L7.40971 48.847L10.3057 47.1778Z" fill="#363522"/>
<path d="M3.98009 48.6455L11.1683 44.4959C10.7578 44.3164 10.3595 44.2107 9.98832 44.1763L2.77795 48.3382C3.15408 48.3653 3.55971 48.4661 3.98009 48.6455Z" fill="#363522"/>
<path d="M5.04203 47.5294L7.93311 45.8578L7.50043 45.612L7.02104 45.3342L4.13489 47.0107L4.60936 47.2811L5.04203 47.5294Z" fill="#363522"/>
<path d="M41.1995 70.08L48.3876 65.9303L47.5173 65.4288L40.3317 69.5785L41.1995 70.08Z" fill="#1D1D1B"/>
<path d="M45.8334 66.9038L44.7124 66.2548L41.8164 67.9264L42.9374 68.5754L45.8334 66.9038Z" fill="#1D1D1B"/>
<path d="M38.8788 68.7375L46.0646 64.5904L45.1943 64.0889L38.011 68.2385L38.8788 68.7375Z" fill="#1D1D1B"/>
<path d="M43.4636 65.5883L42.3426 64.9418L39.4467 66.6135L40.5701 67.26L43.4636 65.5883Z" fill="#1D1D1B"/>
<path d="M36.5506 67.3954L43.7365 63.2481L42.8686 62.749L35.6853 66.8939L36.5506 67.3954Z" fill="#1D1D1B"/>
<path d="M41.0962 64.2758L39.9727 63.6268L37.0792 65.2984L38.2002 65.9449L41.0962 64.2758Z" fill="#1D1D1B"/>
<path d="M34.2276 66.058L41.4183 61.9084L40.5481 61.4069L33.3623 65.5565L34.2276 66.058Z" fill="#1D1D1B"/>
<path d="M38.7263 62.958L37.6053 62.3114L34.7095 63.9831L35.8305 64.6296L38.7263 62.958Z" fill="#1D1D1B"/>
<path d="M31.902 64.7134L39.0902 60.5661L38.2224 60.0646L31.0342 64.2143L31.902 64.7134Z" fill="#1D1D1B"/>
<path d="M36.3564 61.6429L35.2355 60.9963L32.3445 62.6656L33.4655 63.3146L36.3564 61.6429Z" fill="#1D1D1B"/>
<path d="M29.5839 63.3735L36.7646 59.2262L35.9042 58.7247L28.7136 62.872L29.5839 63.3735Z" fill="#1D1D1B"/>
<path d="M33.9894 60.3275L32.8684 59.6809L29.9749 61.3501L31.0959 61.9991L33.9894 60.3275Z" fill="#1D1D1B"/>
<path d="M27.2631 62.0336L34.4464 57.884L33.5786 57.38L26.3879 61.5296L27.2631 62.0336Z" fill="#1D1D1B"/>
<path d="M31.6217 59.0124L30.5007 58.3634L27.6047 60.0351L28.7282 60.6841L31.6217 59.0124Z" fill="#1D1D1B"/>
<path d="M24.9351 60.6915L32.1208 56.5419L31.253 56.0428L24.0673 60.19L24.9351 60.6915Z" fill="#1D1D1B"/>
<path d="M29.2518 57.6972L28.1308 57.0507L25.2374 58.7223L26.3584 59.3689L29.2518 57.6972Z" fill="#1D1D1B"/>
<path d="M22.6118 59.3541L29.8 55.2021L28.9249 54.6981L21.7416 58.8477L22.6118 59.3541Z" fill="#1D1D1B"/>
<path d="M26.8845 56.3845L25.7635 55.7355L22.8676 57.4072L23.9886 58.0537L26.8845 56.3845Z" fill="#1D1D1B"/>
<path d="M20.2864 58.0094L27.4746 53.8572L26.6068 53.3582L19.4186 57.5104L20.2864 58.0094Z" fill="#1D1D1B"/>
<path d="M24.5146 55.0692L23.3936 54.4202L20.5001 56.0919L21.6211 56.7384L24.5146 55.0692Z" fill="#1D1D1B"/>
<path d="M17.9655 56.6697L25.1512 52.52L24.2785 52.016L21.7095 53.5008L18.8234 55.175L17.0977 56.1682L17.9655 56.6697Z" fill="#1D1D1B"/>
<path d="M22.1472 53.7515L21.0262 53.105L18.1304 54.7742L19.2513 55.4232L22.1472 53.7515Z" fill="#1D1D1B"/>
<path d="M15.64 55.3274L22.8234 51.1801L21.9556 50.6761L14.7722 54.8259L15.64 55.3274Z" fill="#1D1D1B"/>
<path d="M19.7773 52.4363L18.6563 51.7897L15.7604 53.459L16.8814 54.108L19.7773 52.4363Z" fill="#1D1D1B"/>
<path d="M13.3143 53.9875L20.5026 49.8379L19.6372 49.3364L12.4465 53.4861L13.3143 53.9875Z" fill="#1D1D1B"/>
<path d="M17.4075 51.1211L16.2865 50.472L13.3955 52.1438L14.5165 52.7928L17.4075 51.1211Z" fill="#1D1D1B"/>
<path d="M10.989 52.6453L18.1771 48.4956L17.3093 47.9941L10.1212 52.1438L10.989 52.6453Z" fill="#1D1D1B"/>
<path d="M15.0404 49.8059L13.9194 49.1593L11.0259 50.831L12.1469 51.4775L15.0404 49.8059Z" fill="#1D1D1B"/>
<path d="M8.67054 51.303L15.8538 47.1583L14.9909 46.6543L7.80029 50.8039L8.67054 51.303Z" fill="#1D1D1B"/>
<path d="M12.6726 48.4931L11.5516 47.8441L8.6582 49.5158L9.77919 50.1624L12.6726 48.4931Z" fill="#1D1D1B"/>
<path d="M6.34264 49.9607L13.5259 45.8135L12.663 45.312L5.47485 49.4592L6.34264 49.9607Z" fill="#1D1D1B"/>
<path d="M10.3057 47.1778L9.18219 46.5288L6.2887 48.2005L7.40971 48.847L10.3057 47.1778Z" fill="#1D1D1B"/>
<path d="M3.98009 48.6455L11.1683 44.4959C10.7578 44.3164 10.3595 44.2107 9.98832 44.1763L2.77795 48.3382C3.15408 48.3653 3.55971 48.4661 3.98009 48.6455Z" fill="#1D1D1B"/>
<path d="M5.04203 47.5294L7.93311 45.8578L7.50043 45.612L7.02104 45.3342L4.13489 47.0107L4.60936 47.2811L5.04203 47.5294Z" fill="#1D1D1B"/>
<path d="M43.1293 71.5402L50.3101 67.393C50.0937 67.1717 49.8676 66.9603 49.6365 66.7686L42.4581 70.9157C42.6892 71.105 42.9129 71.3165 43.1293 71.5402Z" fill="#363522"/>
<path d="M47.5934 68.4573L46.8682 67.5649L43.9747 69.2342L44.6999 70.129L47.5934 68.4573Z" fill="#363522"/>
<path d="M43.1293 71.5402L50.3101 67.393C50.0937 67.1717 49.8676 66.9603 49.6365 66.7686L42.4581 70.9157C42.6892 71.105 42.9129 71.3165 43.1293 71.5402Z" fill="#1D1D1B"/>
<path d="M47.5934 68.4573L46.8682 67.5649L43.9747 69.2342L44.6999 70.129L47.5934 68.4573Z" fill="#1D1D1B"/>
<path d="M44.6216 73.47L51.7926 69.3277C51.6402 69.0695 51.4755 68.8212 51.3034 68.5803L44.1274 72.7226C44.3044 72.9636 44.4642 73.2094 44.6216 73.47Z" fill="#363522"/>
<path d="M49.1672 70.3331L48.5527 69.3546L45.6592 71.0288L46.2738 72.0023L49.1672 70.3331Z" fill="#363522"/>
<path d="M44.6216 73.47L51.7926 69.3277C51.6402 69.0695 51.4755 68.8212 51.3034 68.5803L44.1274 72.7226C44.3044 72.9636 44.4642 73.2094 44.6216 73.47Z" fill="#1D1D1B"/>
<path d="M49.1672 70.3331L48.5527 69.3546L45.6592 71.0288L46.2738 72.0023L49.1672 70.3331Z" fill="#1D1D1B"/>
<path d="M45.6541 75.6971L52.8152 71.5621C52.7267 71.2769 52.6259 70.9991 52.5054 70.7213L45.3345 74.8637C45.4549 75.1366 45.5606 75.4169 45.6541 75.6971Z" fill="#363522"/>
<path d="M50.3739 72.4644L49.9609 71.3877L47.0675 73.0593L47.478 74.1335L50.3739 72.4644Z" fill="#363522"/>
<path d="M45.6541 75.6971L52.8152 71.5621C52.7267 71.2769 52.6259 70.9991 52.5054 70.7213L45.3345 74.8637C45.4549 75.1366 45.5606 75.4169 45.6541 75.6971Z" fill="#1D1D1B"/>
<path d="M50.3739 72.4644L49.9609 71.3877L47.0675 73.0593L47.478 74.1335L50.3739 72.4644Z" fill="#1D1D1B"/>
<path d="M46.0695 78.2416L53.2257 74.1091C53.2281 74.0723 53.2281 74.0329 53.2281 73.9911C53.2331 73.7183 53.2134 73.4306 53.1716 73.1504L46.0154 77.2828C46.0596 77.5778 46.0768 77.8728 46.0719 78.1555C46.0719 78.19 46.0719 78.2195 46.0695 78.2416Z" fill="#363522"/>
<path d="M51.0427 74.8761L50.8141 73.7281L47.9207 75.3997L48.1468 76.5477L51.0427 74.8761Z" fill="#363522"/>
<path d="M46.0695 78.2416L53.2257 74.1091C53.2281 74.0723 53.2281 74.0329 53.2281 73.9911C53.2331 73.7183 53.2134 73.4306 53.1716 73.1504L46.0154 77.2828C46.0596 77.5778 46.0768 77.8728 46.0719 78.1555C46.0719 78.19 46.0719 78.2195 46.0695 78.2416Z" fill="#1D1D1B"/>
<path d="M51.0427 74.8761L50.8141 73.7281L47.9207 75.3997L48.1468 76.5477L51.0427 74.8761Z" fill="#1D1D1B"/>
<path d="M44.7346 81.0957L51.8932 76.9337C52.289 76.6977 52.6184 76.3437 52.8446 75.8693L45.713 79.9895C45.4819 80.4836 45.1476 80.8597 44.7346 81.0957Z" fill="#363522"/>
<path d="M51.0425 77.3049L51.2195 76.1838L48.3285 77.858L48.1466 78.9766L51.0425 77.3049Z" fill="#363522"/>
<path d="M44.7346 81.0957L51.8932 76.9337C52.289 76.6977 52.6184 76.3437 52.8446 75.8693L45.713 79.9895C45.4819 80.4836 45.1476 80.8597 44.7346 81.0957Z" fill="#1D1D1B"/>
<path d="M51.0425 77.3049L51.2195 76.1838L48.3285 77.858L48.1466 78.9766L51.0425 77.3049Z" fill="#1D1D1B"/>
<path d="M1.30542 28.851L1.35213 45.6218L45.5482 71.3263L45.4991 65.8245L37.475 49.8944L1.30542 28.851Z" fill="#405234"/>
<path d="M25.7857 53.6999L30.6285 56.5172C31.0858 56.7802 31.6586 56.4533 31.6586 55.9247V50.6761C31.6586 49.9853 31.2898 49.3462 30.6925 48.9971L25.8963 46.2044C25.4341 45.9389 24.8613 46.2683 24.8613 46.7993V52.0897C24.8613 52.7534 25.2104 53.3656 25.7857 53.6999Z" fill="#ACE388"/>
<path opacity="0.4" d="M30.4468 49.4149L28.812 48.4635L25.3433 51.5487V52.092C25.3433 52.5788 25.6063 53.036 26.0291 53.2794L26.6388 53.6359L31.0319 50.0836C30.9114 49.8082 30.7123 49.5698 30.4468 49.4149Z" fill="white"/>
<path opacity="0.4" d="M31.172 50.8481L27.1501 53.9334L28.0819 54.4742L31.172 52.2912V50.8481Z" fill="white"/>
<path d="M36.4967 52.3747L33.5762 50.6784C33.1902 50.4522 32.7059 50.73 32.7059 51.1799V57.1832C32.7059 57.52 32.8829 57.8298 33.173 57.9969L41.2585 62.7022C41.6912 62.9554 42.1878 62.4859 41.9616 62.0385L37.7849 53.744C37.4973 53.1736 37.0523 52.6967 36.4967 52.3747Z" fill="#ACE388"/>
<path opacity="0.4" d="M37.3545 53.9604C37.148 53.5499 36.8382 53.2008 36.467 52.9377L33.1901 56.1656V57.1834C33.1901 57.3432 33.2761 57.498 33.4187 57.5792L34.7732 58.3658L38.1018 55.4428L37.3545 53.9604Z" fill="white"/>
<path opacity="0.4" d="M38.4117 56.0623L35.297 58.6706L36.3295 59.2729L38.9427 57.1194L38.4117 56.0623Z" fill="white"/>
<path d="M45.4991 65.8245L45.5483 71.3263L69.0059 57.7833L68.9567 52.2815L45.4991 65.8245Z" fill="#607A4E"/>
<path d="M1.30542 28.851L37.475 49.8944L60.9301 36.3514L24.7629 15.3104L1.30542 28.851Z" fill="#94BD78"/>
<path d="M60.9302 36.3514L37.4751 49.8945L45.4991 65.8246L68.9567 52.2815L60.9302 36.3514Z" fill="#779861"/>
<path d="M41.3126 51.7258L60.173 40.8353C60.7703 40.4911 61.5349 40.7198 61.8446 41.3368L66.5376 50.6982C66.8203 51.2636 66.6138 51.9569 66.0656 52.274L47.2052 63.1645C46.6103 63.5086 45.8458 63.28 45.536 62.663L40.843 53.2991C40.5554 52.7312 40.7644 52.0429 41.3126 51.7258Z" fill="#ACE388"/>
<path opacity="0.4" d="M61.7931 42.3202L58.494 56.0869L60.387 54.993L62.8478 44.4196L61.7931 42.3202Z" fill="white"/>
<path opacity="0.4" d="M60.7704 41.1599C60.645 41.1599 60.5221 41.1943 60.4139 41.2558L55.9668 43.8223L51.495 60.126L57.4565 56.6843L61.1416 41.2656C61.031 41.1968 60.9056 41.1599 60.7704 41.1599Z" fill="white"/>
<path d="M8.68799 20.5197L8.70028 24.6349L29.0947 36.4866L29.0923 35.7172C29.0873 33.6448 27.9836 31.7322 26.1914 30.6898L8.68799 20.5197Z" fill="#779861"/>
<path d="M4.79395 22.7715L25.1982 38.7361L29.0947 36.4867L8.68797 20.5197L4.79395 22.7715Z" fill="#779861"/>
<path d="M4.79395 22.7716L4.80624 26.8844L25.2007 38.7361L25.1982 37.9666C25.1933 35.8942 24.0871 33.9816 22.2949 32.9393L4.79395 22.7716Z" fill="#41412A"/>
<path d="M21.8179 12.98L21.8302 17.0952L42.2246 28.9469V28.1774C42.2172 26.1051 41.1134 24.1925 39.3213 23.1501L21.8179 12.98Z" fill="#779861"/>
<path d="M17.9214 15.2318L38.3281 31.1987L42.2246 28.9494L21.8179 12.98L17.9214 15.2318Z" fill="#779861"/>
<path d="M17.9215 15.2317L17.9338 19.3445L38.3282 31.1962L38.3258 30.4267C38.3209 28.3543 37.2171 26.4417 35.4225 25.3994L17.9215 15.2317Z" fill="#41412A"/>
<path d="M41.7377 44.8844V43.3529H33.3448V44.8844C33.3448 45.5039 33.7554 46.1234 34.574 46.5954C36.2113 47.5418 38.8688 47.5418 40.5085 46.5954C41.3271 46.1234 41.7377 45.5039 41.7377 44.8844Z" fill="#1D1D1B"/>
<path d="M40.5085 41.6393C42.1458 42.5857 42.1458 44.1197 40.5085 45.0662C38.8688 46.0126 36.2114 46.0126 34.5741 45.0662C32.9344 44.1197 32.9344 42.5857 34.5741 41.6393C36.2114 40.6928 38.8688 40.6928 40.5085 41.6393Z" fill="#779861"/>
<path d="M57.4245 35.872V34.338H49.0343V35.872C49.0343 36.4915 49.4424 37.111 50.2635 37.583C51.9007 38.5295 54.5581 38.5295 56.1954 37.583C57.0165 37.111 57.427 36.4915 57.4245 35.872Z" fill="#1D1D1B"/>
<path d="M56.1955 32.627C57.8352 33.5734 57.8352 35.1074 56.1955 36.0538C54.5582 37.0003 51.9008 37.0003 50.2635 36.0538C48.6238 35.1074 48.6238 33.5734 50.2635 32.627C51.9008 31.6805 54.5582 31.6805 56.1955 32.627Z" fill="#779861"/>
<path d="M57.972 57.2541L51.1049 43.6219L49.9412 44.2081L56.8084 57.8403L57.972 57.2541Z" fill="#779861"/>
<path d="M4.37842 38.4015L3.56714 37.9344V32.8088L4.37842 33.2759V38.4015Z" fill="#32321E"/>
<path d="M5.76013 39.198L4.94885 38.7334V33.6052L5.76013 34.0748V39.198Z" fill="#32321E"/>
<path d="M7.14417 39.9995L6.33044 39.53V34.4043L7.14417 34.8738V39.9995Z" fill="#32321E"/>
<path d="M8.52332 40.796L7.71448 40.3265V35.2008L8.52332 35.6704V40.796Z" fill="#32321E"/>
<path d="M9.90735 41.595L9.09607 41.1279V36.0022L9.90735 36.4693V41.595Z" fill="#32321E"/>
<path d="M11.2889 42.3914L10.4777 41.9243V36.7987L11.2889 37.2658V42.3914Z" fill="#32321E"/>
<path d="M12.673 43.1904L11.8617 42.7209V37.5952L12.673 38.0648V43.1904Z" fill="#32321E"/>
<path d="M14.0522 43.9893L13.241 43.5197V38.3942L14.0522 38.8637V43.9893Z" fill="#32321E"/>
<path d="M50.3495 65.8589C50.3102 64.6985 49.4325 64.1921 48.3877 64.7256C47.3453 65.2591 46.5316 66.6284 46.5709 67.7887C46.6127 68.9491 47.4879 69.458 48.5327 68.9245C49.5726 68.3886 50.3864 67.0193 50.3495 65.8589Z" fill="#DADADA"/>
<path d="M50.738 66.085C50.6962 64.9247 49.8211 64.4158 48.7763 64.9493C47.7315 65.4827 46.9178 66.8545 46.9595 68.0124C46.9989 69.1752 47.8765 69.6816 48.9188 69.1481C49.9636 68.6147 50.7773 67.2454 50.738 66.085Z" fill="white"/>
<path d="M48.7885 65.3131C48.7467 65.3352 48.7049 65.3574 48.6606 65.382C47.901 65.8392 47.3159 66.8275 47.2839 67.7027C47.2815 67.7543 47.2815 67.7986 47.2839 67.8477C47.3159 68.809 48.0436 69.2293 48.904 68.7868C49.7694 68.3468 50.4429 67.211 50.4085 66.2522C50.379 65.2934 49.6538 64.8706 48.7885 65.3131Z" fill="#F2D845"/>
<path opacity="0.2" d="M48.6606 65.3819C47.901 65.8391 47.3159 66.8274 47.2839 67.7026C47.4659 68.0369 47.8543 68.1328 48.2943 67.9091C48.8917 67.6018 49.3588 66.8176 49.3366 66.1538C49.3219 65.6646 49.0441 65.3794 48.6606 65.3819Z" fill="white"/>
<path d="M68.556 55.4552C68.4724 54.4055 67.644 53.9606 66.7073 54.4522C65.7707 54.9463 65.0799 56.1976 65.1635 57.2449C65.2471 58.2946 66.0731 58.7395 67.0097 58.2478C67.9488 57.7513 68.6396 56.5025 68.556 55.4552Z" fill="#DADADA"/>
<path d="M68.9198 55.6543C68.8362 54.6046 68.0102 54.1572 67.0711 54.6513C66.1345 55.1454 65.4437 56.3942 65.5272 57.4439C65.6108 58.4912 66.4393 58.9386 67.3759 58.4445C68.3126 57.9504 69.0058 56.7015 68.9198 55.6543Z" fill="white"/>
<path d="M67.1006 54.9758C67.0613 54.9979 67.0244 55.0176 66.9851 55.0397C66.3066 55.4625 65.8075 56.3623 65.8149 57.1563C65.8149 57.2006 65.8174 57.2424 65.8198 57.2866C65.8886 58.1544 66.5745 58.5256 67.3489 58.1151C68.1233 57.707 68.6985 56.672 68.6272 55.8067C68.5608 54.9389 67.8774 54.5677 67.1006 54.9758Z" fill="#F2D845"/>
<path opacity="0.2" d="M66.985 55.0421C66.3066 55.465 65.8075 56.3647 65.8149 57.1588C65.9968 57.4538 66.3582 57.5374 66.754 57.3309C67.2899 57.0482 67.6857 56.3303 67.6365 55.7329C67.6045 55.2904 67.339 55.0348 66.985 55.0421Z" fill="white"/>
<path d="M63.8973 59.7941L51.9302 66.7045V63.8971L63.8973 56.9891V59.7941Z" fill="#1D1D1B"/>
<path d="M27.9098 12.4243C27.7205 10.9247 26.6781 9.29973 25.4563 8.59173L25.4072 8.56468C24.7213 8.16643 24.0919 8.12464 23.6347 8.3926L22.5997 8.99244C23.057 8.72694 23.6839 8.76873 24.3722 9.16452L24.4214 9.19156C25.6432 9.89711 26.6855 11.5245 26.8748 13.0266L27.6418 19.1749L28.6743 18.5751L27.9098 12.4243Z" fill="#94BD78"/>
<path d="M24.4213 9.19158C25.6431 9.89712 26.6854 11.5246 26.8747 13.0266L27.6417 19.1749L21.1074 15.4038L21.9064 10.1577C22.1006 8.87937 23.1503 8.46145 24.3721 9.167L24.4213 9.19158Z" fill="#4F6540"/>
<path d="M25.3088 12.3037C25.3088 13.0093 24.8147 13.2944 24.205 12.9429C23.5953 12.5914 23.1012 11.7359 23.1012 11.0328C23.1012 10.3273 23.5953 10.0421 24.205 10.3936C24.8147 10.7452 25.3088 11.6007 25.3088 12.3037Z" fill="#32321E"/>
<path d="M25.429 12.1023C25.3578 11.9376 25.3037 11.7631 25.2594 11.5934C25.252 11.5664 25.2447 11.5418 25.2373 11.5148C25.2004 11.3525 25.1758 11.1854 25.1611 11.0231C25.1562 10.9912 25.1537 10.9617 25.1513 10.9272C25.1414 10.7625 25.139 10.5954 25.1513 10.4356C25.1537 10.4135 25.1562 10.3962 25.1586 10.379C25.1734 10.2266 25.198 10.0791 25.2275 9.93408C25.2348 9.90704 25.2398 9.88246 25.2471 9.85542C25.284 9.70792 25.3332 9.57025 25.3897 9.43504C25.4118 9.38342 25.4364 9.33917 25.4585 9.29C25.5053 9.19413 25.5544 9.10071 25.6134 9.01221C25.6429 8.96551 25.6724 8.92126 25.7068 8.87455C25.7683 8.78851 25.8396 8.70984 25.9109 8.63363C25.9453 8.59922 25.9748 8.56234 26.0117 8.53038C26.1248 8.42713 26.2452 8.33372 26.3731 8.25997C26.4738 8.20343 26.5746 8.15672 26.6754 8.11739C26.7861 8.0756 26.8991 8.04609 27.0098 8.02643L12.7464 10.4552C12.6333 10.4749 12.5203 10.5069 12.4121 10.5462C12.3015 10.588 12.2031 10.6322 12.1073 10.6888C11.9745 10.7625 11.859 10.856 11.7459 10.9592C11.709 10.9912 11.677 11.028 11.6451 11.0625C11.5738 11.1362 11.5025 11.2173 11.441 11.3034C11.4066 11.3476 11.3747 11.3919 11.3476 11.4386C11.2886 11.5295 11.2395 11.6229 11.1927 11.7188C11.1682 11.768 11.1436 11.8122 11.1239 11.8639C11.1141 11.8835 11.1018 11.9032 11.092 11.9278C11.0477 12.0433 11.0133 12.1613 10.9813 12.2818C10.974 12.3088 10.969 12.3359 10.9641 12.3604C10.9322 12.5079 10.9076 12.6554 10.8928 12.8054C10.8904 12.8251 10.8879 12.8447 10.8855 12.8644C10.8781 12.9824 10.8732 13.1053 10.8781 13.2307C10.8781 13.2749 10.883 13.3143 10.8879 13.3585C10.8904 13.388 10.8904 13.42 10.8953 13.4519C10.91 13.6142 10.9346 13.7813 10.974 13.9436C10.9789 13.9706 10.9862 13.9952 10.9936 14.0223C11.0403 14.1943 11.092 14.3664 11.1632 14.5311C11.2296 14.6885 11.3083 14.836 11.3919 14.9736L25.6085 12.4612C25.5446 12.3482 25.4831 12.2302 25.429 12.1023Z" fill="#405234"/>
<path d="M25.6086 12.4613L11.392 14.9737C11.95 15.8882 12.8596 16.3627 13.7249 16.2176L27.9907 13.7888C27.1008 13.9388 26.1642 13.4274 25.6086 12.4613Z" fill="#32321E"/>
<path d="M26.3731 8.25997C27.5163 7.59869 28.9495 8.24768 29.5739 9.71284C30.1959 11.1731 29.7706 12.8964 28.6274 13.5552C27.4818 14.2165 26.0486 13.5626 25.4291 12.1023C24.8047 10.6372 25.2275 8.9188 26.3731 8.25997Z" fill="#94BD78"/>
<path d="M27.6759 13.329C26.9458 13.329 26.2378 12.7734 25.874 11.913C25.3454 10.6691 25.6773 9.21868 26.6164 8.67785C26.8376 8.55002 27.0786 8.48364 27.3244 8.48364C28.0545 8.48364 28.7625 9.04168 29.1288 9.89963C29.6476 11.1239 29.3083 12.6062 28.384 13.1372C28.1627 13.2651 27.9242 13.329 27.6759 13.329Z" fill="#32321E"/>
<path d="M21.2916 14.5309C21.2203 14.3662 21.1638 14.1917 21.122 14.0221C21.1146 13.995 21.1072 13.9704 21.0999 13.9434C21.0605 13.7812 21.0384 13.614 21.0212 13.4517C21.0187 13.4198 21.0163 13.3903 21.0138 13.3583C21.004 13.1912 21.0015 13.024 21.0138 12.8642C21.0163 12.8445 21.0187 12.8249 21.0212 12.8077C21.036 12.6553 21.0605 12.5102 21.09 12.3627C21.0974 12.3357 21.1023 12.3111 21.1097 12.2841C21.1466 12.1366 21.1933 11.9989 21.2523 11.8637C21.2744 11.8121 21.299 11.7678 21.3187 11.7186C21.3678 11.6228 21.417 11.5294 21.4735 11.4409C21.503 11.3917 21.5325 11.3499 21.5645 11.3032C21.6284 11.2171 21.6997 11.1385 21.771 11.0623C21.8054 11.0279 21.8349 10.991 21.8718 10.959C21.9824 10.8558 22.1029 10.7624 22.2332 10.6862C22.334 10.6321 22.4347 10.5854 22.5355 10.546C22.6462 10.5042 22.7592 10.4747 22.8699 10.4551L8.60908 12.8839C8.496 12.9035 8.38292 12.9355 8.27475 12.9748C8.16658 13.0142 8.06825 13.0633 7.96992 13.1174C7.83962 13.1912 7.72162 13.2846 7.60854 13.3878C7.57167 13.4198 7.54217 13.4567 7.50775 13.4911C7.43646 13.5697 7.36517 13.6459 7.30125 13.732C7.26929 13.7787 7.23979 13.8229 7.21029 13.8697C7.15129 13.9581 7.10212 14.0516 7.05296 14.1474C7.03329 14.1966 7.00871 14.2409 6.98658 14.2925C6.97675 14.3121 6.96446 14.3318 6.95462 14.3564C6.91283 14.4719 6.87596 14.5924 6.844 14.7128C6.83908 14.7374 6.83417 14.7645 6.82925 14.7915C6.79483 14.9366 6.77025 15.084 6.7555 15.234C6.75304 15.2537 6.75058 15.2733 6.74812 15.293C6.74075 15.4135 6.73583 15.5388 6.74075 15.6593C6.74075 15.7035 6.74567 15.7429 6.75058 15.7871C6.75058 15.8191 6.75304 15.8486 6.75796 15.8805C6.77271 16.0428 6.79729 16.2099 6.83417 16.3722C6.84154 16.3992 6.84892 16.4238 6.85629 16.4509C6.903 16.6229 6.95462 16.795 7.02346 16.9597C7.09229 17.1171 7.17096 17.2646 7.25454 17.4022L21.4711 14.8898C21.4072 14.7743 21.3457 14.6588 21.2916 14.5309Z" fill="#405234"/>
<path d="M21.4737 14.8899L7.25452 17.4023C7.81256 18.3169 8.72216 18.7938 9.58996 18.6463L23.8558 16.2174C22.9634 16.3674 22.0268 15.856 21.4737 14.8899Z" fill="#32321E"/>
<path d="M22.2357 10.6862C23.3788 10.0274 24.812 10.6764 25.4365 12.1416C26.0584 13.6018 25.6331 15.3251 24.49 15.984C23.3444 16.6477 21.9112 15.9938 21.2893 14.5311C20.6698 13.0684 21.0901 11.3475 22.2357 10.6862Z" fill="#94BD78"/>
<path d="M23.5386 15.7577C22.8085 15.7577 22.1005 15.2021 21.7366 14.3442C21.2081 13.1003 21.54 11.6474 22.479 11.1066C22.7003 10.9787 22.9412 10.9124 23.187 10.9124C23.9172 10.9124 24.6252 11.4704 24.989 12.3283C25.5102 13.5526 25.1685 15.0349 24.2466 15.5659C24.0253 15.6938 23.7869 15.7577 23.5386 15.7577Z" fill="#32321E"/>
<path d="M17.1545 16.9624C17.0857 16.7952 17.0291 16.6256 16.9849 16.4535C16.98 16.4264 16.9726 16.3994 16.9652 16.3723C16.9259 16.2101 16.9013 16.0429 16.8866 15.8807C16.8816 15.8487 16.8816 15.8192 16.8792 15.7873C16.8693 15.6201 16.8669 15.4529 16.8792 15.2931C16.8816 15.2735 16.8841 15.2538 16.8866 15.2366C16.8964 15.0842 16.921 14.9367 16.9554 14.7916C16.9628 14.7646 16.9677 14.7375 16.9751 14.7129C17.0119 14.5654 17.0586 14.4278 17.1176 14.2926C17.1348 14.2409 17.1619 14.1967 17.184 14.1475C17.2332 14.0516 17.2823 13.9582 17.3389 13.8697C17.3684 13.823 17.3979 13.7763 17.4298 13.7321C17.4938 13.646 17.5651 13.5673 17.6363 13.4911C17.6708 13.4567 17.7003 13.4198 17.7371 13.3879C17.8478 13.2846 17.9682 13.1912 18.0985 13.1175C18.1969 13.0609 18.2976 13.0142 18.4009 12.9749C18.514 12.9355 18.6221 12.9036 18.7352 12.8839L4.47189 15.3152C4.35881 15.3325 4.24818 15.3644 4.13756 15.4062C4.02693 15.448 3.93106 15.4922 3.83518 15.5463C3.70243 15.6201 3.58197 15.7135 3.4738 15.8168C3.43693 15.8487 3.40497 15.8856 3.37055 15.9225C3.29926 15.9962 3.22797 16.0773 3.16405 16.1634C3.13455 16.2076 3.10259 16.2519 3.07309 16.2986C3.01655 16.3871 2.96493 16.4805 2.91822 16.5764C2.89609 16.6256 2.86905 16.6698 2.85184 16.7214C2.84201 16.7436 2.82972 16.7632 2.81988 16.7854C2.77563 16.8984 2.74122 17.0189 2.70926 17.1418C2.70188 17.1689 2.69696 17.1934 2.68959 17.2205C2.65763 17.3655 2.63551 17.513 2.62076 17.6655C2.6183 17.6851 2.61584 17.7023 2.61338 17.722C2.60355 17.8425 2.60109 17.9678 2.60355 18.0883C2.60601 18.1301 2.61092 18.1719 2.61338 18.2161C2.61584 18.2481 2.6183 18.28 2.62076 18.3095C2.63796 18.4718 2.66255 18.639 2.69942 18.8012C2.7068 18.8283 2.71417 18.8553 2.72155 18.8823C2.76826 19.0544 2.81988 19.2265 2.88872 19.3912C2.95509 19.5486 3.03376 19.6961 3.11734 19.8337L17.3364 17.3213C17.2725 17.2033 17.2086 17.0877 17.1545 16.9624Z" fill="#405234"/>
<path d="M17.3364 17.3187L3.11731 19.8336C3.67781 20.7481 4.5874 21.2225 5.45028 21.0775L19.7161 18.6487C18.8261 18.7986 17.8895 18.2873 17.3364 17.3187Z" fill="#32321E"/>
<path d="M18.1011 13.1175C19.2442 12.4562 20.6774 13.1027 21.3018 14.5679C21.9238 16.0306 21.4985 17.754 20.3554 18.4128C19.2098 19.0766 17.7766 18.4227 17.1546 16.9624C16.5327 15.4972 16.9555 13.7788 18.1011 13.1175Z" fill="#94BD78"/>
<path d="M19.4039 18.1892C18.6738 18.1892 17.9658 17.6312 17.602 16.7732C17.071 15.5317 17.4028 14.0764 18.3419 13.5356C18.5631 13.4077 18.8041 13.3438 19.0499 13.3438C19.78 13.3438 20.488 13.8994 20.8518 14.7574C21.373 15.9792 21.0313 17.464 20.1094 17.995C19.8882 18.1228 19.6497 18.1892 19.4039 18.1892Z" fill="#32321E"/>
<path d="M23.0666 6.90281C22.9953 6.7381 22.9412 6.56356 22.897 6.39393C22.8896 6.36689 22.8822 6.34231 22.8773 6.31527C22.8355 6.15301 22.8134 5.9883 22.7986 5.82359C22.7937 5.79164 22.7937 5.75968 22.7913 5.72772C22.779 5.56301 22.7765 5.39338 22.7888 5.23359C22.7913 5.21392 22.7937 5.19426 22.7962 5.17705C22.8109 5.02463 22.8355 4.87713 22.8675 4.73208C22.8724 4.70504 22.8773 4.68046 22.8847 4.65342C22.924 4.50592 22.9707 4.36825 23.0273 4.23304C23.0494 4.18141 23.074 4.13716 23.0961 4.088C23.1428 3.99212 23.192 3.8987 23.251 3.8102C23.2805 3.76349 23.31 3.71924 23.3444 3.67253C23.4059 3.58649 23.4772 3.50782 23.5484 3.43162C23.5829 3.3972 23.6124 3.36032 23.6492 3.32836C23.7623 3.22511 23.8803 3.1317 24.0106 3.05795C24.1089 3.0014 24.2122 2.9547 24.3154 2.91536C24.4236 2.87357 24.5367 2.84407 24.6498 2.8244L10.384 5.25571C10.2709 5.27538 10.1603 5.30488 10.0472 5.34667C9.93905 5.38847 9.84072 5.43272 9.74484 5.48926C9.61455 5.56547 9.49655 5.65643 9.38347 5.75968C9.34659 5.79164 9.31463 5.82851 9.28267 5.86293C9.20892 5.93914 9.14009 6.01781 9.07863 6.10385C9.04422 6.1481 9.01226 6.19481 8.98521 6.23906C8.92621 6.32756 8.87705 6.42097 8.83034 6.51931C8.80575 6.56848 8.78117 6.61273 8.76151 6.66435C8.75167 6.68402 8.73938 6.70369 8.72955 6.72581C8.68775 6.84135 8.65088 6.96181 8.61892 7.08227C8.61155 7.10931 8.60663 7.1339 8.60171 7.16094C8.5673 7.30844 8.54517 7.45348 8.53042 7.6059C8.53042 7.62557 8.5255 7.64524 8.52305 7.66244C8.51567 7.78536 8.51075 7.90582 8.51321 8.0312C8.51567 8.07545 8.52305 8.11478 8.5255 8.15903C8.5255 8.19099 8.52796 8.22049 8.53288 8.25245C8.54763 8.4147 8.57467 8.58187 8.60909 8.74412C8.61646 8.77116 8.6263 8.79575 8.63121 8.82279C8.67792 8.99487 8.72955 9.16696 8.80084 9.33167C8.86721 9.489 8.94588 9.6365 9.02947 9.77417L23.2485 7.26173C23.1821 7.14619 23.1207 7.03065 23.0666 6.90281Z" fill="#405234"/>
<path d="M23.2484 7.25928L9.0293 9.77419C9.5898 10.6887 10.4994 11.1632 11.3623 11.0181L25.6281 8.58925C24.7381 8.73921 23.8015 8.22787 23.2484 7.25928Z" fill="#32321E"/>
<path d="M24.0105 3.05795C25.1536 2.39665 26.5868 3.04566 27.2112 4.51084C27.8332 5.97111 27.4079 7.69441 26.2648 8.35325C25.1192 9.01701 23.686 8.36063 23.0666 6.90036C22.4421 5.43764 22.865 3.71925 24.0105 3.05795Z" fill="#94BD78"/>
<path d="M25.3133 8.12952C24.5832 8.12952 23.8777 7.57394 23.5114 6.71352C22.9829 5.47207 23.3147 4.0192 24.2538 3.47837C24.4775 3.35054 24.716 3.28662 24.9618 3.28662C25.6919 3.28662 26.3999 3.8422 26.7662 4.70016C27.2849 5.9244 26.9432 7.40677 26.0213 7.93777C25.8001 8.06314 25.5616 8.12952 25.3133 8.12952Z" fill="#32321E"/>
<path d="M18.9293 9.33166C18.858 9.16695 18.8064 8.99487 18.7597 8.82279C18.7523 8.79575 18.7449 8.77116 18.74 8.74412C18.6982 8.58187 18.6761 8.4147 18.6613 8.25245C18.6564 8.22049 18.6539 8.18854 18.6539 8.15904C18.6416 7.99187 18.6392 7.82716 18.6515 7.66245C18.6539 7.64278 18.6564 7.62312 18.6589 7.60591C18.6736 7.45349 18.6982 7.30845 18.7302 7.16095C18.7351 7.13391 18.74 7.10932 18.7474 7.08228C18.7842 6.93478 18.8309 6.79712 18.8899 6.66191C18.9121 6.61274 18.9342 6.56603 18.9563 6.51932C19.0055 6.42345 19.0547 6.33003 19.1112 6.24153C19.1407 6.19482 19.1702 6.15057 19.2022 6.10386C19.2661 6.02028 19.3374 5.93916 19.4087 5.86295C19.4431 5.82853 19.475 5.79165 19.5119 5.7597C19.625 5.65645 19.743 5.56303 19.8733 5.48928C19.9716 5.43274 20.0724 5.38603 20.1757 5.3467C20.2863 5.3049 20.3994 5.2754 20.5125 5.25574L6.24667 7.68458C6.13358 7.70424 6.02296 7.7362 5.91233 7.77553C5.80417 7.81733 5.70583 7.86158 5.60996 7.91812C5.47721 7.99187 5.35921 8.08528 5.24858 8.18853C5.20925 8.22049 5.17975 8.25983 5.14533 8.29179C5.07404 8.36799 5.00275 8.44912 4.94129 8.5327C4.90687 8.57695 4.87737 8.62366 4.84787 8.67037C4.79133 8.75887 4.7397 8.85229 4.69299 8.94816C4.67087 8.99487 4.64629 9.04158 4.62416 9.09075C4.61433 9.11287 4.60203 9.13254 4.5922 9.15712C4.55041 9.27266 4.51353 9.39066 4.48403 9.51112C4.47666 9.53816 4.47174 9.56766 4.46683 9.59225C4.43241 9.73729 4.41028 9.88233 4.39553 10.0347C4.39553 10.0544 4.39062 10.0741 4.38816 10.0913C4.38078 10.2117 4.37587 10.3371 4.37833 10.4576C4.38078 10.5018 4.3857 10.5412 4.38816 10.5854C4.39062 10.6174 4.39308 10.6469 4.39553 10.6788C4.41274 10.8411 4.43978 11.0083 4.4742 11.1705C4.48158 11.2 4.48649 11.227 4.49387 11.2516C4.54058 11.4237 4.5922 11.5958 4.66349 11.7605C4.72741 11.9178 4.80854 12.0653 4.89212 12.203L19.1087 9.69058C19.0448 9.5775 18.9834 9.4595 18.9293 9.33166Z" fill="#405234"/>
<path d="M19.111 9.69067L4.89441 12.2031C5.45 13.1176 6.36204 13.5921 7.22738 13.447L21.4932 11.0182C20.6008 11.1681 19.6642 10.6568 19.111 9.69067Z" fill="#32321E"/>
<path d="M19.8734 5.48935C21.0165 4.82806 22.4497 5.47705 23.0741 6.94222C23.6961 8.40247 23.2708 10.1258 22.1277 10.7846C20.9821 11.4459 19.5489 10.7944 18.9294 9.33172C18.3074 7.86655 18.7278 6.14818 19.8734 5.48935Z" fill="#94BD78"/>
<path d="M21.1786 10.5583C20.4485 10.5583 19.7405 10.0028 19.3766 9.14482C18.8456 7.90091 19.18 6.44805 20.119 5.90722C20.3427 5.77939 20.5812 5.71301 20.827 5.71301C21.5572 5.71301 22.2651 6.27105 22.6314 7.13146C23.1501 8.35324 22.8084 9.83561 21.8866 10.3666C21.6653 10.4944 21.4244 10.5583 21.1786 10.5583Z" fill="#32321E"/>
<path d="M14.7917 11.7605C14.7229 11.5958 14.6688 11.4237 14.6246 11.2516C14.6172 11.227 14.6098 11.2 14.6025 11.1729C14.5631 11.0107 14.541 10.8435 14.5238 10.6813C14.5213 10.6493 14.5189 10.6173 14.5164 10.5878C14.5066 10.4207 14.5041 10.256 14.5164 10.0937C14.5189 10.074 14.5213 10.0544 14.5238 10.0372C14.5385 9.88475 14.5631 9.73971 14.5926 9.5922C14.6 9.56762 14.6049 9.54058 14.6123 9.51354C14.6467 9.36849 14.6959 9.22591 14.7524 9.0907C14.7721 9.03908 14.7991 8.99483 14.8188 8.94566C14.868 8.84978 14.9171 8.75637 14.9737 8.66787C15.0032 8.62116 15.0327 8.57691 15.0646 8.5302C15.1285 8.44661 15.1998 8.36549 15.2711 8.28928C15.3055 8.25486 15.335 8.21799 15.3719 8.18603C15.4825 8.08278 15.603 7.98936 15.7333 7.91561C15.8316 7.85907 15.9324 7.81236 16.0357 7.77303C16.1463 7.73124 16.2569 7.70173 16.37 7.68207L2.11167 10.1134C1.99858 10.1355 1.8855 10.165 1.77488 10.2068C1.66425 10.2486 1.56838 10.2928 1.4725 10.3469C1.33975 10.4231 1.22175 10.5141 1.10867 10.6173C1.07425 10.6493 1.04229 10.6862 1.00788 10.7206C0.936584 10.7993 0.867751 10.8779 0.801377 10.9615C0.771877 11.0082 0.739918 11.0525 0.710418 11.0992C0.653877 11.1877 0.602252 11.2811 0.555544 11.377C0.533419 11.4261 0.508835 11.4704 0.489168 11.522C0.479335 11.5417 0.467043 11.5613 0.45721 11.5859C0.41296 11.7015 0.378543 11.8219 0.346585 11.9424C0.33921 11.967 0.334294 11.994 0.329377 12.0235C0.29496 12.1661 0.272835 12.3136 0.258085 12.4636C0.255627 12.4832 0.253168 12.5029 0.25071 12.5226C0.240877 12.643 0.238419 12.7684 0.240877 12.8889C0.243335 12.9331 0.248252 12.9724 0.25071 13.0167C0.253168 13.0486 0.255627 13.0781 0.258085 13.1101C0.275294 13.2724 0.299876 13.4395 0.336751 13.6018C0.344126 13.6288 0.351502 13.6559 0.358877 13.6829C0.405585 13.855 0.45721 14.0271 0.528501 14.1918C0.592418 14.3491 0.673543 14.4966 0.757126 14.6343L14.9737 12.1194C14.9097 12.0038 14.8458 11.8883 14.7917 11.7605Z" fill="#405234"/>
<path d="M14.9736 12.1194L0.756958 14.6319C1.315 15.5464 2.22459 16.0209 3.08993 15.8758L17.3533 13.4469C16.4658 13.5969 15.5292 13.0855 14.9736 12.1194Z" fill="#32321E"/>
<path d="M15.7382 7.91806C16.8814 7.25676 18.3146 7.90577 18.9366 9.37094C19.5561 10.8312 19.1332 12.5545 17.9901 13.2133C16.8445 13.8771 15.4113 13.2232 14.7893 11.7605C14.1698 10.2977 14.5926 8.5769 15.7382 7.91806Z" fill="#94BD78"/>
<path d="M17.0413 12.9872C16.3111 12.9872 15.6031 12.4317 15.2393 11.5712C14.7083 10.3298 15.0426 8.87688 15.9817 8.33604C16.203 8.2082 16.4439 8.14429 16.6897 8.14429C17.4199 8.14429 18.1279 8.69987 18.4917 9.55784C19.0129 10.7796 18.6712 12.2645 17.7493 12.7955C17.5256 12.9233 17.2896 12.9872 17.0413 12.9872Z" fill="#32321E"/>
<path d="M11.7928 8.22053L6.53931 9.11292L18.4402 2.24182L23.6962 1.34698L11.7928 8.22053Z" fill="#94BD78"/>
<path d="M11.1929 10.669L5.93701 11.5638C6.17547 10.6051 6.3033 10.0692 6.5393 9.11294L11.7927 8.22058C11.5592 9.17439 11.4314 9.7103 11.1929 10.669Z" fill="#779861"/>
<path d="M15.4164 20.5934L11.1929 10.6691L5.93701 11.5639L10.1604 21.4858C10.9569 21.8447 11.4019 22.0512 12.196 22.4126L17.4543 21.5178C16.6578 21.1588 16.2129 20.9523 15.4164 20.5934Z" fill="#4F6540"/>
<path d="M23.6959 1.34698C24.4899 1.70836 24.9349 1.91241 25.729 2.27378L29.9524 12.2006C29.7189 13.1569 29.591 13.6904 29.355 14.6467L17.4542 21.5178C16.6577 21.1588 16.2127 20.9523 15.4162 20.5934L11.1927 10.6691C11.4312 9.7103 11.559 9.17438 11.7926 8.22054L23.6959 1.34698Z" fill="#779861"/>
<path d="M37.8758 10.0421C37.807 9.8774 37.7505 9.70286 37.7087 9.53324C37.7013 9.50619 37.6939 9.48161 37.6865 9.45457C37.6472 9.29232 37.6226 9.12515 37.6079 8.9629C37.6054 8.93094 37.603 8.90144 37.6005 8.86949C37.5907 8.70232 37.5882 8.53515 37.6005 8.37536C37.603 8.35569 37.6054 8.33602 37.6079 8.31882C37.6226 8.1664 37.6472 8.02136 37.6767 7.87386C37.6841 7.84682 37.689 7.82223 37.6964 7.79519C37.7333 7.64769 37.78 7.51002 37.839 7.37481C37.8586 7.32319 37.8857 7.27894 37.9053 7.22977C37.9545 7.1339 38.0037 7.04048 38.0602 6.95198C38.0897 6.90527 38.1192 6.85856 38.1512 6.81431C38.2151 6.72827 38.2839 6.64961 38.3577 6.5734C38.3921 6.53652 38.4216 6.5021 38.4585 6.47015C38.5691 6.3669 38.6895 6.27348 38.8198 6.19973C38.9182 6.14319 39.019 6.09648 39.1222 6.05715C39.2328 6.01535 39.3435 5.98585 39.4565 5.96619L25.1933 8.39503C25.0802 8.41469 24.9671 8.44665 24.8565 8.48598C24.7459 8.52532 24.65 8.57203 24.5541 8.62857C24.4214 8.70478 24.3034 8.79573 24.1928 8.89898C24.1559 8.93094 24.1264 8.96536 24.092 9.00224C24.0207 9.0809 23.9494 9.15957 23.8855 9.24315C23.8535 9.28986 23.824 9.33411 23.7945 9.38082C23.738 9.46932 23.6864 9.56274 23.6396 9.65861C23.6175 9.70778 23.5929 9.75203 23.5733 9.80365C23.5634 9.82578 23.5511 9.84544 23.5413 9.86757C23.4971 9.98065 23.4626 10.1011 23.4307 10.224C23.4233 10.2511 23.4184 10.2757 23.4135 10.3027C23.3791 10.4477 23.3569 10.5952 23.3422 10.7477C23.3397 10.7673 23.3373 10.787 23.3348 10.8042C23.3274 10.9247 23.3225 11.05 23.325 11.1705C23.3274 11.2123 23.3324 11.2541 23.3348 11.2983C23.3373 11.3303 23.3397 11.3598 23.3422 11.3917C23.3594 11.554 23.384 11.7212 23.4209 11.8834C23.4282 11.9104 23.4356 11.935 23.443 11.9621C23.4897 12.1342 23.5413 12.3062 23.6101 12.471C23.6765 12.6283 23.7576 12.7758 23.8412 12.9135L38.0578 10.401C37.9914 10.2855 37.9299 10.1699 37.8758 10.0421Z" fill="#405234"/>
<path d="M38.0577 10.401L23.8411 12.9134C24.3991 13.8279 25.3087 14.3024 26.174 14.1573L40.4374 11.7285C39.5475 11.8785 38.6084 11.3671 38.0577 10.401Z" fill="#32321E"/>
<path d="M38.8198 6.1998C39.9629 5.53851 41.3961 6.18505 42.0206 7.65021C42.64 9.11291 42.2172 10.8362 41.0741 11.495C39.9285 12.1588 38.4953 11.5049 37.8734 10.0422C37.2539 8.577 37.6743 6.85863 38.8198 6.1998Z" fill="#94BD78"/>
<path d="M40.1251 11.2687C39.395 11.2687 38.687 10.7132 38.3232 9.85278C37.7922 8.61136 38.1265 7.15853 39.0656 6.61771C39.2868 6.48988 39.5278 6.42596 39.7736 6.42596C40.5037 6.42596 41.2117 6.98153 41.5756 7.83946C42.0967 9.06122 41.755 10.546 40.8331 11.077C40.6094 11.2048 40.371 11.2687 40.1251 11.2687Z" fill="#32321E"/>
<path d="M33.7384 12.4709C33.6695 12.3038 33.613 12.1341 33.5712 11.962C33.5638 11.935 33.5564 11.9104 33.5491 11.8834C33.5097 11.7211 33.4852 11.554 33.4704 11.3917C33.4679 11.3597 33.4655 11.3302 33.463 11.2983C33.4532 11.1311 33.4507 10.9639 33.463 10.8042C33.4655 10.7845 33.4679 10.7648 33.4704 10.7476C33.4827 10.5952 33.5097 10.4477 33.5392 10.3026C33.5466 10.2756 33.5491 10.251 33.5589 10.224C33.5958 10.0765 33.6425 9.93881 33.7015 9.80114C33.7212 9.75197 33.7482 9.70772 33.7679 9.65856C33.817 9.56268 33.8662 9.46926 33.9227 9.38076C33.9547 9.33405 33.9842 9.2898 34.0162 9.24309C34.0776 9.15951 34.1489 9.07838 34.2227 9.00217C34.2571 8.9653 34.2866 8.93088 34.3234 8.89892C34.4341 8.79567 34.5545 8.70225 34.6848 8.6285C34.7832 8.57196 34.8839 8.52525 34.9872 8.48592C35.0978 8.44413 35.2084 8.41463 35.3215 8.39496L21.0558 10.8238C20.9427 10.8435 20.832 10.8754 20.7214 10.9148C20.6108 10.9541 20.5149 11.0008 20.419 11.0574C20.2863 11.1311 20.1658 11.2245 20.0577 11.3278C20.0208 11.3597 19.9913 11.3966 19.9569 11.431C19.8856 11.5072 19.8143 11.5859 19.7504 11.672C19.7184 11.7187 19.6889 11.7629 19.6594 11.8096C19.6029 11.8981 19.5512 11.9915 19.5045 12.0874C19.4824 12.1366 19.4554 12.1808 19.4382 12.2325C19.4259 12.2546 19.4136 12.2718 19.4037 12.2964C19.3595 12.4095 19.3251 12.5299 19.2907 12.6528C19.2857 12.6774 19.2808 12.7069 19.2735 12.734C19.2415 12.8765 19.2169 13.0241 19.2046 13.1765C19.2022 13.1937 19.1997 13.2133 19.1972 13.233C19.1874 13.3535 19.185 13.4764 19.1874 13.5993C19.1899 13.6411 19.1948 13.6829 19.1972 13.7271C19.1997 13.7591 19.2022 13.7911 19.2046 13.8206C19.2218 13.9828 19.2464 14.15 19.2833 14.3122C19.2907 14.3393 19.298 14.3639 19.3054 14.3909C19.3497 14.563 19.4037 14.7351 19.4726 14.9022C19.539 15.0571 19.6176 15.2046 19.7012 15.3423L33.9203 12.8298C33.8564 12.7168 33.7924 12.5988 33.7384 12.4709Z" fill="#405234"/>
<path d="M33.9202 12.8297L19.7012 15.3422C20.2617 16.2567 21.1713 16.7312 22.0341 16.5861L36.2999 14.1572C35.4125 14.3072 34.4734 13.7959 33.9202 12.8297Z" fill="#32321E"/>
<path d="M34.685 8.62857C35.8281 7.96727 37.2613 8.61382 37.8833 10.079C38.5052 11.5417 38.0824 13.2651 36.9393 13.9239C35.7937 14.5877 34.3604 13.9337 33.7385 12.471C33.1165 11.0083 33.5394 9.28742 34.685 8.62857Z" fill="#94BD78"/>
<path d="M35.9878 13.6976C35.2577 13.6976 34.5497 13.142 34.1858 12.2816C33.6548 11.0377 33.9892 9.58723 34.9283 9.04638C35.1495 8.91855 35.3904 8.85217 35.6363 8.85217C36.3664 8.85217 37.0719 9.41022 37.4382 10.2707C37.9594 11.49 37.6177 12.9749 36.6958 13.5059C36.4721 13.6337 36.2361 13.6976 35.9878 13.6976Z" fill="#32321E"/>
<path d="M29.601 14.9023C29.5297 14.7376 29.4757 14.5655 29.4339 14.3934C29.4265 14.3664 29.4191 14.3418 29.4117 14.3148C29.3724 14.1525 29.3478 13.9853 29.3331 13.8231C29.3306 13.7911 29.3282 13.7616 29.3257 13.7297C29.3159 13.5625 29.3134 13.3953 29.3257 13.2355C29.3257 13.2159 29.3306 13.1962 29.3331 13.179C29.3454 13.0266 29.3699 12.8791 29.4019 12.7365C29.4093 12.7095 29.4117 12.6824 29.4191 12.6554C29.4584 12.5103 29.5052 12.3702 29.5642 12.235C29.5838 12.1834 29.6109 12.1391 29.6305 12.09C29.6797 11.9941 29.7289 11.9007 29.7854 11.8122C29.8174 11.7654 29.8469 11.7212 29.8788 11.6745C29.9403 11.5909 30.0116 11.5098 30.0853 11.4336C30.1197 11.3967 30.1492 11.3623 30.1861 11.3303C30.2967 11.2271 30.4172 11.1337 30.5475 11.0599C30.6458 11.0034 30.7466 10.9542 30.8499 10.9173C30.9605 10.8755 31.0711 10.846 31.1842 10.8264L16.9184 13.2552C16.8053 13.2749 16.6947 13.3044 16.5841 13.3462C16.4735 13.388 16.3776 13.4322 16.2817 13.4863C16.149 13.5601 16.0285 13.6535 15.9203 13.7567C15.8835 13.7911 15.854 13.8256 15.8195 13.8624C15.7458 13.9386 15.6745 14.0148 15.613 14.1009C15.5811 14.1476 15.5491 14.1943 15.5196 14.2386C15.4631 14.3271 15.4139 14.4205 15.3648 14.5164C15.3402 14.5655 15.3156 14.6098 15.2984 14.6614C15.2885 14.6835 15.2762 14.7032 15.2664 14.7253C15.2222 14.8409 15.1853 14.9589 15.1533 15.0842C15.1484 15.1088 15.1435 15.1334 15.1386 15.1604C15.1066 15.3079 15.0796 15.453 15.0673 15.6054C15.0648 15.6251 15.0624 15.6423 15.0599 15.6619C15.0501 15.7824 15.0476 15.9053 15.0501 16.0307C15.0525 16.075 15.0575 16.1143 15.0599 16.1585C15.0624 16.1905 15.0648 16.22 15.0673 16.252C15.082 16.4142 15.1091 16.5814 15.146 16.7436C15.1533 16.7707 15.1607 16.7953 15.1681 16.8223C15.2123 16.9944 15.2664 17.1665 15.3352 17.3312C15.4016 17.4885 15.4803 17.636 15.5639 17.7737L29.7829 15.2612C29.719 15.1432 29.6551 15.0277 29.601 14.9023Z" fill="#405234"/>
<path d="M29.7854 15.2589L15.5638 17.7737C16.1243 18.6882 17.0339 19.1627 17.8993 19.0152L32.165 16.5864C31.2727 16.7388 30.336 16.2274 29.7854 15.2589Z" fill="#32321E"/>
<path d="M30.5475 11.0576C31.6906 10.3963 33.1239 11.0453 33.7458 12.5105C34.3678 13.9707 33.9449 15.694 32.8018 16.3528C31.6562 17.0166 30.223 16.3626 29.601 14.8999C28.9791 13.4372 29.4019 11.7189 30.5475 11.0576Z" fill="#94BD78"/>
<path d="M31.848 16.129C31.1203 16.129 30.4123 15.5734 30.0485 14.713C29.5175 13.4691 29.8518 12.0187 30.7884 11.4779C31.0122 11.35 31.2506 11.2861 31.4989 11.2861C32.229 11.2861 32.9346 11.8417 33.3009 12.7021C33.8221 13.9215 33.4804 15.4063 32.5585 15.9373C32.3372 16.0627 32.0988 16.129 31.848 16.129Z" fill="#32321E"/>
<path d="M35.5133 4.84278C35.4444 4.67807 35.3903 4.50599 35.3461 4.3339C35.3387 4.30686 35.3313 4.28228 35.324 4.25524C35.2846 4.09299 35.2625 3.92582 35.2453 3.76357C35.2428 3.73161 35.2404 3.70211 35.2379 3.67015C35.2281 3.50298 35.2256 3.33582 35.2379 3.17602C35.2404 3.15636 35.2428 3.13669 35.2453 3.11948C35.2601 2.96706 35.2846 2.82202 35.3166 2.67452C35.3215 2.64994 35.3264 2.6229 35.3338 2.59585C35.3707 2.45081 35.4174 2.31069 35.4764 2.17548C35.4985 2.12385 35.5231 2.0796 35.5428 2.03043C35.5919 1.93456 35.6411 1.84114 35.6976 1.75264C35.7271 1.70593 35.7566 1.66168 35.7886 1.61497C35.8525 1.53139 35.9238 1.45272 35.9951 1.37406C36.0295 1.33964 36.059 1.30276 36.0959 1.27081C36.209 1.16756 36.327 1.07414 36.4573 1.00039C36.5556 0.943847 36.6564 0.897138 36.7596 0.857804C36.8703 0.816012 36.9834 0.786512 37.0964 0.766846L22.8307 3.19569C22.7176 3.21536 22.6045 3.24732 22.4939 3.28665C22.3857 3.32844 22.2874 3.37269 22.1915 3.42923C22.0587 3.50544 21.9407 3.5964 21.8301 3.69965C21.7932 3.73161 21.7637 3.76603 21.7293 3.8029C21.658 3.87911 21.5867 3.95778 21.5253 4.04382C21.4909 4.09053 21.4614 4.13478 21.4319 4.18149C21.3753 4.26999 21.3237 4.3634 21.277 4.45928C21.2549 4.50845 21.2303 4.5527 21.2106 4.60432C21.2008 4.62645 21.1885 4.64611 21.1786 4.66824C21.1344 4.78378 21.1 4.90424 21.068 5.0247C21.0606 5.05174 21.0557 5.07632 21.0508 5.10582C21.0164 5.24595 20.9918 5.39345 20.9795 5.54587C20.9771 5.56553 20.9746 5.5852 20.9721 5.60241C20.9623 5.72287 20.9599 5.84824 20.9623 5.9687C20.9648 6.01049 20.9697 6.05229 20.9721 6.09654C20.9746 6.1285 20.9771 6.158 20.9795 6.18995C20.9967 6.35221 21.0238 6.51937 21.0582 6.68162C21.0656 6.70866 21.0729 6.73325 21.0803 6.76029C21.1246 6.93237 21.1786 7.10446 21.2499 7.26917C21.3139 7.4265 21.395 7.574 21.4786 7.71167L35.6952 5.19924C35.6288 5.08616 35.5673 4.97061 35.5133 4.84278Z" fill="#405234"/>
<path d="M35.695 5.19922L21.4784 7.71164C22.0364 8.62614 22.946 9.1006 23.8114 8.95556L38.0771 6.52672C37.1823 6.67914 36.2481 6.1678 35.695 5.19922Z" fill="#32321E"/>
<path d="M36.4573 0.997879C37.6005 0.336581 39.0337 0.985587 39.6581 2.44831C40.2801 3.91103 39.8548 5.63434 38.7116 6.29318C37.566 6.95694 36.1328 6.30301 35.5108 4.84029C34.8913 3.37757 35.3142 1.65918 36.4573 0.997879Z" fill="#94BD78"/>
<path d="M37.7626 6.0694C37.0325 6.0694 36.3245 5.51381 35.9606 4.65339C35.4296 3.41192 35.7639 1.95903 36.7031 1.41819C36.9268 1.29036 37.1652 1.22644 37.4111 1.22644C38.1412 1.22644 38.8492 1.78203 39.2155 2.63999C39.7343 3.8618 39.3925 5.34664 38.4706 5.87765C38.2494 6.00548 38.0085 6.0694 37.7626 6.0694Z" fill="#32321E"/>
<path d="M31.3758 7.27161C31.307 7.1069 31.2529 6.93482 31.2087 6.76274C31.2013 6.73569 31.1939 6.71111 31.1865 6.68407C31.1472 6.52182 31.1251 6.35465 31.1079 6.1924C31.1054 6.16045 31.1029 6.13094 31.1005 6.09899C31.0907 5.93182 31.0882 5.76465 31.1005 5.60486C31.1029 5.5852 31.1054 5.56553 31.1079 5.54586C31.1226 5.39345 31.1472 5.24595 31.1767 5.1009C31.1841 5.07386 31.189 5.04928 31.1939 5.02224C31.2332 4.8772 31.2799 4.73707 31.339 4.60186C31.3586 4.55024 31.3857 4.50599 31.4053 4.45682C31.4545 4.36095 31.5037 4.26753 31.5602 4.17903C31.5897 4.13232 31.6192 4.08807 31.6512 4.04136C31.7151 3.95778 31.7864 3.87665 31.8577 3.80045C31.8921 3.76357 31.9216 3.72915 31.9585 3.6972C32.0691 3.59395 32.1895 3.50299 32.3198 3.42678C32.4182 3.37024 32.519 3.32353 32.6222 3.2842C32.7328 3.2424 32.8435 3.2129 32.9565 3.19324L18.6932 5.62453C18.5826 5.6442 18.4695 5.67615 18.3589 5.71549C18.2482 5.75482 18.1524 5.80153 18.0565 5.85807C17.9237 5.93428 17.8033 6.02524 17.6951 6.12849C17.6582 6.16045 17.6263 6.19978 17.5943 6.23174C17.5206 6.30794 17.4517 6.38661 17.3878 6.47511C17.3559 6.51936 17.3239 6.56361 17.2919 6.61032C17.2379 6.69882 17.1887 6.79224 17.1395 6.88811C17.1174 6.93728 17.0928 6.98153 17.0732 7.03315C17.0633 7.05282 17.051 7.07249 17.0412 7.09707C16.9969 7.21261 16.9625 7.33061 16.9306 7.45353C16.9232 7.47811 16.9183 7.50515 16.9109 7.5322C16.8814 7.67478 16.8544 7.82474 16.8421 7.97469C16.8396 7.99436 16.8372 8.01403 16.8347 8.0337C16.8249 8.15415 16.8224 8.27461 16.8249 8.39999C16.8273 8.44178 16.8322 8.48357 16.8347 8.52782C16.8372 8.55978 16.8396 8.58928 16.8421 8.62124C16.8593 8.78349 16.8839 8.95065 16.9207 9.1129C16.9281 9.13995 16.9355 9.16453 16.9429 9.19157C16.9871 9.36365 17.0412 9.53574 17.1125 9.7029C17.1789 9.86024 17.2575 10.0053 17.3411 10.1429L31.5577 7.63053C31.4938 7.51745 31.4299 7.39945 31.3758 7.27161Z" fill="#405234"/>
<path d="M31.5577 7.63049L17.3411 10.1429C17.8991 11.0575 18.8087 11.5344 19.674 11.3869L33.9374 8.95801C33.0475 9.10797 32.1133 8.59663 31.5577 7.63049Z" fill="#32321E"/>
<path d="M32.3224 3.42925C33.4656 2.76795 34.8988 3.4145 35.5232 4.88214C36.1427 6.34241 35.7199 8.06819 34.5768 8.72457C33.4287 9.38833 31.9979 8.73441 31.3759 7.27168C30.754 5.80649 31.1768 4.08809 32.3224 3.42925Z" fill="#94BD78"/>
<path d="M33.6253 8.49835C32.8951 8.49835 32.1871 7.94277 31.8233 7.08236C31.2923 5.84091 31.6266 4.38804 32.5657 3.84721C32.787 3.71937 33.0279 3.65546 33.2737 3.65546C34.0038 3.65546 34.7118 4.21104 35.0757 5.07145C35.5968 6.29078 35.2551 7.77561 34.3333 8.3066C34.1095 8.43444 33.8735 8.49835 33.6253 8.49835Z" fill="#32321E"/>
<path d="M27.2385 9.7003C27.1696 9.53559 27.1131 9.3635 27.0713 9.19142C27.0639 9.16438 27.0541 9.13979 27.0492 9.11275C27.0099 8.9505 26.9853 8.78333 26.9705 8.62108C26.9681 8.58912 26.9656 8.55962 26.9631 8.52766C26.9509 8.36049 26.9509 8.19333 26.9631 8.03353C26.9656 8.01387 26.9681 7.9942 26.9705 7.97453C26.9828 7.82211 27.0099 7.67461 27.0394 7.53203C27.0467 7.50499 27.0516 7.47794 27.0566 7.4509C27.0959 7.30586 27.1426 7.16573 27.2016 7.03052C27.2213 6.9789 27.2459 6.93465 27.268 6.88548C27.3171 6.78961 27.3663 6.69619 27.4229 6.60769C27.4548 6.56098 27.4843 6.51673 27.5163 6.47002C27.5777 6.38643 27.649 6.30777 27.7228 6.2291C27.7572 6.19468 27.7867 6.15781 27.8211 6.12585C27.9342 6.0226 28.0547 5.93164 28.1849 5.85543C28.2833 5.79889 28.3841 5.75218 28.4873 5.71285C28.5979 5.67105 28.7086 5.64155 28.8217 5.62189L14.5559 8.05566C14.4428 8.07287 14.3322 8.10483 14.2215 8.14662C14.1109 8.18841 14.015 8.23266 13.9192 8.28674C13.7864 8.36049 13.666 8.45637 13.5578 8.55716C13.5209 8.58912 13.4914 8.62845 13.457 8.66287C13.3832 8.73908 13.3144 8.81775 13.2505 8.90625C13.2185 8.94804 13.189 8.99229 13.1571 9.039C13.1005 9.1275 13.0514 9.22092 13.0022 9.31679C12.9801 9.36596 12.953 9.41021 12.9358 9.46184C12.926 9.48396 12.9112 9.50363 12.9039 9.52575C12.8596 9.6413 12.8227 9.76176 12.7908 9.88467C12.7859 9.90926 12.7834 9.9363 12.776 9.96334C12.7416 10.1084 12.7195 10.2534 12.7072 10.4058C12.7023 10.4231 12.6974 10.4427 12.6974 10.4624C12.6875 10.5828 12.6851 10.7058 12.6875 10.8287C12.69 10.8729 12.6949 10.9123 12.6974 10.9565C12.6998 10.9885 12.7023 11.018 12.7047 11.0499C12.7195 11.2122 12.7465 11.3794 12.7834 11.5416C12.7908 11.5686 12.7982 11.5957 12.8055 11.6227C12.8498 11.7948 12.9014 11.9669 12.9727 12.1316C13.0415 12.2889 13.1177 12.4364 13.2038 12.5717L27.4204 10.0592C27.3565 9.94613 27.2926 9.82813 27.2385 9.7003Z" fill="#405234"/>
<path d="M27.4227 10.0593L13.2036 12.5717C13.7617 13.4862 14.6712 13.9632 15.539 13.8157L29.8024 11.3868C28.91 11.5392 27.9734 11.0254 27.4227 10.0593Z" fill="#32321E"/>
<path d="M28.1851 5.858C29.3282 5.19671 30.7614 5.84571 31.3834 7.31087C32.0054 8.77111 31.5825 10.4969 30.4394 11.1532C29.2913 11.817 27.8606 11.1631 27.2386 9.70036C26.6166 8.23766 27.0395 6.51929 28.1851 5.858Z" fill="#94BD78"/>
<path d="M29.4853 10.9271C28.7577 10.9271 28.0497 10.3715 27.6858 9.51111C27.1548 8.26719 27.4892 6.81676 28.4283 6.27592C28.6495 6.14808 28.8904 6.08417 29.1363 6.08417C29.8664 6.08417 30.5719 6.63976 30.9382 7.50018C31.4594 8.72198 31.1177 10.2044 30.1958 10.7354C29.9746 10.8632 29.7361 10.9271 29.4853 10.9271Z" fill="#32321E"/>
<path d="M14.4327 20.0085C14.2458 18.5089 13.2035 16.8814 11.9793 16.1759L11.935 16.1488C11.2491 15.753 10.6173 15.7088 10.1601 15.9767L9.12512 16.5766C9.58237 16.3135 10.2117 16.3529 10.9 16.7487L10.9467 16.7782C12.171 17.4837 13.2133 19.1087 13.4002 20.6107L14.1696 26.7591L15.2046 26.1593L14.4327 20.0085Z" fill="#94BD78"/>
<path d="M10.9444 16.7781C12.1687 17.4836 13.2111 19.1086 13.3979 20.6106L14.1674 26.7589L7.6355 22.9878L8.43201 17.7442C8.62867 16.4634 9.67594 16.0455 10.9002 16.751L10.9444 16.7781Z" fill="#4F6540"/>
<path d="M11.8369 19.8902C11.8369 20.5933 11.3428 20.8785 10.7332 20.527C10.1211 20.1754 9.62695 19.3199 9.62695 18.6144C9.62695 17.9088 10.1211 17.6261 10.7307 17.9752C11.3428 18.3292 11.8369 19.1872 11.8369 19.8902Z" fill="#32321E"/>
</svg>
