<svg width="93" height="52" viewBox="0 0 93 52" fill="none" xmlns="http://www.w3.org/2000/svg">
<g opacity="0.3">
<g opacity="0.3">
<path opacity="0.3" d="M54.9894 31.0448L51.7639 32.904L82.2784 50.5261L85.5024 48.6668L54.9894 31.0448Z" fill="#121214"/>
</g>
</g>
<g opacity="0.3">
<g opacity="0.3">
<path opacity="0.3" d="M3.04175 38.9283L4.77602 41.3625L44.7986 31.8472L43.0629 29.4143L3.04175 38.9283Z" fill="#121214"/>
</g>
</g>
<g opacity="0.3">
<g opacity="0.3">
<path opacity="0.3" d="M53.4515 27.2711C53.043 27.0366 52.5893 26.8445 52.1074 26.6961L53.2522 26.9688L69.7201 3.87916L65.501 2.87747L49.036 25.9671L51.0303 26.4404C49.0911 26.114 46.9074 26.3867 45.378 27.2711C43.1476 28.5568 43.1505 30.6435 45.378 31.9306C47.607 33.2162 51.2211 33.2162 53.4515 31.9306C55.6819 30.6435 55.6819 28.5568 53.4515 27.2711Z" fill="#121214"/>
</g>
</g>
<path d="M79.812 50.8185C81.5788 51.8372 84.4395 51.8372 86.2049 50.8185C87.0897 50.3085 87.5307 49.6403 87.5293 48.9678V47.8304L78.489 47.9011L78.4933 49.0327C78.5173 49.6784 78.954 50.3241 79.812 50.8185Z" fill="#666666"/>
<path d="M79.8121 49.7194C78.0467 48.6993 78.0467 47.0478 79.8121 46.0305C81.5789 45.0105 84.4397 45.0105 86.205 46.0305C87.9718 47.0478 87.9704 48.6993 86.2036 49.7194C84.4397 50.7366 81.5789 50.7366 79.8121 49.7194Z" fill="#808080"/>
<path d="M1.86008 41.6974C3.62545 42.716 6.48764 42.716 8.25301 41.6974C9.1364 41.186 9.5788 40.5191 9.57739 39.848V38.7079L0.537109 38.7785L0.54135 39.9116C0.565378 40.5587 1.00354 41.2029 1.86008 41.6974Z" fill="#666666"/>
<path d="M1.86008 40.5968C0.0932971 39.5796 0.0947106 37.9266 1.86008 36.908C3.62545 35.8879 6.48622 35.8879 8.253 36.908C10.0184 37.9266 10.0184 39.5796 8.253 40.5968C6.48905 41.6154 3.62545 41.6154 1.86008 40.5968Z" fill="#808080"/>
<path d="M64.048 5.80903C65.8134 6.82625 68.6756 6.82625 70.4396 5.80903C71.3258 5.30042 71.7654 4.63075 71.7654 3.95966L71.764 2.81812L62.7236 2.89158L62.7279 4.02183C62.7519 4.67172 63.1901 5.31455 64.048 5.80903Z" fill="#666666"/>
<path d="M64.0481 4.70988C62.2813 3.68983 62.2813 2.03825 64.0481 1.01961C65.8135 -0.000434726 68.6742 -0.000434726 70.4396 1.01961C72.2064 2.03825 72.205 3.69124 70.4396 4.70988C68.6742 5.7271 65.8135 5.7271 64.0481 4.70988Z" fill="#808080"/>
<path d="M69.7201 2.69663V1.20187L49.036 22.3545V24.7987L53.2523 25.799L69.7201 2.69663Z" fill="#7B916D"/>
<path d="M69.7201 1.20184L65.501 0.20015L49.036 22.3531L53.2523 23.3548L69.7201 1.20184Z" fill="#9CB88A"/>
<path d="M55.0897 26.5181H54.9639C54.742 25.912 54.2275 25.3398 53.4162 24.8708C51.1873 23.5851 47.5731 23.5851 45.3441 24.8708C44.5427 25.3342 44.0297 25.9007 43.8049 26.4955H43.6721L43.6707 28.4452C43.6707 29.2872 44.229 30.1293 45.3441 30.7735C47.5731 32.0606 51.1873 32.0606 53.4176 30.7735C54.5314 30.1293 55.0897 29.2872 55.0897 28.4452V26.5181Z" fill="#666666"/>
<path d="M53.4177 28.8464C51.1873 30.1335 47.5732 30.1335 45.3442 28.8464C43.1152 27.5593 43.1152 25.474 45.3442 24.1883C47.5732 22.9013 51.1873 22.9013 53.4163 24.1883C55.6439 25.474 55.6439 27.5593 53.4177 28.8464Z" fill="#808080"/>
<path d="M53.9618 26.2722H44.7986V26.5167C44.7986 27.192 45.2438 27.8687 46.1399 28.3858C47.9293 29.4186 50.8297 29.4186 52.6205 28.3858C53.5152 27.8687 53.9604 27.192 53.9604 26.5167V26.2722H53.9618Z" fill="#666666"/>
<path d="M52.6219 28.1414C50.8311 29.1728 47.9307 29.1728 46.1413 28.1414C44.3505 27.1073 44.3505 25.4331 46.1413 24.4017C47.9307 23.3689 50.8311 23.3689 52.6205 24.4017C54.4085 25.4331 54.4085 27.1073 52.6219 28.1414Z" fill="#ADADAD"/>
<path d="M85.5024 47.4843V45.9895L82.5668 45.9019L51.7639 29.29V31.7384L82.2784 49.3464L85.5024 47.4843Z" fill="#7B916D"/>
<path d="M85.5024 45.9895L54.9894 27.4322L51.7639 29.2915L82.2784 47.8502L85.5024 45.9895Z" fill="#9CB88A"/>
<path d="M4.77602 40.1801L3.04175 37.7458V36.2496L5.85588 37.1029L44.7986 28.2361V30.6788L4.77602 40.1801Z" fill="#7B916D"/>
<path d="M4.77602 38.6867L3.04175 36.2496L43.0643 25.799L44.7986 28.2361L4.77602 38.6867Z" fill="#9CB88A"/>
<path d="M58.0311 14.5473C55.5336 13.1063 53.5251 14.2775 53.5251 17.1398C53.5251 20.0107 55.535 23.5017 58.0311 24.9287C60.5103 26.3697 62.5315 25.207 62.5315 22.3404C62.5301 19.4682 60.5103 15.9884 58.0311 14.5473Z" fill="#333333"/>
<path d="M60.5314 13.0822C59.3173 12.3899 58.219 12.3137 57.4134 12.7474H57.4063L54.8749 14.2139C55.6834 13.766 56.7887 13.8423 58.0296 14.5473C60.5088 15.9884 62.53 19.4682 62.53 22.3404C62.53 23.7094 62.0607 24.6913 61.3102 25.1887L63.812 23.7377C64.571 23.2432 65.0388 22.2627 65.0388 20.888C65.0388 18.0144 63.0233 14.5247 60.5314 13.0822Z" fill="#474747"/>
<path d="M58.2163 14.4385C57.0021 13.7349 55.8898 13.6643 55.0855 14.091L54.8763 14.2139C55.6848 13.766 56.7901 13.8423 58.0311 14.5473C60.5103 15.987 62.5315 19.4682 62.5315 22.339C62.5315 23.7094 62.0622 24.6914 61.3117 25.1873L61.4827 25.0785C61.4827 25.0785 62.7081 24.3749 62.7081 22.2288C62.7067 19.365 60.7025 15.8655 58.2163 14.4385Z" fill="#575757"/>
<path d="M59.5534 13.6714C58.3378 12.9692 57.2325 12.8957 56.4283 13.3266L56.2078 13.4496C57.029 12.9975 58.1399 13.0709 59.3668 13.7731C61.8558 15.2142 63.8728 18.6925 63.8728 21.5718C63.8728 22.9437 63.405 23.9256 62.6417 24.4158H62.6573L62.8283 24.3155C62.8283 24.3155 64.0509 23.6063 64.0509 21.456C64.0509 18.5866 62.0353 15.1096 59.5534 13.6714Z" fill="#2B2B2B"/>
<path d="M62.8863 21.0632L63.2396 20.0404L62.4142 19.2605L62.6163 18.167L61.6 17.5651L61.7061 16.4165L60.5357 16.0619L60.417 14.9698L59.2184 14.8002L58.9371 14.0048L57.4785 13.855L57.0135 13.4383C57.0135 13.4383 55.9562 13.7081 55.6608 13.8098C55.5506 13.855 55.4417 13.8932 55.3485 13.9525L55.1689 14.0359C55.3089 13.9667 55.4686 13.9003 55.6382 13.8579C55.8898 13.7816 56.8764 13.5103 56.8764 13.5103L57.3442 13.9412L58.7972 14.091L59.0757 14.885L60.2757 15.0559L60.3774 16.1269L61.5393 16.4772L61.4516 17.6343L62.4622 18.2263L62.2474 19.3L63.0799 20.0757L62.735 21.1197L63.3343 22.0367L62.7746 22.9211L63.0531 23.5272L62.3011 24.3L62.1923 24.6815L62.3266 24.5981L62.3788 24.3071L63.1732 23.5046L62.9103 22.8957L63.4912 22.0367L62.8863 21.0632Z" fill="#333333"/>
<path d="M64.335 20.2268L64.6869 19.204L63.8587 18.4227L64.0566 17.3263L63.0459 16.7287L63.1576 15.5773L61.9859 15.2212L61.8643 14.1319L60.6685 13.9666L60.3844 13.167L58.9173 13.0073L58.4706 12.5948C58.4706 12.5948 57.3936 12.8703 57.1053 12.9762C57.0021 13.0073 56.8961 13.0624 56.7887 13.1062L56.6063 13.2136C56.766 13.1274 56.9229 13.0624 57.0742 13.0243C57.3314 12.9409 58.3222 12.6781 58.3222 12.6781L58.7986 13.1006L60.2403 13.2517L60.5187 14.0373L61.7258 14.2224L61.812 15.2862L62.9894 15.6366L62.8975 16.8121L63.9152 17.38L63.7004 18.4651L64.5329 19.235L64.1951 20.2735L64.7887 21.2059L64.2191 22.0833L64.4975 22.695L63.7456 23.4622L63.6382 23.838L63.788 23.7532L63.8304 23.4792L64.6233 22.671L64.3548 22.0564L64.947 21.1989L64.335 20.2268Z" fill="#333333"/>
<path d="M58.0311 16.0548C56.2615 15.0404 54.834 15.8584 54.834 17.8971C54.834 19.9358 56.2615 22.4125 58.0311 23.4297C59.788 24.4413 61.2184 23.6148 61.2184 21.5789C61.2184 19.5529 59.788 17.0749 58.0311 16.0548Z" fill="#1F1F1F"/>
<path d="M58.0311 16.5211C56.4848 15.6366 55.2339 16.3501 55.2339 18.1345C55.2339 19.9062 56.4848 22.0663 58.0311 22.9621C59.5731 23.8536 60.8085 23.126 60.8085 21.3472C60.8085 19.577 59.5731 17.4097 58.0311 16.5211Z" fill="#7B916D"/>
<path d="M58.0312 18.5978C57.4842 18.2898 57.0417 18.5498 57.0417 19.1686C57.0417 19.8016 57.4842 20.5603 58.0312 20.8768C58.5753 21.1975 59.0093 20.9403 59.0093 20.3088C59.0093 19.6801 58.5739 18.9185 58.0312 18.5978Z" fill="#5D6E52"/>
<path d="M58.0311 19.4456C57.8883 19.3636 57.7682 19.4272 57.7682 19.5897C57.7682 19.7536 57.8883 19.9612 58.0311 20.0389C58.1781 20.1251 58.2926 20.0644 58.2926 19.8948C58.2926 19.7253 58.1767 19.5233 58.0311 19.4456Z" fill="#36402F"/>
<path d="M58.4296 19.4894C58.383 19.4003 58.3632 19.3085 58.383 19.2534C58.3632 19.2534 58.3491 19.2591 58.3307 19.2675C58.2544 19.3085 58.2544 19.447 58.3307 19.5671C58.4028 19.69 58.5187 19.755 58.5908 19.7196C58.6276 19.7041 58.6276 19.6801 58.6375 19.6532C58.5738 19.6532 58.4876 19.5868 58.4296 19.4894Z" fill="#36402F"/>
<path d="M58.383 19.2534C58.3632 19.3099 58.383 19.4004 58.4296 19.4894C58.4876 19.5883 58.5752 19.6547 58.6374 19.6547C58.6558 19.5911 58.6374 19.5021 58.588 19.4215C58.5342 19.3198 58.4537 19.2534 58.383 19.2534Z" fill="#2B2B2B"/>
<path d="M58.4212 20.4953C58.3774 20.4119 58.3548 20.3257 58.3774 20.2593C58.3548 20.2593 58.3378 20.265 58.3223 20.2735C58.2432 20.3187 58.2432 20.4529 58.3223 20.5772C58.4043 20.7016 58.5173 20.768 58.5823 20.7199C58.6092 20.7058 58.6276 20.6903 58.6276 20.6549C58.5626 20.6549 58.4806 20.5885 58.4212 20.4953Z" fill="#36402F"/>
<path d="M58.3774 20.2607C58.3548 20.3271 58.3774 20.4119 58.4212 20.4967C58.4806 20.5885 58.5626 20.6563 58.6276 20.6563C58.6474 20.6083 58.6276 20.5094 58.5824 20.4232C58.5343 20.3257 58.4509 20.265 58.3774 20.2607Z" fill="#2B2B2B"/>
<path d="M57.5448 19.9739C57.5053 19.9033 57.4841 19.8115 57.5053 19.7437C57.4841 19.7437 57.4586 19.7507 57.4501 19.755C57.3724 19.8016 57.3724 19.9358 57.4501 20.0644C57.518 20.1845 57.6367 20.2509 57.7102 20.2042C57.7328 20.1944 57.7413 20.1703 57.7498 20.1407C57.6833 20.1407 57.5971 20.0757 57.5448 19.9739Z" fill="#36402F"/>
<path d="M57.5053 19.7451C57.4841 19.8129 57.5053 19.9033 57.5449 19.9753C57.5972 20.0756 57.6834 20.142 57.7498 20.142C57.771 20.0756 57.7583 19.9965 57.7117 19.9075C57.6495 19.8129 57.5703 19.7521 57.5053 19.7451Z" fill="#2B2B2B"/>
<path d="M57.5534 18.9737C57.5053 18.8861 57.4884 18.7942 57.5053 18.7377C57.4841 18.7377 57.4629 18.7377 57.4587 18.7476C57.3852 18.7829 57.3852 18.9327 57.4587 19.0528C57.5237 19.1686 57.6368 19.2421 57.7145 19.204C57.7428 19.187 57.7583 19.1644 57.7583 19.139C57.6876 19.139 57.6099 19.074 57.5534 18.9737Z" fill="#36402F"/>
<path d="M57.5053 18.7391C57.4883 18.7942 57.5053 18.8861 57.5534 18.9751C57.6099 19.0754 57.6876 19.1389 57.7583 19.1389C57.7795 19.0754 57.771 18.9821 57.7145 18.9073C57.6622 18.8055 57.5703 18.7391 57.5053 18.7391Z" fill="#2B2B2B"/>
<path d="M58.2713 17.4987C57.8445 17.2486 57.484 16.7443 57.3455 16.2244C57.2381 16.1919 57.1406 16.1763 57.0558 16.1566C57.1349 16.7443 57.5279 17.3899 58.031 17.671C58.3886 17.8801 58.6939 17.8377 58.8706 17.606C58.7038 17.6541 58.496 17.6315 58.2713 17.4987Z" fill="#36402F"/>
<path d="M57.3441 16.2258C57.484 16.7457 57.8445 17.25 58.2699 17.5001C58.4947 17.6329 58.7038 17.6555 58.8692 17.6075C58.9371 17.534 58.9823 17.4097 59.0021 17.2966C58.6925 16.983 58.3773 16.7174 58.0296 16.521C57.795 16.3812 57.5533 16.2837 57.3441 16.2258Z" fill="#2B2B2B"/>
<path d="M59.1618 23.1316C59.0092 22.6936 59.0374 22.2924 59.2056 22.0663H59.1802C58.824 22.2175 58.7194 22.7289 58.9145 23.3011C59.4303 23.4029 59.8784 23.2828 60.2063 22.9931C59.9222 23.1584 59.5646 23.2065 59.1618 23.1316Z" fill="#36402F"/>
<path d="M59.2071 22.0621C59.0389 22.2924 59.0092 22.695 59.1632 23.1316C59.5647 23.2065 59.9223 23.1584 60.2092 22.9931C60.2954 22.9239 60.3576 22.8533 60.4226 22.7685C60.0678 22.2557 59.5788 21.9576 59.2071 22.0621Z" fill="#2B2B2B"/>
<path d="M60.0028 19.9273C59.9011 19.5445 59.9477 19.2223 60.0947 19.0288C59.7696 19.1305 59.6184 19.5445 59.7484 20.1025C59.9081 20.7171 60.3492 21.2907 60.8071 21.4871V21.3472V21.1692C60.4439 20.9064 60.1258 20.4317 60.0028 19.9273Z" fill="#36402F"/>
<path d="M60.0962 19.0288C59.9492 19.2237 59.9011 19.5459 60.0043 19.9273C60.1273 20.4317 60.4453 20.9064 60.8086 21.1706C60.7817 20.4656 60.557 19.7126 60.2093 19.0104C60.1725 19.009 60.1329 19.0175 60.0962 19.0288Z" fill="#2B2B2B"/>
<path d="M55.6382 20.0291C55.9816 20.8767 56.5173 21.6849 57.159 22.2938C57.2142 22.2005 57.2325 22.0946 57.2523 21.9717C56.718 21.4221 56.2686 20.7369 55.9435 20.0107C55.8389 19.9824 55.7329 19.998 55.6382 20.0291Z" fill="#36402F"/>
<path d="M55.9448 20.0093C56.2685 20.7369 56.7194 21.4207 57.2536 21.9703C57.2932 21.6199 57.1674 21.165 56.8946 20.7567C56.6176 20.3328 56.2614 20.0672 55.9448 20.0093Z" fill="#2B2B2B"/>
<path d="M55.4869 18.102C55.4841 18.0539 55.4841 18.0073 55.4841 17.9536C55.4841 17.3475 55.6269 16.8601 55.8855 16.5281C55.8784 16.5126 55.8629 16.4942 55.8431 16.4772C55.4686 16.8121 55.2354 17.3716 55.2354 18.1345V18.2701C55.6382 18.5597 56.0212 18.5725 56.2247 18.3068C56.0212 18.3662 55.7512 18.2955 55.4869 18.102Z" fill="#36402F"/>
<path d="M55.4841 17.9536C55.4841 18.0073 55.4841 18.0539 55.487 18.102C55.7527 18.2969 56.0212 18.3662 56.2262 18.3068C56.2686 18.2447 56.2983 18.1924 56.3279 18.1189C56.4749 17.6908 56.2714 17.0169 55.8855 16.5281C55.6269 16.8587 55.4841 17.3475 55.4841 17.9536Z" fill="#2B2B2B"/>
<path d="M58.759 20.7312C58.9102 20.6366 59.0092 20.443 59.0092 20.1732C59.0092 19.6109 58.612 18.9271 58.1272 18.6488C57.9024 18.5117 57.7003 18.4948 57.5463 18.5682L49.3074 23.3209L50.4975 25.5094L58.759 20.7312Z" fill="#36402F"/>
<path d="M50.7788 24.9287C50.7802 24.3664 50.3831 23.6812 49.8997 23.3986C49.4106 23.1203 49.0149 23.352 49.0177 23.9115C49.0177 24.4724 49.4106 25.1533 49.9025 25.4359C50.3845 25.7156 50.7788 25.491 50.7788 24.9287Z" fill="#5D6E52"/>
<path d="M54.3322 12.1625L53.0912 9.78613L56.3109 20.4543V24.8227L56.9286 25.1773V20.6634L54.3322 12.1625Z" fill="#7B916D"/>
<path d="M61.9279 17.7813L56.9286 20.662L54.3322 12.1625L59.3314 9.27753L61.9279 17.7813Z" fill="#8AA37B"/>
<path d="M61.9279 22.2952L56.9286 25.1774V20.662L61.9279 17.7798V22.2952Z" fill="#5D6E52"/>
<path d="M59.3314 9.27751L54.3322 12.1625L53.0912 9.78612L58.0325 6.93506L59.3314 9.27751Z" fill="#9CB88A"/>
<path d="M56.9286 21.7046L54.7081 23.5272L51.9293 24.591L51.3116 24.1092L56.3095 21.3486L56.9286 21.7046Z" fill="#9CB88A"/>
<path d="M56.9286 25.1788L52.5711 27.695L51.74 26.6947L52.5711 24.2209L56.9286 21.7047L58.3025 23.6063L56.9286 25.1788Z" fill="#5D6E52"/>
<path d="M56.4933 19.1573L54.5823 20.2509L52.9301 16.1325L53.1873 14.8369L55.0997 13.7448L56.4933 19.1573Z" fill="#5D6E52"/>
<path d="M50.5202 14.0811L49.0319 14.9288L49.2354 15.3541L50.6163 15.7497L53.1874 14.837L55.0997 13.7448L50.5202 14.0811Z" fill="#ABC997"/>
<path d="M50.3434 20.6252L54.5823 20.2508L53.1872 14.8369L49.1929 15.265L50.3434 20.6252Z" fill="#7B916D"/>
<path d="M55.1576 17.3221C55.0106 17.3404 54.8735 17.4492 54.7802 17.6498C54.5838 18.068 54.6431 18.7109 54.9046 19.0853C55.0247 19.2647 55.1689 19.3438 55.3074 19.3452L58.964 19.0231L58.8368 16.9929L55.1576 17.3221Z" fill="#9CB88A"/>
<path d="M58.13 17.0522C57.983 17.0706 57.8431 17.1794 57.7484 17.38C57.5547 17.7968 57.6127 18.4396 57.8756 18.8168C57.9957 18.9934 58.1413 19.0754 58.277 19.0754L58.619 19.0457L58.4084 17.0325L58.13 17.0522Z" fill="#5D6E52"/>
<path d="M58.4297 17.3263C58.2332 17.7445 58.2926 18.3888 58.5555 18.7646C58.8198 19.139 59.1929 19.1065 59.3837 18.6883C59.5774 18.2729 59.5209 17.6315 59.2551 17.2529C58.9936 16.8813 58.6247 16.9124 58.4297 17.3263Z" fill="#050505"/>
<path d="M58.5286 16.7753C58.3449 16.7979 58.171 16.9336 58.0537 17.1836C57.8092 17.7064 57.8827 18.5117 58.212 18.9807C58.3618 19.2026 58.5413 19.3043 58.7138 19.3057L66.058 18.66L65.9011 16.1198L58.5286 16.7753Z" fill="#9CB88A"/>
<path d="M65.3894 16.5379C65.1449 17.0607 65.2198 17.8646 65.5449 18.3336C65.8756 18.8027 66.3435 18.7603 66.5824 18.239C66.824 17.7191 66.7534 16.9208 66.4212 16.4447C66.0961 15.9785 65.6339 16.0194 65.3894 16.5379Z" fill="#5D6E52"/>
<path d="M65.9393 16.3783C65.7923 16.3967 65.6552 16.5083 65.5605 16.7075C65.364 17.1243 65.4248 17.7685 65.6863 18.1429C65.8064 18.3209 65.9506 18.4015 66.0877 18.4015L86.5216 16.6114L86.4 14.5826L65.9393 16.3783Z" fill="#9CB88A"/>
<path d="M85.4247 14.6731C85.2777 14.6928 85.1392 14.8002 85.0459 15.0008C84.8494 15.4204 84.9088 16.0618 85.1731 16.4377C85.2918 16.6157 85.436 16.6962 85.5745 16.6962L86.277 16.634L86.1526 14.6024L85.4247 14.6731Z" fill="#5D6E52"/>
<path d="M85.9915 14.9132C85.7951 15.3329 85.853 15.9743 86.1145 16.3501C86.3802 16.7245 86.752 16.692 86.9456 16.2752C87.1393 15.8613 87.0813 15.2198 86.8156 14.8398C86.5527 14.4682 86.1838 14.4993 85.9915 14.9132Z" fill="#5D6E52"/>
<path d="M86.0862 15.0531C85.9308 15.3851 85.976 15.9022 86.1852 16.2017C86.3944 16.4998 86.694 16.4744 86.8481 16.1396C87.0036 15.8076 86.9584 15.2975 86.7449 14.9924C86.5386 14.6971 86.2403 14.7183 86.0862 15.0531Z" fill="#050505"/>
<path d="M86.1174 13.7731C85.8502 13.807 85.5986 14.0062 85.4276 14.3722C85.0714 15.1365 85.1774 16.3119 85.658 16.9929C85.8757 17.3193 86.14 17.4676 86.393 17.469L92.7676 16.9096L92.5386 13.1995L86.1174 13.7731Z" fill="#9CB88A"/>
<path d="M54.5075 14.7197C54.3605 14.7366 54.222 14.8454 54.1287 15.0446C53.9308 15.4628 53.9902 16.1071 54.2545 16.4815C54.3732 16.6609 54.5174 16.74 54.6559 16.7414L58.3138 16.4193L58.1866 14.3905L54.5075 14.7197Z" fill="#9CB88A"/>
<path d="M57.4785 14.447C57.3315 14.4654 57.193 14.5742 57.0997 14.7748C56.9032 15.1916 56.9626 15.8358 57.2255 16.2116C57.3442 16.3896 57.4898 16.4702 57.6269 16.4702L57.9675 16.4391L57.7569 14.4272L57.4785 14.447Z" fill="#5D6E52"/>
<path d="M57.7781 14.7225C57.5831 15.1407 57.641 15.7849 57.9025 16.1608C58.1683 16.5352 58.5428 16.4998 58.7322 16.083C58.9259 15.6677 58.8708 15.0277 58.605 14.6476C58.3435 14.2775 57.9732 14.3071 57.7781 14.7225Z" fill="#050505"/>
<path d="M57.8771 14.1701C57.6919 14.1913 57.5209 14.3283 57.4022 14.5798C57.1576 15.1011 57.2326 15.9064 57.5605 16.3741C57.7089 16.5959 57.8898 16.699 58.0636 16.699L65.405 16.0534L65.251 13.516L57.8771 14.1701Z" fill="#9CB88A"/>
<path d="M64.7392 13.9328C64.4947 14.4555 64.5696 15.2594 64.8933 15.7285C65.2254 16.1975 65.6918 16.1566 65.9307 15.6338C66.1724 15.1139 66.1031 14.3142 65.7696 13.8395C65.4445 13.3733 64.9809 13.4128 64.7392 13.9328Z" fill="#5D6E52"/>
<path d="M65.3017 13.7505C65.1548 13.7675 65.0162 13.8763 64.9229 14.0769C64.7251 14.4965 64.7858 15.1365 65.0487 15.5123C65.1675 15.6903 65.3116 15.7722 65.4516 15.7722L69.1095 15.4501L68.9837 13.4199L65.3017 13.7505Z" fill="#9CB88A"/>
<path d="M68.5724 13.7533C68.3774 14.1687 68.4367 14.8143 68.6968 15.1901C68.9625 15.5631 69.3356 15.532 69.5278 15.1138C69.7201 14.6971 69.6635 14.0571 69.3992 13.6784C69.1378 13.3069 68.7646 13.3365 68.5724 13.7533Z" fill="#5D6E52"/>
<path d="M50.2628 19.6207L48.0805 20.8682L46.448 16.8233L46.701 15.5264L48.8847 14.2789L50.2628 19.6207Z" fill="#5D6E52"/>
<path d="M45.8261 14.5982L43.6636 15.8457L44.0664 16.4334L45.8841 16.2582L46.7024 15.5264L48.8848 14.2803L45.8261 14.5982Z" fill="#ABC997"/>
<path d="M43.8446 21.2426L48.0806 20.8683L46.7011 15.5264L43.6636 15.8457L44.2163 18.4255L43.3301 18.8578L43.8446 21.2426Z" fill="#5D6E52"/>
<path d="M44.9753 17.5623L43.7329 15.1873L46.9541 25.8541V30.2225L47.5718 30.5799V26.0646L44.9753 17.5623Z" fill="#7B916D"/>
<path d="M52.5709 23.181L47.5717 26.0646L44.9752 17.5608L49.9731 14.6759L52.5709 23.181Z" fill="#8AA37B"/>
<path d="M52.571 27.6964L47.5718 30.58V26.0646L52.571 23.181V27.6964Z" fill="#5D6E52"/>
<path d="M54.3322 12.1625L44.9753 17.5623L43.7329 15.1873L53.0912 9.78613L54.3322 12.1625Z" fill="#9CB88A"/>
<path d="M41.2042 24.2576C38.7024 22.8151 36.6968 23.9878 36.6968 26.8501C36.6968 29.7195 38.7038 33.2134 41.2042 34.6404C43.6805 36.0772 45.7031 34.9201 45.7031 32.0521C45.7031 29.177 43.6805 25.6987 41.2042 24.2576Z" fill="#333333"/>
<path d="M43.7046 22.7911C42.489 22.1017 41.3936 22.024 40.5866 22.4563H40.5809L38.0494 23.9256C38.8565 23.4749 39.9632 23.5526 41.2042 24.2576C43.6806 25.6987 45.7032 29.1784 45.7032 32.0521C45.7032 33.4183 45.2339 34.4016 44.4834 34.8975L46.9838 33.448C47.7428 32.9535 48.212 31.9702 48.212 30.5955C48.2106 27.7275 46.1951 24.235 43.7046 22.7911Z" fill="#474747"/>
<path d="M41.388 24.1488C40.1753 23.4424 39.0615 23.3731 38.2572 23.8026L38.0494 23.9256C38.8565 23.4749 39.9632 23.5526 41.2042 24.2576C43.6806 25.6986 45.7032 29.1784 45.7032 32.0521C45.7032 33.4197 45.2339 34.4016 44.4834 34.8975L44.6544 34.7915C44.6544 34.7915 45.8799 34.0879 45.8799 31.9391C45.8799 29.0753 43.8756 25.5771 41.388 24.1488Z" fill="#575757"/>
<path d="M42.7265 23.3817C41.5124 22.6809 40.4071 22.606 39.6014 23.0384L39.3823 23.1627C40.2035 22.712 41.3117 22.7812 42.5413 23.4862C45.0304 24.9273 47.0474 28.4057 47.0474 31.2836C47.0474 32.6554 46.5795 33.6359 45.8163 34.1262H45.8318L46.0028 34.0301C46.0028 34.0301 47.2255 33.3194 47.2255 31.1663C47.2241 28.2997 45.2071 24.8185 42.7265 23.3817Z" fill="#2B2B2B"/>
<path d="M46.0594 30.7749L46.4114 29.7506L45.5873 28.9707L45.7895 27.8758L44.7746 27.2754L44.8792 26.1267L43.7103 25.7721L43.5888 24.6814L42.393 24.5077L42.1117 23.7165L40.6502 23.5639L40.188 23.1485C40.188 23.1485 39.1294 23.417 38.8354 23.5187C38.7223 23.5639 38.6149 23.6049 38.5216 23.6642L38.3435 23.7462C38.4834 23.6769 38.6403 23.6105 38.8128 23.5695C39.0629 23.4918 40.0509 23.2206 40.0509 23.2206L40.5188 23.6529L41.9718 23.8027L42.2488 24.5924L43.4488 24.7648L43.5492 25.8371L44.711 26.1861L44.6262 27.3446L45.6368 27.9351L45.4206 29.0131L46.2545 29.7859L45.911 30.8286L46.5089 31.7455L45.9492 32.6299L46.2262 33.236L45.4743 34.0117L45.3668 34.3931L45.4997 34.3084L45.552 34.0187L46.3478 33.2163L46.0835 32.6073L46.663 31.7455L46.0594 30.7749Z" fill="#333333"/>
<path d="M47.5081 29.9371L47.86 28.9142L47.0303 28.1344L47.2282 27.0352L46.2176 26.4362L46.3293 25.2875L45.1561 24.9315L45.0374 23.8408L43.8388 23.6755L43.5547 22.8759L42.0904 22.7148L41.641 22.3037C41.641 22.3037 40.5654 22.5792 40.2784 22.6851C40.1752 22.7148 40.0692 22.7713 39.9618 22.8151L39.7781 22.9225C39.9378 22.8363 40.0961 22.7713 40.2459 22.7332C40.5017 22.6512 41.494 22.3899 41.494 22.3899L41.9717 22.8109L43.4106 22.9621L43.689 23.7462L44.8975 23.9341L44.9809 24.9979L46.1597 25.3469L46.0664 26.5209L47.0855 27.0889L46.872 28.1753L47.7017 28.9425L47.3667 29.9823L47.9575 30.9134L47.3893 31.7921L47.6678 32.4039L46.9159 33.1711L46.8056 33.5483L46.954 33.4649L46.9964 33.1894L47.7893 32.3827L47.5236 31.7681L48.1158 30.9106L47.5081 29.9371Z" fill="#333333"/>
<path d="M41.2042 25.7679C39.4332 24.752 38.0056 25.5701 38.0056 27.6088C38.0056 29.6475 39.4332 32.1256 41.2042 33.1414C42.9596 34.1515 44.39 33.3279 44.39 31.2892C44.39 29.2646 42.9611 26.7823 41.2042 25.7679Z" fill="#1F1F1F"/>
<path d="M41.2043 26.2355C39.6566 25.3483 38.4071 26.0632 38.4071 27.8461C38.4071 29.6192 39.658 31.7794 41.2043 32.6723C42.7435 33.5638 43.9789 32.8348 43.9789 31.0617C43.9789 29.2872 42.7435 27.1228 41.2043 26.2355Z" fill="#7B916D"/>
<path d="M41.2042 28.3082C40.6572 28.0002 40.2134 28.2615 40.2134 28.8761C40.2134 29.5119 40.6572 30.2734 41.2042 30.5884C41.7441 30.9106 42.1822 30.652 42.1822 30.0205C42.1837 29.3904 41.7441 28.6289 41.2042 28.3082Z" fill="#5D6E52"/>
<path d="M41.2042 29.1587C41.06 29.0753 40.9385 29.1403 40.9385 29.3014C40.9385 29.4695 41.06 29.6729 41.2042 29.752C41.3512 29.8396 41.4629 29.7746 41.4629 29.6065C41.4629 29.4398 41.3512 29.235 41.2042 29.1587Z" fill="#36402F"/>
<path d="M41.6028 29.1996C41.5576 29.112 41.5364 29.0202 41.5576 28.9651C41.5364 28.9651 41.5223 28.9707 41.5025 28.9806C41.429 29.0202 41.429 29.1587 41.5025 29.2787C41.5774 29.4017 41.6933 29.4681 41.764 29.4271C41.8007 29.4144 41.8007 29.3904 41.812 29.3649C41.7442 29.3649 41.6622 29.2985 41.6028 29.1996Z" fill="#36402F"/>
<path d="M41.5562 28.9651C41.535 29.0202 41.5562 29.112 41.6015 29.1996C41.6608 29.2985 41.7442 29.3649 41.8093 29.3649C41.8248 29.2999 41.8093 29.2137 41.7612 29.1318C41.7061 29.0315 41.6241 28.9651 41.5562 28.9651Z" fill="#2B2B2B"/>
<path d="M41.5958 30.2056C41.5492 30.1222 41.528 30.0375 41.5492 29.9711C41.528 29.9711 41.5124 29.9753 41.4954 29.9838C41.4177 30.029 41.4177 30.1632 41.4954 30.289C41.5774 30.4119 41.6891 30.4811 41.7555 30.4302C41.7838 30.4189 41.8008 30.402 41.8008 30.3652C41.7358 30.3652 41.6538 30.2988 41.5958 30.2056Z" fill="#36402F"/>
<path d="M41.5491 29.9711C41.5279 30.0375 41.5491 30.1222 41.5958 30.2056C41.6537 30.2988 41.7371 30.3652 41.8007 30.3652C41.8205 30.3172 41.8007 30.2225 41.7555 30.1335C41.7074 30.0375 41.6226 29.9753 41.5491 29.9711Z" fill="#2B2B2B"/>
<path d="M40.7166 29.6842C40.6784 29.6136 40.6586 29.5232 40.6784 29.4582C40.6586 29.4582 40.6318 29.461 40.6247 29.4695C40.547 29.5119 40.547 29.6475 40.6247 29.7732C40.6897 29.8975 40.8085 29.9639 40.8834 29.9159C40.9046 29.906 40.9145 29.882 40.923 29.8509C40.8551 29.8509 40.7689 29.7859 40.7166 29.6842Z" fill="#36402F"/>
<path d="M40.677 29.4582C40.6572 29.5232 40.677 29.6136 40.7151 29.6842C40.7675 29.7859 40.8551 29.8509 40.9215 29.8509C40.9427 29.7859 40.9286 29.7097 40.882 29.6178C40.8198 29.5232 40.742 29.461 40.677 29.4582Z" fill="#2B2B2B"/>
<path d="M40.7265 28.6854C40.677 28.5978 40.66 28.5045 40.677 28.4508C40.6572 28.4508 40.636 28.4508 40.6318 28.4579C40.5583 28.4946 40.5583 28.6444 40.6318 28.7645C40.6968 28.8775 40.8085 28.9538 40.8862 28.9142C40.9145 28.8973 40.9286 28.8775 40.9286 28.8493C40.8607 28.8493 40.7844 28.7828 40.7265 28.6854Z" fill="#36402F"/>
<path d="M40.677 28.4508C40.6601 28.5045 40.677 28.5978 40.7265 28.6854C40.7831 28.7829 40.8608 28.8493 40.9287 28.8493C40.9527 28.7843 40.9428 28.6939 40.8863 28.6176C40.8354 28.5172 40.7421 28.4508 40.677 28.4508Z" fill="#2B2B2B"/>
<path d="M41.4431 27.2104C41.0191 26.9617 40.6573 26.4574 40.5188 25.9346C40.4127 25.9021 40.3124 25.8894 40.229 25.8682C40.3067 26.4574 40.7011 27.1044 41.2043 27.3813C41.5604 27.589 41.8657 27.548 42.0438 27.3149C41.877 27.3644 41.6679 27.3446 41.4431 27.2104Z" fill="#36402F"/>
<path d="M40.5187 25.9346C40.6586 26.4573 41.019 26.9631 41.4431 27.2104C41.665 27.3446 41.877 27.3658 42.0438 27.3163C42.1116 27.2443 42.1554 27.1228 42.1766 27.0084C41.8657 26.6933 41.5505 26.4319 41.2042 26.2355C40.9667 26.0928 40.7265 25.9968 40.5187 25.9346Z" fill="#2B2B2B"/>
<path d="M42.3335 32.8433C42.1851 32.4039 42.2106 32.0027 42.3802 31.778H42.3533C41.9972 31.9278 41.8926 32.4406 42.089 33.0128C42.6021 33.1117 43.053 32.9931 43.3809 32.7034C43.0939 32.8701 42.7364 32.9153 42.3335 32.8433Z" fill="#36402F"/>
<path d="M42.3803 31.7738C42.2106 32.0027 42.1824 32.4039 42.3336 32.8433C42.7364 32.9153 43.0941 32.8687 43.3824 32.7034C43.4644 32.6356 43.5308 32.565 43.5958 32.4774C43.2396 31.9631 42.752 31.6664 42.3803 31.7738Z" fill="#2B2B2B"/>
<path d="M43.1745 29.639C43.0742 29.2561 43.1208 28.9326 43.2678 28.7405C42.9427 28.8436 42.7915 29.2561 42.9229 29.8114C43.0798 30.4302 43.5236 30.9995 43.9788 31.1987V31.0617V30.8809C43.6141 30.6167 43.2989 30.142 43.1745 29.639Z" fill="#36402F"/>
<path d="M43.2678 28.7405C43.1208 28.9326 43.0727 29.2561 43.1745 29.639C43.2975 30.142 43.6169 30.6167 43.9788 30.8809C43.9519 30.1773 43.7272 29.4228 43.3823 28.7207C43.3455 28.7207 43.3074 28.7291 43.2678 28.7405Z" fill="#2B2B2B"/>
<path d="M38.8127 29.7379C39.1562 30.587 39.689 31.3966 40.3335 32.0041C40.3858 31.9094 40.407 31.8049 40.4254 31.6834C39.8926 31.1324 39.4403 30.4472 39.1166 29.7195C39.012 29.6927 38.9046 29.7082 38.8127 29.7379Z" fill="#36402F"/>
<path d="M39.118 29.7195C39.4417 30.4472 39.894 31.1324 40.4269 31.6834C40.4665 31.3302 40.3392 30.8767 40.0693 30.4669C39.7894 30.0431 39.4332 29.7775 39.118 29.7195Z" fill="#2B2B2B"/>
<path d="M38.6614 27.8123C38.6586 27.7642 38.6586 27.719 38.6586 27.6653C38.6586 27.0578 38.8014 26.5704 39.0586 26.2398C39.0515 26.2228 39.036 26.2059 39.0162 26.1875C38.6402 26.5223 38.4084 27.0832 38.4084 27.8448V27.9818C38.8127 28.27 39.1957 28.2813 39.3978 28.0185C39.1957 28.075 38.9258 28.0086 38.6614 27.8123Z" fill="#36402F"/>
<path d="M38.6587 27.6653C38.6587 27.7176 38.6587 27.7628 38.6615 27.8123C38.9273 28.0086 39.1958 28.0736 39.3994 28.0185C39.4404 27.9535 39.4729 27.9027 39.4997 27.8306C39.6467 27.3997 39.446 26.7286 39.0573 26.2384C38.8 26.5704 38.6587 27.0564 38.6587 27.6653Z" fill="#2B2B2B"/>
</svg>
