<svg width="89" height="69" viewBox="0 0 89 69" fill="none" xmlns="http://www.w3.org/2000/svg">
<g opacity="0.3">
<g opacity="0.3">
<path opacity="0.3" d="M0.198547 36.5422L56.2706 68.6991L87.3545 50.9428L31.2824 18.7876L0.198547 36.5422Z" fill="#121214"/>
</g>
</g>
<path d="M62.422 38.121L62.9786 37.4778L62.1926 37.8775L62.422 38.121Z" fill="#535359"/>
<path d="M61.7439 40.2692L62.3005 39.6241L61.5162 40.0273L61.7439 40.2692Z" fill="#535359"/>
<path d="M61.9649 43.0605L62.5215 42.4172L61.7355 42.8187L61.9649 43.0605Z" fill="#535359"/>
<path d="M65.7582 49.72L66.3991 49.3572L65.5271 49.4831L65.7582 49.72Z" fill="#535359"/>
<path d="M68.0589 51.2787L68.6981 50.9126L67.6912 50.8336L68.0589 51.2787Z" fill="#535359"/>
<path d="M70.2819 51.7573L71.4963 51.0704L69.9159 51.3106L70.2819 51.7573Z" fill="#535359"/>
<path d="M77.317 42.8943L77.5768 42.9194L77.1011 41.3323L76.8481 41.3088C76.6879 40.8922 76.5091 40.4723 76.3016 40.0642L76.4922 39.9534L75.6168 38.4468L75.4313 38.5543C75.1749 38.1663 74.8949 37.7884 74.5981 37.434L74.701 37.2207L73.5574 36.0215L73.4579 36.2365C73.1442 35.951 72.8237 35.689 72.4897 35.4572V35.1717L71.2568 34.4629V34.7467C70.9178 34.5956 70.5889 34.4814 70.2701 34.4058L70.1756 34.0968L69.032 33.9825L69.1265 34.3C68.8381 34.3185 68.5631 34.3739 68.3118 34.4629L68.1364 34.1673L67.2644 34.6728L67.4432 34.9752C67.234 35.1599 67.0434 35.3699 66.8832 35.6201L66.3232 35.3783L63.6735 36.9654L65.2589 37.0494C65.1679 37.3568 65.5997 37.1771 65.5642 37.5415L65.2589 37.6742L65.9808 38.949L66.2507 39.1018C66.2878 39.5133 66.3553 39.9248 66.4481 40.3413L66.2001 40.3178L66.6724 41.9016L66.9321 41.9319C67.0957 42.3484 67.2762 42.7633 67.482 43.168L67.2813 43.2856L68.1567 44.7905L68.3658 44.6729C68.6222 45.0575 68.8954 45.427 69.1889 45.7713L69.0776 46.0165L70.2212 47.2191L70.3375 46.9605C70.6445 47.2359 70.9582 47.4962 71.2854 47.7213V48.0656L72.2857 48.8197L72.5218 48.42C72.8541 48.5661 72.0748 49.117 72.3885 49.1909L71.5772 50.9595L74.1781 49.8107L74.6268 48.8584C74.9084 48.8382 75.1783 48.7861 75.4279 48.6971L75.6455 49.0717L76.5192 48.5661L76.2983 48.1899C76.5057 48.0152 76.6913 47.8086 76.8464 47.5668L77.1264 47.8624L77.597 46.816L77.317 46.5238C77.4064 46.2215 77.4739 45.8956 77.511 45.5412L77.8011 45.7109V44.29L77.511 44.1203C77.4739 43.7189 77.4047 43.3091 77.317 42.8943Z" fill="#121214"/>
<path d="M63.6735 36.6681L63.8472 36.9637L68.3118 34.4645L68.1347 34.1672L63.6735 36.6681Z" fill="#303033"/>
<path d="M71.8336 50.6975L72.0512 51.072L76.5142 48.5662L76.2932 48.1917L71.8336 50.6975Z" fill="#303033"/>
<path d="M72.8524 45.3952L73.1138 45.4204L72.6415 43.8332L72.3868 43.8147C72.2266 43.3914 72.0461 42.9749 71.8421 42.5651L72.036 42.4559L71.1589 40.9476L70.9717 41.0535C70.7086 40.6688 70.4337 40.2909 70.1385 39.9349L70.2397 39.7182L69.0944 38.5223L68.9966 38.7356C68.6846 38.4535 68.3641 38.1898 68.0285 37.958V37.6725L66.7955 36.962V37.2492C66.4582 37.0947 66.1276 36.9838 65.8088 36.9099L65.7127 36.5975L64.5725 36.4867L64.6669 36.8025C64.3768 36.8209 64.1036 36.878 63.8489 36.9654L63.6735 36.6714L62.7998 37.1736L62.9785 37.4793C62.7677 37.6607 62.5805 37.874 62.4219 38.1243L62.1909 37.8791L61.7203 38.9238L61.9598 39.1757C61.8721 39.4831 61.8097 39.8156 61.7726 40.1784L61.5179 40.0306V41.4515L61.7844 41.6044C61.8215 42.0125 61.8906 42.4274 61.9868 42.8456L61.7372 42.8204L62.2128 44.4059L62.4742 44.4344C62.6328 44.851 62.8166 45.2658 63.0207 45.674L62.82 45.7848L63.6954 47.2964L63.9029 47.1755C64.1609 47.5601 64.4342 47.9263 64.7243 48.2739L64.618 48.5208L65.7599 49.7184L65.8763 49.4648C66.1832 49.7402 66.4986 49.9972 66.8242 50.2223V50.5699L68.0605 51.2787V50.9226C68.3894 51.0704 68.7116 51.1796 69.0219 51.2535L69.1417 51.6465L70.2819 51.754L70.1621 51.3593C70.4438 51.3392 70.7086 51.2837 70.9633 51.1964L71.1809 51.571L72.0546 51.0688L71.837 50.6942C72.0411 50.5162 72.2232 50.3096 72.3852 50.0661L72.6652 50.36L73.1324 49.3153L72.8541 49.023C72.9418 48.7207 73.0075 48.3966 73.0447 48.0405L73.3381 48.2135V46.7892L73.0497 46.6212C73.0143 46.2215 72.9468 45.8067 72.8524 45.3952Z" fill="#303033"/>
<path d="M68.0791 47.943C66.045 46.7757 64.392 43.9222 64.392 41.5826C64.392 40.5984 64.6838 39.8627 65.1713 39.4277C64.2925 39.6931 63.7258 40.5866 63.7258 41.9605C63.7258 44.3034 65.3737 47.1519 67.4112 48.3242C68.5902 48.9977 69.6427 48.9641 70.3224 48.3595C69.6966 48.5476 68.9208 48.4284 68.0791 47.943Z" fill="#121214"/>
<path d="M67.4111 39.8392C66.5712 39.3589 65.7936 39.2363 65.1712 39.4261C64.6838 39.8644 64.392 40.5984 64.392 41.5826C64.392 43.9256 66.0432 46.7741 68.079 47.9431C68.9207 48.4285 69.6949 48.5494 70.3206 48.3596C70.8081 47.9212 71.0982 47.1856 71.0982 46.1997C71.0982 43.8584 69.4453 41.0116 67.4111 39.8392Z" fill="#939598"/>
<path d="M67.9239 45.6017C66.9743 45.0643 66.2103 43.7391 66.2103 42.6457C66.2103 42.3535 66.2642 42.1082 66.3654 41.9185C65.9589 42.0427 65.6975 42.4542 65.6975 43.0925C65.6975 44.1791 66.4633 45.506 67.4129 46.0518C68.1027 46.4482 68.7066 46.3189 68.9764 45.7932C68.6846 45.8872 68.3203 45.8318 67.9239 45.6017Z" fill="#535359"/>
<path d="M67.4111 42.1083C67.0181 41.8816 66.6538 41.8211 66.3654 41.9202C66.2642 42.1083 66.2102 42.3552 66.2102 42.6475C66.2102 43.7392 66.976 45.0643 67.9239 45.6035C68.3202 45.8319 68.6846 45.889 68.9747 45.795C69.0708 45.6018 69.1265 45.3583 69.1265 45.066C69.1265 43.981 68.359 42.6492 67.4111 42.1083Z" fill="#A7A9AC"/>
<path d="M72.6415 43.8332L73.1138 45.4187L77.5784 42.9178L77.1028 41.3323L72.6415 43.8332Z" fill="#535359"/>
<path d="M73.3364 48.2134L77.7977 45.7109V44.29L73.3364 46.7908V48.2134Z" fill="#535359"/>
<path d="M72.6635 50.3616L77.1214 47.8641L77.5936 46.8177L73.1307 49.3169L72.6635 50.3616Z" fill="#535359"/>
<path d="M71.1589 40.9443L72.036 42.4542L76.4922 39.9517L75.6185 38.4452L71.1589 40.9443Z" fill="#535359"/>
<path d="M69.0945 38.5224L70.2381 39.7183L74.701 37.2207L73.5575 36.0215L69.0945 38.5224Z" fill="#535359"/>
<path d="M66.7938 36.9604L68.0285 37.6742L72.4897 35.1733L71.2585 34.4629L66.7938 36.9604Z" fill="#535359"/>
<path d="M64.5724 36.4868L65.7126 36.5959L70.1756 34.0951L69.032 33.9825L64.5724 36.4868Z" fill="#535359"/>
<path d="M70.1385 39.9331L74.5981 37.434L74.701 37.2207L70.238 39.7181L70.1385 39.9331Z" fill="#303033"/>
<path d="M72.3868 43.813L72.6415 43.8348L77.1028 41.3324L76.8481 41.3088L72.3868 43.813Z" fill="#303033"/>
<path d="M73.048 46.6245L73.3365 46.7925L77.7977 44.2899L77.5076 44.1237L73.048 46.6245Z" fill="#303033"/>
<path d="M72.8524 49.0264L73.1307 49.3186L77.5937 46.8178L77.3137 46.5255L72.8524 49.0264Z" fill="#303033"/>
<path d="M68.0284 37.9581L72.4914 35.4572V35.1716L68.0284 37.6726V37.9581Z" fill="#303033"/>
<path d="M65.7126 36.596L65.8071 36.9117L70.2701 34.4042L70.1739 34.0968L65.7126 36.596Z" fill="#303033"/>
<path d="M7.04144 27.8336L56.0919 56.0334V49.8006L7.04144 21.6041V27.8336Z" fill="black"/>
<path d="M7.04144 29.226L10.9073 27.0073V24.75L7.04144 26.9737V29.226Z" fill="black"/>
<path d="M41.5746 49.0214L45.4354 46.7993V44.547L41.5746 46.7674V49.0214Z" fill="black"/>
<path d="M41.8613 50.0156L42.4179 49.3689L41.6336 49.7737L41.8613 50.0156Z" fill="#535359"/>
<path d="M41.1866 52.1621L41.7432 51.5171L40.9556 51.9219L41.1866 52.1621Z" fill="#535359"/>
<path d="M41.4093 54.9552L41.9642 54.3103L41.1765 54.7117L41.4093 54.9552Z" fill="#535359"/>
<path d="M45.1976 61.6146L45.8385 61.2485L44.9698 61.3762L45.1976 61.6146Z" fill="#535359"/>
<path d="M47.5016 63.1732L48.1425 62.8054L47.1322 62.7299L47.5016 63.1732Z" fill="#535359"/>
<path d="M49.7196 63.652L50.939 62.9667L49.3569 63.2035L49.7196 63.652Z" fill="#535359"/>
<path d="M56.7564 54.7873L57.0178 54.8141L56.5422 53.2286L56.2892 53.2051C56.1306 52.7835 55.9484 52.3687 55.7444 51.9555L55.9366 51.848L55.0596 50.3415L54.8723 50.4473C54.6143 50.0627 54.336 49.6831 54.0425 49.3287L54.1437 49.1137L52.9984 47.9179L52.8989 48.1295C52.5869 47.844 52.2664 47.5836 51.9358 47.3518V47.0613L50.6995 46.3559V46.638C50.3605 46.4869 50.0316 46.376 49.7111 46.3021L49.615 45.9897L48.4748 45.8772L48.5692 46.193C48.2808 46.2131 48.0059 46.2669 47.7529 46.3576L47.5775 46.0636L46.7038 46.5658L46.8809 46.8698C46.6717 47.0512 46.4845 47.2645 46.3226 47.5131L45.7626 47.2712L43.1145 48.8601L44.7 48.9424C44.6106 49.2531 45.039 49.07 45.007 49.4345L44.7 49.5689L45.4202 50.8403L45.6901 50.9965C45.7255 51.4046 45.7946 51.8195 45.8874 52.236L45.6411 52.2091L46.11 53.7963L46.3698 53.8215C46.5351 54.2414 46.7156 54.6579 46.9197 55.0627L46.7206 55.1803L47.596 56.6851L47.8035 56.5676C48.0598 56.9488 48.3348 57.3183 48.6266 57.666L48.5152 57.9112L49.6571 59.1104L49.7769 58.8568C50.0805 59.1323 50.3942 59.3892 50.7248 59.6143V59.9603L51.725 60.7127L51.9611 60.3164C52.2917 60.4608 51.5125 61.0134 51.8262 61.0822L51.0183 62.8491L53.6158 61.7053L54.0661 60.753C54.3461 60.7329 54.6143 60.6791 54.8656 60.5918L55.0832 60.968L55.9603 60.4608L55.7376 60.0846C55.9434 59.9082 56.1289 59.7033 56.2875 59.4598L56.5658 59.7537L57.038 58.7107L56.7564 58.4201C56.8458 58.1144 56.9099 57.7903 56.9503 57.4359L57.2421 57.6055V56.183L56.9537 56.0133C56.9166 55.6102 56.8458 55.2021 56.7564 54.7873Z" fill="#121214"/>
<path d="M43.1145 48.5627L43.2882 48.86L47.7512 46.3592L47.5775 46.0636L43.1145 48.5627Z" fill="#303033"/>
<path d="M51.2764 62.5888L51.4923 62.9667L55.9569 60.4608L55.736 60.0879L51.2764 62.5888Z" fill="#303033"/>
<path d="M52.2951 57.2898L52.5565 57.315L52.0826 55.7295L51.8279 55.7076C51.671 55.2861 51.4872 54.8695 51.2831 54.458L51.4754 54.3505L50.5983 52.8439L50.4111 52.9498C50.1513 52.5635 49.8764 52.1856 49.5795 51.8312L49.6807 51.6145L48.5355 50.4153L48.4393 50.6303C48.1256 50.3481 47.8035 50.0827 47.4712 49.8526V49.5671L46.2365 48.8533V49.1405C45.8975 48.9876 45.5686 48.8785 45.2515 48.8046L45.1554 48.4922L44.0118 48.3796L44.1079 48.6971C43.8229 48.7139 43.5446 48.771 43.2899 48.8583L43.1162 48.5644L42.2425 49.0666L42.4179 49.3689C42.2104 49.552 42.0232 49.7653 41.8596 50.0172L41.6336 49.7737L41.1647 50.8184L41.4025 51.067C41.3148 51.3777 41.2456 51.7086 41.2136 52.073L40.9572 51.9235V53.3445L41.2271 53.4956C41.2659 53.9054 41.3333 54.322 41.4261 54.7368L41.1782 54.7133L41.6504 56.2972L41.9169 56.3257C42.0772 56.7456 42.256 57.1554 42.4601 57.5703L42.2627 57.6778L43.1381 59.186L43.3439 59.0685C43.6036 59.4514 43.8769 59.8209 44.172 60.1652L44.059 60.4138L45.2009 61.6113L45.319 61.3577C45.626 61.6315 45.9363 61.8885 46.2652 62.1152V62.4612L47.5032 63.1717V62.8156C47.8321 62.9634 48.1509 63.0742 48.4646 63.1431L48.581 63.5412L49.7212 63.647L49.6065 63.2506C49.8848 63.2304 50.1513 63.1767 50.4026 63.086L50.6236 63.4673L51.4956 62.9617L51.278 62.5838C51.4821 62.4091 51.666 62.2025 51.8262 61.9607L52.1045 62.2529L52.5751 61.2082L52.2968 60.9143C52.3862 60.6137 52.452 60.2861 52.4857 59.9334L52.7792 60.1048V58.6805L52.4908 58.5142C52.452 58.1128 52.3862 57.7013 52.2951 57.2898Z" fill="#303033"/>
<path d="M47.5202 59.836C45.4843 58.667 43.8331 55.8168 43.8331 53.4738C43.8331 52.4929 44.1248 51.7573 44.6123 51.3223C43.7335 51.5876 43.1668 52.4795 43.1668 53.855C43.1668 56.1963 44.8164 59.0432 46.8556 60.2172C48.0312 60.8941 49.0837 60.8605 49.7601 60.2525C49.1411 60.4423 48.3618 60.318 47.5202 59.836Z" fill="#121214"/>
<path d="M46.8556 51.7338C46.0105 51.2534 45.2364 51.1325 44.614 51.3206C44.1265 51.759 43.8347 52.4929 43.8347 53.4738C43.8347 55.8185 45.486 58.6653 47.5218 59.836C48.3635 60.318 49.141 60.444 49.7601 60.2508C50.2458 59.8158 50.5393 59.0802 50.5393 58.096C50.5393 55.753 48.888 52.9044 46.8556 51.7338Z" fill="#939598"/>
<path d="M47.37 57.498C46.4204 56.9572 45.6529 55.6337 45.6529 54.5437C45.6529 54.2481 45.7069 54.0063 45.8064 53.8131C45.3982 53.9391 45.1385 54.3506 45.1385 54.9871C45.1385 56.0754 45.9042 57.4006 46.8555 57.9481C47.5454 58.3461 48.1492 58.2168 48.414 57.6894C48.1273 57.7818 47.7629 57.7264 47.37 57.498Z" fill="#535359"/>
<path d="M46.8556 54.0013C46.4609 53.7745 46.0965 53.7157 45.8064 53.8132C45.7069 54.0046 45.653 54.2482 45.653 54.5438C45.653 55.6321 46.4187 56.9572 47.37 57.4981C47.763 57.7282 48.1273 57.7836 48.414 57.6895C48.5152 57.4964 48.5692 57.2528 48.5692 56.9606C48.5692 55.8723 47.7984 54.5471 46.8556 54.0013Z" fill="#A7A9AC"/>
<path d="M52.0826 55.7294L52.5565 57.3132L57.0178 54.8124L56.5439 53.2286L52.0826 55.7294Z" fill="#535359"/>
<path d="M52.7775 60.1064L57.2404 57.6055V56.1829L52.7775 58.6855V60.1064Z" fill="#535359"/>
<path d="M52.1011 62.2563L56.5658 59.7554L57.0364 58.7124L52.5734 61.2116L52.1011 62.2563Z" fill="#535359"/>
<path d="M50.5983 52.8423L51.4754 54.3489L55.9367 51.8464L55.0613 50.3381L50.5983 52.8423Z" fill="#535359"/>
<path d="M48.5355 50.4154L49.6791 51.6146L54.142 49.1137L52.9985 47.9178L48.5355 50.4154Z" fill="#535359"/>
<path d="M46.2349 48.8517L47.4695 49.5688L51.9359 47.0629L50.6978 46.3558L46.2349 48.8517Z" fill="#535359"/>
<path d="M44.0101 48.3796L45.1537 48.4905L49.615 45.9881L48.4748 45.8789L44.0101 48.3796Z" fill="#535359"/>
<path d="M49.5779 51.8296L54.0425 49.3286L54.142 49.1136L49.6791 51.6146L49.5779 51.8296Z" fill="#303033"/>
<path d="M51.8262 55.706L52.0826 55.7312L56.5422 53.2286L56.2892 53.2051L51.8262 55.706Z" fill="#303033"/>
<path d="M52.4891 58.5192L52.7775 58.6871L57.2405 56.1829L56.9521 56.0166L52.4891 58.5192Z" fill="#303033"/>
<path d="M52.2951 60.9193L52.5734 61.2115L57.0364 58.7124L56.7547 58.4219L52.2951 60.9193Z" fill="#303033"/>
<path d="M47.4695 49.8527L51.9358 47.3518V47.0613L47.4695 49.5671V49.8527Z" fill="#303033"/>
<path d="M45.1537 48.4906L45.2498 48.8064L49.7094 46.3005L49.615 45.9897L45.1537 48.4906Z" fill="#303033"/>
<path d="M10.0049 31.7L10.5615 31.0551L9.77722 31.4581L10.0049 31.7Z" fill="#535359"/>
<path d="M9.32858 33.8466L9.88519 33.205L9.09918 33.6081L9.32858 33.8466Z" fill="#535359"/>
<path d="M9.54952 36.6414L10.1061 35.9963L9.32013 36.3978L9.54952 36.6414Z" fill="#535359"/>
<path d="M13.3412 43.2974L13.9838 42.938L13.1118 43.0606L13.3412 43.2974Z" fill="#535359"/>
<path d="M15.6435 44.8594L16.2844 44.4883L15.2741 44.411L15.6435 44.8594Z" fill="#535359"/>
<path d="M17.8615 45.338L19.0809 44.6527L17.4988 44.8929L17.8615 45.338Z" fill="#535359"/>
<path d="M24.9 36.475L25.158 36.4985L24.6841 34.9147L24.4311 34.8895C24.2725 34.4696 24.0887 34.0547 23.888 33.6433L24.0786 33.5341L23.2015 32.0275L23.0143 32.1333C22.7562 31.747 22.4796 31.3674 22.1827 31.0114L22.2856 30.7998L21.1421 29.5989L21.0425 29.8155C20.7288 29.5283 20.405 29.2713 20.0761 29.0362V28.749L18.8414 28.0402V28.3258C18.499 28.1746 18.1718 28.0621 17.8547 27.9882L17.7586 27.6741L16.6167 27.5632L16.7112 27.879C16.4227 27.8991 16.1478 27.9546 15.8914 28.0436L15.7211 27.748L14.8474 28.2502L15.0228 28.5559C14.8119 28.7372 14.6264 28.9489 14.4662 29.1991L13.9028 28.9573L11.2581 30.5461L12.8419 30.6284C12.7542 30.9341 13.1826 30.7561 13.1489 31.1189L12.8419 31.2549L13.5638 32.5247L13.832 32.6825C13.8691 33.089 13.9366 33.5055 14.0327 33.9204L13.7831 33.8969L14.257 35.4807L14.5168 35.5059C14.6753 35.9291 14.8609 36.3423 15.065 36.7454L14.8659 36.863L15.7396 38.3679L15.9505 38.2503C16.2068 38.6349 16.4784 39.0027 16.7736 39.3504L16.6639 39.5973L17.8041 40.7948L17.9222 40.5395C18.2258 40.8167 18.5412 41.0736 18.8667 41.3004V41.643L19.8652 42.3988L20.1047 41.9974C20.437 42.1452 19.6561 42.6944 19.9698 42.7683L19.1619 44.5386L21.7611 43.3881L22.2097 42.4374C22.4914 42.4156 22.7596 42.3635 23.0126 42.2762L23.2302 42.6524L24.1056 42.1452L23.8829 41.769C24.0887 41.5926 24.2725 41.3877 24.4328 41.1408L24.7111 41.4381L25.1833 40.3951L24.9017 40.1012C24.9894 39.7972 25.0568 39.473 25.0923 39.1186L25.3857 39.2899V37.8657L25.0956 37.6994C25.0585 37.298 24.9894 36.8882 24.9 36.475Z" fill="#121214"/>
<path d="M11.2823 30.2878L11.4584 30.5861L15.8701 28.0036L15.694 27.7053L11.2823 30.2878Z" fill="#303033"/>
<path d="M19.4149 44.2732L19.6359 44.6528L24.1005 42.1469L23.8796 41.7723L19.4149 44.2732Z" fill="#303033"/>
<path d="M20.4371 38.9759L20.6968 38.9994L20.2229 37.4156L19.9682 37.3937C19.8113 36.9705 19.6292 36.5539 19.4268 36.1458L19.6157 36.0366L18.742 34.5284L18.5531 34.6359C18.2933 34.2496 18.0167 33.8683 17.7215 33.5173L17.821 33.3006L16.6775 32.0997L16.5796 32.3197C16.2693 32.0325 15.9471 31.7672 15.6132 31.5404V31.2549L14.3785 30.5411V30.8266C14.0395 30.6738 13.7106 30.5612 13.3901 30.489L13.2957 30.1766L12.1555 30.0641L12.2499 30.3815C11.9615 30.4017 11.6849 30.4571 11.4336 30.5461L11.2582 30.2505L10.3845 30.7493L10.5616 31.0567C10.3507 31.2415 10.1652 31.4514 10.0033 31.7017L9.77556 31.4581L9.30329 32.5028L9.5428 32.7514C9.45847 33.0621 9.391 33.3963 9.35727 33.7575L9.10089 33.6097V35.0289L9.36907 35.1851C9.40787 35.5915 9.47533 36.0081 9.5681 36.4229L9.32185 36.3994L9.79412 37.9849L10.0572 38.0101C10.2124 38.4317 10.3963 38.8449 10.6037 39.253L10.403 39.3639L11.2767 40.8721L11.4892 40.7545C11.7456 41.1375 12.0189 41.507 12.3106 41.8513L12.201 42.1016L13.3429 43.2957L13.461 43.0421C13.7663 43.3192 14.0783 43.5762 14.4072 43.803V44.1473L15.6452 44.8577V44.5017C15.9724 44.6495 16.2963 44.7553 16.6066 44.8292L16.723 45.2222L17.8632 45.3347L17.7468 44.935C18.0285 44.9131 18.2933 44.8644 18.548 44.7737L18.7622 45.1516L19.6393 44.6478L19.4183 44.2699C19.6241 44.0952 19.8096 43.8886 19.9699 43.6468L20.2465 43.9373L20.7171 42.8943L20.4388 42.6004C20.5248 42.2981 20.5923 41.9739 20.6277 41.6195L20.9229 41.7925V40.3682L20.6327 40.1986C20.5973 39.7972 20.5299 39.3874 20.4371 38.9759Z" fill="#303033"/>
<path d="M15.6638 41.5237C13.6296 40.3565 11.9767 37.5012 11.9767 35.1616C11.9767 34.1791 12.2685 33.4435 12.7576 33.0101C11.8772 33.2721 11.3104 34.1657 11.3104 35.5412C11.3104 37.8842 12.96 40.7293 14.9958 41.9016C16.1731 42.5785 17.2273 42.5466 17.9037 41.9369C17.2813 42.1284 16.5054 42.0058 15.6638 41.5237Z" fill="#121214"/>
<path d="M14.9959 33.4199C14.1542 32.9361 13.3766 32.8186 12.7576 33.0084C12.2685 33.445 11.9767 34.179 11.9767 35.1616C11.9767 37.5046 13.628 40.3548 15.6638 41.5238C16.5054 42.0059 17.2796 42.1302 17.902 41.937C18.3912 41.502 18.6813 40.7647 18.6813 39.7804C18.6813 37.4391 17.0283 34.5905 14.9959 33.4199Z" fill="#939598"/>
<path d="M15.5102 39.1824C14.5606 38.6416 13.7915 37.3181 13.7915 36.2247C13.7915 35.9325 13.8505 35.6873 13.9467 35.5009C13.5402 35.6235 13.2787 36.0333 13.2787 36.6715C13.2787 37.7598 14.0462 39.085 14.9958 39.6325C15.689 40.0289 16.2878 39.9012 16.5577 39.3722C16.2693 39.4662 15.9032 39.4125 15.5102 39.1824Z" fill="#535359"/>
<path d="M14.9958 35.6857C14.6028 35.4606 14.2368 35.4035 13.9467 35.5026C13.8505 35.6873 13.7915 35.9342 13.7915 36.2265C13.7915 37.3181 14.5606 38.6416 15.5103 39.1841C15.9033 39.4141 16.2693 39.4679 16.5577 39.3738C16.6572 39.1807 16.7112 38.9372 16.7112 38.6483C16.7112 37.5566 15.9437 36.2315 14.9958 35.6857Z" fill="#A7A9AC"/>
<path d="M20.2228 37.4139L20.6968 38.9977L25.1598 36.4968L24.6858 34.9147L20.2228 37.4139Z" fill="#535359"/>
<path d="M20.9211 41.7942L25.3807 39.2916V37.8673L20.9211 40.3716V41.7942Z" fill="#535359"/>
<path d="M20.2448 43.9407L24.7077 41.4415L25.1783 40.3984L20.7153 42.8977L20.2448 43.9407Z" fill="#535359"/>
<path d="M18.7419 34.5251L19.6156 36.035L24.0786 33.5324L23.2032 32.0242L18.7419 34.5251Z" fill="#535359"/>
<path d="M16.6758 32.0981L17.8194 33.299L22.2857 30.7998L21.1421 29.5989L16.6758 32.0981Z" fill="#535359"/>
<path d="M14.3768 30.5394L15.6115 31.2549L20.0761 28.749L18.8415 28.0386L14.3768 30.5394Z" fill="#535359"/>
<path d="M12.1555 30.0642L13.294 30.175L17.7586 27.6724L16.6184 27.5632L12.1555 30.0642Z" fill="#535359"/>
<path d="M17.7198 33.5156L22.1844 31.0114L22.2856 30.7981L17.8193 33.299L17.7198 33.5156Z" fill="#303033"/>
<path d="M19.9681 37.3921L20.2228 37.4156L24.6841 34.913L24.4294 34.8895L19.9681 37.3921Z" fill="#303033"/>
<path d="M20.631 40.2037L20.9212 40.3733L25.3807 37.8674L25.0923 37.7028L20.631 40.2037Z" fill="#303033"/>
<path d="M20.4371 42.6037L20.7154 42.8976L25.1783 40.3984L24.8967 40.1045L20.4371 42.6037Z" fill="#303033"/>
<path d="M15.6115 31.5388L20.0761 29.0345V28.7473L15.6115 31.255V31.5388Z" fill="#303033"/>
<path d="M13.2939 30.175L13.3884 30.4891L17.8547 27.9865L17.7586 27.6741L13.2939 30.175Z" fill="#303033"/>
<path d="M62.5467 51.4432L57.1308 54.6797L62.5467 59.7419L86.0591 46.2248V37.9312L62.5467 51.4432Z" fill="#5D6E52"/>
<path d="M84.025 40.0088C83.1125 40.5345 82.372 41.8076 82.372 42.8573C82.372 43.9087 83.1125 44.3336 84.025 43.813C84.9374 43.2839 85.6762 42.0092 85.6762 40.9561C85.6779 39.9081 84.9374 39.4815 84.025 40.0088Z" fill="#4E5C44"/>
<path d="M84.9071 39.7233C84.6086 39.5553 84.1936 39.5772 83.7382 39.8442C82.8274 40.3683 82.087 41.6447 82.087 42.6945C82.087 43.2487 82.2911 43.6283 82.6233 43.7862L82.8494 43.9205C82.5542 43.7459 82.372 43.3797 82.372 42.8557C82.372 41.806 83.1125 40.5295 84.025 40.0071C84.4584 39.7586 84.8464 39.7216 85.1415 39.8627L84.9088 39.7267L84.9071 39.7233Z" fill="#7B916D"/>
<path d="M84.9172 40.2775C85.1061 40.4337 85.2174 40.7024 85.2174 41.0702C85.2174 41.91 84.6288 42.9278 83.8985 43.3461C83.5527 43.5442 83.2407 43.5762 83.0045 43.4603C83.2474 43.6601 83.6117 43.6635 84.025 43.4267C84.757 43.0085 85.3439 41.9906 85.3439 41.1525C85.3439 40.7091 85.182 40.4051 84.9172 40.2775Z" fill="#9CB88A"/>
<path d="M84.025 40.3917C83.2963 40.8133 82.706 41.8278 82.706 42.6676C82.706 43.0338 82.8139 43.3025 83.0045 43.4587C83.2424 43.5763 83.5527 43.5444 83.8985 43.3462C84.6305 42.9296 85.2175 41.9084 85.2175 41.0686C85.2175 40.7041 85.1078 40.432 84.9172 40.2792C84.6845 40.1616 84.3708 40.1935 84.025 40.3917Z" fill="#FFEC7A"/>
<path d="M65.3332 50.7546C64.4207 51.2803 63.6819 52.5551 63.6819 53.6049C63.6819 54.6563 64.4207 55.0812 65.3332 54.5605C66.2457 54.0298 66.9878 52.7533 66.9878 51.7036C66.9878 50.6539 66.2457 50.2273 65.3332 50.7546Z" fill="#4E5C44"/>
<path d="M66.2153 50.4725C65.9201 50.3011 65.5035 50.323 65.0498 50.5884C64.1356 51.1124 63.3951 52.3922 63.3951 53.442C63.3951 53.9945 63.6009 54.3725 63.9298 54.5303L64.1592 54.6664C63.8624 54.4917 63.6819 54.1222 63.6819 53.6032C63.6819 52.5535 64.4206 51.2753 65.3331 50.753C65.7683 50.5077 66.1562 50.4674 66.4514 50.6085L66.2153 50.4725Z" fill="#7B916D"/>
<path d="M66.2254 51.0233C66.4177 51.1795 66.5273 51.4466 66.5273 51.8144C66.5273 52.6558 65.9387 53.672 65.2066 54.0902C64.8626 54.29 64.5505 54.3203 64.3144 54.2044C64.5573 54.4059 64.9233 54.4076 65.3331 54.1708C66.0652 53.7526 66.6538 52.7348 66.6538 51.8967C66.6538 51.455 66.4919 51.1493 66.2254 51.0233Z" fill="#9CB88A"/>
<path d="M65.3332 51.136C64.6062 51.5575 64.0159 52.5736 64.0159 53.4117C64.0159 53.7779 64.1238 54.0466 64.3144 54.2028C64.5522 54.3204 64.8626 54.2901 65.2067 54.092C65.9387 53.6738 66.5273 52.6543 66.5273 51.8128C66.5273 51.4483 66.4177 51.1779 66.2254 51.0251C65.9943 50.9092 65.6789 50.9378 65.3332 51.136Z" fill="#FFEC7A"/>
<path d="M40.2825 0.305725L16.7702 13.8245L13.6245 17.1433L3.72876 16.0533L27.2394 2.5429L40.2825 0.305725Z" fill="#8AA37B"/>
<path d="M62.5468 51.4431L45.6766 38.4249L40.0329 28.7372L34.1818 23.8363L16.7702 13.8245L3.72876 16.0549V25.1699L7.00261 29.1219L10.0909 30.8988L11.7135 26.3573L19.9445 31.0903L21.5671 37.4911L42.0063 49.2429L42.5343 47.9698L45.9903 45.4119L52.0741 50.0155L54.1589 53.2873V56.2332L55.2434 56.8547L62.5468 59.7418V51.4431Z" fill="#7B916D"/>
<path d="M20.9228 26.2818V26.2751L20.9245 19.5518L13.5301 17.8823V24.6073H13.5318C13.5351 24.7332 13.6212 24.8592 13.7882 24.9566L18.0605 27.4155C18.4063 27.612 18.9713 27.612 19.3154 27.4155L20.6631 26.6378C20.8351 26.5404 20.9211 26.4111 20.9228 26.2818Z" fill="#5D6E52"/>
<g opacity="0.1">
<g opacity="0.1">
<path opacity="0.1" d="M19.3171 19.1891V27.4122L20.6647 26.638C20.8368 26.5389 20.9211 26.4095 20.9228 26.2819V26.2752L20.9245 19.5502L19.3171 19.1891Z" fill="black"/>
</g>
</g>
<path d="M19.3171 20.672C18.973 20.8685 18.408 20.8685 18.0622 20.672L13.7899 18.2149C13.4458 18.015 13.4458 17.6908 13.7899 17.4927L15.1375 16.7184C15.4833 16.5219 16.0466 16.5219 16.3924 16.7184L20.6648 19.1755C21.0089 19.3771 21.0089 19.6979 20.6648 19.8977L19.3171 20.672Z" fill="#9CB88A"/>
<path d="M14.2014 23.8901C14.2385 23.959 14.2891 24.0044 14.3414 24.038C14.3869 24.0631 14.4291 24.0715 14.4679 24.0564L15.178 23.6466L15.1814 23.65L15.3096 23.5761C15.3973 23.6752 15.4917 23.7659 15.598 23.823L16.4582 24.3184C16.5594 24.3739 16.6538 24.4024 16.7399 24.4024L17.5629 25.8233C17.6001 25.8888 17.6507 25.9409 17.7013 25.9711C17.7215 25.9829 17.74 25.9913 17.7569 25.9946C17.7822 25.9291 17.7653 25.8284 17.7114 25.7377L16.8883 24.3168C16.9288 24.2462 16.9574 24.1471 16.9574 24.0312V23.042C16.9574 22.9412 16.9372 22.8354 16.9051 22.7279L17.7417 22.2475C17.8193 22.2039 17.8193 22.0611 17.7417 21.9284C17.6709 21.8075 17.5646 21.7386 17.4854 21.7538L17.4786 21.7571C17.4719 21.7588 17.4668 21.7622 17.4617 21.7655L16.7702 22.1585L16.6403 22.2358C16.5476 22.1216 16.4413 22.0208 16.3249 21.9553L15.4681 21.4632C15.3483 21.3927 15.2387 21.3708 15.1443 21.3826L14.3363 19.9885C14.2841 19.8978 14.2065 19.8323 14.1407 19.8156C14.1137 19.8811 14.1323 19.9801 14.1862 20.0742L15.0144 21.5069C14.9857 21.5707 14.9688 21.6563 14.9688 21.7521V22.738C14.9688 22.8539 14.9941 22.9698 15.0329 23.0873L14.1997 23.5677C14.1221 23.613 14.1221 23.7591 14.2014 23.8901ZM15.237 22.0527C15.237 21.9402 15.2977 21.878 15.3855 21.8881C15.4209 21.8092 15.5001 21.7907 15.598 21.8445L16.4582 22.3399C16.5864 22.4138 16.6909 22.5935 16.6909 22.7397V23.7272C16.6909 23.8381 16.6319 23.9019 16.5408 23.8935C16.5071 23.9724 16.4244 23.9909 16.3266 23.9355L15.4698 23.44C15.3416 23.3661 15.237 23.1898 15.237 23.0403V22.0527Z" fill="#36402F"/>
<path d="M15.1813 23.6482C15.2674 23.7507 15.3635 23.8363 15.4698 23.8935L16.3266 24.3889C16.4295 24.4477 16.5222 24.4746 16.6066 24.4746L17.4297 25.8938C17.4685 25.9609 17.5208 26.0113 17.5714 26.0449C17.6203 26.0718 17.6742 26.0785 17.7114 26.0583C17.735 26.0449 17.7485 26.0214 17.7569 25.9928C17.74 25.9895 17.7215 25.9828 17.7012 25.9693C17.6506 25.9391 17.6 25.887 17.5629 25.8215L16.7398 24.4007C16.6538 24.4007 16.5594 24.3738 16.4582 24.315L15.5979 23.8212C15.4917 23.7624 15.3972 23.6734 15.3095 23.5743L15.1813 23.6482Z" fill="#9CB88A"/>
<path d="M14.0665 23.9623C14.1036 24.0295 14.1575 24.0799 14.2081 24.1101C14.257 24.1404 14.3093 24.1454 14.3464 24.1252L14.4662 24.0581C14.4291 24.0715 14.3852 24.0648 14.3397 24.0362C14.2874 24.0043 14.2368 23.9573 14.1997 23.8884C14.1204 23.7574 14.1204 23.6113 14.1997 23.571L15.0329 23.089C14.9941 22.9714 14.9688 22.8538 14.9688 22.7396V21.7554C14.9688 21.6563 14.9874 21.574 15.0127 21.5085L14.1862 20.0792C14.1322 19.9801 14.1137 19.8844 14.1407 19.8189C14.1086 19.8122 14.0799 19.8156 14.0546 19.829C13.9771 19.8727 13.9771 20.0154 14.0546 20.1515L14.8845 21.5841C14.8541 21.6479 14.8389 21.7319 14.8389 21.8293V22.8152C14.8389 22.9244 14.8625 23.0487 14.9013 23.1629L14.0665 23.6449C13.9906 23.6852 13.9906 23.828 14.0665 23.9623Z" fill="#9CB88A"/>
<path d="M15.2708 21.93C15.3281 21.8964 15.3483 21.8763 15.4681 21.9183L16.3249 22.4138C16.4548 22.4877 16.5594 22.6657 16.5594 22.8135V23.7995C16.5594 23.8381 16.5493 23.9036 16.4784 23.9557C16.6657 23.9473 16.6893 23.8415 16.6893 23.7273V22.7396C16.6893 22.5952 16.5847 22.4138 16.4565 22.3399L15.5963 21.8443C15.5001 21.7906 15.3686 21.7788 15.2708 21.93Z" fill="#9CB88A"/>
<path d="M19.8517 19.1554H19.8315C19.7961 19.063 19.7185 18.9774 19.5937 18.9068C19.2547 18.7086 18.6997 18.7086 18.359 18.9068C18.2376 18.9774 18.1583 19.0647 18.1229 19.152H18.1043L18.1027 19.7012C18.1027 19.8289 18.1904 19.9582 18.3573 20.0556C18.6981 20.2521 19.253 20.2521 19.592 20.0556C19.7624 19.9582 19.8484 19.8289 19.8484 19.7012V19.1554H19.8517Z" fill="#575757"/>
<path d="M19.5954 19.5114C19.2547 19.7079 18.7015 19.7079 18.3608 19.5114C18.02 19.32 18.02 18.9975 18.3608 18.8011C18.7015 18.6046 19.2547 18.6046 19.5954 18.8011C19.9361 18.9975 19.9361 19.32 19.5954 19.5114Z" fill="#808080"/>
<path d="M19.673 19.2075C19.6544 19.1219 19.5886 19.0379 19.4739 18.9707C19.2007 18.8145 18.7554 18.8145 18.4838 18.9707C18.3675 19.0379 18.3017 19.1219 18.2831 19.2075C18.2561 19.0916 18.3236 18.964 18.4838 18.875C18.7554 18.7137 19.2007 18.7137 19.4739 18.875C19.6325 18.964 19.6983 19.0899 19.673 19.2075Z" fill="#383838"/>
<path d="M19.673 19.2075C19.6544 19.2931 19.5886 19.3788 19.4739 19.4459C19.2007 19.5988 18.7554 19.5988 18.4839 19.4459C18.3675 19.3788 18.3017 19.2931 18.2831 19.2075C18.3017 19.1218 18.3675 19.0378 18.4839 18.9707C18.7554 18.8145 19.2007 18.8145 19.4739 18.9707C19.5886 19.0378 19.6544 19.1218 19.673 19.2075Z" fill="#575757"/>
<path d="M5.09327 25.9644L6.16431 25.3463V22.219L4.26849 22.2795L5.09327 25.9644Z" fill="#666666"/>
<path d="M3.72031 19.5686L1.56812 20.8081L5.09327 22.8336L6.16431 22.2172L3.72875 20.8115L3.72031 19.5686Z" fill="#ADADAD"/>
<path d="M1.56812 23.9405L5.09326 25.9644V22.8337L1.56812 20.8098V23.9405Z" fill="#808080"/>
<path d="M26.693 28.3661C26.5715 28.2973 26.4703 28.3561 26.4703 28.4955V28.4971C26.4703 28.6433 26.5715 28.8146 26.693 28.8851L27.4385 29.3134C27.565 29.3873 27.6662 29.3319 27.6662 29.1858C27.6662 29.0363 27.565 28.8667 27.4385 28.7944L26.693 28.3661Z" fill="#4E5C44"/>
<path d="M35.8905 33.6516C35.7673 33.5828 35.6661 33.6432 35.6661 33.7809V33.7877C35.6661 33.9287 35.7673 34.1034 35.8905 34.1723L36.636 34.5989C36.7608 34.6728 36.8603 34.619 36.8603 34.4712V34.4662C36.8603 34.3251 36.7608 34.1521 36.636 34.0816L35.8905 33.6516Z" fill="#4E5C44"/>
<path d="M40.7093 30.6234C40.3635 30.049 39.7226 29.3906 39.2503 29.1185L35.7858 27.1283C35.2326 26.8091 34.7806 27.0695 34.7806 27.7043V40.778C34.7823 41.4145 35.2326 42.1888 35.7858 42.5079L38.9062 44.2983C39.3852 44.5755 40.016 44.6275 40.3466 44.4159L42.9273 42.7565C43.2511 42.5449 43.5058 41.9587 43.5058 41.4129V36.2382C43.5058 35.6873 43.2326 34.8038 42.8851 34.2277L40.7093 30.6234ZM43.0841 41.1676C43.0841 41.5943 42.8699 42.0847 42.6169 42.2476L40.0413 43.9087C39.7917 44.0666 39.2722 44.0263 38.9079 43.8146L35.7875 42.0209C35.4671 41.8378 35.2039 41.386 35.2039 41.0182V27.9428C35.2039 27.5767 35.4654 27.4289 35.7875 27.6136L39.252 29.6022C39.618 29.8155 40.151 30.3664 40.4209 30.8115L42.5933 34.4158C42.8598 34.8542 43.0841 35.5764 43.0841 35.9963V41.1676Z" fill="#4E5C44"/>
<path d="M26.0554 23.0688L31.7345 30.1078L32.3619 29.7484V25.9778L26.6812 22.7111L26.0554 23.0688Z" fill="#666666"/>
<path d="M26.0554 26.8394L31.7345 30.1078V26.3372L26.0554 23.0687V26.8394Z" fill="#383838"/>
<path d="M27.1854 24.4847L26.6879 24.1975V26.4364L31.0361 28.9407V28.3679L27.1854 26.1475V24.4847Z" fill="#050505"/>
<path d="M27.1855 26.1474L31.0362 28.3661V26.7033L27.1855 24.4863V26.1474Z" fill="#295E87"/>
<path d="M35.4485 28.1931L34.8228 28.5542L39.3903 34.5217L42.2543 37.948L42.8784 37.5903V35.6101L40.0346 30.8351L35.4485 28.1931Z" fill="#666666"/>
<path d="M34.8228 28.5542V31.5488L38.7662 34.8777L39.7023 36.4816L42.2543 37.9479V35.9727L39.4122 31.1911L34.8228 28.5542Z" fill="#383838"/>
<path d="M39.446 34.258L35.7471 30.9711V29.6107L35.2478 29.3235V31.255L38.9484 34.5435L39.8727 36.124L41.5813 37.1049V36.5321L40.3719 35.8368L39.446 34.258Z" fill="#050505"/>
<path d="M35.7471 29.6107V30.9728L39.446 34.2597L40.372 35.8368L41.5813 36.5321V35.8418L38.827 31.381L35.7471 29.6107Z" fill="#295E87"/>
<path d="M32.5592 25.3328L26.4518 21.8209C25.9272 21.5185 25.5005 21.7654 25.5005 22.3667V35.4404C25.5005 36.0417 25.9289 36.779 26.4518 37.0797L32.5592 40.5916C33.0855 40.8939 33.5122 40.647 33.5122 40.0458V26.9754C33.5139 26.3691 33.0855 25.6335 32.5592 25.3328ZM33.0905 39.8005C33.0905 40.1365 32.851 40.2725 32.5609 40.1062L26.4535 36.5959C26.1617 36.4263 25.9255 36.0148 25.9255 35.6806V22.6136C25.9255 22.2777 26.1617 22.14 26.4535 22.3046L32.5609 25.8182C32.8527 25.9862 33.0905 26.3943 33.0905 26.7319V39.8005Z" fill="#4E5C44"/>
<path d="M58.3807 55.3416V58.7595L62.9229 61.3645V57.96L58.3807 55.3416Z" fill="#808080"/>
<path d="M86.0558 43.116L62.5468 56.6297L59.3421 54.7872L58.3807 55.3415L62.9229 57.9583L88.2333 43.4149L86.0591 41.8613L86.0558 43.116Z" fill="#ADADAD"/>
<path d="M62.9229 57.9583V61.3645L88.2332 46.8161V43.4133L62.9229 57.9583Z" fill="#666666"/>
<path d="M11.0271 24.8693L9.75868 25.5999L8.54089 29.3503L8.82257 31.6261L10.091 30.8988L11.4454 27.1199L18.8954 31.3607L21.8117 39.0984L23.0801 38.3661L20.491 30.311L11.0271 24.8693Z" fill="#666666"/>
<path d="M9.75869 25.5983L7.27252 30.0776L8.3132 31.3322L8.82258 31.6262L10.4469 27.0897L18.6762 31.8176L20.2971 38.2251L21.8117 39.0968L19.2227 31.0417L9.75869 25.5983Z" fill="#383838"/>
<path d="M45.4084 43.6619L44.1417 44.3925L41.0028 47.6122L40.7363 49.9737L42.0063 49.243L42.5343 47.9683L45.3966 45.852L50.8901 50.1517L53.2397 53.8736L53.7102 57.4309L54.982 56.7053V53.3277L52.4402 49.1171L45.4084 43.6619Z" fill="#666666"/>
<path d="M44.1417 44.3907L40.097 47.1738L39.3262 49.1657L40.7379 49.9736L41.2675 48.6971L44.7219 46.1408L50.8041 50.7428L52.8888 54.0129V56.9605L53.7102 57.4325V54.0599L51.1717 49.8493L44.1417 44.3907Z" fill="#383838"/>
<path d="M16.7702 13.8228L34.1818 23.8347L49.7212 19.2277L57.6942 10.3159L40.2825 0.305725L16.7702 13.8228Z" fill="#9CB88A"/>
<path d="M46.6279 6.34043L42.2729 3.83789C41.6522 3.48014 40.6402 3.48014 40.0296 3.83789L33.9643 7.31961C33.7129 7.46405 33.5628 7.6488 33.5139 7.83523C33.5611 8.02166 33.7113 8.20306 33.9643 8.34582L38.3227 10.8534C38.9434 11.2111 39.9537 11.2111 40.5659 10.8534L46.6279 7.37168C46.8792 7.23059 47.0378 7.0408 47.0816 6.85437C47.031 6.66626 46.8809 6.48151 46.6279 6.34043Z" fill="#798F6C"/>
<path d="M32.34 9.46607C31.6552 9.07641 30.5335 9.07641 29.8487 9.46607L23.8813 12.8974L22.623 12.9948V14.0899H22.6331C22.655 14.3351 22.8186 14.5702 23.1391 14.755L27.963 17.5313C28.6495 17.9243 29.7678 17.9243 30.4526 17.5313L37.1656 13.67C37.5063 13.4768 37.6766 13.2165 37.6766 12.9545V11.8578L36.6309 11.9367L32.34 9.46607Z" fill="#5D6E52"/>
<path d="M37.1673 11.1691L32.3417 8.39949C31.6569 8.00144 30.5352 8.00144 29.8504 8.39949L23.1391 12.2558C22.4544 12.6421 22.4544 13.2904 23.1391 13.6834L27.963 16.458C28.6495 16.8527 29.7678 16.8527 30.4543 16.458L37.1656 12.6034C37.8504 12.2054 37.8504 11.5604 37.1673 11.1691Z" fill="#ABC997"/>
<path d="M36.2936 11.3438L32.0819 8.92185C31.4848 8.5809 30.5082 8.5809 29.9145 8.92185L24.0567 12.2894C23.7041 12.4943 23.5591 12.7714 23.6198 13.0402C23.6687 12.8554 23.8138 12.6774 24.0567 12.5396L29.9145 9.17211C30.5099 8.82948 31.4848 8.82948 32.0819 9.17211L36.2936 11.5924C36.5398 11.7301 36.6798 11.9065 36.7321 12.0878C36.7911 11.8225 36.6478 11.547 36.2936 11.3438Z" fill="#5D6E52"/>
<path d="M36.2935 11.594L32.0819 9.17547C31.4848 8.83116 30.5082 8.83116 29.9145 9.17547L24.0567 12.5413C23.8138 12.6807 23.6704 12.8571 23.6198 13.0402C23.6687 13.2165 23.8138 13.3962 24.0567 13.5339L28.2683 15.9542C28.8654 16.2968 29.8437 16.2968 30.4374 15.9542L36.2935 12.59C36.5398 12.454 36.6848 12.2726 36.7321 12.0895C36.6798 11.9098 36.5398 11.7318 36.2935 11.594Z" fill="#9CB88A"/>
<path d="M31.2267 14.1637L31.78 14.4795L33.5156 13.4802L32.9657 13.1627L31.2267 14.1637Z" fill="#5D6E52"/>
<path d="M45.6766 38.4249L62.5468 51.4431L86.049 37.9311L69.1856 24.9062L60.9748 33.7155L45.6766 38.4249Z" fill="#9CB88A"/>
<path d="M55.6667 24.9062L63.6042 15.1917L57.7515 10.2874L49.7212 19.226L50.5595 23.0419L55.6667 24.9062Z" fill="#798F6C"/>
<path d="M49.7212 19.226L34.1818 23.8347L40.0329 28.7373L55.3345 24.0312L49.7212 19.226Z" fill="#8AA37B"/>
<path d="M60.9747 33.7155L69.1838 24.9062L63.5452 15.2202L55.3345 24.0311L55.9299 27.6187L60.9747 33.7155Z" fill="#4E5C44"/>
<path d="M55.3345 24.0312L40.0329 28.739L45.6765 38.425L60.9747 33.7173L55.3345 24.0312Z" fill="#5D6E52"/>
<path d="M67.541 24.9465L61.3981 31.5354L60.7201 30.3731L66.3941 24.2864L62.8521 18.203L63.3209 17.7025L67.541 24.9465Z" fill="#788F69"/>
<path d="M66.394 24.2865L60.7201 30.3733L57.178 24.2916L62.852 18.2031L66.394 24.2865Z" fill="#003552"/>
<path d="M58.6809 33.0941L47.2385 36.6212L46.7392 35.7596L57.534 32.4391L53.8148 26.05L54.4642 25.8518L58.6809 33.0941Z" fill="#788F69"/>
<path d="M57.5339 32.4391L46.7392 35.7612L43.02 29.3688L53.8148 26.0483L57.5339 32.4391Z" fill="#003552"/>
<path d="M55.3733 27.3953L43.9275 30.9192L43.5817 30.3196L54.3849 27.0023L55.3733 27.3953Z" fill="#666666"/>
<path d="M64.2166 19.2461L58.0889 25.8702L57.7465 25.2706L63.4036 19.1588L64.2166 19.2461Z" fill="#575757"/>
<path d="M65.0515 20.6804L58.9238 27.3047L58.5814 26.7068L64.2418 20.5914L65.0515 20.6804Z" fill="#575757"/>
<path d="M65.8847 22.1114L59.7587 28.7373L59.4163 28.136L65.0751 22.0258L65.8847 22.1114Z" fill="#575757"/>
<path d="M66.7196 23.5458L60.5952 30.17L60.2512 29.5704L65.9134 23.4568L66.7196 23.5458Z" fill="#575757"/>
<path d="M56.188 28.7994L44.7388 32.3214L44.3981 31.7218L55.1996 28.4047L56.188 28.7994Z" fill="#666666"/>
<path d="M57.0043 30.2019L45.5551 33.7273L45.2111 33.126L56.0176 29.8105L57.0043 30.2019Z" fill="#666666"/>
<path d="M57.8207 31.6043L46.3715 35.1279L46.0274 34.53L56.8323 31.213L57.8207 31.6043Z" fill="#666666"/>
<path d="M50.6489 11.799L51.047 12.0291V10.0925L50.6489 9.86243V11.799Z" fill="#7B916D"/>
<path d="M50.6489 9.86075L51.047 10.0942L52.1248 9.47104L51.7233 9.23755L50.6489 9.86075Z" fill="#535359"/>
<path d="M51.0469 12.0273L52.1248 11.4059V9.47107L51.0469 10.0942V12.0273Z" fill="#5D6E52"/>
<path d="M51.7098 6.73511C50.6877 6.73511 49.8561 7.56315 49.8561 8.58266C49.8561 9.60217 50.686 10.4252 51.7098 10.4252C52.7336 10.4252 53.5635 9.60217 53.5635 8.58266C53.5635 7.56315 52.7336 6.73511 51.7098 6.73511Z" fill="#7B916D"/>
<path d="M52.9023 7.64374C52.0775 8.11737 51.4079 9.26952 51.4079 10.2134C51.4079 11.1623 52.0758 11.5436 52.9023 11.075C53.7237 10.6031 54.3933 9.44755 54.3933 8.5003C54.3933 7.54969 53.7237 7.17012 52.9023 7.64374Z" fill="#5D6E52"/>
<path d="M53.3712 7.20028C53.0996 7.04745 52.7269 7.07096 52.3187 7.30777C51.4939 7.7814 50.826 8.93188 50.826 9.88081C50.826 10.3779 51.0098 10.7223 51.3067 10.8667L51.8397 11.1724C51.5732 11.0145 51.4062 10.6853 51.4062 10.2134C51.4062 9.26778 52.0741 8.11731 52.9006 7.64536C53.2886 7.41862 53.6394 7.38503 53.9059 7.51604L53.3746 7.20196L53.3712 7.20028Z" fill="#9CB88A"/>
<path d="M53.7069 7.88721C53.8789 8.02325 53.9768 8.27184 53.9768 8.59768C53.9768 9.35686 53.4455 10.2773 52.786 10.6535C52.4739 10.8316 52.1906 10.8618 51.978 10.7577C52.1956 10.934 52.5279 10.939 52.899 10.7274C53.5585 10.3495 54.0898 9.42908 54.0898 8.6699C54.0915 8.27352 53.9447 7.99974 53.7069 7.88721Z" fill="#7B916D"/>
<path d="M52.9023 7.98638C52.2428 8.36764 51.7098 9.283 51.7098 10.0422C51.7098 10.3714 51.8127 10.6149 51.9797 10.7577C52.1922 10.8618 52.4756 10.8332 52.7876 10.6535C53.4471 10.2773 53.9785 9.35858 53.9785 8.59774C53.9785 8.27023 53.8789 8.02333 53.7103 7.88729C53.4944 7.78148 53.2127 7.81171 52.9023 7.98638Z" fill="#FFEC7A"/>
<path d="M35.6711 20.4101L36.0709 20.6418V18.7036L35.6711 18.4735V20.4101Z" fill="#7B916D"/>
<path d="M35.6711 18.4718L36.0709 18.7053L37.1487 18.0838L36.7456 17.8503L35.6711 18.4718Z" fill="#535359"/>
<path d="M36.0709 20.6401L37.1487 20.0187V18.0839L36.0709 18.7053V20.6401Z" fill="#5D6E52"/>
<path d="M36.7338 15.3462C35.7099 15.3462 34.8784 16.1742 34.8784 17.1954C34.8784 18.2115 35.7083 19.0378 36.7338 19.0378C37.7542 19.0378 38.5874 18.2132 38.5874 17.1954C38.5874 16.1742 37.7542 15.3462 36.7338 15.3462Z" fill="#7B916D"/>
<path d="M37.9246 16.2548C37.1015 16.7284 36.4319 17.8789 36.4319 18.8262C36.4319 19.7751 37.0998 20.1564 37.9246 19.6861C38.746 19.2125 39.4173 18.0603 39.4173 17.113C39.4173 16.1607 38.746 15.7778 37.9246 16.2548Z" fill="#5D6E52"/>
<path d="M38.3935 15.8131C38.1236 15.6586 37.7509 15.6872 37.3427 15.919C36.5179 16.3926 35.8483 17.5447 35.8483 18.492C35.8483 18.9908 36.0321 19.3351 36.329 19.4779L36.8637 19.7836C36.5955 19.6274 36.4302 19.2948 36.4302 18.8262C36.4302 17.879 37.0981 16.7285 37.9229 16.2565C38.3125 16.0315 38.6617 15.9996 38.9282 16.1255L38.3935 15.8131Z" fill="#9CB88A"/>
<path d="M38.7325 16.5C38.9028 16.636 39.0024 16.8796 39.0024 17.2088C39.0024 17.9663 38.4711 18.8901 37.8116 19.2663C37.4995 19.4427 37.2162 19.4729 37.0037 19.3671C37.2212 19.5468 37.5518 19.5518 37.9229 19.3368C38.5841 18.9589 39.1154 18.0419 39.1154 17.2844C39.1154 16.8863 38.9669 16.6109 38.7325 16.5Z" fill="#7B916D"/>
<path d="M37.9245 16.5991C37.2667 16.977 36.7338 17.8957 36.7338 18.6549C36.7338 18.9824 36.835 19.2276 37.0036 19.367C37.2161 19.4728 37.4995 19.4442 37.8115 19.2662C38.471 18.89 39.0023 17.9679 39.0023 17.2088C39.0023 16.8779 38.9011 16.636 38.7325 16.5C38.5199 16.3942 38.2383 16.4194 37.9245 16.5991Z" fill="#FFEC7A"/>
<path d="M81.7665 39.8594L68.3708 47.5601V54.1641L81.7665 46.46V39.8594Z" fill="#5D6E52"/>
<path d="M68.3709 47.5601L45.6766 38.4267L60.9748 33.7155L69.1838 24.908L81.7665 39.8593L68.3709 47.5601Z" fill="#ABC997"/>
<path d="M67.6034 48.5376L45.6766 38.425L68.3708 47.5601L67.6034 48.5376Z" fill="#7B916D"/>
<path d="M68.3708 54.1625L67.6017 53.7191V47.9632L68.3708 47.5601V54.1625Z" fill="#7B916D"/>
<path d="M70.653 47.8205V51.3979C70.653 51.6432 70.4775 51.9421 70.2667 52.063C70.0913 52.1672 69.9429 52.1168 69.8923 51.9572C69.9277 51.9522 69.9665 51.9371 70.0036 51.9152C70.2178 51.791 70.3898 51.4953 70.3898 51.2468V47.6693C70.3898 47.6273 70.3814 47.5903 70.3747 47.5534C70.5366 47.5131 70.653 47.6189 70.653 47.8205Z" fill="#7B916D"/>
<path d="M70.3915 47.6693V51.2467C70.3915 51.4936 70.2161 51.7909 70.0052 51.9135C69.9681 51.9387 69.9293 51.9538 69.8939 51.9589C69.8855 51.9236 69.8804 51.8833 69.8804 51.8413V48.2638C69.8804 48.0186 70.0558 47.7213 70.2684 47.5954C70.3038 47.5752 70.3392 47.5618 70.3763 47.5551C70.383 47.5903 70.3915 47.6273 70.3915 47.6693Z" fill="#383838"/>
<path d="M72.2552 46.9V50.4775C72.2552 50.7227 72.0798 51.0216 71.869 51.1426C71.6936 51.245 71.5452 51.1946 71.4963 51.0368C71.5317 51.0317 71.5688 51.0132 71.6059 50.9948C71.8201 50.8671 71.9921 50.5732 71.9921 50.3263V46.7472C71.9921 46.7052 71.9854 46.6682 71.9753 46.6329C72.1372 46.591 72.2552 46.7001 72.2552 46.9Z" fill="#7B916D"/>
<path d="M71.9922 46.7472V50.3263C71.9922 50.5715 71.8168 50.8671 71.6059 50.9931C71.5688 51.0149 71.5317 51.0334 71.4963 51.0385C71.4862 51.0032 71.4794 50.9629 71.4794 50.9192V47.3434C71.4794 47.0982 71.6548 46.7992 71.8674 46.675C71.9028 46.6548 71.9399 46.6414 71.9753 46.6346C71.9854 46.6682 71.9922 46.7069 71.9922 46.7472Z" fill="#383838"/>
<path d="M73.856 45.9779V49.5571C73.856 49.8023 73.6805 50.1013 73.4697 50.2222C73.2943 50.3247 73.1458 50.276 73.0969 50.1164C73.1323 50.1097 73.1678 50.0929 73.2066 50.0727C73.4191 49.9468 73.5928 49.6529 73.5928 49.406V45.8301C73.5928 45.7848 73.5861 45.7478 73.576 45.7109C73.7379 45.6722 73.856 45.7781 73.856 45.9779Z" fill="#7B916D"/>
<path d="M73.5928 45.8302V49.4059C73.5928 49.6528 73.4174 49.9467 73.2065 50.071C73.1661 50.0945 73.129 50.1096 73.0952 50.118C73.0851 50.0828 73.0784 50.0408 73.0784 50.0005V46.4231C73.0784 46.1779 73.2538 45.8789 73.4663 45.758C73.5017 45.7362 73.5388 45.7227 73.5742 45.7126C73.5877 45.7479 73.5928 45.7849 73.5928 45.8302Z" fill="#383838"/>
<path d="M75.4566 45.0593V48.6367C75.4566 48.882 75.2812 49.1793 75.0703 49.3019C74.8949 49.406 74.7448 49.3556 74.6942 49.1977C74.7296 49.191 74.7667 49.1742 74.8055 49.1541C75.0181 49.0264 75.1918 48.7342 75.1918 48.4856V44.9115C75.1918 44.8661 75.1867 44.8292 75.1766 44.7939C75.3385 44.7519 75.4566 44.8577 75.4566 45.0593Z" fill="#7B916D"/>
<path d="M75.1952 44.9098V48.4839C75.1952 48.7308 75.0198 49.0248 74.8089 49.1507C74.7684 49.1742 74.7313 49.191 74.6959 49.1978C74.6892 49.1625 74.6807 49.1222 74.6807 49.0785V45.5044C74.6807 45.2575 74.8561 44.9585 75.0687 44.8359C75.1041 44.8141 75.1429 44.8007 75.1783 44.7939C75.1901 44.8292 75.1952 44.8662 75.1952 44.9098Z" fill="#383838"/>
<path d="M77.0573 44.1372V47.7147C77.0573 47.9599 76.8819 48.2588 76.6711 48.3815C76.4956 48.4839 76.3455 48.4335 76.2949 48.2756C76.332 48.2706 76.3674 48.2538 76.4062 48.2337C76.6188 48.106 76.7925 47.8138 76.7925 47.5652V43.9894C76.7925 43.9457 76.7858 43.9088 76.7773 43.8718C76.9392 43.8332 77.0573 43.9356 77.0573 44.1372Z" fill="#7B916D"/>
<path d="M76.7959 43.9894V47.5652C76.7959 47.8121 76.6205 48.106 76.4096 48.232C76.3691 48.2555 76.3337 48.2706 76.2966 48.2773C76.2882 48.2438 76.2814 48.2001 76.2814 48.1598V44.584C76.2814 44.3371 76.4569 44.0398 76.6711 43.9189C76.7065 43.8954 76.7436 43.8836 76.779 43.8735C76.7891 43.9088 76.7959 43.9441 76.7959 43.9894Z" fill="#383838"/>
<path d="M78.658 43.2184V46.7975C78.658 47.0411 78.4825 47.3384 78.2717 47.4626C78.098 47.5634 77.9478 47.5147 77.8989 47.3568C77.9343 47.3518 77.9715 47.3333 78.0102 47.3132C78.2211 47.1872 78.3948 46.8949 78.3948 46.6464V43.0722C78.3948 43.0269 78.3898 42.9883 78.3796 42.9563C78.5399 42.911 78.658 43.0185 78.658 43.2184Z" fill="#7B916D"/>
<path d="M78.3948 43.0706V46.6447C78.3948 46.8916 78.2194 47.1855 78.0086 47.3098C77.9715 47.3333 77.9344 47.3518 77.899 47.3568C77.8888 47.3215 77.8838 47.2829 77.8838 47.2392V43.6635C77.8838 43.4183 78.0592 43.1176 78.2717 42.9967C78.3071 42.9732 78.3442 42.9614 78.378 42.9547C78.3898 42.9866 78.3948 43.0236 78.3948 43.0706Z" fill="#383838"/>
<path d="M80.2587 42.298V45.8754C80.2587 46.1207 80.0866 46.4196 79.8724 46.5406C79.697 46.6447 79.5485 46.5926 79.4996 46.4364C79.5351 46.4297 79.5722 46.4146 79.611 46.3927C79.8252 46.2668 79.9972 45.9729 79.9972 45.7243V42.1468C79.9972 42.1065 79.9905 42.0662 79.9804 42.0309C80.1423 41.9923 80.2587 42.0964 80.2587 42.298Z" fill="#7B916D"/>
<path d="M79.9972 42.1469V45.7243C79.9972 45.9712 79.8251 46.2668 79.6109 46.3911C79.5738 46.4163 79.5367 46.4314 79.5013 46.4381C79.4912 46.4028 79.4844 46.3609 79.4844 46.3189V42.7415C79.4844 42.4963 79.6599 42.199 79.8741 42.0764C79.9095 42.0546 79.9449 42.0411 79.9803 42.0327C79.9904 42.0663 79.9972 42.1049 79.9972 42.1469Z" fill="#383838"/>
</svg>
