<svg width="91" height="78" viewBox="0 0 91 78" fill="none" xmlns="http://www.w3.org/2000/svg">
<path d="M5.10597 32.079L4.03894 31.4682V28.503L21.9908 19.3947L5.10597 32.079Z" fill="#383838"/>
<path d="M23.7826 21.3296L5.10455 32.079V29.1109L23.7826 18.3644V21.3296Z" fill="#050505"/>
<path d="M23.7826 18.3644L5.10454 29.111L4.04181 28.5031L22.717 17.7537L23.7826 18.3644Z" fill="#575757"/>
<g opacity="0.3">
<g opacity="0.3">
<path opacity="0.3" d="M3.07507 39.0526L69.576 77.254L90.0873 65.5314L23.5878 27.33L3.07507 39.0526Z" fill="#121214"/>
</g>
</g>
<path d="M8.98882 33.5231L9.47437 32.9595L8.7926 33.3134L8.98882 33.5231Z" fill="#535359"/>
<path d="M8.40019 35.3924L8.88428 34.8359L8.20111 35.1869L8.40019 35.3924Z" fill="#535359"/>
<path d="M8.59639 37.8283L9.07764 37.2661L8.39301 37.62L8.59639 37.8283Z" fill="#535359"/>
<path d="M11.8949 43.6346L12.4549 43.3135L11.6958 43.4249L11.8949 43.6346Z" fill="#535359"/>
<path d="M13.9001 44.9917L14.4601 44.6706L13.5821 44.6035L13.9001 44.9917Z" fill="#535359"/>
<path d="M15.8364 45.4098L16.8992 44.8105L15.517 45.0217L15.8364 45.4098Z" fill="#535359"/>
<path d="M21.9651 37.6813L22.1942 37.7041L21.7803 36.3214L21.5569 36.3014C21.4194 35.9333 21.2604 35.5708 21.0814 35.2141L21.2489 35.117L20.4884 33.8042L20.3251 33.8984C20.0974 33.5588 19.8582 33.2349 19.6004 32.9224L19.6892 32.7354L18.6909 31.6937L18.605 31.8778C18.3357 31.6295 18.0536 31.4012 17.7643 31.2V30.9489L16.6886 30.3324V30.5779C16.3922 30.4466 16.1057 30.3495 15.8278 30.2853L15.7433 30.0099L14.7508 29.9157L14.8353 30.1883C14.5818 30.2083 14.3426 30.2554 14.1206 30.3338L13.9688 30.0741L13.2097 30.5151L13.3644 30.7805C13.1825 30.936 13.0178 31.123 12.8788 31.3441L12.389 31.1329L10.0831 32.5157L11.4652 32.5885C11.3864 32.8582 11.7617 32.7026 11.7316 33.018L11.4652 33.135L12.0925 34.2437L12.3274 34.3807C12.3604 34.7375 12.4191 35.0999 12.4993 35.4624L12.2844 35.4395L12.6969 36.8223L12.9218 36.8451C13.0665 37.2104 13.2211 37.5729 13.4002 37.9268L13.2269 38.0295L13.9888 39.3395L14.1693 39.2367C14.3913 39.5706 14.6319 39.8945 14.8869 40.1985L14.7909 40.4125L15.7849 41.4542L15.888 41.2316C16.1544 41.4742 16.428 41.6968 16.713 41.8923V42.1962L17.5824 42.8512L17.79 42.5059C18.0779 42.6343 17.4005 43.1138 17.6726 43.1751L16.9679 44.7163L19.2309 43.716L19.6219 42.8855C19.8654 42.8684 20.0974 42.8213 20.318 42.7456L20.5056 43.0724L21.2704 42.6343L21.0756 42.3061C21.2547 42.1506 21.4165 41.9722 21.554 41.7624L21.7975 42.0164L22.2085 41.1075L21.9651 40.8535C22.0424 40.5852 22.0968 40.3041 22.1326 39.9944L22.3876 40.1428V38.9057L22.1355 38.7572C22.1054 38.4005 22.0453 38.0438 21.9651 37.6813Z" fill="#121214"/>
<path d="M10.0907 32.2759L10.2407 32.5357L14.1091 30.3187L13.9592 30.059L10.0907 32.2759Z" fill="#303033"/>
<path d="M17.1913 44.4809L17.379 44.8105L21.269 42.6301L21.0756 42.3018L17.1913 44.4809Z" fill="#303033"/>
<path d="M18.0765 39.8632L18.3057 39.886L17.8932 38.5033L17.6741 38.4833C17.5337 38.1151 17.3719 37.7527 17.1957 37.3959L17.3633 37.3018L16.6027 35.9861L16.4352 36.0803C16.2132 35.7407 15.9725 35.4139 15.7133 35.1042L15.8007 34.9144L14.8038 33.8728L14.7207 34.0597C14.4458 33.8114 14.1665 33.5802 13.8757 33.379V33.1307L12.7987 32.5114V32.7597C12.505 32.6256 12.2172 32.5286 11.9393 32.4644L11.8577 32.1918L10.8608 32.0976L10.9468 32.3702C10.6975 32.3873 10.4541 32.4344 10.2306 32.5157L10.0817 32.256L9.32257 32.6941L9.47582 32.9595C9.29392 33.1179 9.13065 33.3048 8.99029 33.5232L8.79263 33.3148L8.38158 34.2209L8.58925 34.4407C8.51478 34.7104 8.45319 34.9986 8.42454 35.3154L8.20111 35.187V36.4213L8.43887 36.5583C8.47038 36.9151 8.5291 37.2775 8.60931 37.6399L8.39447 37.62L8.80553 38.9998L9.03469 39.0227C9.17505 39.388 9.33116 39.7504 9.5102 40.1072L9.33689 40.2042L10.0974 41.5227L10.2793 41.4143C10.5027 41.751 10.7419 42.0692 10.9983 42.376L10.9009 42.5901L11.8935 43.6346L11.9966 43.4092C12.2659 43.6517 12.5394 43.8772 12.8216 44.0727V44.3766L13.8986 44.9959V44.6834C14.188 44.8147 14.4644 44.906 14.7394 44.9703L14.8411 45.3156L15.8336 45.4098L15.7319 45.0644C15.9754 45.0445 16.2103 45.0002 16.4266 44.9217L16.6171 45.2499L17.3776 44.8119L17.1885 44.4808C17.3647 44.331 17.5265 44.1497 17.6626 43.9371L17.909 44.194L18.3186 43.2822L18.0737 43.0282C18.1524 42.7656 18.2112 42.4788 18.2398 42.172L18.4948 42.3175V41.0804L18.2441 40.932C18.2169 40.5823 18.161 40.2227 18.0765 39.8632Z" fill="#303033"/>
<path d="M13.9201 42.0849C12.1469 41.0646 10.709 38.5789 10.709 36.5383C10.709 35.685 10.9639 35.0385 11.3878 34.6604C10.6216 34.8944 10.126 35.6721 10.126 36.8708C10.126 38.9113 11.5612 41.3943 13.3386 42.4174C14.3641 43.0082 15.2821 42.9754 15.8708 42.4474C15.3308 42.6115 14.6534 42.5059 13.9201 42.0849Z" fill="#121214"/>
<path d="M13.3386 35.0186C12.6024 34.6005 11.9307 34.492 11.3879 34.659C10.9639 35.0414 10.709 35.685 10.709 36.5369C10.709 38.5775 12.147 41.0633 13.9201 42.0835C14.6534 42.5045 15.3323 42.6101 15.8694 42.446C16.2934 42.0636 16.5469 41.4229 16.5469 40.5652C16.5469 38.5232 15.1103 36.0446 13.3386 35.0186Z" fill="#939598"/>
<path d="M13.7869 40.0444C12.9605 39.5706 12.2917 38.4162 12.2917 37.4687C12.2917 37.2118 12.3389 37.0007 12.4263 36.8308C12.0711 36.9421 11.8448 37.3017 11.8448 37.8597C11.8448 38.8072 12.5137 39.9616 13.3386 40.4354C13.9459 40.7864 14.4658 40.6694 14.6964 40.2099C14.4472 40.2955 14.1292 40.2456 13.7869 40.0444Z" fill="#535359"/>
<path d="M13.3386 36.9978C12.9963 36.7994 12.6783 36.7495 12.4263 36.8337C12.3403 37.0006 12.2916 37.2132 12.2916 37.4687C12.2916 38.4162 12.9605 39.5735 13.7869 40.0444C14.1292 40.2427 14.4472 40.2955 14.6978 40.2085C14.7881 40.0444 14.8353 39.8317 14.8353 39.5763C14.8353 38.6288 14.1607 37.4715 13.3386 36.9978Z" fill="#A7A9AC"/>
<path d="M17.8917 38.5032L18.3056 39.886L22.1942 37.7027L21.7774 36.3242L17.8917 38.5032Z" fill="#535359"/>
<path d="M18.4976 42.3161L22.3861 40.1386V38.8985L18.4976 41.0818V42.3161Z" fill="#535359"/>
<path d="M17.9118 44.194L21.7975 42.0121L22.2086 41.1031L18.3214 43.2822L17.9118 44.194Z" fill="#535359"/>
<path d="M16.6013 35.9861L17.3632 37.3017L21.2504 35.1199L20.487 33.8042L16.6013 35.9861Z" fill="#535359"/>
<path d="M14.8024 33.8713L15.7992 34.9159L19.6892 32.7369L18.6909 31.6938L14.8024 33.8713Z" fill="#535359"/>
<path d="M12.8 32.5114L13.8742 33.1321L17.7628 30.9503L16.6872 30.3339L12.8 32.5114Z" fill="#535359"/>
<path d="M10.8622 32.0961L11.8577 32.1932L15.7433 30.0113L14.7508 29.9157L10.8622 32.0961Z" fill="#535359"/>
<path d="M15.7133 35.1057L19.5989 32.9238L19.6877 32.7368L15.7992 34.9159L15.7133 35.1057Z" fill="#303033"/>
<path d="M17.6726 38.4833L17.8917 38.5061L21.7789 36.3214L21.5569 36.3043L17.6726 38.4833Z" fill="#303033"/>
<path d="M18.2469 40.9334L18.4976 41.0818L22.3876 38.8985L22.1355 38.7544L18.2469 40.9334Z" fill="#303033"/>
<path d="M18.0765 43.0267L18.3214 43.2822L22.2086 41.1032L21.9636 40.8492L18.0765 43.0267Z" fill="#303033"/>
<path d="M13.8757 33.3804L17.7628 31.2014V30.9503L13.8757 33.1321V33.3804Z" fill="#303033"/>
<path d="M11.8577 32.1932L11.9393 32.4658L15.8279 30.2867L15.7434 30.0141L11.8577 32.1932Z" fill="#303033"/>
<path d="M19.6634 39.6648L20.1489 39.0997L19.4658 39.4536L19.6634 39.6648Z" fill="#535359"/>
<path d="M19.0748 41.5356L19.5589 40.9748L18.8771 41.3258L19.0748 41.5356Z" fill="#535359"/>
<path d="M19.271 43.9685L19.7522 43.4049L19.069 43.7588L19.271 43.9685Z" fill="#535359"/>
<path d="M22.5709 49.7735L23.1324 49.4567L22.3704 49.5651L22.5709 49.7735Z" fill="#535359"/>
<path d="M24.5761 51.1334L25.1375 50.8109L24.2567 50.7438L24.5761 51.1334Z" fill="#535359"/>
<path d="M26.5125 51.5486L27.5738 50.9521L26.1917 51.1619L26.5125 51.5486Z" fill="#535359"/>
<path d="M32.6397 43.823L32.8688 43.8458L32.4549 42.4631L32.2315 42.4403C32.0954 42.0721 31.9364 41.7125 31.7574 41.3529L31.9235 41.2587L31.163 39.9431L31.0012 40.0373C30.7749 39.6976 30.5343 39.3709 30.2765 39.0612L30.3653 38.8743L29.3684 37.8326L29.281 38.0195C29.0089 37.7712 28.7296 37.5429 28.4389 37.3389V37.0877L27.3618 36.4713V36.7167C27.0653 36.5854 26.7818 36.4855 26.501 36.4242L26.418 36.1488L25.4254 36.0546L25.5099 36.33C25.255 36.3471 25.0172 36.3942 24.7938 36.4727L24.6448 36.2158L23.8857 36.6568L24.0404 36.9193C23.8585 37.0777 23.6924 37.2647 23.552 37.4801L23.0651 37.2732L20.7577 38.6531L22.1384 38.7259C22.061 38.9956 22.4363 38.84 22.4062 39.1582L22.1384 39.2724L22.7657 40.384L23.0006 40.5181C23.0321 40.8777 23.0908 41.2373 23.1739 41.5998L22.9591 41.5769L23.3701 42.9625L23.5964 42.9825C23.7382 43.3478 23.8958 43.7103 24.0719 44.0641L23.9015 44.1669L24.662 45.4797L24.8439 45.3741C25.0659 45.708 25.3065 46.0319 25.56 46.3359L25.4626 46.5499L26.4581 47.5945L26.5612 47.369C26.8276 47.6116 27.1011 47.837 27.3876 48.0297V48.3336L28.2584 48.9914L28.4632 48.6433C28.7497 48.7688 28.0751 49.2512 28.3458 49.3125L27.6411 50.8536L29.9026 49.8562L30.2951 49.0228C30.5414 49.0057 30.7734 48.9615 30.9911 48.883L31.1788 49.2098L31.945 48.7688L31.7502 48.4406C31.9278 48.288 32.0926 48.1124 32.2258 47.8998L32.4721 48.1538L32.8817 47.2448L32.6382 46.9937C32.7127 46.724 32.77 46.4415 32.8058 46.1318L33.0593 46.2802V45.043L32.8087 44.8946C32.78 44.5422 32.7185 44.1854 32.6397 43.823Z" fill="#121214"/>
<path d="M20.7562 38.3976L20.9066 38.6559L24.7952 36.4741L24.6419 36.2173L20.7562 38.3976Z" fill="#303033"/>
<path d="M27.866 50.6239L28.055 50.9521L31.9465 48.7674L31.7517 48.4421L27.866 50.6239Z" fill="#303033"/>
<path d="M28.7496 46.0034L28.9788 46.0262L28.5663 44.6464L28.3457 44.6235C28.2097 44.2582 28.0478 43.8929 27.8702 43.539L28.0364 43.442L27.2744 42.1263L27.1126 42.2205C26.8863 41.8837 26.6457 41.557 26.3878 41.2445L26.4752 41.0547L25.4798 40.013L25.3924 40.1999C25.1217 39.9545 24.841 39.7233 24.5503 39.5221V39.271L23.4732 38.6488V38.8999C23.1796 38.7687 22.8931 38.6716 22.6153 38.6046L22.5322 38.3349L21.5368 38.2378L21.6213 38.5104C21.3721 38.5275 21.1286 38.5774 20.908 38.6559L20.7562 38.3962L19.9971 38.8372L20.1504 39.0997C19.9699 39.2581 19.8066 39.445 19.6634 39.6648L19.4672 39.4536L19.0561 40.3597L19.2652 40.5795C19.1893 40.852 19.1292 41.1403 19.0991 41.4542L18.8785 41.3286V42.563L19.1134 42.6971C19.1449 43.0567 19.2037 43.4163 19.2867 43.7788L19.0705 43.7588L19.4829 45.1415L19.7121 45.1615C19.8539 45.5268 20.0086 45.8892 20.1876 46.246L20.0143 46.343L20.7748 47.6615L20.9567 47.5531C21.1802 47.8899 21.4194 48.2138 21.6757 48.5177L21.5798 48.7318L22.5738 49.7735L22.674 49.5509C22.9433 49.7906 23.2154 50.016 23.499 50.2115V50.5155L24.5775 51.1348V50.8251C24.8654 50.9536 25.1418 51.0449 25.4168 51.1091L25.5185 51.4544L26.5139 51.5486L26.4108 51.2033C26.6528 51.1862 26.8863 51.1391 27.104 51.0606L27.2945 51.3888L28.055 50.9507L27.8659 50.6225C28.0421 50.4698 28.2025 50.2886 28.34 50.076L28.5835 50.3328L28.996 49.421L28.7496 49.167C28.8327 48.9044 28.8886 48.6176 28.9186 48.3108L29.1736 48.4592V47.2192L28.9215 47.0736C28.8914 46.7226 28.8356 46.363 28.7496 46.0034Z" fill="#303033"/>
<path d="M24.5947 48.2238C22.823 47.2035 21.3836 44.7206 21.3836 42.6771C21.3836 41.8238 21.6385 41.1831 22.0624 40.7992C21.2976 41.0332 20.8021 41.811 20.8021 43.0096C20.8021 45.0502 22.2372 47.5331 24.0132 48.5534C25.0401 49.1471 25.9568 49.1171 26.5454 48.5863C26.0054 48.7532 25.328 48.6448 24.5947 48.2238Z" fill="#121214"/>
<path d="M24.0132 41.1617C23.2784 40.7408 22.6053 40.6352 22.0624 40.7993C21.6385 41.1845 21.3835 41.8253 21.3835 42.6772C21.3835 44.7206 22.8215 47.2035 24.5932 48.2238C25.328 48.6447 26.0069 48.7532 26.544 48.5862C26.9679 48.2038 27.2243 47.5631 27.2243 46.7055C27.2243 44.6621 25.7849 42.1849 24.0132 41.1617Z" fill="#939598"/>
<path d="M24.4629 46.1846C23.6351 45.7137 22.9676 44.5593 22.9676 43.6089C22.9676 43.3521 23.0135 43.1409 23.1008 42.9739C22.7442 43.0824 22.5193 43.442 22.5193 43.9999C22.5193 44.9474 23.1853 46.1019 24.0132 46.5785C24.6176 46.9267 25.1404 46.8096 25.3724 46.353C25.1217 46.4329 24.8038 46.3844 24.4629 46.1846Z" fill="#535359"/>
<path d="M24.0132 43.1381C23.6709 42.9397 23.3529 42.8898 23.1009 42.974C23.0149 43.1409 22.9677 43.3535 22.9677 43.609C22.9677 44.5593 23.6351 45.7137 24.4629 46.1846C24.8052 46.383 25.1217 46.4358 25.3724 46.3516C25.4612 46.1846 25.507 45.972 25.507 45.7166C25.507 44.7677 24.8382 43.6118 24.0132 43.1381Z" fill="#A7A9AC"/>
<path d="M28.5663 44.6435L28.9803 46.0248L32.8688 43.8458L32.4535 42.4659L28.5663 44.6435Z" fill="#535359"/>
<path d="M29.1736 48.4606L33.0593 46.2788V45.0416L29.1736 47.2206V48.4606Z" fill="#535359"/>
<path d="M28.5835 50.3343L32.4749 48.1553L32.8831 47.2434L28.9974 49.4224L28.5835 50.3343Z" fill="#535359"/>
<path d="M27.2744 42.1263L28.0364 43.442L31.9235 41.2616L31.163 39.9473L27.2744 42.1263Z" fill="#535359"/>
<path d="M25.4784 40.0116L26.4738 41.0561L30.3624 38.8771L29.367 37.834L25.4784 40.0116Z" fill="#535359"/>
<path d="M23.4747 38.6473L24.5503 39.2723L28.4388 37.0905L27.3618 36.4741L23.4747 38.6473Z" fill="#535359"/>
<path d="M21.5368 38.235L22.5337 38.3363L26.4194 36.1502L25.4254 36.056L21.5368 38.235Z" fill="#535359"/>
<path d="M26.3879 41.2459L30.275 39.0626L30.3624 38.8771L26.4738 41.0561L26.3879 41.2459Z" fill="#303033"/>
<path d="M28.3458 44.6235L28.5663 44.6464L32.4549 42.4631L32.2315 42.4417L28.3458 44.6235Z" fill="#303033"/>
<path d="M28.9215 47.0765L29.1736 47.2234L33.0621 45.0387L32.8086 44.8932L28.9215 47.0765Z" fill="#303033"/>
<path d="M28.7496 49.167L28.996 49.4252L32.8831 47.2434L32.6396 46.9922L28.7496 49.167Z" fill="#303033"/>
<path d="M24.5503 39.5235L28.4388 37.3403V37.0905L24.5503 39.2724V39.5235Z" fill="#303033"/>
<path d="M22.5337 38.3363L22.6168 38.606L26.501 36.427L26.418 36.153L22.5337 38.3363Z" fill="#303033"/>
<path d="M36.5927 40.969C36.5955 40.969 36.5984 40.9748 36.6041 40.9748L44.7107 45.6452L39.2409 53.4022L31.1315 48.7318V48.7289C30.931 48.6062 30.8049 48.3465 30.8049 47.9869V45.2671C30.8049 44.525 31.3306 43.6204 31.9737 43.2522L35.7734 41.0532C36.0928 40.872 36.3821 40.8492 36.5927 40.969Z" fill="#808080"/>
<g opacity="0.1">
<g opacity="0.1">
<path opacity="0.1" d="M40.1088 47.937L31.9736 43.2493L35.7748 41.0504C36.0914 40.8691 36.3821 40.8492 36.5912 40.969C36.5941 40.969 36.5984 40.9747 36.6027 40.9747L44.7092 45.6452L40.1088 47.937Z" fill="black"/>
</g>
</g>
<path d="M40.1089 47.9369C39.4686 48.3079 38.943 49.2155 38.943 49.9547V52.6745C38.943 53.4136 39.4686 53.719 40.1103 53.3466L43.9072 51.1533C44.5532 50.7794 45.0788 49.8747 45.0788 49.1356V46.4129C45.0788 45.6709 44.5503 45.3712 43.9072 45.738L40.1089 47.9369Z" fill="#575757"/>
<path d="M41.8562 48.1524L3.07507 25.8446L20.984 15.5404L59.7637 37.8511L41.8562 48.1524Z" fill="#575757"/>
<path d="M21.597 6.93725L3.85565 17.9535L3.07507 16.8818L20.984 6.58051L21.597 6.93725Z" fill="#6A9176"/>
<path d="M5.84937 21.772L3.68951 26.2013L3.07507 25.8474V16.879L3.68951 17.2386L5.84937 21.772Z" fill="#4A6653"/>
<path d="M21.597 15.9001L3.68951 26.2014V17.2386L21.597 6.93726V15.9001Z" fill="#34473A"/>
<path d="M59.7636 28.8855L42.0209 39.9045L41.2418 38.8314L59.1477 28.5316L59.7636 28.8855Z" fill="#6A9176"/>
<path d="M44.0175 43.7231L41.8576 48.1524L41.2418 47.7957V38.8286L41.8576 39.1882L44.0175 43.7231Z" fill="#4A6653"/>
<path d="M59.7637 37.8511L41.8577 48.1553V39.1882L59.7637 28.8884V37.8511Z" fill="#34473A"/>
<path d="M2.38901 20.9729C0.922386 20.0725 -0.00284995 18.236 1.45586e-05 15.666C-0.00857896 10.3092 3.78833 3.81502 8.40878 1.15942C10.5514 -0.130559 12.4764 -0.278964 13.9516 0.39314L15.8479 1.51046L4.51877 22.2986L2.38901 20.9729Z" fill="#9CB88A"/>
<path d="M1.82755 16.7691C1.81323 11.4065 5.61586 4.90952 10.222 2.23395C14.8768 -0.41593 18.6666 1.77161 18.6279 7.10277C18.6279 12.4339 14.8739 18.9081 10.189 21.6036C5.59152 24.2507 1.82755 22.1017 1.82755 16.7691Z" fill="#36402F"/>
<path d="M4.51446 21.909C3.07934 21.0314 2.17559 19.2277 2.17415 16.7163C2.16413 11.4679 5.88513 5.11644 10.4053 2.51365C12.505 1.24793 14.3884 1.11237 15.8321 1.76164L24.2166 6.61333L13.1266 26.9619L4.51446 21.909Z" fill="#7B916D"/>
<path d="M10.4941 21.5494C10.4784 16.301 14.2008 9.94103 18.711 7.32112C23.2655 4.72975 26.9765 6.87448 26.9378 12.09C26.9378 17.307 23.2627 23.6485 18.6766 26.2812C14.1779 28.8712 10.4941 26.7721 10.4941 21.5494Z" fill="#9CB88A"/>
<path d="M12.3561 26.7079C10.8909 25.8047 9.96706 23.9682 9.96706 21.401C9.95846 16.0413 13.7568 9.55005 18.3758 6.8916C20.5214 5.60162 22.4463 5.45607 23.9201 6.12532L25.8164 7.24549L14.4873 28.0279L12.3561 26.7079Z" fill="#9CB88A"/>
<path d="M11.7932 22.5026C11.7789 17.14 15.5829 10.6431 20.1891 7.96749C24.841 5.32046 28.6337 7.508 28.595 12.8363C28.595 18.1732 24.841 24.6416 20.1561 27.34C15.5586 29.9828 11.7932 27.8338 11.7932 22.5026Z" fill="#36402F"/>
<path d="M14.483 27.644C13.0478 26.7636 12.1441 24.9656 12.1427 22.4484C12.1341 17.2057 15.8536 10.8486 20.3752 8.24578C22.4735 6.98292 24.3583 6.84165 25.8021 7.49948L34.1865 12.3483L23.098 32.6969L14.483 27.644Z" fill="#7B916D"/>
<path d="M20.4626 27.283C20.4483 22.0346 24.1693 15.6746 28.678 13.0546C33.234 10.4633 36.945 12.608 36.9049 17.8236C36.9049 23.0434 33.2312 29.382 28.6451 32.0177C24.1464 34.6033 20.4612 32.5057 20.4626 27.283Z" fill="#9CB88A"/>
<path d="M22.6325 32.6199C21.1659 31.7194 20.2435 29.8829 20.2421 27.313C20.2363 21.9533 24.0347 15.462 28.6523 12.8035C30.7963 11.5107 32.7227 11.368 34.1965 12.0372L36.0942 13.1545L24.7623 33.9455L22.6325 32.6199Z" fill="#9CB88A"/>
<path d="M22.071 28.4146C22.0567 23.052 25.8593 16.555 30.4655 13.8766C35.1203 11.2296 38.9115 13.4228 38.8714 18.7483C38.8714 24.0823 35.1174 30.5536 30.4325 33.252C25.8364 35.8948 22.071 33.7486 22.071 28.4146Z" fill="#36402F"/>
<path d="M24.7594 33.5559C23.3242 32.6726 22.4205 30.8747 22.4205 28.3603C22.409 23.1177 26.13 16.7576 30.6502 14.1606C32.7513 12.8948 34.6348 12.7593 36.077 13.4086L44.4629 18.2602L33.3715 38.606L24.7594 33.5559Z" fill="#7B916D"/>
<path d="M30.7391 33.1935C30.7247 27.948 34.4457 21.5879 38.9559 18.9652C43.5105 16.3738 47.2214 18.5171 47.1827 23.7313C47.1827 28.954 43.5076 35.2926 38.9215 37.9253C34.4228 40.5153 30.7391 38.4133 30.7391 33.1935Z" fill="#9CB88A"/>
<path d="M32.9118 38.5275C31.4437 37.6299 30.5199 35.7905 30.5199 33.2234C30.5113 27.8637 34.3097 21.3725 38.9287 18.714C41.0742 17.4212 42.9991 17.2785 44.4729 17.9477L46.3707 19.0679L35.0401 39.8531L32.9118 38.5275Z" fill="#9CB88A"/>
<path d="M32.3475 34.3251C32.3317 28.9625 36.1372 22.4684 40.7433 19.7899C45.3953 17.1429 49.1879 19.3304 49.1464 24.6616C49.1464 29.9928 45.3953 36.4641 40.709 39.1597C36.1129 41.8053 32.3475 39.6591 32.3475 34.3251Z" fill="#36402F"/>
<path d="M35.0358 39.465C33.6007 38.5874 32.697 36.7866 32.697 34.2751C32.687 29.0267 36.4065 22.6695 40.9281 20.0696C43.0264 18.8067 44.9112 18.6655 46.3549 19.3233L54.7393 24.1721L43.6508 44.5179L35.0358 39.465Z" fill="#7B916D"/>
<path d="M41.0155 39.1055C41.0012 33.857 44.7222 27.4999 49.2309 24.88C53.7869 22.2857 57.4978 24.429 57.4606 29.6432C57.4577 34.8659 53.784 41.2017 49.1979 43.8401C44.6992 46.4301 41.0155 44.3253 41.0155 39.1055Z" fill="#9CB88A"/>
<path d="M42.8788 44.2639C41.4136 43.3635 40.4898 41.527 40.4898 38.957C40.4812 33.5973 44.2796 27.1089 48.8986 24.4476C51.0412 23.1547 52.969 23.012 54.4428 23.6841L56.3377 24.8015L45.01 45.5867L42.8788 44.2639Z" fill="#9CB88A"/>
<path d="M42.3159 40.0587C42.3045 34.6961 46.1057 28.202 50.7104 25.5236C55.3637 22.8765 59.1549 25.0641 59.1162 30.3952C59.1162 35.7264 55.3623 42.1977 50.676 44.8961C46.0813 47.5388 42.3159 45.3927 42.3159 40.0587Z" fill="#36402F"/>
<path d="M58.1237 16.5022L57.674 16.2425C57.5766 16.1954 57.4649 16.1669 57.3446 16.1669C57.1655 16.1669 56.9607 16.2282 56.7459 16.3481L42.7729 24.3834C42.0281 24.81 41.4222 25.8603 41.4222 26.7165V47.1878L41.8892 46.9181L42.1083 26.7065C42.1083 26.0215 42.4878 25.388 43.0837 25.0426L56.9779 16.7562C57.1527 16.6535 57.273 16.6335 57.3446 16.6335C57.5909 16.6335 57.6282 16.9431 57.6282 17.1272V37.8654L58.0664 38.1165L58.0979 37.5957V17.1258C58.0979 16.9731 58.0736 16.8333 58.0406 16.7134L58.1237 16.5022Z" fill="#666666"/>
<path d="M42.326 47.1707V26.9676C42.326 26.2841 42.8502 25.3823 43.4431 25.0412L57.4191 17.0059C57.591 16.9061 57.7113 16.8832 57.7829 16.8832C58.0293 16.8832 58.0651 17.1957 58.0651 17.377V38.1151L58.5349 37.8468V17.377C58.5349 16.7691 58.2298 16.418 57.7829 16.418C57.6025 16.418 57.3962 16.4765 57.1828 16.6021L43.2097 24.6345C42.4635 25.064 41.8591 26.1114 41.8591 26.9676V47.4418L42.326 47.1707Z" fill="#383838"/>
<path d="M58.0649 33.9412V38.1151L58.5347 37.8482V33.673L58.0649 33.9412Z" fill="#5D6E52"/>
<path d="M41.8591 43.2636V47.4418L42.326 47.1707V42.9982L41.8591 43.2636Z" fill="#5D6E52"/>
<path d="M68.3987 36.3956L53.5161 45.8136L53.6565 36.0945L68.3987 34.8388V36.3956Z" fill="#7B916D"/>
<path d="M76.024 47.1378C72.5079 48.766 72.2844 53.074 72.2844 53.1026L76.0885 50.9122C76.2432 50.6525 76.7259 49.1784 77.6067 47.9854L76.024 47.1378Z" fill="#9C251F"/>
<path d="M74.9083 51.9753L75.3953 51.4102L74.7092 51.7641L74.9083 51.9753Z" fill="#535359"/>
<path d="M74.3226 53.846L74.8053 53.2823L74.1221 53.6363L74.3226 53.846Z" fill="#535359"/>
<path d="M74.5145 56.279L74.9957 55.7154L74.3125 56.0692L74.5145 56.279Z" fill="#535359"/>
<path d="M77.8143 62.0868L78.3757 61.7672L77.6152 61.8784L77.8143 62.0868Z" fill="#535359"/>
<path d="M79.821 63.4438L80.3796 63.1242L79.4988 63.0571L79.821 63.4438Z" fill="#535359"/>
<path d="M81.7531 63.859L82.8187 63.2626L81.438 63.4723L81.7531 63.859Z" fill="#535359"/>
<path d="M87.8847 56.1335L88.1138 56.1563L87.697 54.7736L87.4765 54.7536C87.339 54.3826 87.18 54.023 87.001 53.6634L87.1685 53.5692L86.4051 52.2535L86.2433 52.3477C86.017 52.0081 85.7764 51.6813 85.5186 51.3717L85.6088 51.1847L84.6105 50.1445L84.5246 50.3285C84.2524 50.0774 83.9717 49.8519 83.6824 49.6479V49.3967L82.6082 48.7803V49.0257C82.3089 48.8944 82.0253 48.7974 81.7446 48.7332L81.6615 48.4606L80.6675 48.3665L80.752 48.639C80.4999 48.6561 80.2622 48.7032 80.0387 48.7846L79.8883 48.5248L79.1292 48.9658L79.2839 49.2283C79.102 49.3867 78.9373 49.5737 78.7984 49.792L78.3086 49.5837L75.9998 50.9635L77.3819 51.0392C77.3031 51.3074 77.6812 51.1476 77.6512 51.4687L77.3819 51.5829L78.0092 52.6916L78.247 52.8286C78.2771 53.1882 78.3372 53.5478 78.4189 53.9102L78.2054 53.8874L78.6136 55.273L78.8399 55.293C78.9832 55.6583 79.1421 56.0207 79.3183 56.3746L79.1464 56.4774L79.9084 57.7902L80.0889 57.6846C80.3109 58.0185 80.5515 58.3396 80.805 58.6435L80.7119 58.8604L81.7045 59.905L81.8076 59.6795C82.0711 59.9221 82.3475 60.1475 82.6326 60.3402V60.6441L83.5019 61.302L83.7096 60.9538C83.9975 61.0822 83.32 61.5617 83.5893 61.623L82.8875 63.1642L85.1476 62.1667L85.5415 61.3334C85.785 61.3162 86.017 61.272 86.2376 61.1935L86.4238 61.5203L87.1886 61.0822L86.9952 60.754C87.1743 60.6013 87.3361 60.4229 87.4736 60.2103L87.7171 60.4672L88.1282 59.5553L87.8847 59.3013C87.962 59.0359 88.0136 58.752 88.0494 58.4423L88.3043 58.5907V57.3507L88.0551 57.2051C88.025 56.8527 87.9649 56.4959 87.8847 56.1335Z" fill="#121214"/>
<path d="M75.9998 50.7052L76.1516 50.9664L80.0387 48.7846L79.8869 48.5277L75.9998 50.7052Z" fill="#303033"/>
<path d="M83.1094 62.9344L83.297 63.2626L87.1885 61.0808L86.9951 60.7526L83.1094 62.9344Z" fill="#303033"/>
<path d="M83.9975 58.3168L84.2267 58.3367L83.8128 56.954L83.5893 56.934C83.4547 56.5659 83.2929 56.2034 83.1167 55.8495L83.2814 55.7496L82.5209 54.4368L82.3576 54.531C82.1342 54.1942 81.8892 53.8646 81.6329 53.5549L81.7188 53.3652L80.7234 52.3235L80.6389 52.5104C80.3682 52.265 80.0875 52.0338 79.7953 51.8326V51.5814L78.7197 50.9621V51.2104C78.4246 51.0791 78.1382 50.9793 77.8603 50.915L77.7787 50.6453L76.7832 50.5483L76.8677 50.8237C76.6171 50.838 76.3722 50.8851 76.153 50.9664L76.0012 50.7039L75.2436 51.1476L75.3968 51.4102C75.2135 51.5686 75.0502 51.7555 74.9098 51.9753L74.7122 51.7641L74.3011 52.6731L74.5102 52.89C74.4343 53.1597 74.3742 53.4508 74.3455 53.7676L74.1235 53.6391V54.8735L74.3584 55.0076C74.3899 55.3672 74.4487 55.7297 74.5303 56.0893L74.3155 56.0693L74.7279 57.452L74.9571 57.472C75.0989 57.8402 75.255 58.1997 75.4341 58.5593L75.2579 58.6535L76.0227 59.972L76.2032 59.8636C76.4266 60.2004 76.6615 60.5214 76.9222 60.8254L76.8248 61.0423L77.8188 62.0868L77.9205 61.8614C78.1883 62.1011 78.4633 62.3266 78.7454 62.5249V62.8231L79.8225 63.4453V63.1357C80.1132 63.2641 80.3882 63.3583 80.6618 63.4196L80.7621 63.7649L81.756 63.8591L81.6558 63.5138C81.9007 63.4967 82.1342 63.4496 82.349 63.3711L82.5395 63.6993L83.2986 63.2612L83.111 62.933C83.2871 62.7803 83.4475 62.5991 83.5865 62.3893L83.83 62.6433L84.241 61.7344L83.9975 61.4775C84.0763 61.2149 84.1322 60.9281 84.1637 60.6213L84.42 60.7697V59.5297L84.168 59.3841C84.135 59.0331 84.0777 58.6735 83.9975 58.3168Z" fill="#303033"/>
<path d="M79.8381 60.5342C78.0664 59.5139 76.6269 57.031 76.6269 54.9905C76.6269 54.1343 76.8833 53.4907 77.3058 53.1097C76.5424 53.3466 76.0469 54.1215 76.0469 55.3201C76.0469 57.3607 77.482 59.8436 79.2609 60.8638C80.2821 61.4574 81.2002 61.4275 81.7903 60.8967C81.2503 61.0636 80.5728 60.9552 79.8381 60.5342Z" fill="#121214"/>
<path d="M79.2595 53.4722C78.5218 53.0512 77.8487 52.9457 77.3059 53.1098C76.8819 53.495 76.627 54.1357 76.627 54.9905C76.627 57.031 78.065 59.514 79.8367 60.5342C80.5728 60.9552 81.2517 61.0636 81.7888 60.8967C82.2114 60.5171 82.4663 59.8736 82.4663 59.0159C82.4663 56.9725 81.0283 54.4925 79.2595 53.4722Z" fill="#939598"/>
<path d="M79.7063 58.4951C78.8785 58.0242 78.2125 56.8698 78.2125 55.9194C78.2125 55.6654 78.2569 55.4514 78.3471 55.2844C77.9919 55.3929 77.7656 55.7553 77.7656 56.3104C77.7656 57.2579 78.433 58.4152 79.2609 58.8889C79.8624 59.2371 80.3866 59.1229 80.6187 58.6635C80.3651 58.7448 80.0501 58.6977 79.7063 58.4951Z" fill="#535359"/>
<path d="M79.2596 55.4514C78.913 55.2502 78.5979 55.2003 78.3458 55.2844C78.2556 55.4514 78.2112 55.664 78.2112 55.9195C78.2112 56.8698 78.8772 58.0242 79.705 58.498C80.0487 58.6963 80.3653 58.7463 80.6173 58.6621C80.7033 58.4951 80.752 58.2825 80.752 58.0271C80.752 57.0782 80.0802 55.9252 79.2596 55.4514Z" fill="#A7A9AC"/>
<path d="M83.8127 56.954L84.2267 58.3353L88.1152 56.1563L87.6984 54.7764L83.8127 56.954Z" fill="#535359"/>
<path d="M84.4199 60.7683L88.3042 58.5893V57.3492L84.4199 59.5311V60.7683Z" fill="#535359"/>
<path d="M83.8284 62.6447L87.7169 60.4643L88.1279 59.5539L84.2408 61.7329L83.8284 62.6447Z" fill="#535359"/>
<path d="M82.5193 54.4368L83.2812 55.7496L87.1683 53.5692L86.4049 52.2578L82.5193 54.4368Z" fill="#535359"/>
<path d="M80.7219 52.3206L81.7173 53.3665L85.6073 51.1876L84.609 50.1473L80.7219 52.3206Z" fill="#535359"/>
<path d="M78.7183 50.9607L79.7953 51.5828L83.681 49.401L82.6097 48.7845L78.7183 50.9607Z" fill="#535359"/>
<path d="M76.7817 50.5454L77.7786 50.6468L81.6628 48.4635L80.6674 48.3693L76.7817 50.5454Z" fill="#535359"/>
<path d="M81.6299 53.5564L85.5185 51.3731L85.6073 51.1876L81.7173 53.3666L81.6299 53.5564Z" fill="#303033"/>
<path d="M83.5894 56.934L83.8128 56.9568L87.6985 54.7735L87.4765 54.7549L83.5894 56.934Z" fill="#303033"/>
<path d="M84.168 59.3869L84.42 59.531L88.3058 57.3492L88.0566 57.2037L84.168 59.3869Z" fill="#303033"/>
<path d="M83.9973 61.4761L84.2408 61.7358L88.1279 59.5539L87.8844 59.2999L83.9973 61.4761Z" fill="#303033"/>
<path d="M79.7952 51.834L83.6809 49.6536V49.401L79.7952 51.5828V51.834Z" fill="#303033"/>
<path d="M77.7786 50.6467L77.8588 50.9164L81.7445 48.7375L81.6629 48.4635L77.7786 50.6467Z" fill="#303033"/>
<path d="M77.6067 47.984L85.0888 52.1921L86.037 51.3816L88.7583 54.979L89.8411 55.6012V49.1969L81.6901 44.5065C80.3567 43.7402 79.2567 43.8016 78.3587 44.2982L74.6577 46.4301L76.0255 47.1378L77.6067 47.984Z" fill="#9CB88A"/>
<path d="M89.8411 55.6012L85.1347 58.3082L84.4973 55.6012L85.1347 51.9011L89.8411 49.197V55.6012Z" fill="#5D6E52"/>
<path d="M67.601 28.0735L53.6566 36.0945L53.1524 36.1987L44.0175 30.5493L57.9605 22.5283L67.601 28.0735Z" fill="#9CB88A"/>
<path d="M67.6009 28.0735L68.3987 34.8388L54.4571 42.8598L53.6565 36.0945L67.6009 28.0735Z" fill="#5D6E52"/>
<path d="M54.7637 41.7496L54.821 42.202L61.1874 38.5418L60.4985 32.6341L60.1347 32.8453L60.7663 38.2992L54.7637 41.7496Z" fill="#00537D"/>
<path d="M54.1321 36.2986L54.7637 41.7496L60.7662 38.2992L60.1317 32.8425L54.1321 36.2986Z" fill="#003552"/>
<path d="M61.5439 37.8539L61.5926 38.3049L67.9647 34.6433L67.2787 28.7342L66.9106 28.9497L67.5422 34.4007L61.5439 37.8539Z" fill="#00537D"/>
<path d="M60.9094 32.4001L61.5439 37.8539L67.5422 34.4007L66.9106 28.9468L60.9094 32.4001Z" fill="#003552"/>
<path d="M62.906 31.2514L67.3145 33.7843L66.7645 29.0296L62.906 31.2514Z" fill="#295E87"/>
<path d="M54.4572 42.8598L53.6566 36.0945L44.0161 30.5493V47.6701L54.4572 53.6762V42.8598Z" fill="#7B916D"/>
<path d="M48.012 34.0853V39.0598L53.383 42.1492L53.3544 41.8139L48.2885 38.9042V34.2437L48.012 34.0853Z" fill="#003552"/>
<path d="M48.2899 34.2437V38.9042L53.3544 41.8167L52.9076 36.8979L48.2899 34.2437Z" fill="#295E87"/>
<path d="M58.4031 57.1908L44.0175 48.913V54.1614L55.6288 60.841L58.4031 57.1908Z" fill="#687A5C"/>
<path d="M73.1567 51.5971L83.585 45.5967L66.6414 35.8491L56.2131 41.8509L73.1567 51.5971Z" fill="#9CB88A"/>
<path d="M54.4571 44.4137L52.8086 50.1188L54.4571 53.6762L69.0389 62.0654L69.2823 63.4495L71.3978 64.6653L71.4006 54.1614L54.4571 44.4137Z" fill="#7B916D"/>
<path d="M71.4008 54.1613L54.4573 44.4137L56.2118 41.8509L73.1567 51.5971L71.4008 54.1613Z" fill="#8AA37B"/>
<path d="M85.3438 46.139L68.3973 36.3956L66.6414 35.8491L83.5849 45.5967L85.3438 46.139Z" fill="#8AA37B"/>
<path d="M61.3965 43.2693V44.2496L71.4223 47.9426L77.2358 44.6035V44.428L61.3965 43.2693Z" fill="#7B916D"/>
<path d="M70.8107 37.8511L61.3965 43.2693L71.4223 47.77L77.2344 44.428L70.8107 37.8511Z" fill="#ABC997"/>
<path d="M85.3667 47.4161L75.3868 53.1568L72.3962 54.1628L73.8629 65.1918L86.2461 58.0741V47.6887L85.3667 47.4161Z" fill="#5D6E52"/>
<path d="M75.0615 56.9639L76.5883 56.0892C76.6943 56.0278 76.7816 55.8808 76.7816 55.761C76.7816 55.6611 76.7229 55.6111 76.6427 55.6268C76.6484 55.644 76.6527 55.6625 76.6527 55.6882C76.6527 55.8081 76.5668 55.9536 76.4637 56.0121L74.9355 56.8926C74.9126 56.904 74.8968 56.9097 74.8796 56.9183C74.9026 56.9925 74.977 57.0153 75.0615 56.9639Z" fill="#8AA37B"/>
<path d="M74.9342 56.8926L76.4623 56.015C76.5655 55.9565 76.6528 55.8067 76.6528 55.6868C76.6528 55.664 76.6471 55.6454 76.6442 55.6283C76.6271 55.634 76.6084 55.6397 76.5884 55.6511L75.0616 56.5316C74.9585 56.5901 74.874 56.7399 74.874 56.8598C74.874 56.8798 74.8769 56.8983 74.8783 56.9183C74.8969 56.9112 74.9141 56.9026 74.9342 56.8926Z" fill="#383838"/>
<path d="M83.5405 52.0866L85.0701 51.2119C85.1775 51.1505 85.2606 51.0007 85.2606 50.8836C85.2606 50.7838 85.2019 50.731 85.1217 50.7524C85.1303 50.7666 85.1303 50.7852 85.1303 50.808C85.1303 50.9307 85.0472 51.0763 84.9427 51.1348L83.4116 52.0152C83.3945 52.0267 83.3787 52.0324 83.3586 52.0381C83.383 52.1151 83.456 52.138 83.5405 52.0866Z" fill="#8AA37B"/>
<path d="M83.4117 52.0152L84.9413 51.1348C85.0473 51.0763 85.1318 50.9307 85.1318 50.808C85.1318 50.7852 85.1318 50.7666 85.1218 50.7495C85.1075 50.7524 85.0874 50.7609 85.0702 50.7723L83.5406 51.6528C83.4361 51.7113 83.353 51.8597 83.353 51.981C83.353 52.001 83.3559 52.0195 83.3588 52.0367C83.3788 52.0309 83.396 52.0252 83.4117 52.0152Z" fill="#383838"/>
<path d="M77.2544 55.7082L79.5818 54.3683C79.6864 54.3098 79.7709 54.16 79.7709 54.0401C79.7738 53.9431 79.7136 53.8917 79.6363 53.9088C79.642 53.926 79.6434 53.9474 79.6434 53.9673C79.6434 54.0872 79.5575 54.2327 79.4515 54.2941L77.1269 55.634C77.104 55.6454 77.0882 55.6511 77.071 55.6568C77.0954 55.7324 77.1684 55.7553 77.2544 55.7082Z" fill="#8AA37B"/>
<path d="M77.127 55.6326L79.4515 54.2941C79.556 54.2327 79.642 54.0857 79.642 53.9659C79.642 53.943 79.642 53.9245 79.6362 53.9073C79.619 53.9102 79.599 53.9216 79.5804 53.9302L77.253 55.2701C77.1499 55.3286 77.0625 55.477 77.0625 55.5983C77.0625 55.6183 77.0654 55.634 77.0711 55.654C77.0883 55.6511 77.1055 55.644 77.127 55.6326Z" fill="#383838"/>
<path d="M80.5542 53.8061L82.8802 52.4704C82.9862 52.4062 83.0692 52.2592 83.0692 52.1393C83.0721 52.0423 83.012 51.9909 82.9346 52.008C82.9403 52.0252 82.9432 52.0437 82.9432 52.0637C82.9432 52.1864 82.8573 52.3334 82.7513 52.3948L80.4253 53.7333C80.4038 53.7447 80.3866 53.7504 80.3708 53.7561C80.3938 53.8346 80.4697 53.8574 80.5542 53.8061Z" fill="#8AA37B"/>
<path d="M80.4239 53.7347L82.7513 52.3962C82.8573 52.3348 82.9418 52.1879 82.9418 52.0651C82.9418 52.0423 82.9389 52.0266 82.9332 52.0095C82.916 52.0123 82.8974 52.0209 82.8802 52.0323L80.5528 53.3709C80.4497 53.4322 80.3623 53.5792 80.3623 53.7019C80.3623 53.7219 80.3652 53.7404 80.3709 53.7576C80.3881 53.7504 80.4053 53.7462 80.4239 53.7347Z" fill="#383838"/>
<path d="M75.0615 57.8173L76.5883 56.9397C76.6943 56.8783 76.7816 56.7313 76.7816 56.6115C76.7816 56.5116 76.7229 56.4616 76.6427 56.4802C76.6484 56.4945 76.6527 56.513 76.6527 56.5387C76.6527 56.6586 76.5668 56.8041 76.4637 56.8626L74.9355 57.7459C74.9126 57.7545 74.8968 57.7602 74.8796 57.7659C74.9026 57.8429 74.977 57.8672 75.0615 57.8173Z" fill="#8AA37B"/>
<path d="M74.9342 57.7445L76.4623 56.8641C76.5655 56.8056 76.6528 56.6572 76.6528 56.5359C76.6528 56.5131 76.6471 56.4945 76.6442 56.4774C76.6271 56.4831 76.6084 56.4888 76.5884 56.5002L75.0616 57.3806C74.9585 57.4391 74.874 57.5875 74.874 57.7088C74.874 57.7288 74.8769 57.7473 74.8783 57.7673C74.8969 57.7616 74.9141 57.7559 74.9342 57.7445Z" fill="#383838"/>
<path d="M83.5405 52.9399L85.0701 52.0623C85.1775 52.0009 85.2606 51.8539 85.2606 51.7341C85.2606 51.6342 85.2019 51.5842 85.1217 51.6028C85.1303 51.6171 85.1303 51.6356 85.1303 51.6613C85.1303 51.7812 85.0472 51.9267 84.9427 51.9881L83.4116 52.8657C83.3945 52.8771 83.3787 52.8828 83.3586 52.8885C83.383 52.9655 83.456 52.987 83.5405 52.9399Z" fill="#8AA37B"/>
<path d="M83.4117 52.8642L84.9413 51.9867C85.0473 51.9282 85.1318 51.7798 85.1318 51.6585C85.1318 51.6356 85.1318 51.6171 85.1218 51.6C85.1075 51.6057 85.0874 51.6114 85.0702 51.6228L83.5406 52.5032C83.4361 52.5617 83.353 52.7116 83.353 52.8314C83.353 52.8514 83.3559 52.8699 83.3588 52.8899C83.3788 52.8842 83.396 52.8757 83.4117 52.8642Z" fill="#383838"/>
<path d="M77.2544 56.5573L79.5818 55.2173C79.6864 55.1588 79.7709 55.009 79.7709 54.8891C79.7738 54.7949 79.7136 54.7407 79.6363 54.7578C79.642 54.775 79.6434 54.7964 79.6434 54.8163C79.6434 54.9362 79.5575 55.0818 79.4515 55.1445L77.1269 56.4831C77.104 56.4945 77.0882 56.5002 77.071 56.5059C77.0954 56.5858 77.1684 56.6043 77.2544 56.5573Z" fill="#8AA37B"/>
<path d="M77.127 56.4816L79.4515 55.1431C79.556 55.0818 79.642 54.9348 79.642 54.8149C79.642 54.7921 79.642 54.7764 79.6362 54.7564C79.619 54.7593 79.599 54.7707 79.5804 54.7793L77.253 56.1192C77.1499 56.1777 77.0625 56.3275 77.0625 56.4502C77.0625 56.4674 77.0654 56.4859 77.0711 56.5059C77.0883 56.5016 77.1055 56.493 77.127 56.4816Z" fill="#383838"/>
<path d="M80.5542 54.6594L82.8802 53.3209C82.9862 53.2595 83.0692 53.1097 83.0692 52.9927C83.0721 52.8928 83.012 52.8428 82.9346 52.8585C82.9403 52.8756 82.9432 52.8942 82.9432 52.917C82.9432 53.0398 82.8573 53.1853 82.7513 53.2452L80.4253 54.5838C80.4038 54.5952 80.3866 54.6038 80.3708 54.6066C80.3938 54.6851 80.4697 54.7065 80.5542 54.6594Z" fill="#8AA37B"/>
<path d="M80.4239 54.5838L82.7513 53.2453C82.8573 53.1839 82.9418 53.0384 82.9418 52.9171C82.9418 52.8914 82.9389 52.8757 82.9332 52.8586C82.916 52.8614 82.8974 52.87 82.8802 52.8842L80.5528 54.2227C80.4497 54.2812 80.3623 54.4311 80.3623 54.5509C80.3623 54.5709 80.3652 54.5895 80.3709 54.6066C80.3881 54.6037 80.4053 54.5952 80.4239 54.5838Z" fill="#383838"/>
<path d="M75.0615 58.6677L76.5883 57.7902C76.6943 57.7288 76.7816 57.5818 76.7816 57.462C76.7816 57.3649 76.7229 57.3121 76.6427 57.3307C76.6484 57.3478 76.6527 57.3635 76.6527 57.3892C76.6527 57.509 76.5668 57.6546 76.4637 57.7131L74.9355 58.5964C74.9126 58.605 74.8968 58.6135 74.8796 58.6164C74.9026 58.6948 74.977 58.7177 75.0615 58.6677Z" fill="#8AA37B"/>
<path d="M74.9342 58.5949L76.4623 57.7145C76.5655 57.656 76.6528 57.5076 76.6528 57.3863C76.6528 57.3663 76.6471 57.3478 76.6442 57.3278C76.6271 57.3335 76.6084 57.3421 76.5884 57.3506L75.0616 58.2311C74.9585 58.2896 74.874 58.4394 74.874 58.5621C74.874 58.5792 74.8769 58.5978 74.8783 58.6178C74.8969 58.6121 74.9141 58.6063 74.9342 58.5949Z" fill="#383838"/>
<path d="M83.5405 53.7875L85.0701 52.9128C85.1775 52.8514 85.2606 52.7044 85.2606 52.5846C85.2606 52.4847 85.2019 52.4347 85.1217 52.4533C85.1303 52.4704 85.1303 52.4861 85.1303 52.5118C85.1303 52.6316 85.0472 52.7772 84.9427 52.8386L83.4116 53.7162C83.3945 53.7276 83.3787 53.7333 83.3586 53.739C83.383 53.8175 83.456 53.8403 83.5405 53.7875Z" fill="#8AA37B"/>
<path d="M83.4117 53.7147L84.9413 52.8371C85.0473 52.7757 85.1318 52.6302 85.1318 52.5089C85.1318 52.4889 85.1318 52.4704 85.1218 52.4504C85.1075 52.4561 85.0874 52.4647 85.0702 52.4761L83.5406 53.3537C83.4361 53.4151 83.353 53.562 83.353 53.6819C83.353 53.7019 83.3559 53.7204 83.3588 53.7404C83.3788 53.7347 83.396 53.7262 83.4117 53.7147Z" fill="#383838"/>
<path d="M77.2544 57.4077L79.5818 56.0692C79.6864 56.0079 79.7709 55.8609 79.7709 55.741C79.7738 55.644 79.7136 55.5912 79.6363 55.6069C79.642 55.624 79.6434 55.6454 79.6434 55.6682C79.6434 55.7853 79.5575 55.9308 79.4515 55.995L77.1269 57.3349C77.104 57.3435 77.0882 57.3492 77.071 57.3549C77.0954 57.4348 77.1684 57.4548 77.2544 57.4077Z" fill="#8AA37B"/>
<path d="M77.127 57.3349L79.4515 55.9951C79.556 55.9337 79.642 55.7867 79.642 55.6683C79.642 55.6426 79.642 55.6269 79.6362 55.6069C79.619 55.6126 79.599 55.6212 79.5804 55.6326L77.253 56.9696C77.1499 57.031 77.0625 57.178 77.0625 57.2978C77.0625 57.3178 77.0654 57.3363 77.0711 57.3563C77.0883 57.352 77.1055 57.3463 77.127 57.3349Z" fill="#383838"/>
<path d="M80.5542 55.5098L82.8802 54.1699C82.9862 54.1114 83.0692 53.9616 83.0692 53.8431C83.0721 53.7461 83.012 53.6933 82.9346 53.709C82.9403 53.7261 82.9432 53.7475 82.9432 53.7675C82.9432 53.8902 82.8573 54.0358 82.7513 54.0957L80.4253 55.4342C80.4038 55.4456 80.3866 55.4542 80.3708 55.4571C80.3938 55.5341 80.4697 55.5569 80.5542 55.5098Z" fill="#8AA37B"/>
<path d="M80.4239 55.4342L82.7513 54.0957C82.8573 54.0344 82.9418 53.8888 82.9418 53.7675C82.9418 53.7447 82.9389 53.729 82.9332 53.709C82.916 53.7119 82.8974 53.7204 82.8802 53.7347L80.5528 55.0718C80.4497 55.1303 80.3623 55.2801 80.3623 55.4C80.3623 55.42 80.3652 55.4385 80.3709 55.4585C80.3881 55.4542 80.4053 55.4457 80.4239 55.4342Z" fill="#383838"/>
<path d="M75.0615 59.5168L76.5883 58.6421C76.6943 58.5779 76.7816 58.4309 76.7816 58.311C76.7816 58.214 76.7229 58.1612 76.6427 58.1797C76.6484 58.1969 76.6527 58.2126 76.6527 58.2382C76.6527 58.3581 76.5668 58.5037 76.4637 58.565L74.9355 59.4454C74.9126 59.4569 74.8968 59.4626 74.8796 59.4654C74.9026 59.5453 74.977 59.5682 75.0615 59.5168Z" fill="#8AA37B"/>
<path d="M74.9342 59.4455L76.4623 58.565C76.5655 58.5065 76.6528 58.3581 76.6528 58.2368C76.6528 58.2169 76.6471 58.1983 76.6442 58.1783C76.6271 58.1841 76.6084 58.1926 76.5884 58.204L75.0616 59.0816C74.9585 59.1401 74.874 59.2899 74.874 59.4098C74.874 59.4326 74.8769 59.4483 74.8783 59.4683C74.8969 59.4612 74.9141 59.4555 74.9342 59.4455Z" fill="#383838"/>
<path d="M83.5405 54.6394L85.0701 53.7647C85.1775 53.7005 85.2606 53.5535 85.2606 53.4336C85.2606 53.3366 85.2019 53.2838 85.1217 53.3024C85.1303 53.3195 85.1303 53.3352 85.1303 53.3609C85.1303 53.4836 85.0472 53.6263 84.9427 53.6876L83.4116 54.5681C83.3945 54.5767 83.3787 54.5852 83.3586 54.5881C83.383 54.668 83.456 54.6908 83.5405 54.6394Z" fill="#8AA37B"/>
<path d="M83.4117 54.5681L84.9413 53.6876C85.0473 53.6263 85.1318 53.4807 85.1318 53.3594C85.1318 53.3395 85.1318 53.3209 85.1218 53.3009C85.1075 53.3066 85.0874 53.3124 85.0702 53.3266L83.5406 54.2042C83.4361 54.2655 83.353 54.4125 83.353 54.5324C83.353 54.5552 83.3559 54.5709 83.3588 54.5909C83.3788 54.5837 83.396 54.5766 83.4117 54.5681Z" fill="#383838"/>
<path d="M77.2544 58.2582L79.5818 56.9197C79.6864 56.8584 79.7709 56.7114 79.7709 56.5915C79.7738 56.4945 79.7136 56.4417 79.6363 56.4574C79.642 56.4745 79.6434 56.4959 79.6434 56.5187C79.6434 56.6358 79.5575 56.7842 79.4515 56.8455L77.1269 58.1855C77.104 58.1969 77.0882 58.2026 77.071 58.2054C77.0954 58.2853 77.1684 58.3082 77.2544 58.2582Z" fill="#8AA37B"/>
<path d="M77.127 58.1854L79.4515 56.8455C79.556 56.7841 79.642 56.6372 79.642 56.5187C79.642 56.493 79.642 56.4773 79.6362 56.4574C79.619 56.4631 79.599 56.4716 79.5804 56.483L77.253 57.8215C77.1499 57.88 77.0625 58.0299 77.0625 58.1526C77.0625 58.1697 77.0654 58.1883 77.0711 58.2083C77.0883 58.2025 77.1055 58.1968 77.127 58.1854Z" fill="#383838"/>
<path d="M80.5542 56.3603L82.8802 55.0219C82.9862 54.9605 83.0692 54.8135 83.0692 54.6937C83.0721 54.5966 83.012 54.5438 82.9346 54.5595C82.9403 54.5767 82.9432 54.5981 82.9432 54.618C82.9432 54.7408 82.8573 54.8863 82.7513 54.9462L80.4253 56.2861C80.4038 56.2947 80.3866 56.3032 80.3708 56.3061C80.3938 56.3846 80.4697 56.4103 80.5542 56.3603Z" fill="#8AA37B"/>
<path d="M80.4239 56.2876L82.7513 54.9477C82.8573 54.8863 82.9418 54.7408 82.9418 54.6195C82.9418 54.5966 82.9389 54.581 82.9332 54.561C82.916 54.5667 82.8974 54.5752 82.8802 54.5867L80.5528 55.9251C80.4497 55.9865 80.3623 56.1335 80.3623 56.2533C80.3623 56.2733 80.3652 56.2919 80.3709 56.3118C80.3881 56.3033 80.4053 56.2961 80.4239 56.2876Z" fill="#383838"/>
<path d="M75.0615 60.3673L76.5883 59.4897C76.6943 59.4284 76.7816 59.2814 76.7816 59.1615C76.7816 59.0645 76.7229 59.0117 76.6427 59.0303C76.6484 59.0474 76.6527 59.0631 76.6527 59.0888C76.6527 59.2115 76.5668 59.3542 76.4637 59.4155L74.9355 60.2959C74.9126 60.3074 74.8968 60.3131 74.8796 60.3188C74.9026 60.3958 74.977 60.4201 75.0615 60.3673Z" fill="#8AA37B"/>
<path d="M74.9342 60.2945L76.4623 59.4141C76.5655 59.3556 76.6528 59.2072 76.6528 59.0873C76.6528 59.0645 76.6471 59.0459 76.6442 59.0288C76.6271 59.0316 76.6084 59.0402 76.5884 59.0516L75.0616 59.9292C74.9585 59.9906 74.874 60.1375 74.874 60.2603C74.874 60.2802 74.8769 60.2959 74.8783 60.3159C74.8969 60.3116 74.9141 60.3059 74.9342 60.2945Z" fill="#383838"/>
<path d="M83.5405 55.4898L85.0701 54.6122C85.1775 54.5509 85.2606 54.4039 85.2606 54.284C85.2606 54.187 85.2019 54.1342 85.1217 54.1528C85.1303 54.1699 85.1303 54.1856 85.1303 54.2113C85.1303 54.334 85.0472 54.4795 84.9427 54.538L83.4116 55.4185C83.3945 55.4299 83.3787 55.4356 83.3586 55.4413C83.383 55.5184 83.456 55.5398 83.5405 55.4898Z" fill="#8AA37B"/>
<path d="M83.4117 55.4171L84.9413 54.5367C85.0473 54.4782 85.1318 54.3297 85.1318 54.2099C85.1318 54.187 85.1318 54.1685 85.1218 54.1514C85.1075 54.1542 85.0874 54.1628 85.0702 54.1742L83.5406 55.0518C83.4361 55.1132 83.353 55.263 83.353 55.3829C83.353 55.4029 83.3559 55.4186 83.3588 55.4385C83.3788 55.4343 83.396 55.4314 83.4117 55.4171Z" fill="#383838"/>
<path d="M77.2544 59.1073L79.5818 57.7688C79.6864 57.7103 79.7709 57.5619 79.7709 57.4406C79.7738 57.3435 79.7136 57.2922 79.6363 57.3064C79.642 57.3264 79.6434 57.345 79.6434 57.3678C79.6434 57.4877 79.5575 57.6332 79.4515 57.696L77.1269 59.0345C77.104 59.0459 77.0882 59.0516 77.071 59.0545C77.0954 59.1358 77.1684 59.1572 77.2544 59.1073Z" fill="#8AA37B"/>
<path d="M77.127 59.0359L79.4515 57.6974C79.556 57.6361 79.642 57.4891 79.642 57.3693C79.642 57.3464 79.642 57.3279 79.6362 57.3079C79.619 57.3136 79.599 57.3222 79.5804 57.3336L77.253 58.672C77.1499 58.7334 77.0625 58.8804 77.0625 59.0031C77.0625 59.0231 77.0654 59.0388 77.0711 59.0587C77.0883 59.0516 77.1055 59.0459 77.127 59.0359Z" fill="#383838"/>
<path d="M80.5542 57.2123L82.8802 55.8724C82.9862 55.8139 83.0692 55.664 83.0692 55.5456C83.0721 55.4457 83.012 55.3958 82.9346 55.4086C82.9403 55.4257 82.9432 55.4443 82.9432 55.4671C82.9432 55.5898 82.8573 55.7354 82.7513 55.7953L80.4253 57.1352C80.4038 57.1467 80.3866 57.1524 80.3708 57.1552C80.3938 57.238 80.4697 57.2594 80.5542 57.2123Z" fill="#8AA37B"/>
<path d="M80.4239 57.1366L82.7513 55.7967C82.8573 55.7382 82.9418 55.5898 82.9418 55.4685C82.9418 55.4456 82.9389 55.43 82.9332 55.41C82.916 55.4157 82.8974 55.4242 82.8802 55.4357L80.5528 56.7741C80.4497 56.8355 80.3623 56.9825 80.3623 57.1052C80.3623 57.1223 80.3652 57.1409 80.3709 57.1608C80.3881 57.1565 80.4053 57.148 80.4239 57.1366Z" fill="#383838"/>
<path d="M75.0615 61.2206L76.5883 60.343C76.6943 60.2788 76.7816 60.1318 76.7816 60.012C76.7816 59.9149 76.7229 59.8621 76.6427 59.8807C76.6484 59.8978 76.6527 59.9164 76.6527 59.9392C76.6527 60.0619 76.5668 60.2046 76.4637 60.2674L74.9355 61.145C74.9126 61.1564 74.8968 61.1621 74.8796 61.1678C74.9026 61.2448 74.977 61.2705 75.0615 61.2206Z" fill="#8AA37B"/>
<path d="M74.9342 61.145L76.4623 60.2674C76.5655 60.206 76.6528 60.059 76.6528 59.9392C76.6528 59.9192 76.6471 59.8978 76.6442 59.8807C76.6271 59.8835 76.6084 59.8921 76.5884 59.9035L75.0616 60.7839C74.9585 60.8425 74.874 60.9923 74.874 61.1121C74.874 61.1321 74.8769 61.1478 74.8783 61.1707C74.8969 61.1649 74.9141 61.1592 74.9342 61.145Z" fill="#383838"/>
<path d="M83.5405 56.3403L85.0701 55.4656C85.1775 55.4043 85.2606 55.2544 85.2606 55.1374C85.2606 55.0375 85.2019 54.9876 85.1217 55.0033C85.1303 55.0204 85.1303 55.0361 85.1303 55.0618C85.1303 55.1845 85.0472 55.3301 84.9427 55.3886L83.4116 56.269C83.3945 56.2804 83.3787 56.2861 83.3586 56.2947C83.383 56.3675 83.456 56.3931 83.5405 56.3403Z" fill="#8AA37B"/>
<path d="M83.4117 56.2676L84.9413 55.3871C85.0473 55.3286 85.1318 55.1831 85.1318 55.0604C85.1318 55.0375 85.1318 55.019 85.1218 55.0019C85.1075 55.0047 85.0874 55.0133 85.0702 55.0247L83.5406 55.9023C83.4361 55.9636 83.353 56.1106 83.353 56.2333C83.353 56.2533 83.3559 56.269 83.3588 56.2918C83.3788 56.2847 83.396 56.279 83.4117 56.2676Z" fill="#383838"/>
<path d="M77.2544 59.9577L79.5818 58.6192C79.6864 58.5607 79.7709 58.4123 79.7709 58.291C79.7738 58.194 79.7136 58.1426 79.6363 58.1598C79.642 58.1769 79.6434 58.1954 79.6434 58.2183C79.6434 58.3381 79.5575 58.4865 79.4515 58.5465L77.1269 59.885C77.104 59.8964 77.0882 59.9021 77.071 59.9078C77.0954 59.9863 77.1684 60.0105 77.2544 59.9577Z" fill="#8AA37B"/>
<path d="M77.127 59.8849L79.4515 58.5464C79.556 58.4851 79.642 58.3381 79.642 58.2182C79.642 58.1954 79.642 58.1768 79.6362 58.1597C79.619 58.1626 79.599 58.1711 79.5804 58.1854L77.253 59.521C77.1499 59.5824 77.0625 59.7294 77.0625 59.8521C77.0625 59.8721 77.0654 59.8878 77.0711 59.9106C77.0883 59.9021 77.1055 59.8963 77.127 59.8849Z" fill="#383838"/>
<path d="M80.5542 58.0627L82.8802 56.7228C82.9862 56.6643 83.0692 56.5144 83.0692 56.396C83.0721 56.2961 83.012 56.2462 82.9346 56.259C82.9403 56.279 82.9432 56.2975 82.9432 56.3175C82.9432 56.4402 82.8573 56.5858 82.7513 56.6457L80.4253 57.9856C80.4038 57.9942 80.3866 58.0028 80.3708 58.0056C80.3938 58.087 80.4697 58.1098 80.5542 58.0627Z" fill="#8AA37B"/>
<path d="M80.4239 57.9871L82.7513 56.6486C82.8573 56.5873 82.9418 56.4403 82.9418 56.3176C82.9418 56.2976 82.9389 56.279 82.9332 56.2591C82.916 56.2648 82.8974 56.2733 82.8802 56.2847L80.5528 57.6232C80.4497 57.6846 80.3623 57.8344 80.3623 57.9514C80.3623 57.9743 80.3652 57.9928 80.3709 58.0099C80.3881 58.0071 80.4053 57.9957 80.4239 57.9871Z" fill="#383838"/>
<path d="M75.0615 62.0696L76.5883 61.192C76.6943 61.1278 76.7816 60.9837 76.7816 60.8609C76.7816 60.7639 76.7229 60.7125 76.6427 60.7297C76.6484 60.7468 76.6527 60.7653 76.6527 60.7882C76.6527 60.9109 76.5668 61.0564 76.4637 61.1164L74.9355 61.994C74.9126 62.0054 74.8968 62.0111 74.8796 62.0168C74.9026 62.0981 74.977 62.121 75.0615 62.0696Z" fill="#8AA37B"/>
<path d="M74.9342 61.9954L76.4623 61.1178C76.5655 61.0565 76.6528 60.9095 76.6528 60.7896C76.6528 60.7668 76.6471 60.7483 76.6442 60.7311C76.6271 60.7368 76.6084 60.7454 76.5884 60.754L75.0616 61.6344C74.9585 61.6929 74.874 61.8427 74.874 61.9655C74.874 61.9826 74.8769 62.0011 74.8783 62.0211C74.8969 62.014 74.9141 62.0097 74.9342 61.9954Z" fill="#383838"/>
<path d="M83.5405 57.1937L85.0701 56.3161C85.1775 56.2547 85.2606 56.1078 85.2606 55.9879C85.2606 55.888 85.2019 55.8381 85.1217 55.8538C85.1303 55.8709 85.1303 55.8894 85.1303 55.9123C85.1303 56.035 85.0472 56.1805 84.9427 56.239L83.4116 57.1195C83.3945 57.1309 83.3787 57.1366 83.3586 57.1423C83.383 57.2179 83.456 57.2436 83.5405 57.1937Z" fill="#8AA37B"/>
<path d="M83.4117 57.118L84.9413 56.2405C85.0473 56.1791 85.1318 56.0321 85.1318 55.9123C85.1318 55.8894 85.1318 55.8709 85.1218 55.8538C85.1075 55.8566 85.0874 55.8652 85.0702 55.8766L83.5406 56.7556C83.4361 56.8141 83.353 56.9639 83.353 57.0838C83.353 57.1038 83.3559 57.1195 83.3588 57.1394C83.3788 57.1366 83.396 57.1323 83.4117 57.118Z" fill="#383838"/>
<path d="M77.2544 60.811L79.5818 59.4711C79.6864 59.4126 79.7709 59.2642 79.7709 59.1443C79.7738 59.0444 79.7136 58.9945 79.6363 59.0102C79.642 59.0273 79.6434 59.0459 79.6434 59.0687C79.6434 59.1886 79.5575 59.337 79.4515 59.3969L77.1269 60.7354C77.104 60.7468 77.0882 60.7525 77.071 60.7582C77.0954 60.8353 77.1684 60.861 77.2544 60.811Z" fill="#8AA37B"/>
<path d="M77.127 60.7355L79.4515 59.397C79.556 59.3356 79.642 59.1887 79.642 59.0688C79.642 59.046 79.642 59.0274 79.6362 59.0103C79.619 59.0131 79.599 59.0246 79.5804 59.036L77.253 60.3744C77.1499 60.4329 77.0625 60.5828 77.0625 60.7026C77.0625 60.7226 77.0654 60.7383 77.0711 60.7611C77.0883 60.7554 77.1055 60.7497 77.127 60.7355Z" fill="#383838"/>
<path d="M80.5542 58.9132L82.8802 57.5747C82.9862 57.5133 83.0692 57.3663 83.0692 57.2436C83.0721 57.1466 83.012 57.0952 82.9346 57.1123C82.9403 57.1295 82.9432 57.148 82.9432 57.1708C82.9432 57.2907 82.8573 57.4405 82.7513 57.4976L80.4253 58.8375C80.4038 58.8489 80.3866 58.8547 80.3708 58.8604C80.3938 58.9374 80.4697 58.9631 80.5542 58.9132Z" fill="#8AA37B"/>
<path d="M80.4239 58.8376L82.7513 57.4991C82.8573 57.4406 82.9418 57.2907 82.9418 57.1709C82.9418 57.148 82.9389 57.1295 82.9332 57.1124C82.916 57.1181 82.8974 57.1266 82.8802 57.1352L80.5528 58.4737C80.4497 58.5379 80.3623 58.6849 80.3623 58.8047C80.3623 58.8247 80.3652 58.8433 80.3709 58.8633C80.3881 58.8575 80.4053 58.8518 80.4239 58.8376Z" fill="#383838"/>
<path d="M75.0615 62.9202L76.5883 62.0425C76.6943 61.9812 76.7816 61.8342 76.7816 61.7143C76.7816 61.6144 76.7229 61.5645 76.6427 61.583C76.6484 61.5973 76.6527 61.6159 76.6527 61.6415C76.6527 61.7614 76.5668 61.907 76.4637 61.9683L74.9355 62.846C74.9126 62.8574 74.8968 62.8631 74.8796 62.8688C74.9026 62.9487 74.977 62.9701 75.0615 62.9202Z" fill="#8AA37B"/>
<path d="M74.9342 62.8445L76.4623 61.9669C76.5655 61.9055 76.6528 61.7586 76.6528 61.6387C76.6528 61.6187 76.6471 61.5973 76.6442 61.5802C76.6271 61.5859 76.6084 61.5945 76.5884 61.603L75.0616 62.4834C74.9585 62.5448 74.874 62.6918 74.874 62.8116C74.874 62.8316 74.8769 62.8502 74.8783 62.8701C74.8969 62.8644 74.9141 62.8587 74.9342 62.8445Z" fill="#383838"/>
<path d="M83.5405 58.0428L85.0701 57.1652C85.1775 57.1038 85.2606 56.9568 85.2606 56.8369C85.2606 56.737 85.2019 56.6885 85.1217 56.7028C85.1303 56.7199 85.1303 56.7385 85.1303 56.7642C85.1303 56.884 85.0472 57.0296 84.9427 57.0909L83.4116 57.9686C83.3945 57.98 83.3787 57.9857 83.3586 57.9942C83.383 58.0713 83.456 58.0927 83.5405 58.0428Z" fill="#8AA37B"/>
<path d="M83.4117 57.9671L84.9413 57.0895C85.0473 57.031 85.1318 56.8826 85.1318 56.7613C85.1318 56.7413 85.1318 56.7199 85.1218 56.7028C85.1075 56.7085 85.0874 56.7171 85.0702 56.7256L83.5406 57.6061C83.4361 57.6674 83.353 57.8144 83.353 57.9371C83.353 57.9542 83.3559 57.9728 83.3588 57.9928C83.3788 57.9871 83.396 57.9813 83.4117 57.9671Z" fill="#383838"/>
<path d="M77.2544 61.6601L79.5818 60.3202C79.6864 60.2617 79.7709 60.1133 79.7709 59.9934C79.7738 59.8935 79.7136 59.8436 79.6363 59.8593C79.642 59.8764 79.6434 59.8978 79.6434 59.9178C79.6434 60.0405 79.5575 60.186 79.4515 60.246L77.1269 61.5845C77.104 61.5959 77.0882 61.6016 77.071 61.6102C77.0954 61.6886 77.1684 61.7115 77.2544 61.6601Z" fill="#8AA37B"/>
<path d="M77.127 61.5859L79.4515 60.2474C79.556 60.186 79.642 60.0405 79.642 59.9192C79.642 59.8964 79.642 59.8778 79.6362 59.8607C79.619 59.8664 79.599 59.875 79.5804 59.8864L77.253 61.2249C77.1499 61.2834 77.0625 61.4332 77.0625 61.5559C77.0625 61.5731 77.0654 61.5916 77.0711 61.6116C77.0883 61.6045 77.1055 61.5988 77.127 61.5859Z" fill="#383838"/>
<path d="M80.5542 59.7622L82.8802 58.4237C82.9862 58.3624 83.0692 58.2154 83.0692 58.0955C83.0721 57.9956 83.012 57.9457 82.9346 57.9614C82.9403 57.9785 82.9432 57.9971 82.9432 58.0199C82.9432 58.1398 82.8573 58.2882 82.7513 58.3467L80.4253 59.6866C80.4038 59.698 80.3866 59.7066 80.3708 59.7094C80.3938 59.7879 80.4697 59.8122 80.5542 59.7622Z" fill="#8AA37B"/>
<path d="M80.4239 59.688L82.7513 58.3495C82.8573 58.2882 82.9418 58.1412 82.9418 58.0213C82.9418 57.9985 82.9389 57.98 82.9332 57.9628C82.916 57.9685 82.8974 57.9771 82.8802 57.9857L80.5528 59.3256C80.4497 59.3869 80.3623 59.5339 80.3623 59.6538C80.3623 59.6738 80.3652 59.6923 80.3709 59.7123C80.3881 59.7066 80.4053 59.7009 80.4239 59.688Z" fill="#383838"/>
<path d="M85.3667 47.4161L75.3868 53.1568L73.1567 51.5971L83.585 45.5967L85.3667 47.4161Z" fill="#8AA37B"/>
<path d="M73.8655 55.3757L71.4006 54.1613L73.1551 51.597L75.3866 53.1567L73.8655 55.3757Z" fill="#7B916D"/>
<path d="M85.3667 47.4161L83.585 45.5967L85.3423 46.139L86.2461 47.6887L85.3667 47.4161Z" fill="#7B916D"/>
<path d="M73.8629 65.1918L71.3979 64.6653L71.4008 54.1628L73.8657 55.3757L73.8629 65.1918Z" fill="#687A5C"/>
<path d="M68.5419 61.7771L44.0161 47.6701V48.913L68.5419 63.0214V61.7771Z" fill="#36402F"/>
<path d="M58.6607 55.8295C55.146 57.452 54.9211 61.7657 54.9211 61.7914L58.7238 59.6038C58.8784 59.3413 59.3625 57.8672 60.2419 56.6743L58.6607 55.8295Z" fill="#383838"/>
<path d="M57.8102 61.8114L58.2943 61.2478L57.6125 61.5988L57.8102 61.8114Z" fill="#535359"/>
<path d="M57.2201 63.6807L57.707 63.1185L57.0195 63.4724L57.2201 63.6807Z" fill="#535359"/>
<path d="M57.4163 66.1137L57.8976 65.5543L57.2144 65.9053L57.4163 66.1137Z" fill="#535359"/>
<path d="M60.7176 71.9229L61.2776 71.6018L60.5171 71.7131L60.7176 71.9229Z" fill="#535359"/>
<path d="M62.7227 73.28L63.2827 72.956L62.4004 72.8904L62.7227 73.28Z" fill="#535359"/>
<path d="M64.6563 73.6952L65.7219 73.0987L64.3384 73.307L64.6563 73.6952Z" fill="#535359"/>
<path d="M70.7876 65.9667L71.0168 65.9924L70.6 64.6125L70.3766 64.5868C70.2419 64.2187 70.083 63.8591 69.9039 63.4995L70.0715 63.4053L69.3081 62.0896L69.1463 62.1867C68.9185 61.8442 68.6794 61.5203 68.4215 61.2078L68.5089 61.0208L67.5135 59.9791L67.4276 60.1661C67.1554 59.9178 66.8747 59.6895 66.5854 59.4883V59.2343L65.5069 58.615V58.8633C65.2119 58.732 64.9254 58.6349 64.6476 58.5707L64.5645 58.2982L63.5705 58.2011L63.655 58.4765C63.403 58.4965 63.1652 58.5379 62.9418 58.6221L62.7914 58.3624L62.0309 58.8005L62.187 59.0687C62.0051 59.2243 61.8375 59.4112 61.6986 59.6295L61.2116 59.4212L58.9028 60.8039L60.285 60.8767C60.2062 61.1464 60.5814 60.988 60.5528 61.3062L60.285 61.4204L60.9123 62.532L61.1472 62.669C61.1801 63.0257 61.2388 63.3853 61.319 63.7478L61.1085 63.7278L61.5167 65.1077L61.743 65.1305C61.8862 65.4958 62.0438 65.8583 62.2214 66.2122L62.0481 66.3149L62.8086 67.6277L62.9919 67.5221C63.2139 67.8589 63.4545 68.1771 63.708 68.4839L63.6106 68.698L64.6075 69.7425L64.7106 69.517C64.9727 69.7596 65.2477 69.9851 65.5356 70.1806V70.4817L66.4035 71.1395L66.6126 70.7913C66.8976 70.9198 66.2231 71.3992 66.4923 71.4634L65.7905 73.0017L68.0477 72.0043L68.4402 71.1709C68.6879 71.1566 68.9185 71.1095 69.1377 71.0311L69.3267 71.3578L70.0915 70.9198L69.8982 70.5916C70.0744 70.436 70.2391 70.2605 70.3737 70.0479L70.6172 70.3047L71.0282 69.3929L70.7848 69.1389C70.8607 68.8735 70.9194 68.5895 70.9523 68.2799L71.2073 68.4283V67.1868L70.9552 67.0384C70.9251 66.6888 70.865 66.332 70.7876 65.9667Z" fill="#121214"/>
<path d="M58.9014 60.5428L59.0532 60.8025L62.9403 58.6207L62.7885 58.3638L58.9014 60.5428Z" fill="#303033"/>
<path d="M66.0112 72.7705L66.2003 73.0987L70.0917 70.9169L69.8983 70.5872L66.0112 72.7705Z" fill="#303033"/>
<path d="M66.8965 68.1514L67.1256 68.1714L66.7146 66.7915L66.4911 66.7687C66.3565 66.4034 66.1946 66.0381 66.0185 65.6842L66.1832 65.5872L65.4212 64.2715L65.2579 64.3657C65.0345 64.0289 64.791 63.6993 64.5332 63.3896L64.6206 63.1998L63.6252 62.1553L63.5392 62.3479C63.27 62.0968 62.9878 61.8685 62.6971 61.6673V61.4161L61.6214 60.794V61.0451C61.3264 60.9138 61.0399 60.8168 60.7621 60.7497L60.6776 60.48L59.6822 60.383L59.7681 60.6584C59.5189 60.6727 59.2754 60.7226 59.0534 60.8011L58.903 60.5414L58.1411 60.9823L58.2957 61.2477C58.1167 61.4061 57.952 61.5902 57.8116 61.8114L57.614 61.6002L57.2029 62.5092L57.412 62.7261C57.3361 62.9958 57.2774 63.2869 57.2459 63.6037L57.0225 63.4724V64.7096L57.2602 64.8437C57.2917 65.2033 57.3505 65.5657 57.4321 65.9253L57.2173 65.9054L57.6297 67.2881L57.8589 67.3081C57.9978 67.6734 58.1539 68.0358 58.3344 68.3954L58.1582 68.4896L58.9216 69.8081L59.105 69.6997C59.3284 70.0364 59.5633 70.3575 59.824 70.6615L59.7237 70.8784L60.7206 71.9229L60.8194 71.6974C61.0886 71.9372 61.3593 72.1655 61.6472 72.3581V72.6621L62.7243 73.2814V72.9689C63.0122 73.1001 63.2886 73.1943 63.5636 73.2557L63.6638 73.6039L64.6578 73.6952L64.5547 73.3499C64.7996 73.3327 65.0345 73.2857 65.2494 73.2072L65.4413 73.5354L66.2018 73.0973L66.0099 72.7705C66.1889 72.6178 66.3479 72.4366 66.4883 72.2268L66.7289 72.4808L67.1428 71.5719L66.8965 71.3122C66.9781 71.0524 67.0354 70.7656 67.064 70.4588L67.319 70.6072V69.3672L67.0698 69.2216C67.0368 68.8678 66.9795 68.5082 66.8965 68.1514Z" fill="#303033"/>
<path d="M62.7399 70.3703C60.9668 69.3529 59.5288 66.8671 59.5288 64.8266C59.5288 63.9704 59.7852 63.3268 60.2091 62.9487C59.4443 63.1827 58.9487 63.9575 58.9487 65.159C58.9487 67.1967 60.3838 69.6825 62.1584 70.7028C63.1853 71.2935 64.1048 71.2636 64.692 70.7328C64.1521 70.8969 63.4732 70.7913 62.7399 70.3703Z" fill="#121214"/>
<path d="M62.1599 63.3083C61.4251 62.8902 60.752 62.7817 60.2092 62.9487C59.7838 63.3311 59.5303 63.9718 59.5303 64.8265C59.5303 66.8671 60.9668 69.3529 62.7414 70.3703C63.4747 70.7913 64.1521 70.8968 64.6921 70.7327C65.1146 70.3503 65.371 69.7096 65.371 68.8549C65.371 66.8086 63.9316 64.3285 62.1599 63.3083Z" fill="#939598"/>
<path d="M62.6081 68.3326C61.7803 67.8589 61.1143 66.7044 61.1143 65.7569C61.1143 65.5001 61.1572 65.286 61.2489 65.1191C60.8908 65.2275 60.6646 65.59 60.6646 66.1451C60.6646 67.0954 61.3306 68.247 62.1598 68.7236C62.7628 69.0718 63.2885 68.9576 63.5205 68.4981C63.2684 68.5809 62.9519 68.531 62.6081 68.3326Z" fill="#535359"/>
<path d="M62.1598 65.2832C61.8175 65.0877 61.4981 65.0349 61.2489 65.1191C61.1587 65.2861 61.1143 65.4987 61.1143 65.757C61.1143 66.7045 61.7803 67.8589 62.6081 68.3326C62.9519 68.5281 63.2684 68.5809 63.5205 68.4967C63.605 68.3298 63.6537 68.1172 63.6537 67.8617C63.6523 66.9171 62.9848 65.757 62.1598 65.2832Z" fill="#A7A9AC"/>
<path d="M66.7144 66.7915L67.1254 68.1714L71.0168 65.9924L70.6001 64.6125L66.7144 66.7915Z" fill="#535359"/>
<path d="M67.3203 70.6043L71.2074 68.4254V67.1868L67.3203 69.3672V70.6043Z" fill="#535359"/>
<path d="M66.7302 72.4794L70.6174 70.3004L71.0299 69.3885L67.1427 71.569L66.7302 72.4794Z" fill="#535359"/>
<path d="M65.4211 64.2715L66.1831 65.5871L70.0717 63.4053L69.3083 62.0925L65.4211 64.2715Z" fill="#535359"/>
<path d="M63.625 62.1567L64.619 63.2013L68.509 61.0223L67.5122 59.9806L63.625 62.1567Z" fill="#535359"/>
<path d="M61.6213 60.7968L62.697 61.4175L66.5841 59.2357L65.5056 58.6178L61.6213 60.7968Z" fill="#535359"/>
<path d="M59.6821 60.3844L60.6776 60.4814L64.5662 58.2996L63.5707 58.2026L59.6821 60.3844Z" fill="#535359"/>
<path d="M64.5332 63.3911L68.4203 61.2121L68.5077 61.0223L64.6191 63.2013L64.5332 63.3911Z" fill="#303033"/>
<path d="M66.4924 66.7686L66.7144 66.7915L70.6001 64.6096L70.3767 64.5897L66.4924 66.7686Z" fill="#303033"/>
<path d="M67.0696 69.2216L67.3188 69.3672L71.2087 67.1839L70.9552 67.0427L67.0696 69.2216Z" fill="#303033"/>
<path d="M66.8962 71.3121L67.1426 71.5718L71.0298 69.3886L70.782 69.136L66.8962 71.3121Z" fill="#303033"/>
<path d="M62.6985 61.6687L66.5828 59.4897V59.2357L62.6985 61.4175V61.6687Z" fill="#303033"/>
<path d="M60.6775 60.4814L60.762 60.7525L64.6477 58.5722L64.5646 58.3025L60.6775 60.4814Z" fill="#303033"/>
<path d="M60.5055 57.8201L67.9905 62.0283L68.9386 61.2177L71.6599 64.8151L72.8458 65.3788V58.9717L71.3964 58.2582L64.5874 54.3426C63.2569 53.5763 62.1569 53.6348 61.2589 54.1314L57.5593 56.2676L58.9243 56.9725L60.5055 57.8201Z" fill="#9CB88A"/>
<path d="M72.8458 65.3788L68.9386 67.6277L68.2253 65.2946L68.9386 61.2178L72.8458 58.9717V65.3788Z" fill="#5D6E52"/>
<path d="M60.7849 56.5301C55.8451 53.6876 54.0591 62.2295 54.0591 62.288L55.1877 62.9344C55.4999 62.405 57.1843 56.8255 60.7849 58.8989L66.3822 62.1182L67.8559 67.0041L68.9387 67.6291V61.2192L60.7849 56.5301Z" fill="#7B916D"/>
<path d="M86.2461 58.0742L73.8614 65.1919L72.8388 64.838L68.9387 67.0812V71.218L73.0837 69.7796L87.0253 61.7614L90.4584 55.4043L89.8411 55.0547L86.2375 57.1295L86.2461 58.0742Z" fill="#666666"/>
<path d="M74.4014 66.3933V70.5316L88.3444 62.5134V58.3781L74.4014 66.3933Z" fill="#383838"/>
<path d="M69.5574 67.4294V71.5661L74.4012 70.5287V66.3934L69.5574 67.4294Z" fill="#575757"/>
<path d="M69.5575 71.5661L68.9387 71.2179V67.0783L69.5575 67.4293V71.5661Z" fill="#383838"/>
<path d="M71.2276 61.7243C70.5172 62.1339 69.9399 63.1284 69.9399 63.9546C69.9399 64.7737 70.5172 65.1062 71.2276 64.6967C71.9408 64.2871 72.5223 63.2897 72.5223 62.4692C72.5223 61.6444 71.9408 61.3119 71.2276 61.7243Z" fill="#4E5C44"/>
<path d="M71.9178 61.5017C71.6858 61.3675 71.3607 61.3875 71.0069 61.5959C70.2937 62.0025 69.7151 63.0029 69.7151 63.8205C69.7151 64.2557 69.8755 64.554 70.1333 64.6796L70.3109 64.7852C70.0789 64.6453 69.9385 64.3556 69.9385 63.9547C69.9385 63.1327 70.5157 62.1353 71.2261 61.7243C71.5669 61.5316 71.872 61.5017 72.0997 61.6101L71.9193 61.5045L71.9178 61.5017Z" fill="#7B916D"/>
<path d="M71.9264 61.9341C72.0754 62.0539 72.1613 62.2651 72.1613 62.5534C72.1613 63.2084 71.7001 64.006 71.1301 64.3342C70.8609 64.4898 70.6174 64.5126 70.4326 64.4213C70.6202 64.5797 70.9081 64.5825 71.2289 64.3984C71.8004 64.0702 72.2601 63.2726 72.2601 62.6176C72.2587 62.2708 72.1327 62.0311 71.9264 61.9341Z" fill="#9CB88A"/>
<path d="M71.2273 62.0226C70.6602 62.3508 70.199 63.1456 70.199 63.8006C70.199 64.0874 70.2849 64.3 70.431 64.4228C70.6172 64.5127 70.8635 64.4898 71.1314 64.3314C71.6985 64.0046 72.1611 63.2084 72.1611 62.5505C72.1611 62.2666 72.0738 62.0539 71.9262 61.9341C71.7429 61.8442 71.4994 61.8699 71.2273 62.0226Z" fill="#FFEC7A"/>
<path d="M56.4436 48.054L54.7578 47.0865C53.7896 46.5314 53.032 45.2214 53.032 44.107V34.8374H54.2795V44.107C54.2795 44.7848 54.7965 45.6709 55.3837 46.0105L57.0695 46.978L56.4436 48.054Z" fill="#383838"/>
<path d="M54.0991 35.0942C53.8556 35.2369 53.4603 35.2369 53.2168 35.0942C52.9691 34.9515 52.9691 34.7232 53.2168 34.5877C53.4603 34.445 53.8556 34.445 54.0991 34.5877C54.3426 34.7232 54.3426 34.953 54.0991 35.0942Z" fill="#666666"/>
<path d="M54.0991 35.8105C53.8556 35.9532 53.4603 35.9532 53.2168 35.8105C52.9691 35.6736 52.9691 35.4452 53.2168 35.3054C53.4603 35.1627 53.8556 35.1627 54.0991 35.3054C54.3426 35.4452 54.3426 35.6736 54.0991 35.8105Z" fill="#050505"/>
<path d="M54.8882 34.6319L54.47 33.8456L52.8515 33.8313L52.4004 34.6732H52.4032C52.2557 34.9358 52.3617 35.234 52.7226 35.4424C53.2397 35.7378 54.0761 35.7378 54.5917 35.4424C54.9698 35.2226 55.0701 34.9044 54.8867 34.6319H54.8882Z" fill="#383838"/>
<path d="M54.2553 33.6401C53.9273 33.4504 53.3888 33.4504 53.0551 33.6401C52.7271 33.8328 52.7271 34.1424 53.0551 34.3308C53.3874 34.5206 53.9273 34.5206 54.2553 34.3308C54.5876 34.141 54.5876 33.8314 54.2553 33.6401Z" fill="#808080"/>
<path d="M54.1378 33.7115C53.8714 33.5617 53.4432 33.5617 53.1754 33.7115C53.0221 33.8014 52.9577 33.9199 52.9806 34.0383C52.9992 33.9513 53.0637 33.8713 53.1754 33.8071C53.4432 33.6544 53.8714 33.6544 54.1378 33.8071C54.2495 33.8713 54.314 33.9527 54.334 34.0383C54.3555 33.9213 54.2896 33.8014 54.1378 33.7115Z" fill="#383838"/>
<path d="M54.1378 33.8071C53.8714 33.6544 53.4431 33.6544 53.1753 33.8071C53.0635 33.8713 52.9991 33.9526 52.9805 34.0354C52.9991 34.1225 53.0635 34.1995 53.1753 34.2666C53.4431 34.4193 53.8714 34.4193 54.1378 34.2666C54.2495 34.1995 54.3139 34.121 54.334 34.0354C54.3139 33.9512 54.2495 33.8713 54.1378 33.8071Z" fill="#666666"/>
<path d="M56.5168 44.9802L62.2729 48.2808L60.2879 51.7027L54.5317 48.4021C54.2739 48.2537 54.1206 47.9426 54.1206 47.496C54.1206 46.6098 54.7494 45.5225 55.5228 45.0772C55.908 44.8546 56.2604 44.8318 56.5168 44.9802Z" fill="#666666"/>
<path d="M60.3652 47.8485C59.5903 48.2951 58.963 49.3782 58.963 50.2701C58.963 50.7181 59.1206 51.0306 59.3726 51.1733L59.2065 51.082C58.9559 50.9322 58.7969 50.6197 58.7969 50.173C58.7969 49.284 59.4242 48.1995 60.2005 47.7543C60.5872 47.5317 60.9367 47.5117 61.193 47.6601L61.3563 47.7543C61.1014 47.6059 60.7533 47.6273 60.3652 47.8485Z" fill="#383838"/>
<path d="M56.3836 45.5596C55.6116 46.0077 54.9814 47.0922 54.9814 47.984C54.9814 48.4278 55.1346 48.7417 55.3925 48.8873L55.2306 48.7931C54.9757 48.6447 54.8181 48.3336 54.8181 47.887C54.8181 46.998 55.4455 45.9135 56.2217 45.4683C56.607 45.2428 56.9594 45.2257 57.2114 45.3684L57.3733 45.4654C57.1241 45.3199 56.7746 45.3427 56.3836 45.5596Z" fill="#383838"/>
<path d="M61.2791 48.3778C60.5057 48.8245 59.877 49.9076 59.877 50.7966C59.877 51.6884 60.5043 52.0509 61.2791 51.6042C62.0554 51.1576 62.6827 50.0745 62.6827 49.1855C62.6842 48.2937 62.0554 47.9341 61.2791 48.3778Z" fill="#383838"/>
</svg>
