<svg width="83" height="49" viewBox="0 0 83 49" fill="none" xmlns="http://www.w3.org/2000/svg">
<path d="M32.3691 11.5002L32.2483 11.9168L18.3668 13.0392L18.4887 12.6237L32.3691 11.5002Z" fill="#CCCFD2"/>
<path d="M18.4887 12.6237L18.3668 13.0392L13.0549 10.3325L13.1769 9.91583L18.4887 12.6237Z" fill="#8E8F91"/>
<path d="M32.3691 11.5001L18.4887 12.6237L13.1769 9.91581L29.0255 9.79498L32.3691 11.5001Z" fill="#EBECEE"/>
<path d="M10.6813 8.10006C10.5582 8.06167 10.4013 8.08651 10.2341 8.18589C9.83778 8.42189 9.52273 8.98086 9.53063 9.43367C9.53289 9.61999 9.58935 9.75889 9.68195 9.84245L11.4153 11.1794C11.2956 11.0699 11.2245 10.8915 11.2211 10.651C11.2109 10.0638 11.6186 9.33995 12.1312 9.03619C12.3492 8.90746 12.5479 8.87358 12.7094 8.92439L10.6813 8.10006Z" fill="url(#paint0_linear_7_12701)"/>
<path d="M12.1312 9.03723C11.6186 9.341 11.2121 10.0649 11.2211 10.6521C11.229 11.2404 11.6513 11.4697 12.1629 11.1648C12.6733 10.861 13.0809 10.1394 13.073 9.55105C13.0651 8.96157 12.6416 8.73233 12.1312 9.03723Z" fill="#909193"/>
<g opacity="0.5">
<path opacity="0.2" d="M15.5946 2.17841L12.1584 9.88876L8.04234 7.1933L6.86569 9.33883L12.1279 9.9136L7.35352 17.1847L8.69729 17.6533L12.1346 9.94296L16.2518 12.6396L17.4284 10.4929L12.1663 9.91699L16.9395 2.64703L15.5946 2.17841Z" fill="#9D9E9F"/>
<path opacity="0.6" d="M14.725 2.18286L12.1549 9.8887L7.34106 8.36424L6.39026 10.5583L12.1256 9.91919L8.0536 17.5223L9.56676 17.6487L12.1369 9.9429L16.9519 11.4662L17.9015 9.2744L12.1685 9.91354L16.2371 2.30933L14.725 2.18286Z" fill="#9D9E9F"/>
<path opacity="0.9" d="M13.7923 2.3806L12.1527 9.88881L6.76066 9.57488L6.05829 11.7622L12.1245 9.92381L8.85876 17.6725L10.5006 17.4535L12.1403 9.94301L17.5334 10.2569L18.2358 8.07076L12.1685 9.90913L15.4342 2.1604L13.7923 2.3806Z" fill="#9D9E9F"/>
<path opacity="0.6" d="M12.8189 2.76108L12.1482 9.88983L6.31122 10.7943L5.87534 12.9184L12.1244 9.92709L9.74179 17.6284L11.4751 17.0694L12.1448 9.94177L17.9806 9.0384L18.4165 6.91434L12.1696 9.90451L14.5489 2.20325L12.8189 2.76108Z" fill="#9D9E9F"/>
<path opacity="0.2" d="M11.8264 3.31997L12.1448 9.89319L6.00636 11.9924L5.84714 14.0036L12.1245 9.93271L10.6858 17.3958L12.4655 16.5104L12.1482 9.94061L18.2866 7.84139L18.4458 5.83024L12.1696 9.90109L13.606 2.43579L11.8264 3.31997Z" fill="#9D9E9F"/>
<path opacity="0.1" d="M9.18621 5.67557L12.1357 9.90114L5.9668 14.968L6.57658 16.4134L12.1256 9.94066L13.4276 15.8104L15.1067 14.1549L12.1561 9.93276L18.325 4.86365L17.7164 3.41711L12.1662 9.89323L10.8642 4.02125L9.18621 5.67557Z" fill="#9D9E9F"/>
<g opacity="0.5">
<path opacity="0.4" d="M14.5805 2.271L12.1685 9.90903L13.973 2.32633L14.5805 2.271ZM18.211 8.2615L12.1685 9.90903L17.9321 9.08244L18.211 8.2615ZM10.364 17.4895L12.1685 9.90903L9.75761 17.5493L10.364 17.4895ZM6.12491 11.5588L12.1685 9.90903L6.40608 10.7356L6.12491 11.5588Z" fill="#515253"/>
<path opacity="0.9" d="M15.2185 2.22587L12.1685 9.90911L14.3999 2.12311L15.2185 2.22587ZM17.9705 8.97185L12.1685 9.90911L17.6204 9.95427L17.9705 8.97185ZM9.92588 17.6285L12.1674 9.90911L9.11623 17.5935L9.92588 17.6285ZM6.36884 10.8464L12.1685 9.90911L6.71664 9.86394L6.36884 10.8464Z" fill="#515253"/>
<path opacity="0.6" d="M15.7606 2.271L12.1685 9.90909L15.2298 2.15131L15.7606 2.271ZM17.6836 9.92716L12.1685 9.90909L17.2794 10.7413L17.6836 9.92716ZM9.10946 17.6669L12.1685 9.90909L8.57647 17.5483L9.10946 17.6669ZM6.65228 9.89215L12.1685 9.91022L7.05654 9.07572L6.65228 9.89215Z" fill="#515253"/>
</g>
</g>
<path d="M17.1201 14.2859L17.5334 14.0453L16.3105 25.5532L15.8972 25.7949L17.1201 14.2859Z" fill="#CCCFD2"/>
<path d="M14.0453 12.5107L14.4586 12.2702L17.5334 14.0453L17.1202 14.2858L14.0453 12.5107Z" fill="#B0B2B5"/>
<path d="M17.1201 14.2858L15.8972 25.7949L13.1724 24.2207L13.2074 12.0251L17.1201 14.2858Z" fill="url(#paint1_linear_7_12701)"/>
<path d="M57.588 17.6657L57.6908 17.6069L60.1231 19.0106L60.0204 19.0705L57.588 17.6657Z" fill="#738187"/>
<path d="M57.588 17.6656L60.0204 19.0704L58.4575 19.5695L57.5835 19.0636L57.588 17.6656Z" fill="#485155"/>
<path d="M60.6324 18.0824L60.6302 18.2043L58.1978 16.7985L58.1989 16.6788L60.6324 18.0824Z" fill="#485155"/>
<path d="M60.2812 16.4946L60.6324 18.0823L58.1989 16.6786L59.3948 15.9841L60.2812 16.4946Z" fill="#738187"/>
<path d="M64.4447 20.0799C64.3532 20.0246 63.6474 21.2622 63.7378 21.3141L57.1804 17.5267C57.0923 17.477 57.0336 17.3664 57.0325 17.2105C57.0268 16.891 57.2481 16.498 57.5271 16.332C57.6671 16.2496 57.7969 16.2394 57.8907 16.2936L64.4447 20.0799Z" fill="url(#paint2_linear_7_12701)"/>
<path d="M65.9883 21.6574C66.0075 22.143 64.7428 21.8697 63.7378 21.313C63.6474 21.2611 63.5898 21.1516 63.5887 20.9946C63.5831 20.675 63.8044 20.2821 64.0833 20.1183C64.2245 20.0348 64.3532 20.0246 64.4537 20.0833C65.2848 20.5813 65.9748 21.2893 65.9883 21.6574Z" fill="url(#paint3_linear_7_12701)"/>
<path d="M57.588 14.9499L57.6908 14.8901L58.5659 15.3949L58.462 15.4559L57.588 14.9499Z" fill="#738187"/>
<path d="M58.4621 15.4558L58.566 15.3948L60.1198 17.6769L60.017 17.739L58.4621 15.4558Z" fill="#85959C"/>
<path d="M58.462 15.4557L60.017 17.739L57.5835 16.3354L57.588 14.9498L58.462 15.4557Z" fill="#485155"/>
<path d="M56.8044 18.4956V18.6153L55.9326 18.1106V17.9897L56.8044 18.4956Z" fill="#485155"/>
<path d="M59.5721 18.6921V18.8129L56.8044 18.6153V18.4956L59.5721 18.6921Z" fill="#5A666B"/>
<path d="M57.1409 17.2873L59.5721 18.6921L56.8043 18.4956L55.9326 17.9897L57.1409 17.2873Z" fill="#738187"/>
<path d="M62.7971 19.6294L60.3693 18.2145L60.3682 11.6594L62.7938 13.0731L62.7971 19.6294Z" fill="url(#paint4_linear_7_12701)"/>
<path d="M62.7937 13.0731L60.3682 11.6594L60.7645 11.4313L63.1889 12.845L62.7937 13.0731Z" fill="#EBECEE"/>
<path d="M63.189 12.8451L63.1901 19.399L62.7971 19.6294L62.7938 13.0732L63.189 12.8451Z" fill="#CCCFD2"/>
<path d="M53.2439 20.1748L53.3478 20.115L55.7802 21.5186L55.6751 21.5784L53.2439 20.1748Z" fill="#738187"/>
<path d="M53.2439 20.1748L55.6751 21.5785L54.1123 22.0776L53.2405 21.5728L53.2439 20.1748Z" fill="#485155"/>
<path d="M56.2872 20.5915L56.286 20.7123L53.8548 19.3054V19.1868L56.2872 20.5915Z" fill="#485155"/>
<path d="M55.9371 19.0038L56.2872 20.5915L53.8548 19.1868L55.0495 18.4923L55.9371 19.0038Z" fill="#738187"/>
<path d="M60.1017 22.5879C60.008 22.5337 59.3045 23.7702 59.3948 23.8221L52.8363 20.0359C52.7471 19.984 52.6906 19.8744 52.6872 19.7186C52.6827 19.399 52.9029 19.0049 53.1818 18.8412C53.3241 18.7576 53.4517 18.7475 53.5454 18.8028L60.1017 22.5879Z" fill="url(#paint5_linear_7_12701)"/>
<path d="M61.6431 24.1655C61.6623 24.6499 60.3998 24.3778 59.3948 23.8211C59.3045 23.7691 59.2458 23.6585 59.2435 23.5026C59.239 23.1853 59.4603 22.7923 59.7381 22.6275C59.8804 22.5439 60.0069 22.5338 60.1074 22.5913C60.9418 23.0916 61.6295 23.7974 61.6431 24.1655Z" fill="url(#paint6_linear_7_12701)"/>
<path d="M53.2439 17.459L53.3478 17.3981L54.2207 17.9028L54.1179 17.9626L53.2439 17.459Z" fill="#738187"/>
<path d="M54.118 17.9627L54.2207 17.9029L55.7768 20.1862L55.6718 20.246L54.118 17.9627Z" fill="#85959C"/>
<path d="M54.1179 17.9627L55.6718 20.246L53.2405 18.8424L53.2439 17.4591L54.1179 17.9627Z" fill="#485155"/>
<path d="M52.4614 21.0036V21.1234L51.5862 20.6197L51.5874 20.4977L52.4614 21.0036Z" fill="#485155"/>
<path d="M55.228 21.2013V21.321L52.4614 21.1234V21.0037L55.228 21.2013Z" fill="#5A666B"/>
<path d="M52.7956 19.7966L55.2279 21.2013L52.4614 21.0037L51.5873 20.4978L52.7956 19.7966Z" fill="#738187"/>
<path d="M58.4519 22.1363L56.0274 20.7225L56.0263 14.1686L58.4485 15.5812L58.4519 22.1363Z" fill="url(#paint7_linear_7_12701)"/>
<path d="M58.4485 15.5812L56.0263 14.1685L56.4193 13.9393L58.8448 15.3531L58.4485 15.5812Z" fill="#EBECEE"/>
<path d="M58.8448 15.3531L58.8482 21.9082L58.4519 22.1363L58.4485 15.5812L58.8448 15.3531Z" fill="#CCCFD2"/>
<path d="M48.8987 22.6828L49.0048 22.623L51.4349 24.0266L51.3321 24.0865L48.8987 22.6828Z" fill="#738187"/>
<path d="M48.8987 22.6828L51.3322 24.0865L49.7704 24.5856L48.8953 24.0797L48.8987 22.6828Z" fill="#485155"/>
<path d="M51.943 23.0996V23.2182L49.5096 21.8146V21.696L51.943 23.0996Z" fill="#485155"/>
<path d="M51.593 21.5119L51.943 23.0997L49.5096 21.696L50.7054 21.0004L51.593 21.5119Z" fill="#738187"/>
<path d="M55.7575 25.0937C55.6638 25.0407 54.9569 26.2783 55.0473 26.3302L48.491 22.5429C48.4029 22.4909 48.3453 22.3814 48.342 22.2244C48.3386 21.9071 48.5599 21.5119 48.8366 21.3482C48.9766 21.2657 49.1076 21.2556 49.199 21.3098L55.7575 25.0937Z" fill="url(#paint8_linear_7_12701)"/>
<path d="M57.3012 26.6746C57.3193 27.1602 56.0568 26.8858 55.0484 26.3302C54.9581 26.2783 54.9039 26.1687 54.9005 26.0106C54.8948 25.6922 55.1173 25.2992 55.3951 25.1355C55.5373 25.0519 55.665 25.0418 55.7655 25.1005C56.5988 25.5996 57.2865 26.3054 57.3012 26.6746Z" fill="url(#paint9_linear_7_12701)"/>
<path d="M48.8987 19.9661L49.0048 19.9073L49.8777 20.411L49.7738 20.4708L48.8987 19.9661Z" fill="#738187"/>
<path d="M49.7738 20.4707L49.8777 20.4108L51.4326 22.6931L51.3276 22.7529L49.7738 20.4707Z" fill="#85959C"/>
<path d="M49.7738 20.4708L51.3276 22.7529L48.8953 21.3493L48.8987 19.9661L49.7738 20.4708Z" fill="#485155"/>
<path d="M48.1172 23.5118V23.6315L47.2432 23.1267V23.007L48.1172 23.5118Z" fill="#485155"/>
<path d="M50.8827 23.7082V23.829L48.1172 23.6314V23.5117L50.8827 23.7082Z" fill="#5A666B"/>
<path d="M48.4515 22.3046L50.8827 23.7082L48.1172 23.5117L47.2432 23.007L48.4515 22.3046Z" fill="#738187"/>
<path d="M54.1077 24.6443L51.6833 23.2306L51.6799 16.6754L54.1055 18.0892L54.1077 24.6443Z" fill="url(#paint10_linear_7_12701)"/>
<path d="M54.1055 18.0892L51.6799 16.6754L52.0763 16.4473L54.5007 17.8611L54.1055 18.0892Z" fill="#EBECEE"/>
<path d="M54.5007 17.8611L54.5018 24.4162L54.1077 24.6443L54.1055 18.0892L54.5007 17.8611Z" fill="#CCCFD2"/>
<path d="M83 2.44379L82.9966 3.0626L48.2855 26.7164L48.2866 26.0998L83 2.44379Z" fill="#CCCFD2"/>
<path d="M83 2.44378L48.2866 26.0999L38.511 20.561L79.0579 0.168396L83 2.44378Z" fill="#EBECEE"/>
<path d="M61.5945 38.3213C61.1789 37.3807 60.2891 36.0358 58.9126 34.4662C56.5311 31.7572 52.6917 28.3785 47.2997 25.2664C33.1472 17.0954 13.5507 9.06549 12.5818 8.6059L11.2437 9.39409C12.2103 9.85368 29.4298 19.2556 43.5834 27.4266C48.9743 30.5399 52.8171 33.9162 55.1963 36.6264C56.5751 38.196 57.4615 39.5397 57.8805 40.4815C58.0657 40.9016 58.1583 41.2426 58.1583 41.4854V41.6999C58.156 41.7812 58.1244 41.84 58.0578 41.8784L61.774 39.7182C61.8384 39.6798 61.8734 39.621 61.8734 39.5409V39.3252C61.8734 39.0824 61.7819 38.7425 61.5945 38.3213Z" fill="#EBECEE"/>
<path d="M61.5945 38.3213C61.1789 37.3807 60.2891 36.0358 58.9126 34.4662L55.1963 36.6264C56.5751 38.196 57.4615 39.5397 57.8805 40.4815C58.0657 40.9016 58.1583 41.2426 58.1583 41.4854V41.6999C58.156 41.7812 58.1244 41.84 58.0578 41.8784L61.774 39.7182C61.8384 39.6798 61.8734 39.6211 61.8734 39.5409V39.3252C61.8734 39.0824 61.7819 38.7425 61.5945 38.3213Z" fill="#CCCFD2"/>
<path d="M12.9013 8.38575L11.3012 9.32639C12.1685 8.82276 23.3703 14.2724 23.3703 14.2724L26.006 12.7412C22.4241 10.6724 13.7686 7.88324 12.9013 8.38575Z" fill="#EBECEE"/>
<path d="M43.5834 27.4267C36.8431 23.5365 29.4094 19.3652 23.3658 16.0159L23.3704 14.2724C19.8359 12.2297 11.7574 8.48629 11.2448 9.39531L11.2391 11.2292C11.9167 11.8265 19.1753 16.2519 27.9437 21.863C30.6504 23.5964 34.1759 29.9494 35.3751 30.6438C46.3737 36.9923 58.1526 43.22 58.1594 41.7012V41.4866C58.1628 39.7645 53.4934 33.1484 43.5834 27.4267Z" fill="url(#paint11_linear_7_12701)"/>
<path opacity="0.3" d="M20.4344 16.6798C18.8501 15.7132 17.2522 14.7341 15.642 13.7517L15.738 13.5936C17.3482 14.5761 18.9472 15.5528 20.5315 16.5217C25.5147 19.5661 30.2191 22.4411 34.6829 25.1264L34.588 25.2845C30.122 22.6015 25.4154 19.7264 20.4344 16.6798ZM57.9302 40.6013C54.407 39.026 50.6761 37.1572 46.7227 35.0184V29.387C46.6605 29.3463 46.5984 29.3057 46.5386 29.2661V34.9179C42.0522 32.481 37.2846 29.7122 32.2731 26.7118C32.3691 26.8428 32.4606 26.9704 32.5532 27.1003C41.9867 32.7419 50.4976 37.4982 58.0171 40.8475C57.9889 40.7662 57.9674 40.6916 57.9302 40.6013Z" fill="url(#paint12_linear_7_12701)"/>
<path d="M30.9124 33.066L31.0174 33.0061L33.4498 34.4097L33.3459 34.4718L30.9124 33.066Z" fill="#738187"/>
<path d="M30.9124 33.0659L33.3459 34.4718L31.783 34.9697L30.909 34.465L30.9124 33.0659Z" fill="#485155"/>
<path d="M33.9568 33.4827V33.6046L31.5222 32.1998V32.079L33.9568 33.4827Z" fill="#485155"/>
<path d="M33.6068 31.8961L33.9568 33.4827L31.5222 32.0791L32.7203 31.3846L33.6068 31.8961Z" fill="#738187"/>
<path d="M37.7724 35.4802C37.6787 35.4271 36.9729 36.6625 37.0633 36.7144L30.507 32.9293C30.4167 32.8774 30.3591 32.7667 30.358 32.6098C30.3535 32.2913 30.5737 31.8984 30.8514 31.7335C30.9937 31.6499 31.1225 31.6398 31.2162 31.694L37.7724 35.4802Z" fill="url(#paint13_linear_7_12701)"/>
<path d="M39.3138 37.0577C39.3319 37.5433 38.0706 37.27 37.0633 36.7133C36.973 36.6614 36.9165 36.5518 36.9142 36.396C36.9075 36.0765 37.1311 35.6835 37.4077 35.5186C37.55 35.4351 37.6787 35.4272 37.7792 35.4836C38.6115 35.9827 39.2992 36.6896 39.3138 37.0577Z" fill="url(#paint14_linear_7_12701)"/>
<path d="M30.9124 30.3502L31.0174 30.2903L31.8914 30.7939L31.7864 30.856L30.9124 30.3502Z" fill="#738187"/>
<path d="M31.7864 30.8561L31.8915 30.7939L33.4464 33.0771L33.3425 33.1381L31.7864 30.8561Z" fill="#85959C"/>
<path d="M31.7864 30.856L33.3425 33.1381L30.909 31.7323L30.9124 30.3501L31.7864 30.856Z" fill="#485155"/>
<path d="M30.1299 33.8948V34.0167L29.257 33.5109L29.2581 33.3912L30.1299 33.8948Z" fill="#485155"/>
<path d="M32.8976 34.0912L32.8965 34.2131L30.1299 34.0167V33.8948L32.8976 34.0912Z" fill="#5A666B"/>
<path d="M30.4652 32.6876L32.8975 34.0913L30.1298 33.8948L29.2581 33.3912L30.4652 32.6876Z" fill="#738187"/>
<path d="M36.1215 35.0286L33.696 33.6137L33.6937 27.0597L36.1204 28.4746L36.1215 35.0286Z" fill="url(#paint15_linear_7_12701)"/>
<path d="M36.1204 28.4746L33.6937 27.0597L34.0889 26.8316L36.5145 28.2465L36.1204 28.4746Z" fill="#EBECEE"/>
<path d="M36.5145 28.2464L36.5168 34.8016L36.1215 35.0286L36.1204 28.4745L36.5145 28.2464Z" fill="#CCCFD2"/>
<path d="M26.5695 35.5751L26.6733 35.5153L29.1046 36.9188L29.0007 36.9798L26.5695 35.5751Z" fill="#738187"/>
<path d="M26.5695 35.5751L29.0007 36.9798L27.4401 37.4767L26.5649 36.9731L26.5695 35.5751Z" fill="#485155"/>
<path d="M29.6116 35.9907V36.1115L27.1804 34.7079V34.587L29.6116 35.9907Z" fill="#485155"/>
<path d="M29.2626 34.4041L29.6116 35.9906L27.1804 34.587L28.3751 33.8914L29.2626 34.4041Z" fill="#738187"/>
<path d="M33.4261 37.9871C33.3346 37.9329 32.6277 39.1694 32.7181 39.2236L26.1618 35.4362C26.0715 35.3854 26.0162 35.2747 26.0128 35.1189C26.0082 34.7993 26.2296 34.4063 26.5074 34.2415C26.6474 34.1579 26.7761 34.15 26.8698 34.2031L33.4261 37.9871Z" fill="url(#paint16_linear_7_12701)"/>
<path d="M34.9709 39.568C34.9889 40.0513 33.7265 39.778 32.7181 39.2236C32.6278 39.1694 32.5713 39.0598 32.5702 38.904C32.5645 38.5855 32.7859 38.1926 33.0648 38.0277C33.2048 37.943 33.3346 37.934 33.434 37.9927C34.2662 38.4918 34.9562 39.1976 34.9709 39.568Z" fill="url(#paint17_linear_7_12701)"/>
<path d="M26.5695 32.8593L26.6733 32.7983L27.5474 33.3043L27.4435 33.3641L26.5695 32.8593Z" fill="#738187"/>
<path d="M27.4435 33.3641L27.5473 33.3043L29.1011 35.5864L28.9972 35.6462L27.4435 33.3641Z" fill="#85959C"/>
<path d="M27.4435 33.3642L28.9973 35.6462L26.5649 34.2427L26.5695 32.8594L27.4435 33.3642Z" fill="#485155"/>
<path d="M25.7869 36.4039L25.7858 36.5236L24.9118 36.0188L24.914 35.898L25.7869 36.4039Z" fill="#485155"/>
<path d="M28.5535 36.6015V36.7202L25.7858 36.5236L25.7869 36.4039L28.5535 36.6015Z" fill="#5A666B"/>
<path d="M26.1201 35.1979L28.5536 36.6015L25.787 36.4039L24.9141 35.898L26.1201 35.1979Z" fill="#738187"/>
<path d="M31.7786 37.5366L29.3519 36.1228L29.3507 29.5676L31.7763 30.9814L31.7786 37.5366Z" fill="url(#paint18_linear_7_12701)"/>
<path d="M31.7763 30.9816L29.3507 29.5676L29.7459 29.3384L32.1715 30.7546L31.7763 30.9816Z" fill="#EBECEE"/>
<path d="M32.1715 30.7545L32.1727 37.3085L31.7786 37.5366L31.7763 30.9814L32.1715 30.7545Z" fill="#CCCFD2"/>
<path d="M22.2253 38.082L22.3292 38.0233L24.7593 39.427L24.6566 39.4891L22.2253 38.082Z" fill="#738187"/>
<path d="M22.2253 38.082L24.6565 39.489L23.0959 39.9859L22.2197 39.4811L22.2253 38.082Z" fill="#485155"/>
<path d="M25.2686 38.4999L25.2663 38.6196L22.8362 37.2147V37.095L25.2686 38.4999Z" fill="#485155"/>
<path d="M24.9185 36.9133L25.2686 38.4998L22.8362 37.0951L24.0321 36.3995L24.9185 36.9133Z" fill="#738187"/>
<path d="M29.0831 40.4951C28.9893 40.4432 28.2847 41.6797 28.3739 41.7305L21.8188 37.9453C21.7285 37.8934 21.672 37.7816 21.6686 37.6258C21.663 37.3073 21.8843 36.9144 22.1632 36.7506C22.3055 36.6659 22.4331 36.6569 22.5268 36.71L29.0831 40.4951Z" fill="url(#paint19_linear_7_12701)"/>
<path d="M30.6267 42.0749C30.6448 42.5605 29.3823 42.2861 28.375 41.7305C28.2858 41.6797 28.2271 41.569 28.226 41.4132C28.2215 41.0936 28.4417 40.7007 28.7206 40.5358C28.8617 40.4522 28.9905 40.4443 29.091 40.5008C29.921 40.9988 30.6121 41.7045 30.6267 42.0749Z" fill="url(#paint20_linear_7_12701)"/>
<path d="M22.2253 35.3662L22.3292 35.3063L23.2021 35.8111L23.0994 35.8721L22.2253 35.3662Z" fill="#738187"/>
<path d="M23.0993 35.8722L23.2021 35.8112L24.757 38.0945L24.6531 38.1544L23.0993 35.8722Z" fill="#85959C"/>
<path d="M23.0993 35.8721L24.6531 38.1543L22.2197 36.7506L22.2253 35.3661L23.0993 35.8721Z" fill="#485155"/>
<path d="M21.4417 38.912V39.0306L20.5688 38.5269V38.4083L21.4417 38.912Z" fill="#485155"/>
<path d="M24.2094 39.1095V39.2292L21.4417 39.0305V38.9119L24.2094 39.1095Z" fill="#5A666B"/>
<path d="M21.7781 37.7037L24.2094 39.1096L21.4416 38.912L20.5688 38.4083L21.7781 37.7037Z" fill="#738187"/>
<path d="M27.4333 40.0457L25.0077 38.6308L25.0054 32.0757L27.4321 33.4906L27.4333 40.0457Z" fill="url(#paint21_linear_7_12701)"/>
<path d="M27.4321 33.4906L25.0054 32.0756L25.4018 31.8475L27.8262 33.2614L27.4321 33.4906Z" fill="#EBECEE"/>
<path d="M27.8262 33.2613L27.8285 39.8188L27.4333 40.0458L27.4321 33.4905L27.8262 33.2613Z" fill="#CCCFD2"/>
<path d="M44.6664 28.0455L44.6641 28.6621L3.93759 48.848L3.93985 48.2303L44.6664 28.0455Z" fill="#CCCFD2"/>
<path d="M3.93985 48.2303L3.93759 48.848L0 46.5749L0.00112921 45.9561L3.93985 48.2303Z" fill="url(#paint22_linear_7_12701)"/>
<path d="M34.9844 22.4548L44.6664 28.0455L3.93988 48.2303L0.00115967 45.9561L34.9844 22.4548Z" fill="#EBECEE"/>
<path d="M23.3703 14.2712L23.3658 16.0306L26.0014 14.4993L26.006 12.74L23.3703 14.2712Z" fill="#CCCFD2"/>
<path d="M23.5217 14.3571L25.8558 13.0009L25.8524 14.4135L23.516 15.7709L23.5217 14.3571Z" fill="url(#paint23_linear_7_12701)"/>
<path d="M16.3963 13.7066V14.269L3.67222 28.3954L3.45767 28.0725L16.3963 13.7066Z" fill="#CCCFD2"/>
<path d="M3.45766 28.0724L3.67221 28.3954L0.426832 26.5954L0.210022 26.2714L3.45766 28.0724Z" fill="url(#paint24_linear_7_12701)"/>
<path d="M16.3963 13.7066L3.45769 28.0725L0.210052 26.2714L11.2425 10.8497L16.3963 13.7066Z" fill="#EBECEE"/>
<path opacity="0.6" d="M47.1721 29.6862C49.5479 31.31 51.5263 32.9451 53.1185 34.4662L56.8438 32.3161C55.2539 30.7928 53.2732 29.1577 50.8996 27.535L47.1721 29.6862Z" fill="url(#paint25_linear_7_12701)"/>
<path d="M21.3637 15.0775C21.3637 15.5528 20.9787 15.7154 20.5033 15.4411C20.029 15.1655 19.6439 14.5592 19.6439 14.0838C19.6439 13.6084 20.029 13.4458 20.5033 13.7202C20.9798 13.9946 21.3637 14.601 21.3637 15.0775Z" fill="#802121"/>
<defs>
<linearGradient id="paint0_linear_7_12701" x1="9.53052" y1="9.63027" x2="12.7086" y2="9.63027" gradientUnits="userSpaceOnUse">
<stop stop-color="#999FA3"/>
<stop offset="0.5537" stop-color="#9DA3A7"/>
<stop offset="1" stop-color="#A6ACAF"/>
</linearGradient>
<linearGradient id="paint1_linear_7_12701" x1="13.1729" y1="18.9099" x2="17.1197" y2="18.9099" gradientUnits="userSpaceOnUse">
<stop stop-color="#999FA3"/>
<stop offset="0.5537" stop-color="#9DA3A7"/>
<stop offset="1" stop-color="#A6ACAF"/>
</linearGradient>
<linearGradient id="paint2_linear_7_12701" x1="60.9928" y1="18.084" x2="60.2804" y2="19.3178" gradientUnits="userSpaceOnUse">
<stop stop-color="#ECEDEF"/>
<stop offset="0.1664" stop-color="#E8E9EB"/>
<stop offset="0.3344" stop-color="#DCDEE0"/>
<stop offset="0.5031" stop-color="#C8CBCE"/>
<stop offset="0.6714" stop-color="#ABB0B4"/>
<stop offset="0.7621" stop-color="#999FA3"/>
<stop offset="0.8759" stop-color="#9CA2A6"/>
<stop offset="0.9762" stop-color="#A7ADB0"/>
<stop offset="1" stop-color="#ABB1B3"/>
</linearGradient>
<linearGradient id="paint3_linear_7_12701" x1="65.203" y1="20.5167" x2="64.4913" y2="21.7496" gradientUnits="userSpaceOnUse">
<stop stop-color="#45474D"/>
<stop offset="1" stop-color="#2C2E31"/>
</linearGradient>
<linearGradient id="paint4_linear_7_12701" x1="60.3686" y1="15.6447" x2="62.7969" y2="15.6447" gradientUnits="userSpaceOnUse">
<stop stop-color="#999FA3"/>
<stop offset="0.5537" stop-color="#9DA3A7"/>
<stop offset="1" stop-color="#A6ACAF"/>
</linearGradient>
<linearGradient id="paint5_linear_7_12701" x1="56.648" y1="20.5927" x2="55.9363" y2="21.8251" gradientUnits="userSpaceOnUse">
<stop stop-color="#ECEDEF"/>
<stop offset="0.1664" stop-color="#E8E9EB"/>
<stop offset="0.3344" stop-color="#DCDEE0"/>
<stop offset="0.5031" stop-color="#C8CBCE"/>
<stop offset="0.6714" stop-color="#ABB0B4"/>
<stop offset="0.7621" stop-color="#999FA3"/>
<stop offset="0.8759" stop-color="#9CA2A6"/>
<stop offset="0.9762" stop-color="#A7ADB0"/>
<stop offset="1" stop-color="#ABB1B3"/>
</linearGradient>
<linearGradient id="paint6_linear_7_12701" x1="60.8594" y1="23.0254" x2="60.1481" y2="24.2574" gradientUnits="userSpaceOnUse">
<stop stop-color="#45474D"/>
<stop offset="1" stop-color="#2C2E31"/>
</linearGradient>
<linearGradient id="paint7_linear_7_12701" x1="56.026" y1="18.1524" x2="58.452" y2="18.1524" gradientUnits="userSpaceOnUse">
<stop stop-color="#999FA3"/>
<stop offset="0.5537" stop-color="#9DA3A7"/>
<stop offset="1" stop-color="#A6ACAF"/>
</linearGradient>
<linearGradient id="paint8_linear_7_12701" x1="52.3042" y1="23.1005" x2="51.5914" y2="24.3351" gradientUnits="userSpaceOnUse">
<stop stop-color="#ECEDEF"/>
<stop offset="0.1664" stop-color="#E8E9EB"/>
<stop offset="0.3344" stop-color="#DCDEE0"/>
<stop offset="0.5031" stop-color="#C8CBCE"/>
<stop offset="0.6714" stop-color="#ABB0B4"/>
<stop offset="0.7621" stop-color="#999FA3"/>
<stop offset="0.8759" stop-color="#9CA2A6"/>
<stop offset="0.9762" stop-color="#A7ADB0"/>
<stop offset="1" stop-color="#ABB1B3"/>
</linearGradient>
<linearGradient id="paint9_linear_7_12701" x1="56.5156" y1="25.5331" x2="55.8035" y2="26.7665" gradientUnits="userSpaceOnUse">
<stop stop-color="#45474D"/>
<stop offset="1" stop-color="#2C2E31"/>
</linearGradient>
<linearGradient id="paint10_linear_7_12701" x1="51.6799" y1="20.6601" x2="54.1082" y2="20.6601" gradientUnits="userSpaceOnUse">
<stop stop-color="#999FA3"/>
<stop offset="0.5537" stop-color="#9DA3A7"/>
<stop offset="1" stop-color="#A6ACAF"/>
</linearGradient>
<linearGradient id="paint11_linear_7_12701" x1="11.2387" y1="25.5927" x2="58.1587" y2="25.5927" gradientUnits="userSpaceOnUse">
<stop stop-color="#999FA3"/>
<stop offset="0.5537" stop-color="#9DA3A7"/>
<stop offset="1" stop-color="#A6ACAF"/>
</linearGradient>
<linearGradient id="paint12_linear_7_12701" x1="15.642" y1="27.2215" x2="58.0164" y2="27.2215" gradientUnits="userSpaceOnUse">
<stop stop-color="#999FA3"/>
<stop offset="0.5537" stop-color="#9DA3A7"/>
<stop offset="1" stop-color="#A6ACAF"/>
</linearGradient>
<linearGradient id="paint13_linear_7_12701" x1="34.3181" y1="33.4839" x2="33.6055" y2="34.7182" gradientUnits="userSpaceOnUse">
<stop stop-color="#ECEDEF"/>
<stop offset="0.1664" stop-color="#E8E9EB"/>
<stop offset="0.3344" stop-color="#DCDEE0"/>
<stop offset="0.5031" stop-color="#C8CBCE"/>
<stop offset="0.6714" stop-color="#ABB0B4"/>
<stop offset="0.7621" stop-color="#999FA3"/>
<stop offset="0.8759" stop-color="#9CA2A6"/>
<stop offset="0.9762" stop-color="#A7ADB0"/>
<stop offset="1" stop-color="#ABB1B3"/>
</linearGradient>
<linearGradient id="paint14_linear_7_12701" x1="38.5286" y1="35.9166" x2="37.8167" y2="37.1495" gradientUnits="userSpaceOnUse">
<stop stop-color="#45474D"/>
<stop offset="1" stop-color="#2C2E31"/>
</linearGradient>
<linearGradient id="paint15_linear_7_12701" x1="33.694" y1="31.0436" x2="36.1212" y2="31.0436" gradientUnits="userSpaceOnUse">
<stop stop-color="#999FA3"/>
<stop offset="0.5537" stop-color="#9DA3A7"/>
<stop offset="1" stop-color="#A6ACAF"/>
</linearGradient>
<linearGradient id="paint16_linear_7_12701" x1="29.9734" y1="35.9927" x2="29.2604" y2="37.2276" gradientUnits="userSpaceOnUse">
<stop stop-color="#ECEDEF"/>
<stop offset="0.1664" stop-color="#E8E9EB"/>
<stop offset="0.3344" stop-color="#DCDEE0"/>
<stop offset="0.5031" stop-color="#C8CBCE"/>
<stop offset="0.6714" stop-color="#ABB0B4"/>
<stop offset="0.7621" stop-color="#999FA3"/>
<stop offset="0.8759" stop-color="#9CA2A6"/>
<stop offset="0.9762" stop-color="#A7ADB0"/>
<stop offset="1" stop-color="#ABB1B3"/>
</linearGradient>
<linearGradient id="paint17_linear_7_12701" x1="34.186" y1="38.4264" x2="33.4735" y2="39.6603" gradientUnits="userSpaceOnUse">
<stop stop-color="#45474D"/>
<stop offset="1" stop-color="#2C2E31"/>
</linearGradient>
<linearGradient id="paint18_linear_7_12701" x1="29.3503" y1="33.5523" x2="31.7786" y2="33.5523" gradientUnits="userSpaceOnUse">
<stop stop-color="#999FA3"/>
<stop offset="0.5537" stop-color="#9DA3A7"/>
<stop offset="1" stop-color="#A6ACAF"/>
</linearGradient>
<linearGradient id="paint19_linear_7_12701" x1="25.6296" y1="38.5015" x2="24.9173" y2="39.7354" gradientUnits="userSpaceOnUse">
<stop stop-color="#ECEDEF"/>
<stop offset="0.1664" stop-color="#E8E9EB"/>
<stop offset="0.3344" stop-color="#DCDEE0"/>
<stop offset="0.5031" stop-color="#C8CBCE"/>
<stop offset="0.6714" stop-color="#ABB0B4"/>
<stop offset="0.7621" stop-color="#999FA3"/>
<stop offset="0.8759" stop-color="#9CA2A6"/>
<stop offset="0.9762" stop-color="#A7ADB0"/>
<stop offset="1" stop-color="#ABB1B3"/>
</linearGradient>
<linearGradient id="paint20_linear_7_12701" x1="29.841" y1="40.933" x2="29.1292" y2="42.166" gradientUnits="userSpaceOnUse">
<stop stop-color="#45474D"/>
<stop offset="1" stop-color="#2C2E31"/>
</linearGradient>
<linearGradient id="paint21_linear_7_12701" x1="25.0054" y1="36.0612" x2="27.4337" y2="36.0612" gradientUnits="userSpaceOnUse">
<stop stop-color="#999FA3"/>
<stop offset="0.5537" stop-color="#9DA3A7"/>
<stop offset="1" stop-color="#A6ACAF"/>
</linearGradient>
<linearGradient id="paint22_linear_7_12701" x1="0.000451688" y1="47.4018" x2="3.93951" y2="47.4018" gradientUnits="userSpaceOnUse">
<stop stop-color="#999FA3"/>
<stop offset="0.5537" stop-color="#9DA3A7"/>
<stop offset="1" stop-color="#A6ACAF"/>
</linearGradient>
<linearGradient id="paint23_linear_7_12701" x1="23.5156" y1="14.3854" x2="25.8557" y2="14.3854" gradientUnits="userSpaceOnUse">
<stop stop-color="#999FA3"/>
<stop offset="0.5537" stop-color="#9DA3A7"/>
<stop offset="1" stop-color="#A6ACAF"/>
</linearGradient>
<linearGradient id="paint24_linear_7_12701" x1="0.210022" y1="27.3338" x2="3.67266" y2="27.3338" gradientUnits="userSpaceOnUse">
<stop stop-color="#999FA3"/>
<stop offset="0.5537" stop-color="#9DA3A7"/>
<stop offset="1" stop-color="#A6ACAF"/>
</linearGradient>
<linearGradient id="paint25_linear_7_12701" x1="50.2299" y1="27.9216" x2="53.656" y2="33.8558" gradientUnits="userSpaceOnUse">
<stop stop-color="#ECEDEF"/>
<stop offset="0.1282" stop-color="#E8E9EB"/>
<stop offset="0.2576" stop-color="#DCDDDF"/>
<stop offset="0.3878" stop-color="#C8C9CB"/>
<stop offset="0.5185" stop-color="#ACADAE"/>
<stop offset="0.6497" stop-color="#888889"/>
<stop offset="0.7812" stop-color="#5B5C5D"/>
<stop offset="0.9106" stop-color="#282829"/>
<stop offset="1"/>
</linearGradient>
</defs>
</svg>
