<svg width="100" height="66" viewBox="0 0 100 66" fill="none" xmlns="http://www.w3.org/2000/svg">
<path d="M73.5777 56.5969L72.9234 55.4354L59.4763 63.0101L60.1306 64.1716L73.5777 56.5969Z" fill="#1D1D1B"/>
<path d="M58.8792 62.823L59.9678 64.7084L61.1465 64.0278L60.0579 62.1424L58.8792 62.823Z" fill="#607A4E"/>
<path d="M59.0563 62.2543L60.0336 63.2563L59.8035 63.5853L58.9843 62.3554L59.0563 62.2543Z" fill="#EDEDED"/>
<path d="M60.8506 63.4305L60.0335 63.7197L59.8035 63.1219L60.7797 63.2509L60.8506 63.4305Z" fill="#EDEDED"/>
<path d="M59.8465 64.5766L59.6852 63.2864L60.1486 63.5541L59.9884 64.6572L59.8465 64.5766Z" fill="#EDEDED"/>
<path d="M59.0563 62.2543L60.0336 63.2563L59.8035 63.5853L58.9843 62.3554L59.0563 62.2543Z" fill="#82A66A"/>
<path d="M60.8506 63.4305L60.0335 63.7197L59.8035 63.1219L60.7797 63.2509L60.8506 63.4305Z" fill="#82A66A"/>
<path d="M59.8465 64.5766L59.6852 63.2864L60.1486 63.5541L59.9884 64.6572L59.8465 64.5766Z" fill="#82A66A"/>
<path d="M59.582 63.2262C59.582 63.0123 59.7325 62.9263 59.9185 63.0327C60.1035 63.1413 60.2529 63.4015 60.2529 63.6154C60.2529 63.8294 60.1035 63.9154 59.9185 63.809C59.7314 63.7004 59.582 63.4413 59.582 63.2262Z" fill="#2B3623"/>
<path d="M61.3248 64.6766C61.9236 64.8336 62.3676 64.4594 62.3784 63.7025C62.3913 62.7908 61.7677 61.6727 60.9829 61.2061C60.3098 60.804 59.74 61.0158 59.5852 61.662L61.3248 64.6766Z" fill="#1D1D1B"/>
<path d="M58.9918 61.6404C61.1216 61.5339 61.6129 62.8563 60.9625 65.1732L61.9462 64.6238L59.9733 61.0899L58.9918 61.6404Z" fill="#1D1D1B"/>
<path d="M61.3581 64.2724C61.371 63.3596 60.7474 62.2415 59.9615 61.7738C59.1778 61.3072 58.5359 61.6695 58.5209 62.5823C58.508 63.494 59.1315 64.6132 59.9164 65.0798C60.7012 65.5475 61.3452 65.1841 61.3581 64.2724ZM60.8141 63.9477C60.8033 64.51 60.4066 64.7314 59.926 64.4444C59.4444 64.1563 59.0595 63.4682 59.0659 62.9059C59.0745 62.3458 59.4723 62.1221 59.9529 62.4103C60.4367 62.6973 60.8216 63.3865 60.8141 63.9477Z" fill="#4F6541"/>
<path d="M59.0358 62.8887C59.0272 63.4693 59.424 64.1832 59.9239 64.4799C60.4238 64.7799 60.8367 64.5487 60.8453 63.9671C60.8528 63.3865 60.4539 62.6726 59.954 62.3737C59.4541 62.0769 59.0466 62.3049 59.0358 62.8887ZM59.9508 62.6608C60.3163 62.8769 60.6044 63.3962 60.6001 63.8219C60.5926 64.2455 60.2937 64.4132 59.9303 64.195C59.5648 63.9767 59.2734 63.4574 59.282 63.0338C59.2863 62.6091 59.5874 62.4436 59.9508 62.6608Z" fill="#2B3623"/>
<path d="M10.3937 28.0566L11.4806 29.9431L12.66 29.2636L11.5731 27.3772L10.3937 28.0566Z" fill="#607A4E"/>
<path d="M10.5738 27.4925L11.5489 28.4945L11.3178 28.8246L10.5007 27.5936L10.5738 27.4925Z" fill="#EDEDED"/>
<path d="M12.3671 28.6698L11.5489 28.9568L11.3178 28.3602L12.2961 28.4892L12.3671 28.6698Z" fill="#EDEDED"/>
<path d="M11.364 29.8148L11.2038 28.5257L11.664 28.7934L11.5048 29.8965L11.364 29.8148Z" fill="#EDEDED"/>
<path d="M10.5738 27.4925L11.5489 28.4945L11.3178 28.8246L10.5007 27.5936L10.5738 27.4925Z" fill="#82A66A"/>
<path d="M12.3671 28.6698L11.5489 28.9568L11.3178 28.3602L12.2961 28.4892L12.3671 28.6698Z" fill="#82A66A"/>
<path d="M11.364 29.8148L11.2038 28.5257L11.664 28.7934L11.5048 29.8965L11.364 29.8148Z" fill="#82A66A"/>
<path d="M11.0984 28.4655C11.0984 28.2516 11.249 28.1656 11.4339 28.271C11.6199 28.3774 11.7704 28.6397 11.7704 28.8536C11.7704 29.0676 11.6188 29.1536 11.4339 29.0482C11.249 28.9396 11.0984 28.6795 11.0984 28.4655Z" fill="#2B3623"/>
<path d="M12.8423 29.9158C13.44 30.0739 13.8841 29.6976 13.8948 28.9418C13.9077 28.029 13.282 26.9098 12.4982 26.4453C11.8252 26.0432 11.2543 26.255 11.0984 26.9012L12.8423 29.9158Z" fill="#1D1D1B"/>
<path d="M10.5071 26.8786C12.6359 26.7722 13.1272 28.0946 12.4789 30.4115L13.4626 29.8621L11.4909 26.3292L10.5071 26.8786Z" fill="#1D1D1B"/>
<path d="M12.8756 29.5105C12.8885 28.5988 12.2628 27.4796 11.478 27.013C10.6942 26.5453 10.0502 26.9076 10.0373 27.8204C10.0244 28.7321 10.649 29.8513 11.4328 30.3169C12.2187 30.7856 12.8616 30.4233 12.8756 29.5105ZM12.3284 29.1847C12.3209 29.747 11.9241 29.9685 11.4425 29.6825C10.9619 29.3944 10.5749 28.7074 10.5835 28.144C10.5899 27.5839 10.9877 27.3602 11.4704 27.6484C11.9521 27.9354 12.3381 28.6246 12.3284 29.1847Z" fill="#4F6541"/>
<path d="M10.5523 28.1247C10.5426 28.7074 10.9393 29.4202 11.4403 29.718C11.9403 30.0158 12.352 29.7868 12.3596 29.2041C12.3692 28.6246 11.9714 27.9097 11.4715 27.614C10.9727 27.3151 10.5598 27.5441 10.5523 28.1247ZM11.4683 27.8968C11.8338 28.115 12.122 28.6364 12.1155 29.0579C12.1101 29.4826 11.8102 29.6524 11.4446 29.4342C11.0812 29.2159 10.792 28.6956 10.7963 28.2709C10.8039 27.8473 11.1049 27.6796 11.4683 27.8968Z" fill="#2B3623"/>
<path d="M73.293 39.2801L66.4047 35.328C66.0499 35.1248 65.5629 35.1538 65.0242 35.4635C63.9394 36.0838 63.06 37.6083 63.06 38.863C63.06 39.4952 63.2815 39.9403 63.6416 40.1456L70.531 44.0956C70.1698 43.8903 69.9494 43.4462 69.9494 42.8162C69.9494 41.5594 70.8278 40.037 71.9115 39.4145C72.448 39.106 72.9371 39.077 73.293 39.2801Z" fill="#1D1D1B"/>
<path d="M73.8735 40.5628C73.8735 39.3059 72.9962 38.791 71.9114 39.4134C70.8277 40.0359 69.9493 41.5583 69.9493 42.8151C69.9493 44.0698 70.8277 44.5837 71.9114 43.9601C72.9952 43.3387 73.8735 41.8174 73.8735 40.5628Z" fill="#5C754B"/>
<path d="M71.9136 40.3166L70.8794 41.6035V42.9828L71.9136 43.0742L72.949 41.7895V40.4101L71.9136 40.3166Z" fill="#74945E"/>
<path d="M72.4243 42.7808C72.4243 42.455 72.1975 42.3227 71.9136 42.4851C71.633 42.6485 71.403 43.0463 71.403 43.3721C71.403 43.6978 71.633 43.8301 71.9136 43.6667C72.1975 43.5032 72.4243 43.1087 72.4243 42.7808Z" fill="#1D1D1B"/>
<path d="M71.3901 42.6732C71.3901 42.3475 71.1611 42.2163 70.8794 42.3787C70.5977 42.5431 70.3687 42.9399 70.3687 43.2656C70.3687 43.5914 70.5977 43.7226 70.8794 43.5591C71.1611 43.3979 71.3901 43.0022 71.3901 42.6732Z" fill="#1D1D1B"/>
<path d="M71.3901 41.31C71.3901 40.9842 71.1611 40.852 70.8794 41.0143C70.5977 41.1777 70.3687 41.5734 70.3687 41.8991C70.3687 42.2249 70.5977 42.3593 70.8794 42.1958C71.1611 42.0335 71.3901 41.6357 71.3901 41.31Z" fill="#1D1D1B"/>
<path d="M72.4243 40.022C72.4243 39.6962 72.1975 39.564 71.9136 39.7274C71.633 39.8908 71.403 40.2876 71.403 40.6133C71.403 40.9391 71.633 41.0713 71.9136 40.9079C72.1975 40.7445 72.4243 40.3499 72.4243 40.022Z" fill="#1D1D1B"/>
<path d="M73.4608 40.1155C73.4608 39.7897 73.2317 39.6575 72.949 39.822C72.6662 39.9832 72.4383 40.3799 72.4383 40.7057C72.4383 41.0315 72.6662 41.1648 72.949 41.0003C73.2317 40.8369 73.4608 40.4412 73.4608 40.1155Z" fill="#1D1D1B"/>
<path d="M73.4608 41.4949C73.4608 41.168 73.2317 41.0369 72.949 41.2003C72.6662 41.3637 72.4383 41.7594 72.4383 42.0851C72.4383 42.4131 72.6662 42.5442 72.949 42.3797C73.2317 42.2163 73.4608 41.8196 73.4608 41.4949Z" fill="#1D1D1B"/>
<path d="M72.4243 41.4003C72.4243 41.0745 72.1975 40.9433 71.9136 41.1068C71.633 41.2702 71.403 41.6669 71.403 41.9927C71.403 42.3195 71.633 42.4517 71.9136 42.2883C72.1975 42.1249 72.4243 41.7282 72.4243 41.4003Z" fill="#1D1D1B"/>
<path d="M69.2451 33.5218L70.1859 32.9767L70.6901 38.5823L69.7494 39.1285L69.2451 33.5218Z" fill="#405234"/>
<path d="M66.8831 32.1574L67.8228 31.6113L70.1859 32.9766L69.2452 33.5217L66.8831 32.1574Z" fill="#405234"/>
<path d="M69.2451 33.5218L69.7494 39.1285L66.868 37.4632L66.8831 32.1575L69.2451 33.5218Z" fill="#405234"/>
<path d="M69.2451 33.5218L70.1859 32.9767L70.6901 38.5823L69.7494 39.1285L69.2451 33.5218Z" fill="#516742"/>
<path d="M66.8831 32.1574L67.8228 31.6113L70.1859 32.9766L69.2452 33.5217L66.8831 32.1574Z" fill="#516742"/>
<path d="M69.2451 33.5218L69.7494 39.1285L66.868 37.4632L66.8831 32.1575L69.2451 33.5218Z" fill="#405234"/>
<path d="M65.9005 39.5328L61.3065 36.8966C61.1226 36.7923 60.8732 36.8074 60.5969 36.9665C60.0378 37.2847 59.5884 38.0663 59.5884 38.7135C59.5884 39.0382 59.7013 39.2672 59.8852 39.3715L64.4824 42.0066C64.2964 41.9002 64.1813 41.6733 64.1813 41.3497C64.1813 40.7025 64.634 39.9209 65.1898 39.6027C65.465 39.4435 65.7177 39.4285 65.9005 39.5328Z" fill="#405234"/>
<path d="M66.1993 40.1918C66.1993 39.5467 65.7467 39.2822 65.1898 39.6026C64.6329 39.9208 64.1813 40.7025 64.1813 41.3497C64.1813 41.9948 64.634 42.2582 65.1898 41.9389C65.7467 41.6185 66.1993 40.8368 66.1993 40.1918Z" fill="#33412A"/>
<path d="M69.3989 41.9518L65.909 39.9499C65.7704 39.8693 65.5801 39.8822 65.3715 40.0016C64.9479 40.2456 64.6039 40.838 64.6039 41.3293C64.6039 41.5766 64.692 41.7497 64.8318 41.8293L68.3216 43.8311C68.1797 43.7505 68.0948 43.5763 68.0948 43.3323C68.0948 42.841 68.4367 42.2475 68.8603 42.0045C69.071 41.8852 69.2624 41.8733 69.3989 41.9518Z" fill="#516742"/>
<path d="M69.6247 42.4517C69.6247 41.9615 69.2817 41.7604 68.8592 42.0034C68.4356 42.2475 68.0937 42.8399 68.0937 43.3312C68.0937 43.8193 68.4356 44.0214 68.8592 43.7784C69.2817 43.5365 69.6247 42.9409 69.6247 42.4517Z" fill="#33412A"/>
<path d="M71.1062 43.5344L69.2699 42.4797C69.1968 42.4367 69.0968 42.4442 68.9839 42.5076C68.7624 42.6355 68.5818 42.9484 68.5818 43.2064C68.5818 43.3365 68.628 43.4258 68.7001 43.4688L70.5374 44.5213C70.4654 44.4794 70.4192 44.3902 70.4192 44.259C70.4192 44.001 70.6009 43.6881 70.8223 43.5591C70.932 43.4978 71.0341 43.4924 71.1062 43.5344Z" fill="#516742"/>
<path d="M71.2255 43.7967C71.2255 43.5398 71.046 43.4344 70.8234 43.5602C70.602 43.6892 70.4203 44.0021 70.4203 44.2601C70.4203 44.5192 70.602 44.6224 70.8234 44.4945C71.046 44.3676 71.2255 44.0548 71.2255 43.7967Z" fill="#33412A"/>
<path d="M72.349 44.0569L70.974 43.2709C70.8804 43.2172 70.7514 43.2258 70.6084 43.3064C70.3171 43.4731 70.0859 43.8773 70.0859 44.2117C70.0859 44.3794 70.145 44.4977 70.2407 44.5514L71.6158 45.3363C71.519 45.2825 71.461 45.1632 71.461 44.9965C71.461 44.6632 71.6954 44.2579 71.9835 44.0934C72.1265 44.0085 72.2555 44.002 72.349 44.0569Z" fill="#405234"/>
<path d="M72.5049 44.3966C72.5049 44.0633 72.2727 43.9267 71.9835 44.0923C71.6943 44.2568 71.461 44.6621 71.461 44.9954C71.461 45.3287 71.6953 45.4664 71.9835 45.2997C72.2727 45.1352 72.5049 44.7309 72.5049 44.3966Z" fill="#516742"/>
<path d="M71.7254 44.546C71.6405 44.6933 71.5921 44.8589 71.5921 44.9954C71.5921 45.1072 71.6244 45.19 71.6781 45.2223C71.7351 45.2556 71.8243 45.2438 71.9189 45.1879C72.0361 45.1201 72.1544 44.9954 72.2404 44.8471C72.3264 44.6976 72.3748 44.5342 72.3748 44.3966C72.3748 44.2848 72.3425 44.2009 72.2856 44.1708C72.2307 44.1375 72.1447 44.1493 72.0501 44.2042C71.9286 44.273 71.8114 44.3966 71.7254 44.546Z" fill="#1D1D1B"/>
<path d="M64.1351 36.1268L64.6974 35.7989L65.0006 39.1726L64.4361 39.4995L64.1351 36.1268Z" fill="#405234"/>
<path d="M62.7117 35.3065L63.275 34.9775L64.6974 35.7989L64.1351 36.1268L62.7117 35.3065Z" fill="#405234"/>
<path d="M64.1351 36.1268L64.4362 39.4994L62.7031 38.4985L62.7117 35.3065L64.1351 36.1268Z" fill="#405234"/>
<path d="M64.1351 36.1268L64.6974 35.7989L65.0006 39.1726L64.4361 39.4995L64.1351 36.1268Z" fill="#516742"/>
<path d="M62.7117 35.3065L63.275 34.9775L64.6974 35.7989L64.1351 36.1268L62.7117 35.3065Z" fill="#516742"/>
<path d="M64.1351 36.1268L64.4362 39.4994L62.7031 38.4985L62.7117 35.3065L64.1351 36.1268Z" fill="#2B3623"/>
<path d="M20.5627 17.8552L20.5606 18.4357C20.5606 18.4411 20.5627 17.8584 20.5627 17.8584C20.5627 17.8552 20.5627 17.8552 20.5627 17.8552Z" fill="#37462D"/>
<path d="M20.5627 17.8584L20.5606 18.4411C20.5562 18.4669 20.5584 17.8842 20.5584 17.8842C20.5627 17.8584 20.5627 17.8584 20.5627 17.8584Z" fill="#39492F"/>
<path d="M20.5584 17.8842L20.5563 18.4669C20.5509 18.4905 20.5541 17.9068 20.5541 17.9068C20.5584 17.8842 20.5584 17.8842 20.5584 17.8842Z" fill="#3B4B30"/>
<path d="M20.5541 17.9079L20.5509 18.4906C20.5391 18.5121 20.5412 17.9294 20.5412 17.9294C20.5541 17.9079 20.5541 17.9079 20.5541 17.9079Z" fill="#3D4D32"/>
<path d="M20.5412 17.9304L20.5391 18.5132C20.5251 18.5347 20.5262 17.953 20.5262 17.953C20.5412 17.9304 20.5412 17.9304 20.5412 17.9304Z" fill="#3F5033"/>
<path d="M20.5262 17.953L20.5251 18.5346C20.5176 18.5422 20.509 18.5518 20.5025 18.5583L20.5036 17.9766C20.5133 17.9691 20.5208 17.9616 20.5262 17.953Z" fill="#415235"/>
<path d="M20.5036 17.9766L20.5025 18.5583C20.4799 18.5755 20.4832 17.9949 20.4832 17.9949C20.5036 17.9766 20.5036 17.9766 20.5036 17.9766Z" fill="#435537"/>
<path d="M20.4832 17.9949L20.481 18.5744L13.5304 23.6941L13.5325 23.1125L20.4832 17.9949Z" fill="#485C3B"/>
<path d="M13.5325 23.1125L13.5304 23.6941L10.0384 21.6772L10.0405 21.0977L13.5325 23.1125Z" fill="#33412A"/>
<path d="M20.3542 17.5918C20.5681 17.7143 20.6251 17.8906 20.4832 17.9949L13.5315 23.1125L10.0395 21.0977L17.8943 16.5306C18.0653 16.4317 18.391 16.4586 18.6179 16.5898L20.3542 17.5918Z" fill="#516742"/>
<path d="M73.3983 32.5123L73.394 33.5981C73.394 33.6056 73.3983 32.5209 73.3983 32.5209C73.3983 32.5123 73.3983 32.5123 73.3983 32.5123Z" fill="#37462D"/>
<path d="M73.3983 32.5219L73.394 33.6067C73.394 33.625 73.3929 33.6401 73.3886 33.6562L73.3929 32.5703C73.3962 32.5531 73.3983 32.537 73.3983 32.5219Z" fill="#39492F"/>
<path d="M73.393 32.5692L73.3887 33.6551C73.3876 33.6701 73.3833 33.6852 73.3769 33.7002L73.3779 32.6133C73.3855 32.5982 73.3908 32.5843 73.393 32.5692Z" fill="#3B4B30"/>
<path d="M73.379 32.6133L73.3779 33.7002C73.3726 33.7142 73.365 33.7271 73.3586 33.7422L73.3597 32.6563C73.3693 32.6423 73.3747 32.6283 73.379 32.6133Z" fill="#3D4D32"/>
<path d="M73.3596 32.6563L73.3586 33.7422C73.3489 33.7572 73.3403 33.7691 73.3306 33.7841L73.3317 32.6961C73.3435 32.6832 73.3532 32.6703 73.3596 32.6563Z" fill="#3F5033"/>
<path d="M73.3317 32.6961L73.3306 33.7841C73.3177 33.7991 73.3048 33.8142 73.2887 33.8282L73.293 32.7412C73.308 32.7273 73.322 32.7122 73.3317 32.6961Z" fill="#415235"/>
<path d="M73.2929 32.7402L73.2886 33.8271C73.2779 33.8389 73.265 33.8475 73.251 33.8583L73.2543 32.7724C73.2693 32.7617 73.2811 32.752 73.2929 32.7402Z" fill="#435537"/>
<path d="M73.2532 32.7725L73.251 33.8583L60.2604 43.4225L60.2615 42.3367L73.2532 32.7725Z" fill="#1D1D1B"/>
<path d="M60.2614 42.3367L60.2604 43.4225L53.7355 39.6553L53.7398 38.5695L60.2614 42.3367Z" fill="#33412A"/>
<path d="M73.2533 32.7724L70.272 34.9678L70.0387 35.1377L66.0027 38.1093L65.7694 38.2802L60.2615 42.3356L53.7399 38.5662L60.0067 34.9259L60.2701 34.7743L64.8437 32.1145L65.1071 31.9629L68.4163 30.0373C68.7367 29.8503 69.3431 29.9019 69.7699 30.1481L73.0146 32.022C73.4124 32.2531 73.5178 32.5789 73.2533 32.7724Z" fill="#82A66A"/>
<path d="M66.0026 38.1104L65.7704 38.2813L60.0067 34.927L60.2701 34.7754L66.0026 38.1104Z" fill="#5C754B"/>
<path d="M70.2719 34.9689L70.0386 35.1388L64.8436 32.1156L65.107 31.9629L70.2719 34.9689Z" fill="#5C754B"/>
<path d="M58.465 40.6929L49.1889 35.3022C49.0437 35.2183 48.9545 35.0388 48.9523 34.784L58.2284 40.1736C58.2284 40.4295 58.3198 40.6079 58.465 40.6929Z" fill="#33412A"/>
<path d="M53.1603 28.4354C53.013 28.3494 52.8088 28.3623 52.583 28.4924L49.75 30.1276C49.3039 30.3857 48.9426 31.0125 48.9426 31.5253L48.9523 34.784L58.2284 40.1736L58.2188 36.9159C58.2166 36.4031 58.5779 35.7785 59.024 35.5204L61.8591 33.883C62.0849 33.7529 62.2881 33.7411 62.4365 33.8261L53.1603 28.4354Z" fill="#405234"/>
<path d="M61.8591 33.8819C62.3075 33.6239 62.6709 33.8314 62.6709 34.3442L62.6827 37.6029C62.6827 38.1157 62.3214 38.7425 61.8753 39.0006L59.0391 40.638C58.5929 40.896 58.2295 40.6874 58.2285 40.1746L58.2188 36.917C58.2166 36.4042 58.5779 35.7795 59.024 35.5215L61.8591 33.8819Z" fill="#5C754B"/>
<path d="M61.8903 35.63L61.5097 35.4118C61.2538 35.2634 60.8991 35.286 60.5077 35.5086C59.7229 35.959 59.0843 37.0643 59.0843 37.9738C59.0843 38.4318 59.2466 38.7543 59.5068 38.9048L59.8884 39.1199C59.6272 38.9726 59.4627 38.65 59.4627 38.192C59.4627 37.2814 60.1013 36.1773 60.8883 35.7279C61.2786 35.5032 61.6323 35.4817 61.8903 35.63Z" fill="#445A36"/>
<path d="M62.3117 36.5579C62.3117 35.6494 61.6742 35.2742 60.8894 35.7268C60.1024 36.1773 59.4637 37.2815 59.4637 38.191C59.4637 39.1005 60.1024 39.4736 60.8894 39.0221C61.6742 38.5737 62.3117 37.4707 62.3117 36.5579Z" fill="#607A4E"/>
<path d="M62.2032 35.6828L61.8473 35.4785C61.5753 35.3215 61.2011 35.3441 60.7915 35.5806C59.9605 36.0569 59.2896 37.2223 59.2896 38.1813C59.2896 38.6641 59.4584 39.0049 59.7336 39.1629L60.0916 39.3683C59.8175 39.2113 59.6465 38.8705 59.6465 38.3867C59.6465 37.4266 60.3185 36.2622 61.1485 35.786C61.5592 35.5494 61.9333 35.5269 62.2032 35.6828Z" fill="#607A4E"/>
<path d="M62.6483 36.6633C62.6483 35.7032 61.9763 35.3097 61.1474 35.786C60.3174 36.2622 59.6454 37.4266 59.6454 38.3866C59.6454 39.3489 60.3174 39.7424 61.1474 39.2661C61.9763 38.7898 62.6483 37.6244 62.6483 36.6633Z" fill="#94BD78"/>
<path d="M60.2808 37.018C60.0174 37.4739 59.8701 37.962 59.8701 38.3856C59.8701 38.7683 59.9873 39.0468 60.2034 39.1715C60.412 39.2919 60.7087 39.2575 61.0356 39.0693C61.4043 38.8576 61.7494 38.492 62.015 38.0351C62.2784 37.5771 62.4246 37.0901 62.4246 36.6632C62.4246 36.2827 62.3074 36.0042 62.0935 35.8795C61.8828 35.758 61.5871 35.7935 61.2613 35.9827C60.8926 36.1923 60.5453 36.56 60.2808 37.018Z" fill="#779861"/>
<path d="M62.2247 36.6267L61.9666 36.4784C61.7914 36.3773 61.5484 36.3924 61.2829 36.5461C60.7485 36.8514 60.3152 37.604 60.3152 38.2243C60.3152 38.5361 60.4249 38.7565 60.6012 38.8576L60.8582 39.006C60.6829 38.9038 60.5722 38.6845 60.5722 38.3727C60.5722 37.7524 61.0076 36.9998 61.542 36.6934C61.8097 36.5397 62.0483 36.5257 62.2247 36.6267Z" fill="#445A36"/>
<path d="M62.5107 37.26C62.5107 36.6407 62.0774 36.3837 61.542 36.6934C61.0076 36.9998 60.5722 37.7524 60.5722 38.3727C60.5722 38.9941 61.0076 39.2468 61.542 38.9393C62.0774 38.634 62.5107 37.8803 62.5107 37.26Z" fill="#607A4E"/>
<path d="M62.4386 36.6633L62.1946 36.5235C62.0097 36.4171 61.757 36.4332 61.4753 36.5934C60.912 36.917 60.4507 37.7126 60.4507 38.3662C60.4507 38.6963 60.5679 38.9285 60.755 39.035L60.9991 39.1736C60.8131 39.0683 60.6959 38.835 60.6959 38.5049C60.6959 37.8513 61.1539 37.0579 61.7194 36.7321C62 36.5708 62.2537 36.5558 62.4386 36.6633Z" fill="#607A4E"/>
<path d="M62.7418 37.332C62.7418 36.6772 62.2827 36.4085 61.7193 36.7321C61.1538 37.0578 60.6958 37.8513 60.6958 38.5049C60.6958 39.1597 61.1538 39.4295 61.7193 39.1038C62.2827 38.7802 62.7418 37.9878 62.7418 37.332Z" fill="#94BD78"/>
<path d="M61.1291 37.5728C60.9474 37.8846 60.8485 38.2157 60.8485 38.506C60.8485 38.7683 60.928 38.9575 61.0743 39.0403C61.2162 39.1253 61.4194 39.0995 61.6408 38.9726C61.8914 38.8275 62.1279 38.577 62.3074 38.2652C62.4902 37.9545 62.5891 37.6222 62.5891 37.332C62.5891 37.0718 62.5085 36.8815 62.3623 36.7987C62.2203 36.7148 62.0182 36.7385 61.7957 36.8664C61.5452 37.0094 61.3097 37.2621 61.1291 37.5728Z" fill="#1D1D1B"/>
<path d="M75.5894 52.4041L78.732 51.8203L78.7255 54.707L76.7075 55.8616L75.5894 52.4041Z" fill="#3D4E32"/>
<path d="M58.2531 42.7151L62.0096 40.5348L61.9978 45.0309L58.2402 47.2123L58.2531 42.7151Z" fill="#3D4E32"/>
<path d="M58.2531 42.7151L58.2402 47.2123L55.9459 44.4267L55.9567 41.5389L58.2531 42.7151Z" fill="#405234"/>
<path d="M55.9567 41.5389L58.6595 39.994L62.0096 40.5348L58.2531 42.7151L55.9567 41.5389Z" fill="#607A4E"/>
<path d="M58.2531 42.7151L62.0096 40.5348L74.8637 47.9541L71.1062 50.1377L58.2531 42.7151Z" fill="#82A66A"/>
<path d="M71.1062 50.1377L74.8637 47.9541L74.8519 52.4503L71.0954 54.6328L71.1062 50.1377Z" fill="#3D4E32"/>
<path d="M71.1062 50.1377L71.0954 54.6328L58.2402 47.2124L58.2531 42.7151L71.1062 50.1377Z" fill="#2B3623"/>
<path d="M71.1062 50.1377L74.8637 47.9541L78.732 51.8203L76.7162 52.9739L71.1062 50.1377Z" fill="#607A4E"/>
<path d="M76.9827 53.1298L78.4654 52.2794L78.4611 54.55L76.9742 55.4004L76.9827 53.1298Z" fill="#2B3623"/>
<path d="M71.1062 50.1377L76.7162 52.9738L76.7076 55.8616L71.0954 54.6327L71.1062 50.1377Z" fill="#405234"/>
<path d="M64.3759 42.5194C64.3168 42.4861 64.2362 42.4926 64.1512 42.5431L63.9513 42.656C63.7771 42.7581 63.6363 43.0011 63.6363 43.2L63.6395 43.4344L72.5598 48.6175L72.5576 48.3842C72.5576 48.1821 72.6995 47.9391 72.8726 47.8402L73.0704 47.7252C73.1586 47.6736 73.2371 47.6703 73.2951 47.7026L64.3759 42.5194Z" fill="#607A4E"/>
<path d="M73.0705 47.7273C73.2457 47.6262 73.3855 47.7069 73.3887 47.9068V48.1412L72.5598 48.6196L72.5576 48.3863C72.5576 48.1842 72.6995 47.9412 72.8726 47.8423L73.0705 47.7273Z" fill="#2B3623"/>
<path d="M62.9116 43.415C62.8536 43.3817 62.7751 43.3881 62.688 43.4376L62.487 43.5526C62.3128 43.6526 62.1719 43.8945 62.1741 44.0945V44.3289L71.0954 49.5142V49.2787C71.0944 49.0788 71.2341 48.8358 71.4083 48.7369L71.6061 48.6218C71.6943 48.5702 71.7717 48.5649 71.833 48.5993L62.9116 43.415Z" fill="#607A4E"/>
<path d="M71.6061 48.6229C71.7813 48.5218 71.9232 48.6003 71.9232 48.8024V49.0368L71.0954 49.5153V49.2798C71.0943 49.0798 71.2341 48.8368 71.4083 48.7379L71.6061 48.6229Z" fill="#2B3623"/>
<path d="M7.52368 20.7763L9.45567 19.6818L46.6559 35.6441L40.0858 39.4651L7.52368 20.7763Z" fill="#4F6541"/>
<path d="M44.3551 36.1999L50.9284 32.3811L62.8052 38.5856L56.2309 42.4066L44.3551 36.1999Z" fill="#516742"/>
<path d="M56.2309 42.4066L62.8052 38.5856L70.1407 44.9965L63.5675 48.8164L56.2309 42.4066Z" fill="#5B744A"/>
<path d="M56.9146 42.47L62.7579 39.0769L69.458 44.9299L63.6158 48.3272L56.9146 42.47Z" fill="#ACE388"/>
<path opacity="0.4" d="M65.4876 41.7948L65.1759 41.5271L63.646 47.9069L64.8824 47.193L66.0026 42.2657L65.4876 41.7948Z" fill="white"/>
<path opacity="0.4" d="M62.7461 39.4521L61.9946 39.8876L60.5399 45.1869L63.1621 47.4865L64.6856 41.1089L62.7461 39.4521Z" fill="white"/>
<path d="M63.5675 48.8164L70.1407 44.9965L75.297 52.1783L68.7237 55.9982L63.5675 48.8164Z" fill="#5F794E"/>
<path d="M64.1502 48.9411L70.0279 45.5244L74.7122 52.0547L68.8366 55.4714L64.1502 48.9411Z" fill="#ACE388"/>
<path opacity="0.4" d="M70.0795 54.3952L71.2718 53.7072L72.3265 49.1755L71.5825 48.1262L70.0795 54.3952Z" fill="white"/>
<path opacity="0.4" d="M69.9526 45.8276L68.4872 46.6738L66.9509 52.2762L68.913 55.0693L69.428 54.7726L71.1578 47.5274L69.9526 45.8276Z" fill="white"/>
<path d="M75.5078 59.8525L78.732 57.9474L79.3545 61.3512L76.127 63.2563L75.5078 59.8525Z" fill="#536A44"/>
<path d="M68.7237 55.9982L75.297 52.1783L78.732 57.9474L75.5077 59.8525L68.7237 55.9982Z" fill="#5C754B"/>
<path d="M56.2309 42.4066L63.5675 48.8164L68.7237 55.9982L75.5077 59.8525L76.127 63.2563L56.1943 55.6316L43.5617 48.3391L40.0654 46.3189L7.51294 24.7714L7.52369 20.7763L40.0858 39.4651L44.3551 36.1999L56.2309 42.4066Z" fill="#33412A"/>
<path d="M63.6879 49.669V53.2986L68.0991 55.8165L63.6879 49.669Z" fill="#ACE388"/>
<path d="M63.1869 49.0142L56.39 43.0732L56.004 48.91L63.1869 53.0126V49.0142Z" fill="#ACE388"/>
<path d="M62.9019 59.7988L66.0445 59.2139L66.037 62.1006L64.0201 63.2563L62.9019 59.7988Z" fill="#3D4E32"/>
<path d="M45.5657 50.1109L49.3222 47.9284L49.3093 52.4246L45.5528 54.606L45.5657 50.1109Z" fill="#3D4E32"/>
<path d="M45.5657 50.1109L45.5528 54.606L43.2585 51.8204L43.2649 48.9326L45.5657 50.1109Z" fill="#405234"/>
<path d="M43.265 48.9325L45.97 47.3886L49.3222 47.9283L45.5657 50.1108L43.265 48.9325Z" fill="#607A4E"/>
<path d="M45.5657 50.1109L49.3221 47.9284L62.1752 55.3478L58.4187 57.5314L45.5657 50.1109Z" fill="#82A66A"/>
<path d="M58.4187 57.5314L62.1752 55.3478L62.1612 59.8439L58.4058 62.0275L58.4187 57.5314Z" fill="#3D4E32"/>
<path d="M58.4187 57.5314L58.4058 62.0275L45.5528 54.606L45.5657 50.1109L58.4187 57.5314Z" fill="#33412A"/>
<path d="M45.9538 54.377L45.9624 50.8022L58.0177 57.7614L58.008 61.3362L45.9538 54.377Z" fill="#33412A"/>
<path d="M58.4187 57.5314L62.1752 55.3478L66.0445 59.2139L64.0276 60.3675L58.4187 57.5314Z" fill="#607A4E"/>
<path d="M64.2932 60.5235L65.7769 59.6731L65.7704 61.9458L64.2878 62.7952L64.2932 60.5235Z" fill="#1D1D1B"/>
<path d="M58.4187 57.5313L64.0276 60.3675L64.0201 63.2563L58.4058 62.0275L58.4187 57.5313Z" fill="#405234"/>
<path d="M73.6791 50.2719L73.4123 49.8102L67.2548 53.3689L67.5216 53.8306L73.6791 50.2719Z" fill="#5F794E"/>
<path d="M2.63834 28.4558C2.4588 28.5386 2.15776 28.5074 1.94274 28.3816L0.206423 27.3796C0.0720328 27.3033 0.00107504 27.2044 0.00107504 27.1162L0 27.6989C0 27.786 0.0709577 27.8838 0.203197 27.9602L1.94059 28.9643C2.15454 29.0869 2.45665 29.1181 2.63619 29.0374L11.4479 24.9928L11.4522 24.4134L2.63834 28.4558Z" fill="#33412A"/>
<path d="M11.4533 24.4145L2.63836 28.4558C2.45882 28.5386 2.15778 28.5074 1.94276 28.3816L0.206443 27.3796C-0.0204073 27.2485 -0.0666373 27.0614 0.105382 26.9603L7.96128 22.3954L11.4533 24.4145Z" fill="#516742"/>
<path d="M51.439 49.5249C51.381 49.4916 51.3025 49.4959 51.2154 49.5464L51.0133 49.6614C50.8413 49.7625 50.7015 50.0044 50.7015 50.2054V50.4377L59.6228 55.623V55.3876C59.6218 55.1887 59.7626 54.9446 59.9357 54.8468L60.1367 54.7317C60.2217 54.6801 60.3023 54.6769 60.3593 54.7092L51.439 49.5249Z" fill="#607A4E"/>
<path d="M60.1368 54.7328C60.3088 54.6317 60.4507 54.7102 60.4507 54.9123V55.1467L59.6229 55.6251V55.3897C59.6218 55.1908 59.7626 54.9467 59.9357 54.8489L60.1368 54.7328Z" fill="#2B3623"/>
<path d="M49.9747 50.4205C49.9178 50.3882 49.8403 50.3925 49.7511 50.443L49.5522 50.5581C49.378 50.657 49.2383 50.9 49.2383 51.0999V51.3343L58.1586 56.5197V56.2853C58.1575 56.0832 58.2994 55.8423 58.4736 55.7413L58.6735 55.6262C58.7585 55.5768 58.8391 55.5714 58.8972 55.6047L49.9747 50.4205Z" fill="#607A4E"/>
<path d="M58.6735 55.6262C58.8445 55.5284 58.9886 55.6058 58.9886 55.8057V56.0412L58.1596 56.5196V56.2852C58.1586 56.0831 58.3005 55.8423 58.4747 55.7412L58.6735 55.6262Z" fill="#2B3623"/>
<path d="M59.5863 36.5365L52.2755 32.6295C52.0045 32.4843 51.7605 32.479 51.5809 32.5908L46.8848 35.5194C47.0633 35.4097 47.3084 35.413 47.5794 35.5592L54.8912 39.4662C55.4309 39.7554 55.8685 40.494 55.8664 41.1186L60.5625 38.1878C60.5646 37.5632 60.1271 36.8257 59.5863 36.5365Z" fill="#82A66A"/>
<path d="M54.8912 39.4661C55.4309 39.7543 55.8685 40.4939 55.8664 41.1186L46.5988 36.173C46.5988 35.5398 47.0386 35.271 47.5794 35.5591L54.8912 39.4661Z" fill="#607A4E"/>
<path d="M52.64 36.0881L52.6432 36.5332C52.6432 36.8353 52.8421 37.1384 53.2389 37.3685C54.0366 37.8319 55.3343 37.8319 56.1406 37.3685C56.5416 37.1331 56.7427 36.8277 56.7427 36.5213L56.7416 36.0741C56.7427 36.3816 56.5416 36.688 56.1363 36.9202C55.3332 37.3836 54.0334 37.3836 53.2367 36.9202C52.8389 36.6901 52.6432 36.3902 52.64 36.0881Z" fill="#445A36"/>
<path d="M53.2464 35.2419C52.4422 35.7053 52.4368 36.4569 53.2356 36.9213C54.0323 37.3847 55.3321 37.3847 56.1352 36.9213C56.9394 36.4569 56.9415 35.7064 56.146 35.2419C55.3472 34.7786 54.0506 34.7786 53.2464 35.2419Z" fill="#607A4E"/>
<path d="M52.5292 35.7816V36.202C52.5292 36.5202 52.7389 36.8374 53.155 37.0804C54 37.5717 55.3697 37.5717 56.218 37.0804C56.6437 36.8342 56.8555 36.5106 56.8555 36.188L56.8545 35.7687C56.8555 36.0923 56.6427 36.4149 56.2158 36.6622C55.3697 37.1513 53.9968 37.1513 53.1539 36.6611C52.7378 36.4192 52.5292 36.101 52.5292 35.7816Z" fill="#405234"/>
<path d="M53.1657 34.8904C52.3185 35.3796 52.3131 36.1741 53.1539 36.6611C53.9957 37.1513 55.3697 37.1513 56.2158 36.6621C57.063 36.173 57.0684 35.3785 56.2266 34.8893C55.3847 34.4002 54.014 34.4013 53.1657 34.8904Z" fill="#94BD78"/>
<path d="M54.6838 36.8009C55.2224 36.8009 55.7267 36.6805 56.0987 36.4644C56.4373 36.2687 56.6222 36.0246 56.6255 35.7731C56.6255 35.5247 56.4416 35.2828 56.1105 35.0882C55.7363 34.8721 55.2364 34.7539 54.6988 34.7539C54.1613 34.7539 53.656 34.8721 53.2818 35.0904C52.9421 35.2839 52.7572 35.5301 52.7572 35.7817C52.7572 36.0279 52.9389 36.2719 53.27 36.4644C53.6441 36.6794 54.1452 36.8009 54.6838 36.8009Z" fill="#779861"/>
<path d="M56.3072 34.899L56.2825 35.5699C56.2792 35.8043 56.1255 36.0387 55.8159 36.2182C55.1912 36.5827 54.1795 36.5827 53.5473 36.2182C53.2313 36.0376 53.0764 35.7989 53.0764 35.5602L53.1022 34.8904C53.1022 35.1291 53.2592 35.3667 53.5732 35.5505C54.2042 35.9118 55.2149 35.9118 55.8438 35.5505C56.1513 35.3699 56.3061 35.1355 56.3072 34.899Z" fill="#405234"/>
<path d="M55.8287 34.2389C56.4609 34.6012 56.4631 35.1871 55.8438 35.5505C55.2149 35.9118 54.2042 35.9118 53.5732 35.5505C52.9464 35.1871 52.9421 34.6012 53.5699 34.2389C54.1913 33.8755 55.2041 33.8755 55.8287 34.2389Z" fill="#779861"/>
<path d="M55.3471 31.1737L55.3353 34.8604C55.3353 34.956 55.2708 35.0517 55.1471 35.1248C54.8923 35.2732 54.4816 35.2732 54.2258 35.1248C54.1 35.0517 54.0355 34.9539 54.0355 34.8571L54.0473 31.1705C54.0462 31.2673 54.1096 31.364 54.2376 31.4382C54.4924 31.5866 54.9031 31.5866 55.1579 31.4382C55.2837 31.364 55.346 31.2694 55.3471 31.1737Z" fill="#405234"/>
<path d="M55.1536 30.9071C55.4084 31.0533 55.4116 31.2909 55.159 31.4382C54.9042 31.5866 54.4935 31.5866 54.2387 31.4382C53.9839 31.292 53.9839 31.0533 54.2376 30.9071C54.487 30.7587 54.8977 30.7587 55.1536 30.9071Z" fill="#779861"/>
<path d="M53.7742 31.8736V32.4413L9.36427 32.8627V31.4521L53.7742 31.8736Z" fill="#1D1D1B"/>
<path d="M55.5922 32.4413V31.8736L100 31.4521V32.8627L55.5922 32.4413Z" fill="#1D1D1B"/>
<path d="M54.1892 32.681H55.1751L55.904 58.3215H53.4602L54.1892 32.681Z" fill="#1D1D1B"/>
<path d="M55.1751 31.6339H54.1892L53.4602 5.99341H55.904L55.1751 31.6339Z" fill="#1D1D1B"/>
<path d="M52.64 32.2273V32.6724C52.6432 32.9745 52.84 33.2745 53.2388 33.5078C54.0333 33.9711 55.3342 33.9711 56.1363 33.5078C56.5416 33.2734 56.7415 32.9681 56.7415 32.6606L56.7405 32.2155C56.7415 32.5197 56.5384 32.8272 56.1352 33.0594C55.3331 33.5228 54.0333 33.5228 53.2367 33.0594C52.8389 32.8294 52.64 32.5294 52.64 32.2273Z" fill="#445A36"/>
<path d="M53.2442 31.3811C52.4421 31.8445 52.4367 32.595 53.2356 33.0605C54.0322 33.5239 55.332 33.5239 56.1341 33.0605C56.9383 32.595 56.9415 31.8456 56.1438 31.3811C55.346 30.9167 54.0505 30.9167 53.2442 31.3811Z" fill="#607A4E"/>
<path d="M52.526 31.9209L52.5292 32.3402C52.5292 32.6584 52.7378 32.9756 53.1549 33.2196C54 33.7109 55.3697 33.7109 56.218 33.2196C56.6437 32.9734 56.8555 32.6498 56.8544 32.3273V31.908C56.8544 32.2316 56.6426 32.5541 56.2158 32.8014C55.3665 33.2906 53.9968 33.2906 53.1539 32.7992C52.7378 32.5584 52.5292 32.2391 52.526 31.9209Z" fill="#607A4E"/>
<path d="M53.1656 31.0296C52.3184 31.5188 52.3131 32.3111 53.1538 32.8003C53.9956 33.2917 55.3664 33.2917 56.2157 32.8025C57.0629 32.3112 57.0672 31.5188 56.2254 31.0296C55.3836 30.5404 54.0139 30.5404 53.1656 31.0296Z" fill="#94BD78"/>
<path d="M54.6837 32.938C55.2224 32.938 55.7255 32.8197 56.0986 32.6025C56.4372 32.4069 56.6222 32.1628 56.6222 31.9123C56.6222 31.664 56.4415 31.421 56.1072 31.2275C55.7363 31.0114 55.2331 30.892 54.6977 30.892C54.1591 30.892 53.6548 31.0114 53.2775 31.2275C52.941 31.4231 52.756 31.6693 52.756 31.9188C52.755 32.1671 52.9377 32.4112 53.2689 32.6025C53.6441 32.8186 54.1451 32.938 54.6837 32.938Z" fill="#779861"/>
<path d="M53.3238 31.637V31.9316C53.3238 32.1327 53.4549 32.3327 53.7173 32.4843C54.2451 32.7917 55.1095 32.7917 55.6417 32.4843C55.9083 32.3305 56.0417 32.1273 56.0417 31.9241V31.6295C56.0417 31.8316 55.9083 32.0338 55.6385 32.1897C55.1052 32.4972 54.2451 32.4972 53.7162 32.1897C53.4528 32.0381 53.3238 31.8359 53.3238 31.637Z" fill="#445A36"/>
<path d="M53.7237 31.077C53.1904 31.3845 53.1872 31.8833 53.7162 32.1908C54.2451 32.4983 55.1052 32.4983 55.6385 32.1908C56.1739 31.8833 56.1771 31.3845 55.6481 31.077C55.116 30.7684 54.2569 30.7684 53.7237 31.077Z" fill="#607A4E"/>
<path d="M53.2463 31.4339L53.2485 31.7124C53.2485 31.9231 53.3871 32.136 53.6645 32.2962C54.2247 32.6208 55.1331 32.6208 55.6965 32.2962C55.9771 32.1338 56.119 31.9188 56.119 31.7048V31.4264C56.119 31.6403 55.9771 31.8543 55.6933 32.0177C55.131 32.3413 54.2225 32.3413 53.6645 32.0177C53.3871 31.8564 53.2485 31.6468 53.2463 31.4339Z" fill="#607A4E"/>
<path d="M53.671 30.8426C53.1087 31.1662 53.1066 31.6941 53.6646 32.0188C54.2226 32.3424 55.13 32.3424 55.6933 32.0188C56.2588 31.6941 56.2599 31.1673 55.7019 30.8426C55.1429 30.5179 54.2333 30.5179 53.671 30.8426Z" fill="#1D1D1B"/>
<path d="M43.3574 57.5163L36.4691 53.5631C36.1143 53.3599 35.624 53.39 35.0865 53.6975C34.0028 54.32 33.1244 55.8445 33.1244 57.0991C33.1244 57.7302 33.3459 58.1753 33.706 58.3807L40.5954 62.3318C40.2341 62.1264 40.0137 61.6824 40.0137 61.0524C40.0137 59.7955 40.8921 58.2743 41.9758 57.6507C42.5145 57.3421 43.0015 57.3131 43.3574 57.5163Z" fill="#1D1D1B"/>
<path d="M43.9358 58.7978C43.9358 57.541 43.0606 57.0271 41.9758 57.6496C40.8921 58.2721 40.0137 59.7944 40.0137 61.0513C40.0137 62.3049 40.8921 62.8198 41.9758 62.1973C43.0595 61.5748 43.9358 60.0525 43.9358 58.7978Z" fill="#5C754B"/>
<path d="M41.9791 58.5527L40.9448 59.8407V61.2189L41.9791 61.3114L43.0134 60.0256V58.6462L41.9791 58.5527Z" fill="#74945E"/>
<path d="M42.4898 61.0158C42.4898 60.69 42.2619 60.5578 41.978 60.7212C41.6963 60.8846 41.4673 61.2814 41.4673 61.6082C41.4673 61.935 41.6963 62.0662 41.978 61.9028C42.2619 61.7393 42.4898 61.3426 42.4898 61.0158Z" fill="#1D1D1B"/>
<path d="M41.4544 60.9104C41.4544 60.5846 41.2254 60.4524 40.9438 60.6158C40.661 60.7781 40.4331 61.1759 40.4331 61.5017C40.4331 61.8274 40.661 61.9597 40.9438 61.7973C41.2254 61.6339 41.4544 61.2361 41.4544 60.9104Z" fill="#1D1D1B"/>
<path d="M41.4544 59.545C41.4544 59.2193 41.2254 59.087 40.9438 59.2505C40.661 59.4128 40.4331 59.8095 40.4331 60.1352C40.4331 60.461 40.661 60.5943 40.9438 60.432C41.2254 60.2686 41.4544 59.8708 41.4544 59.545Z" fill="#1D1D1B"/>
<path d="M42.4898 58.2581C42.4898 57.9323 42.2619 57.8011 41.978 57.9635C41.6963 58.1269 41.4673 58.5247 41.4673 58.8505C41.4673 59.1763 41.6963 59.3085 41.978 59.1451C42.2619 58.9817 42.4898 58.5838 42.4898 58.2581Z" fill="#1D1D1B"/>
<path d="M43.524 58.3516C43.524 58.0258 43.2961 57.8936 43.0133 58.057C42.7295 58.2193 42.5005 58.615 42.5005 58.9407C42.5005 59.2665 42.7295 59.3987 43.0133 59.2364C43.2961 59.0751 43.524 58.6773 43.524 58.3516Z" fill="#1D1D1B"/>
<path d="M43.524 59.731C43.524 59.4053 43.2961 59.273 43.0134 59.4365C42.7295 59.5988 42.5027 59.9955 42.5027 60.3202C42.5027 60.646 42.7295 60.7782 43.0134 60.6159C43.2961 60.4524 43.524 60.0557 43.524 59.731Z" fill="#1D1D1B"/>
<path d="M42.4898 59.6374C42.4898 59.3106 42.2619 59.1794 41.978 59.3428C41.6963 59.5063 41.4673 59.903 41.4673 60.2287C41.4673 60.5556 41.6963 60.6867 41.978 60.5233C42.2619 60.3599 42.4898 59.9632 42.4898 59.6374Z" fill="#1D1D1B"/>
<path d="M39.3095 51.7579L40.2503 51.2118L40.7545 56.8164L39.8138 57.3625L39.3095 51.7579Z" fill="#405234"/>
<path d="M36.9454 50.3937L37.8872 49.8475L40.2503 51.2118L39.3096 51.758L36.9454 50.3937Z" fill="#405234"/>
<path d="M39.3095 51.7579L39.8138 57.3625L36.9324 55.6993L36.9453 50.3936L39.3095 51.7579Z" fill="#405234"/>
<path d="M39.3095 51.7579L40.2503 51.2118L40.7545 56.8164L39.8138 57.3625L39.3095 51.7579Z" fill="#516742"/>
<path d="M36.9454 50.3937L37.8872 49.8475L40.2503 51.2118L39.3096 51.758L36.9454 50.3937Z" fill="#516742"/>
<path d="M39.3095 51.7579L39.8138 57.3625L36.9324 55.6993L36.9453 50.3936L39.3095 51.7579Z" fill="#405234"/>
<path d="M43.538 53.4889L38.9429 50.8527C38.7623 50.7484 38.5107 50.7634 38.2344 50.9226C37.6786 51.2408 37.226 52.0224 37.226 52.6696C37.226 52.9932 37.341 53.2222 37.5259 53.3265L42.1188 55.9627C41.9339 55.8584 41.82 55.6294 41.82 55.3058C41.82 54.6586 42.2737 53.877 42.8295 53.5587C43.1047 53.3986 43.3574 53.3835 43.538 53.4889Z" fill="#405234"/>
<path d="M43.8369 54.1479C43.8369 53.5028 43.3864 53.2373 42.8284 53.5588C42.2715 53.877 41.8189 54.6586 41.8189 55.3058C41.8189 55.9509 42.2726 56.2132 42.8284 55.895C43.3864 55.5746 43.8369 54.793 43.8369 54.1479Z" fill="#33412A"/>
<path d="M47.0386 55.9079L43.5477 53.9071C43.4111 53.8275 43.2176 53.8394 43.009 53.9576C42.5854 54.2017 42.2436 54.7951 42.2436 55.2854C42.2436 55.5316 42.3306 55.7058 42.4704 55.7853L45.9581 57.7872C45.8205 57.7066 45.7345 57.5324 45.7345 57.2873C45.7345 56.797 46.0753 56.2035 46.5 55.9595C46.7085 55.8391 46.8988 55.8273 47.0386 55.9079Z" fill="#516742"/>
<path d="M47.2654 56.4078C47.2654 55.9165 46.9214 55.7176 46.5 55.9595C46.0753 56.2035 45.7345 56.797 45.7345 57.2873C45.7345 57.7775 46.0753 57.9786 46.5 57.7345C46.9203 57.4926 47.2654 56.897 47.2654 56.4078Z" fill="#33412A"/>
<path d="M48.7448 57.4893L46.9096 56.4358C46.8376 56.3938 46.7376 56.4003 46.6258 56.4637C46.4021 56.5917 46.2226 56.9045 46.2226 57.1636C46.2226 57.2915 46.2688 57.384 46.3409 57.4259L48.1782 58.4784C48.103 58.4365 48.06 58.3462 48.06 58.2172C48.06 57.9592 48.2395 57.6452 48.4631 57.5173C48.5717 57.4539 48.6728 57.4463 48.7448 57.4893Z" fill="#516742"/>
<path d="M48.8652 57.7517C48.8652 57.4936 48.6835 57.3894 48.4631 57.5162C48.2395 57.6442 48.06 57.9581 48.06 58.2161C48.06 58.472 48.2395 58.5784 48.4631 58.4505C48.6835 58.3236 48.8652 58.0108 48.8652 57.7517Z" fill="#33412A"/>
<path d="M49.9887 58.013L48.6137 57.2271C48.518 57.1733 48.3879 57.1819 48.2449 57.2625C47.9568 57.427 47.7234 57.8345 47.7234 58.1667C47.7234 58.3333 47.7837 58.4527 47.8783 58.5075L49.2544 59.2923C49.1587 59.2375 49.0996 59.1203 49.0996 58.9515C49.0996 58.6161 49.3329 58.2129 49.621 58.0463C49.7662 57.9646 49.8941 57.9581 49.9887 58.013Z" fill="#405234"/>
<path d="M50.1435 58.3527C50.1435 58.0183 49.9091 57.8818 49.621 58.0463C49.3318 58.2129 49.0996 58.6161 49.0996 58.9516C49.0996 59.2849 49.3329 59.4225 49.621 59.2558C49.9102 59.0913 50.1435 58.686 50.1435 58.3527Z" fill="#516742"/>
<path d="M49.3652 58.501C49.2802 58.6494 49.2308 58.8149 49.2308 58.9515C49.2308 59.0633 49.2619 59.1461 49.3179 59.1783C49.3759 59.2106 49.4608 59.1987 49.5555 59.1428C49.6748 59.0751 49.7931 58.9504 49.8802 58.802C49.9651 58.6515 50.0124 58.4892 50.0124 58.3516C50.0124 58.2397 49.9812 58.1559 49.9242 58.1247C49.8705 58.0914 49.7812 58.1043 49.6866 58.1591C49.5684 58.229 49.4523 58.3526 49.3652 58.501Z" fill="#1D1D1B"/>
<path d="M41.7716 50.083L42.3382 49.754L42.6403 53.1277L42.077 53.4556L41.7716 50.083Z" fill="#405234"/>
<path d="M40.3513 49.2615L40.9147 48.9325L42.3382 49.7539L41.7716 50.0829L40.3513 49.2615Z" fill="#405234"/>
<path d="M41.7716 50.0829L42.0769 53.4555L40.3417 52.4546L40.3513 49.2615L41.7716 50.0829Z" fill="#405234"/>
<path d="M41.7716 50.083L42.3382 49.754L42.6403 53.1277L42.077 53.4556L41.7716 50.083Z" fill="#516742"/>
<path d="M40.3513 49.2615L40.9147 48.9325L42.3382 49.7539L41.7716 50.0829L40.3513 49.2615Z" fill="#516742"/>
<path d="M41.7716 50.0829L42.0769 53.4555L40.3417 52.4546L40.3513 49.2615L41.7716 50.0829Z" fill="#2B3623"/>
<path d="M34.9822 54.7435C34.6489 54.8973 34.0867 54.8392 33.6867 54.6059L30.4399 52.7331C30.1904 52.5868 30.056 52.4062 30.0582 52.2428L30.0539 53.3287C30.0539 53.491 30.1861 53.6738 30.4388 53.82L33.6824 55.6918C34.0813 55.9251 34.6457 55.9832 34.9812 55.8294L51.4498 48.2745L51.452 47.1886L34.9822 54.7435Z" fill="#1D1D1B"/>
<path d="M51.4531 47.1887L44.768 50.257L44.4712 50.3925L39.3623 52.733L39.0655 52.8696L34.9822 54.7435C34.6479 54.8972 34.0867 54.8392 33.6867 54.6059L30.4399 52.732C30.0141 52.489 29.9303 52.1363 30.2496 51.9503L33.8695 49.8474L34.1329 49.6926L38.7086 47.036L38.9709 46.8822L44.9271 43.4225L51.4531 47.1887Z" fill="#82A66A"/>
<path d="M46.7129 47.4833L37.4367 42.0937C37.2916 42.0088 37.2002 41.8293 37.2002 41.5755L46.4763 46.9662C46.4774 47.2188 46.5666 47.3984 46.7129 47.4833Z" fill="#33412A"/>
<path d="M41.4082 35.2269C41.2599 35.1409 41.0567 35.1538 40.832 35.2839L37.9969 36.9213C37.5496 37.1804 37.1884 37.8029 37.1916 38.3168L37.2002 41.5755L46.4763 46.9661L46.4656 43.7064C46.4634 43.1925 46.8257 42.57 47.2719 42.312L50.107 40.6746C50.3328 40.5455 50.537 40.5337 50.6843 40.6176L41.4082 35.2269Z" fill="#405234"/>
<path d="M50.107 40.6735C50.5542 40.4155 50.9187 40.623 50.9198 41.1358L50.9294 44.3934C50.9316 44.9063 50.5693 45.5331 50.122 45.7911L47.2859 47.4285C46.8397 47.6865 46.4774 47.4779 46.4763 46.9651L46.4656 43.7053C46.4634 43.1914 46.8257 42.5689 47.2719 42.3109L50.107 40.6735Z" fill="#5C754B"/>
<path d="M50.136 42.4216L49.7575 42.2034C49.5017 42.055 49.1479 42.0765 48.7545 42.3002C47.9707 42.7506 47.3321 43.8548 47.3321 44.7654C47.3321 45.2223 47.4923 45.5459 47.7546 45.6943L48.1352 45.9115C47.875 45.7631 47.7137 45.4406 47.7137 44.9836C47.7137 44.073 48.3502 42.9689 49.1361 42.5184C49.5253 42.2926 49.8801 42.2733 50.136 42.4216Z" fill="#445A36"/>
<path d="M50.5606 43.3495C50.5606 42.4389 49.922 42.0658 49.1372 42.5173C48.3513 42.9689 47.7148 44.073 47.7148 44.9826C47.7148 45.8921 48.3513 46.2641 49.1372 45.8136C49.922 45.3642 50.5606 44.2612 50.5606 43.3495Z" fill="#607A4E"/>
<path d="M50.451 42.4743L50.0951 42.269C49.8242 42.1131 49.4511 42.1346 49.0394 42.3711C48.2105 42.8474 47.5374 44.0128 47.5374 44.9718C47.5374 45.4577 47.7073 45.7964 47.9836 45.9544L48.3384 46.1587C48.0642 46.0017 47.8944 45.6609 47.8944 45.1771C47.8944 44.2171 48.5663 43.0527 49.3963 42.5765C49.8091 42.341 50.1822 42.3184 50.451 42.4743Z" fill="#607A4E"/>
<path d="M50.8983 43.4537C50.8983 42.4936 50.2242 42.1002 49.3963 42.5764C48.5663 43.0527 47.8944 44.2181 47.8944 45.1771C47.8944 46.1383 48.5663 46.5329 49.3963 46.0555C50.2252 45.5814 50.8983 44.416 50.8983 43.4537Z" fill="#94BD78"/>
<path d="M48.5276 43.8097C48.2631 44.2676 48.1201 44.7525 48.1201 45.1772C48.1201 45.5599 48.2363 45.8384 48.4491 45.9631C48.6599 46.0846 48.9577 46.0491 49.2824 45.8599C49.6511 45.6491 49.9984 45.2825 50.2629 44.8256C50.5263 44.3676 50.6736 43.8806 50.6736 43.4538C50.6736 43.0732 50.5553 42.7937 50.3413 42.6711C50.1295 42.5486 49.836 42.584 49.5071 42.7722C49.1404 42.9829 48.7921 43.3517 48.5276 43.8097Z" fill="#779861"/>
<path d="M50.4714 43.4172L50.2145 43.2688C50.0371 43.1678 49.7984 43.1828 49.5307 43.3366C48.9964 43.6419 48.562 44.3945 48.562 45.0159C48.562 45.3266 48.6717 45.5481 48.8501 45.6492L49.106 45.7975C48.9308 45.6943 48.82 45.475 48.82 45.1643C48.82 44.5429 49.2533 43.7903 49.7887 43.4849C50.0554 43.3323 50.2962 43.3172 50.4714 43.4172Z" fill="#445A36"/>
<path d="M50.7596 44.0515C50.7596 43.4301 50.3252 43.1775 49.7898 43.486C49.2544 43.7914 48.8211 44.5439 48.8211 45.1654C48.8211 45.7857 49.2544 46.0384 49.7898 45.7309C50.3242 45.4245 50.7596 44.6719 50.7596 44.0515Z" fill="#607A4E"/>
<path d="M50.6875 43.4537L50.4424 43.315C50.2586 43.2086 50.0037 43.2236 49.7221 43.3838C49.1576 43.7074 48.6996 44.503 48.6996 45.1567C48.6996 45.4868 48.8157 45.719 49.0017 45.8255L49.2458 45.9642C49.0576 45.8577 48.9426 45.6266 48.9426 45.2954C48.9426 44.6417 49.4017 43.8494 49.9683 43.5236C50.2478 43.3645 50.5026 43.3473 50.6875 43.4537Z" fill="#607A4E"/>
<path d="M50.9897 44.1225C50.9897 43.4689 50.5317 43.2001 49.9683 43.5237C49.4017 43.8495 48.9426 44.6429 48.9426 45.2955C48.9426 45.9513 49.4017 46.219 49.9683 45.8954C50.5327 45.5718 50.9897 44.7784 50.9897 44.1225Z" fill="#94BD78"/>
<path d="M49.3759 44.3644C49.1942 44.6751 49.0953 45.0073 49.0953 45.2965C49.0953 45.5589 49.1748 45.747 49.3211 45.8319C49.4651 45.9158 49.6662 45.89 49.8898 45.7631C50.1392 45.6201 50.3758 45.3696 50.5575 45.0579C50.737 44.7461 50.8348 44.4149 50.8348 44.1236C50.8348 43.8634 50.7574 43.6731 50.6101 43.5882C50.4671 43.5065 50.2661 43.5301 50.0425 43.6581C49.7941 43.8021 49.5544 44.0526 49.3759 44.3644Z" fill="#1D1D1B"/>
<path d="M10.2308 8.76717C10.1545 8.52849 9.98462 8.30594 9.79863 8.19736L8.02253 7.17277C7.88706 7.09536 7.77095 7.08783 7.68386 7.13729L6.74529 7.6856C6.83129 7.63399 6.94956 7.64152 7.0818 7.71893L8.8579 8.74352C9.04497 8.84995 9.21268 9.07358 9.29117 9.31333L13.8938 23.6941L14.8323 23.149L10.2308 8.76717Z" fill="#516742"/>
<path d="M8.85897 8.7435C9.04604 8.84993 9.21375 9.07356 9.29224 9.31331L13.8948 23.6941L8.28163 20.4526L6.61412 8.0866C6.56251 7.72214 6.78936 7.54797 7.08287 7.71891L8.85897 8.7435Z" fill="#2B3623"/>
<path d="M45.1453 45.2632C45.1001 45.2632 45.055 45.2503 45.012 45.2266L38.1054 41.2089C37.9807 41.1336 37.9345 40.9702 38.0097 40.8444C38.0829 40.7165 38.2463 40.6735 38.3731 40.7466L45.2786 44.7654C45.4055 44.8406 45.4506 45.003 45.3765 45.1298C45.3281 45.2159 45.2378 45.2632 45.1453 45.2632Z" fill="#1D1D1B"/>
<path d="M39.3622 52.732L39.0655 52.8696L33.8705 49.8474L34.134 49.6937L39.3622 52.732Z" fill="#5C754B"/>
<path d="M44.7679 50.256L44.4712 50.3925L38.7097 47.036L38.972 46.8823L44.7679 50.256Z" fill="#5C754B"/>
<path d="M45.1453 43.8149C45.1001 43.8149 45.055 43.8042 45.012 43.7784L38.1054 39.7596C37.9807 39.6865 37.9345 39.5209 38.0097 39.3951C38.0829 39.2683 38.2463 39.2253 38.3731 39.2994L45.2786 43.3182C45.4055 43.3913 45.4506 43.5537 45.3765 43.6806C45.3281 43.7666 45.2378 43.8149 45.1453 43.8149Z" fill="#1D1D1B"/>
<path opacity="0.4" d="M61.8903 48.2391L59.124 50.3205L60.126 50.8645L62.688 48.9455L61.8903 48.2391Z" fill="white"/>
<path opacity="0.4" d="M59.7884 46.4544L56.6588 48.9325L58.8972 50.2216L61.7269 48.1101L59.7884 46.4544Z" fill="white"/>
<path d="M13.797 21.0127C13.6228 21.1299 13.4411 21.2374 13.2497 21.3267L8.06766 12.1559L7.99133 12.0204C7.98703 12.0086 7.79781 11.6839 7.79781 11.6839C7.79781 11.6807 7.78276 11.6527 7.78276 11.6527L7.76125 11.6087C7.75803 11.6087 7.73115 11.5592 7.73115 11.5592L7.61934 11.3635L7.74835 11.2904L7.83759 11.2367L7.92145 11.1894L7.9795 11.156L8.02251 11.2334L8.24828 11.613L8.36547 11.8119L8.3859 11.842C8.3859 11.8441 8.40203 11.871 8.40203 11.871L8.44073 11.9312L13.797 21.0127Z" fill="#607A4E"/>
<path d="M7.31509 10.0079L7.26134 10.0433C7.25704 10.0433 7.08287 10.1423 7.08287 10.1423L6.95493 10.2154L6.84204 10.0229C6.83774 10.0218 6.81301 9.97131 6.81301 9.97131L6.79044 9.93046L6.77216 9.90573L6.57434 9.56922C6.56789 9.55631 6.49155 9.42515 6.49155 9.42515L1.14392 0.362974C1.31379 0.242561 1.49871 0.133974 1.69008 0.0447388L6.86569 9.20905L6.90225 9.27678L6.9173 9.30151C6.91838 9.30581 6.93558 9.34022 6.93558 9.34022C6.94095 9.34237 7.05384 9.54341 7.05384 9.54341L7.27531 9.93261L7.31509 10.0079Z" fill="#607A4E"/>
<path d="M13.7927 7.66516L8.70523 10.4132L8.53859 10.5024L8.42248 10.5669L8.26981 10.6508L8.12144 10.7271L7.9806 10.8045L7.9505 10.7508L7.66559 10.2551C7.65592 10.2476 7.62044 10.181 7.62044 10.181L7.7559 10.0982L7.89889 10.0111L8.04726 9.92185L8.15692 9.84982L8.32249 9.74983L13.2465 6.72012C13.4379 7.02761 13.6185 7.34692 13.7927 7.66516Z" fill="#607A4E"/>
<path d="M7.31509 11.1883L6.96998 11.4033L6.87859 11.4582C6.86569 11.4678 6.73668 11.5463 6.73668 11.5463L6.71195 11.5624L1.69329 14.6523C1.4987 14.3449 1.317 14.0255 1.14391 13.7073L6.32813 10.9034L6.35394 10.8905L6.48618 10.8206C6.5023 10.8088 6.59369 10.7604 6.59369 10.7604L6.95493 10.5637L7.31509 11.1883Z" fill="#607A4E"/>
<path d="M8.25797 11.9527L8.5375 11.7893C8.72779 11.6775 8.84605 11.442 8.84605 11.1066C8.85143 10.4347 8.37623 9.6122 7.79137 9.27462C7.49464 9.10368 7.22693 9.08755 7.03556 9.19936L6.75281 9.36278C6.9474 9.25097 7.21511 9.26709 7.50754 9.43804C8.09455 9.7767 8.56868 10.5981 8.56652 11.2711C8.56545 11.6065 8.44826 11.8409 8.25797 11.9527Z" fill="#445A36"/>
<path d="M7.50109 11.8775C8.08811 12.2162 8.56546 11.9452 8.56654 11.2711C8.56869 10.5981 8.09456 9.77668 7.50754 9.43801C6.92268 9.09934 6.44533 9.37135 6.44533 10.0433C6.44103 10.7196 6.91408 11.5399 7.50109 11.8775Z" fill="#607A4E"/>
<path d="M8.1053 12.1366L8.36977 11.9829C8.5719 11.8646 8.69661 11.6163 8.69876 11.2647C8.69983 10.5519 8.19883 9.68535 7.57956 9.32841C7.26886 9.14886 6.98825 9.13166 6.78398 9.24992L6.51735 9.40367C6.72377 9.28648 7.00438 9.3026 7.31616 9.48215C7.93435 9.84017 8.43536 10.7056 8.43536 11.4163C8.43106 11.7689 8.30634 12.0184 8.1053 12.1366Z" fill="#607A4E"/>
<path d="M7.30971 12.056C7.92791 12.414 8.43106 12.1258 8.43536 11.4152C8.43536 10.7045 7.93436 9.83798 7.31616 9.48104C6.69797 9.1241 6.19482 9.41223 6.19159 10.1229C6.19052 10.8335 6.68937 11.7001 7.30971 12.056Z" fill="#94BD78"/>
<path d="M7.96124 10.3992C7.76449 10.0606 7.50646 9.78532 7.2323 9.62621C6.98503 9.48537 6.76248 9.45741 6.60443 9.54772C6.44639 9.63696 6.35931 9.84231 6.35823 10.1229C6.35823 10.4379 6.46682 10.7992 6.66141 11.1389C6.85816 11.4797 7.11834 11.7539 7.3925 11.9119C7.6387 12.0549 7.86232 12.0828 8.01929 11.9904C8.17626 11.9012 8.26334 11.6958 8.26442 11.4152C8.26442 11.1013 8.15691 10.74 7.96124 10.3992Z" fill="#779861"/>
<path d="M7.63547 11.7367L7.82146 11.6281C7.94832 11.5528 8.02681 11.3969 8.02681 11.1755C8.02788 10.7282 7.71395 10.1842 7.32476 9.9595C7.13017 9.84661 6.95062 9.83478 6.82591 9.91004L6.63884 10.0186C6.76463 9.94552 6.94202 9.9552 7.13877 10.067C7.52688 10.2917 7.84189 10.8368 7.84189 11.283C7.83974 11.5055 7.76233 11.6636 7.63547 11.7367Z" fill="#445A36"/>
<path d="M7.13448 11.6872C7.52259 11.9119 7.83868 11.7313 7.8419 11.2841C7.8419 10.8379 7.52689 10.2938 7.13878 10.0681C6.75174 9.84444 6.4335 10.024 6.43135 10.4712C6.43135 10.9174 6.74529 11.4614 7.13448 11.6872Z" fill="#607A4E"/>
<path d="M7.53443 11.857L7.71075 11.7538C7.84299 11.6775 7.9247 11.5119 7.92685 11.2786C7.92685 10.8056 7.59571 10.2325 7.18609 9.99598C6.97966 9.8745 6.79367 9.86374 6.65713 9.9433L6.48296 10.0454C6.61627 9.96696 6.80442 9.97771 7.01084 10.097C7.42262 10.3336 7.75375 10.9077 7.75268 11.3807C7.75053 11.6151 7.66882 11.7807 7.53443 11.857Z" fill="#607A4E"/>
<path d="M7.00654 11.8055C7.41724 12.042 7.74946 11.8517 7.75268 11.3797C7.75376 10.9077 7.42154 10.3325 7.01084 10.096C6.60015 9.85947 6.26686 10.0487 6.26578 10.5218C6.26471 10.9948 6.59369 11.5679 7.00654 11.8055Z" fill="#1D1D1B"/>
</svg>
