<svg width="90" height="63" viewBox="0 0 90 63" fill="none" xmlns="http://www.w3.org/2000/svg">
<path d="M35.723 34.7876C30.4994 31.7703 2.32871 13.2699 0.363953 11.3052C0.363953 12.2517 1.94522 13.8917 2.93249 15.0731C3.99483 16.346 4.91683 17.3789 5.41454 18.5261C6.64496 20.6068 7.54574 24.1887 7.54574 24.1887C7.61265 24.2752 31.9338 38.9847 37.0986 41.9645C69.974 60.6557 83.8708 62.9746 83.8708 62.9746L86.1815 60.4893L88.7142 57.9501C88.7142 57.9501 79.3734 59.9883 35.723 34.7876Z" fill="#821211"/>
<path d="M63.3192 52.2109C75.315 57.4197 82.3695 59.6864 86.1815 60.4893L89.9054 58.221C89.9054 58.221 79.3734 59.9883 35.723 34.7876C30.4994 31.7703 2.3287 13.2699 0.363953 11.3052C0.363953 12.2517 1.87015 14.0271 2.82152 15.2379C4.03725 16.7817 5.09633 18.3793 5.99711 19.6668C8.44979 21.2024 16.924 26.3851 23.2801 30.5415C36.0036 38.8623 49.3734 46.1567 63.3192 52.2109Z" fill="#9AA0A4"/>
<path d="M49.331 26.8796C44.1074 23.8639 14.5105 8.40213 9.46313 6.45859C8.54766 6.10284 7.19322 6.25298 6.23859 6.80617L0.930165 9.89201C-0.0130463 10.4403 -0.277407 11.2318 0.339434 11.7621C3.71084 14.6782 30.4994 31.7703 35.7229 34.7876C79.3734 59.9883 89.3897 58.2781 89.9168 58.1883C89.9168 57.8652 92.9814 52.0819 49.331 26.8796Z" fill="#30333A"/>
<path d="M19.1661 23.7627C10.7784 18.3743 2.14915 12.6791 0.329634 11.106C0.272519 11.0554 0.241514 10.9967 0.200718 10.9412C0.28231 10.6132 0.559726 10.2738 1.03949 9.99474L6.34791 6.9089C7.24869 6.3867 8.51664 6.24963 9.36847 6.56621C11.6531 7.44741 19.3472 11.2937 27.4412 15.4598C27.593 15.3081 27.7448 15.1547 27.8949 15.0045C19.6361 10.7503 11.6971 6.77672 9.3701 5.87756C8.51991 5.56098 7.24869 5.69643 6.34791 6.22025L1.03949 9.3061C0.468342 9.63736 0.166449 10.0551 0.164817 10.4386L0.163185 10.8955C0.0669058 10.7536 0 10.6034 0 10.4451V11.1338C0 11.3737 0.10607 11.6037 0.328002 11.7947C2.11815 13.34 10.4928 18.8769 18.7451 24.1854C18.8854 24.045 19.0258 23.9031 19.1661 23.7627Z" fill="#9AA0A4"/>
<path d="M19.2525 23.6761C10.8485 18.2715 2.2323 12.5796 0.469903 11.0489C-0.0930868 10.5643 0.140269 9.82831 1.04105 9.30612L6.34947 6.2203C7.25026 5.69648 8.51984 5.56104 9.37167 5.87762C11.6987 6.77676 19.6377 10.7503 27.8965 15.0045C27.9258 14.9735 27.9536 14.9474 27.9813 14.918C19.7617 10.685 11.8472 6.72454 9.45652 5.80255C8.55084 5.45334 7.18498 5.59694 6.23035 6.15177L0.921927 9.23595C-0.0212849 9.78425 -0.275854 10.5822 0.329563 11.106C2.14908 12.6791 10.7783 18.3743 19.166 23.7626C19.1938 23.7333 19.2232 23.7055 19.2525 23.6761Z" fill="#EDEEF0"/>
<path d="M49.6834 39.2473L62.7105 31.6478L63.6423 35.4451L50.6136 43.0463L49.6834 39.2473Z" fill="#B9BFC2"/>
<path d="M15.3442 18.6843L27.1736 11.7734L62.7104 31.6477L49.6834 39.2473L15.3442 18.6843Z" fill="#EDEEF0"/>
<path d="M15.7098 18.686L27.1752 11.9889L62.3367 31.6511L49.685 39.032L15.7098 18.686Z" fill="#30333A"/>
<path d="M22.6697 15.5462L32.3531 9.95874L35.2284 16.2822L23.1184 23.3547L22.6697 21.1207V15.5462Z" fill="#B9BFC2"/>
<path d="M16.4686 11.9775L26.1896 6.37042L32.3531 9.95886L22.6697 15.5463L16.4686 11.9775Z" fill="#EDEEF0"/>
<path d="M16.8326 11.9791L26.1913 6.58417L31.9778 9.96212L22.6697 15.3309L16.8326 11.9791Z" fill="#30333A"/>
<path d="M49.6834 39.2473L23.1135 23.3351L22.6713 15.5462L16.4703 11.9774L12.6191 20.37C23.7516 28.4248 38.2604 37.0068 50.6201 43.0659L49.6834 39.2473Z" fill="#9AA0A4"/>
<path d="M89.9069 57.5307C89.8841 57.5356 89.8351 57.5437 89.7731 57.5503L89.7747 57.2598C89.778 56.0947 88.1723 50.4256 63.262 34.7434L63.4611 35.5593C86.1096 49.8414 89.3472 55.7715 89.7258 57.5552C88.373 57.7053 79.6915 57.8587 50.4144 42.2957L50.607 43.0822C81.6693 59.5689 89.4451 58.296 89.9053 58.2177C89.9265 58.1769 89.9967 58.0366 89.9983 57.764L89.9999 57.0754C89.9983 57.3512 89.9281 57.4899 89.9069 57.5307Z" fill="#9AA0A4"/>
<path d="M63.4563 34.7026L63.3225 34.781C89.9739 51.5694 89.8842 56.8599 89.7569 57.4441C88.7288 57.5208 79.5986 57.591 50.5581 42.2271L50.4243 42.3054C81.6792 58.9193 89.4452 57.6105 89.9054 57.5322C90.0425 57.2646 92.2683 52.7656 63.4563 34.7026Z" fill="#EDEEF0"/>
<path d="M48.3535 23.1149C48.3323 23.1035 48.2915 23.1133 48.2915 23.1312V23.7579C48.2915 23.7872 48.3649 23.7856 48.3649 23.7579V23.1296C48.3649 23.1312 48.3633 23.1198 48.3535 23.1149Z" fill="#5F5F60"/>
<path d="M46.9109 22.304C46.888 22.2909 46.8489 22.3007 46.8489 22.3203V22.9469C46.8489 22.9763 46.9223 22.9746 46.9223 22.9453V22.3203C46.9223 22.3203 46.919 22.3072 46.9109 22.304Z" fill="#5F5F60"/>
<path d="M45.4651 21.4912C45.4439 21.4782 45.4031 21.488 45.4031 21.5076V22.1341C45.4031 22.1619 45.4765 22.1619 45.4765 22.1325V21.5059C45.4765 21.5076 45.4749 21.4945 45.4651 21.4912Z" fill="#5F5F60"/>
<path d="M44.0209 20.6786C43.9981 20.6671 43.9573 20.6753 43.9573 20.6949V21.3215C43.9573 21.3509 44.0323 21.3509 44.0323 21.3215V20.6949C44.0307 20.6965 44.0291 20.6851 44.0209 20.6786Z" fill="#5F5F60"/>
<path d="M42.5751 19.8675C42.5539 19.8544 42.5131 19.8642 42.5131 19.8838V20.5105C42.5131 20.5382 42.5865 20.5382 42.5865 20.5105V19.8821C42.5865 19.8838 42.5849 19.8724 42.5751 19.8675Z" fill="#5F5F60"/>
<path d="M41.1309 19.0565C41.1096 19.0451 41.0688 19.0532 41.0688 19.0728V19.6979C41.0688 19.7273 41.1423 19.7273 41.1423 19.6979V19.0712C41.1423 19.0728 41.1406 19.0614 41.1309 19.0565Z" fill="#5F5F60"/>
<path d="M39.6867 18.2439C39.6638 18.2325 39.623 18.2407 39.623 18.2602V18.8885C39.623 18.9163 39.6981 18.9163 39.6981 18.8869V18.2602C39.6981 18.2619 39.6949 18.2488 39.6867 18.2439Z" fill="#5F5F60"/>
<path d="M38.2408 17.4328C38.2196 17.4214 38.1788 17.4296 38.1788 17.4491V18.0757C38.1788 18.1051 38.2523 18.1035 38.2523 18.0757V17.4491C38.2523 17.4508 38.2506 17.4377 38.2408 17.4328Z" fill="#5F5F60"/>
<path d="M36.795 16.6218C36.7738 16.6087 36.733 16.6185 36.733 16.6381V16.6365V17.2648C36.733 17.2942 36.8081 17.2925 36.8081 17.2631V16.6365C36.8081 16.6397 36.8048 16.6267 36.795 16.6218Z" fill="#5F5F60"/>
<path d="M35.3541 15.8108C35.3329 15.7993 35.2921 15.8075 35.2921 15.8271V16.4554C35.2921 16.4831 35.3655 16.4831 35.3655 16.4538V15.8271C35.3655 15.8287 35.3639 15.8157 35.3541 15.8108Z" fill="#5F5F60"/>
<path d="M49.6818 23.9945C49.6687 23.9945 49.6573 23.9912 49.6475 23.9863L35.1224 15.8254C35.0881 15.8058 35.0783 15.7634 35.0963 15.7291C35.1142 15.6948 35.1567 15.685 35.1909 15.703L49.716 23.864C49.7503 23.8835 49.7617 23.9243 49.7438 23.9586C49.7291 23.9815 49.7062 23.9945 49.6818 23.9945Z" fill="#5F5F60"/>
<path d="M36.392 30.5038C36.3707 30.4907 36.33 30.4989 36.33 30.5168V31.1435C36.33 31.1729 36.4034 31.1745 36.4034 31.1451V30.5185C36.4034 30.5201 36.4017 30.5087 36.392 30.5038Z" fill="#5F5F60"/>
<path d="M34.9477 29.639C34.9282 29.626 34.8857 29.6325 34.8857 29.6537V29.6521V30.2803C34.8857 30.308 34.9592 30.3097 34.9592 30.2819V29.6554C34.9575 29.6554 34.9575 29.6439 34.9477 29.639Z" fill="#5F5F60"/>
<path d="M33.5036 28.774C33.4824 28.7609 33.4415 28.7675 33.4415 28.7871V29.4138C33.4415 29.4415 33.515 29.4448 33.515 29.4154V28.7887C33.515 28.7903 33.5134 28.7789 33.5036 28.774Z" fill="#5F5F60"/>
<path d="M32.0578 27.9092C32.0366 27.8961 31.9957 27.9043 31.9957 27.9222V28.5489C31.9957 28.5783 32.0692 28.5799 32.0692 28.5522V27.9239C32.0692 27.9255 32.0676 27.9141 32.0578 27.9092Z" fill="#5F5F60"/>
<path d="M30.612 27.0443C30.5924 27.0313 30.55 27.0378 30.5516 27.059V27.0574V27.6857C30.5516 27.7134 30.6234 27.7151 30.6234 27.6873V27.0606C30.6234 27.0623 30.6218 27.0492 30.612 27.0443Z" fill="#5F5F60"/>
<path d="M29.1694 26.1795C29.1482 26.1664 29.1074 26.1729 29.1074 26.1925V26.8191C29.1074 26.8468 29.1808 26.8501 29.1808 26.8207V26.1941C29.1792 26.1974 29.1775 26.1844 29.1694 26.1795Z" fill="#5F5F60"/>
<path d="M27.7236 25.3146C27.7024 25.3015 27.6616 25.3097 27.6616 25.3276V25.9542C27.6616 25.9836 27.735 25.9852 27.735 25.9575V25.3293C27.735 25.3309 27.7334 25.3195 27.7236 25.3146Z" fill="#5F5F60"/>
<path d="M26.2793 24.4496C26.2581 24.4366 26.2173 24.4447 26.2173 24.4643V25.091C26.2173 25.1187 26.2908 25.1203 26.2908 25.0926V24.466C26.2908 24.4676 26.2875 24.4545 26.2793 24.4496Z" fill="#5F5F60"/>
<path d="M24.8335 23.5864C24.8123 23.5733 24.7715 23.5799 24.7715 23.5994V24.2261C24.7715 24.2539 24.845 24.2571 24.845 24.2278V23.6011C24.845 23.6027 24.8433 23.5913 24.8335 23.5864Z" fill="#5F5F60"/>
<path d="M23.3926 22.7215C23.3714 22.7084 23.3306 22.7166 23.3306 22.7346V23.3612C23.3306 23.3889 23.4041 23.3938 23.4041 23.3628V22.7362C23.4024 22.7394 23.3992 22.7264 23.3926 22.7215Z" fill="#5F5F60"/>
<path d="M37.7204 31.4308C37.7073 31.4308 37.6943 31.4275 37.6861 31.421L23.1593 22.7297C23.1266 22.7085 23.1168 22.6661 23.1348 22.6335C23.1544 22.5992 23.1968 22.5894 23.2311 22.609L37.7579 31.3002C37.7905 31.3215 37.8003 31.3639 37.7824 31.3965C37.7677 31.4194 37.7448 31.4308 37.7204 31.4308Z" fill="#5F5F60"/>
<path d="M53.9817 22.5715L56.1683 27.9908L55.1419 30.3032L53.1821 24.3534L53.9817 22.5715Z" fill="#C4CACD"/>
<path d="M53.1821 24.3535L55.142 30.3032L47.3286 34.8431L46.9598 28.0072L53.1821 24.3535Z" fill="#B9BFC2"/>
<path d="M46.9598 28.0072L47.3286 34.843L43.3403 35.4451L43.732 28.5212L46.9598 28.0072Z" fill="#ACB2B4"/>
<path d="M43.732 28.5212L43.3404 35.4451L34.1775 29.9784L36.3968 24.1592L43.732 28.5212Z" fill="#9AA0A4"/>
<path d="M46.653 18.1997L36.3968 24.1593L43.7255 28.531L46.9141 28.0496L53.1625 24.4187L53.9817 22.5715L46.653 18.1997Z" fill="#EDEEF0"/>
<path d="M36.6971 24.1216L46.6171 18.3922L53.7451 22.6448L53.0156 24.2881L46.8195 27.888L43.763 28.3384L36.6971 24.1216Z" fill="#30333A"/>
<path d="M24.0111 24.6324V26.465L32.6289 31.6445V29.8119L24.0111 24.6324Z" fill="#30333A"/>
<path d="M48.6031 39.4774L48.8185 40.6736L45.9269 38.9422V37.8701L48.6031 39.4774ZM42.6273 35.8988V36.9693L45.3051 38.575V37.5029L42.6273 35.8988Z" fill="#30333A"/>
<path d="M24.0111 24.6324V26.465L24.0176 26.4699L25.5744 25.5707L24.0111 24.6324Z" fill="#868B8E"/>
<path d="M2.53583 10.1156L2.5342 10.5317C2.5342 10.5448 2.53256 10.5562 2.52604 10.5693C2.4885 10.6492 2.34654 10.6966 2.20946 10.6754C2.16377 10.6688 2.12298 10.6558 2.0936 10.6362C2.04465 10.6084 2.01691 10.5693 2.01691 10.5301L2.01854 10.114C2.01854 10.1548 2.04628 10.1939 2.0936 10.22C2.12624 10.2396 2.1654 10.2527 2.21109 10.2592C2.34817 10.2804 2.49014 10.2315 2.52767 10.1531C2.5342 10.1401 2.53583 10.1286 2.53583 10.1156Z" fill="url(#paint0_linear_7_13532)"/>
<path d="M2.45904 10.0079C2.52431 10.0454 2.55205 10.0992 2.52757 10.1531C2.49004 10.233 2.34808 10.2803 2.21101 10.2591C2.16532 10.2526 2.12453 10.2395 2.09353 10.2199C2.03152 10.1841 2.00052 10.1302 2.02662 10.0748C2.06252 9.99319 2.20449 9.94751 2.34155 9.97035C2.38724 9.97687 2.42967 9.99156 2.45904 10.0079Z" fill="#E1E7E9"/>
<path d="M2.66803 9.96709V10.127C2.66803 10.1466 2.66313 10.1662 2.65497 10.1842C2.59786 10.3066 2.38572 10.3784 2.17522 10.3441C2.10668 10.3359 2.04793 10.3147 1.99898 10.287C1.92555 10.2445 1.88312 10.1858 1.88312 10.1254V9.96545C1.88312 10.0258 1.92555 10.0846 1.99898 10.127C2.04793 10.1548 2.10668 10.176 2.17685 10.1858C2.38572 10.2201 2.59949 10.1483 2.65661 10.0258C2.66477 10.0046 2.66803 9.98667 2.66803 9.96709Z" fill="url(#paint1_linear_7_13532)"/>
<path d="M2.55217 9.80392C2.65008 9.85939 2.6925 9.94261 2.65497 10.0258C2.59786 10.1466 2.38572 10.2184 2.17685 10.1857C2.10668 10.1759 2.04793 10.1547 1.99898 10.127C1.90433 10.0715 1.85864 9.9883 1.89617 9.90835C1.95166 9.78597 2.16706 9.71418 2.37756 9.74518C2.4461 9.7566 2.50484 9.77781 2.55217 9.80392Z" fill="#E1E7E9"/>
<path d="M2.53583 9.66515L2.5342 9.93933C2.5342 9.95402 2.53256 9.96545 2.52604 9.9785C2.4885 10.0601 2.34654 10.1074 2.20946 10.0846C2.16377 10.0781 2.12298 10.065 2.0936 10.0454C2.04465 10.0177 2.01691 9.98013 2.01691 9.93933L2.01854 9.66351C2.01854 9.70268 2.04628 9.74348 2.0936 9.7696C2.12624 9.78755 2.1654 9.80224 2.21109 9.80714C2.34817 9.82998 2.49014 9.78102 2.52767 9.70268C2.5342 9.68963 2.53583 9.6782 2.53583 9.66515Z" fill="url(#paint2_linear_7_13532)"/>
<path d="M2.45904 9.55912C2.52431 9.59503 2.55205 9.65052 2.52757 9.70437C2.49004 9.78434 2.34808 9.83167 2.21101 9.80882C2.16532 9.80229 2.12453 9.78924 2.09353 9.77129C2.03152 9.73538 2.00052 9.67989 2.02662 9.6244C2.06252 9.54443 2.20449 9.49874 2.34155 9.51995C2.38724 9.52648 2.42967 9.53954 2.45904 9.55912Z" fill="#E1E7E9"/>
<path d="M2.66803 9.58029V9.74022C2.66803 9.7598 2.66313 9.77938 2.65497 9.79896C2.59786 9.91972 2.38572 9.99153 2.17522 9.95726C2.10668 9.94747 2.04793 9.92462 2.00061 9.89851C1.92555 9.85771 1.88312 9.79733 1.88312 9.73695V9.57703C1.88312 9.63904 1.92555 9.69779 1.99898 9.74022C2.04793 9.76796 2.10668 9.78754 2.17685 9.79733C2.38572 9.8316 2.59949 9.7598 2.65661 9.63741C2.66477 9.61782 2.66803 9.59824 2.66803 9.58029Z" fill="url(#paint3_linear_7_13532)"/>
<path d="M2.55217 9.41878C2.65008 9.47263 2.6925 9.55748 2.65497 9.63907C2.59786 9.75982 2.38572 9.83161 2.17685 9.79735C2.10668 9.78756 2.04793 9.76798 1.99898 9.7386C1.90433 9.68476 1.85864 9.59991 1.89617 9.52158C1.95166 9.3992 2.16706 9.32903 2.37756 9.35841C2.4461 9.36983 2.50484 9.38941 2.55217 9.41878Z" fill="#E1E7E9"/>
<path d="M7.36133 7.33L7.3597 7.74616C7.3597 7.75921 7.35806 7.77227 7.35154 7.78369C7.314 7.86366 7.17203 7.91099 7.03495 7.88977C6.98926 7.88324 6.94846 7.86855 6.91746 7.8506C6.87013 7.82123 6.84076 7.78532 6.84076 7.74452L6.84239 7.32837C6.84239 7.36917 6.87176 7.40834 6.91909 7.43445C6.95173 7.45403 6.99089 7.46709 7.03658 7.47198C7.17366 7.49483 7.31564 7.44587 7.35317 7.36754C7.35806 7.35448 7.36133 7.34306 7.36133 7.33Z" fill="url(#paint4_linear_7_13532)"/>
<path d="M7.28459 7.22218C7.34987 7.25971 7.37761 7.31356 7.35313 7.36741C7.3156 7.44737 7.17362 7.49469 7.03654 7.47185C6.99084 7.46695 6.95004 7.4539 6.91904 7.43432C6.85702 7.39842 6.82601 7.34457 6.85213 7.28908C6.8864 7.20912 7.03001 7.1618 7.16709 7.18465C7.21442 7.19117 7.25358 7.20586 7.28459 7.22218Z" fill="#E1E7E9"/>
<path d="M7.49347 7.18144V7.34136C7.49184 7.36094 7.48857 7.37889 7.48041 7.4001C7.4233 7.51922 7.21116 7.59266 7.00066 7.55839C6.93212 7.55023 6.87174 7.52901 6.82442 7.50127C6.75098 7.45885 6.70856 7.39847 6.70856 7.33809V7.17981C6.70856 7.24019 6.75098 7.29893 6.82442 7.34299C6.87337 7.36747 6.93212 7.39031 7.00066 7.4001C7.21116 7.43437 7.42493 7.36257 7.48205 7.23855C7.48857 7.2206 7.49347 7.20102 7.49347 7.18144Z" fill="url(#paint5_linear_7_13532)"/>
<path d="M7.37758 7.01829C7.47386 7.07377 7.51791 7.157 7.48038 7.23859C7.42327 7.36099 7.21114 7.43279 7.00065 7.40015C6.93211 7.39036 6.87337 7.36751 6.82441 7.34304C6.72977 7.28429 6.68408 7.20269 6.72161 7.1211C6.77709 7.00034 6.99249 6.92854 7.20135 6.95954C7.27152 6.97096 7.33026 6.99218 7.37758 7.01829Z" fill="#E1E7E9"/>
<path d="M7.36133 6.87956L7.3597 7.15533C7.3597 7.16675 7.35806 7.17981 7.35154 7.19123C7.314 7.27282 7.17203 7.32014 7.03495 7.2973C6.98926 7.2924 6.94846 7.27771 6.91746 7.25976C6.87013 7.23202 6.84076 7.19613 6.84076 7.1537L6.84239 6.87793C6.84239 6.91872 6.87176 6.95625 6.91909 6.984C6.95173 7.00194 6.99089 7.01663 7.03658 7.02153C7.17366 7.046 7.31564 6.99868 7.35317 6.91872C7.35806 6.90567 7.36133 6.89262 7.36133 6.87956Z" fill="url(#paint6_linear_7_13532)"/>
<path d="M7.28457 6.77179C7.34821 6.80934 7.37758 6.86484 7.3531 6.91871C7.31557 6.99869 7.1736 7.04603 7.03652 7.02318C6.99083 7.01665 6.95004 7.00359 6.91903 6.98563C6.85702 6.94972 6.82602 6.89422 6.85213 6.83872C6.88639 6.75874 7.03 6.71303 7.16707 6.73425C7.2144 6.74078 7.25356 6.75547 7.28457 6.77179Z" fill="#E1E7E9"/>
<path d="M7.49341 6.79472V6.95461C7.49178 6.97255 7.48851 6.99376 7.48035 7.01171C7.42324 7.13407 7.2111 7.20585 7.0006 7.17322C6.93206 7.1618 6.87168 7.14223 6.82436 7.11449C6.75092 7.07207 6.7085 7.01334 6.7085 6.95134V6.79309C6.7085 6.85346 6.75092 6.91219 6.82436 6.95461C6.87168 6.98234 6.93043 7.00192 6.99896 7.01334C7.20947 7.0476 7.42324 6.97582 7.48035 6.85346C7.48851 6.83225 7.49341 6.81267 7.49341 6.79472Z" fill="url(#paint7_linear_7_13532)"/>
<path d="M7.37759 6.6315C7.47386 6.68699 7.51792 6.77022 7.48202 6.85346C7.42328 6.97423 7.21114 7.04603 7.00063 7.01176C6.9321 7.00034 6.87335 6.97912 6.82603 6.95301C6.72975 6.89915 6.68406 6.81429 6.72159 6.73432C6.77707 6.61192 6.99248 6.54174 7.20135 6.57112C7.27152 6.58417 7.33026 6.60376 7.37759 6.6315Z" fill="#E1E7E9"/>
<path d="M5.78168 8.35803V8.56691L4.09271 9.54602V9.33714L5.78168 8.35803Z" fill="#B9BFC2"/>
<path d="M4.09271 9.33713V9.54602L3.83813 9.39751L3.83977 9.19025L4.09271 9.33713Z" fill="#9AA0A4"/>
<path d="M5.78168 8.35799L4.09272 9.3371L3.83978 9.19023L5.52548 8.21112L5.78168 8.35799Z" fill="#EDEEF0"/>
<path d="M5.25945 8.51953C5.23334 8.51953 5.20886 8.50648 5.19744 8.482L2.15079 2.33648C2.13284 2.30221 2.14752 2.25979 2.18343 2.24183C2.21606 2.22552 2.25849 2.2402 2.27644 2.27447L5.32309 8.41999C5.34104 8.45426 5.32635 8.49669 5.29045 8.51464C5.28066 8.5179 5.26924 8.51953 5.25945 8.51953Z" fill="#5F5F60"/>
<path d="M4.26734 9.09399C4.24123 9.09399 4.21838 9.07931 4.20533 9.05483L1.15864 2.90918C1.14233 2.87491 1.15701 2.83248 1.19128 2.81453C1.22555 2.79658 1.26798 2.8129 1.28593 2.8488L4.33098 8.99119C4.3473 9.02709 4.33261 9.06952 4.29834 9.08583C4.29018 9.09073 4.27876 9.09399 4.26734 9.09399Z" fill="#5F5F60"/>
<path d="M22.5914 14.7434C22.5686 14.732 22.5278 14.7401 22.5295 14.7597V15.3862C22.5295 15.414 22.6012 15.4156 22.6028 15.3862L22.6012 14.7597C22.6012 14.7597 22.5996 14.7499 22.5914 14.7434Z" fill="#5F5F60"/>
<path d="M21.144 13.9079C21.1228 13.8949 21.082 13.9046 21.082 13.9226V14.5492C21.082 14.5785 21.1555 14.5785 21.1555 14.5508V13.9226C21.1538 13.9242 21.1538 13.9128 21.144 13.9079Z" fill="#5F5F60"/>
<path d="M19.6949 13.0707C19.6737 13.0576 19.6329 13.0674 19.6329 13.087L19.6346 13.7136C19.6329 13.7429 19.7064 13.7429 19.7064 13.7136V13.087C19.7064 13.0886 19.7047 13.0772 19.6949 13.0707Z" fill="#5F5F60"/>
<path d="M18.2474 12.2369C18.2262 12.2238 18.1854 12.232 18.1854 12.2516V12.8798C18.1854 12.9076 18.2589 12.9076 18.2589 12.8798V12.2499C18.2589 12.2532 18.2572 12.2418 18.2474 12.2369Z" fill="#5F5F60"/>
<path d="M16.8032 11.4014C16.782 11.3884 16.7412 11.3965 16.7412 11.4177V11.4161V12.041C16.7412 12.0704 16.8146 12.0704 16.8146 12.0426V11.4177C16.813 11.4194 16.8114 11.408 16.8032 11.4014Z" fill="#5F5F60"/>
<path d="M32.0855 9.26214C32.0643 9.24909 32.0235 9.25725 32.0235 9.27683V9.90339C32.0235 9.93276 32.0969 9.93276 32.0969 9.90339V9.27846C32.0969 9.28009 32.0953 9.26704 32.0855 9.26214Z" fill="#5F5F60"/>
<path d="M30.6381 8.42667C30.6169 8.41525 30.5744 8.42341 30.5744 8.44299V9.06964C30.5744 9.09738 30.6479 9.09902 30.6479 9.06964V8.44136C30.6479 8.44299 30.6463 8.43156 30.6381 8.42667Z" fill="#5F5F60"/>
<path d="M29.189 7.58945C29.1678 7.57803 29.127 7.58619 29.127 7.60577V8.23242C29.127 8.2618 29.2004 8.2618 29.2004 8.23242V7.60577C29.2004 7.6074 29.1988 7.59598 29.189 7.58945Z" fill="#5F5F60"/>
<path d="M27.7432 6.75397C27.722 6.74255 27.6796 6.74908 27.6796 6.76866V7.39686C27.6796 7.4246 27.7546 7.4246 27.7546 7.39686V6.77029C27.7529 6.77192 27.7513 6.75887 27.7432 6.75397Z" fill="#5F5F60"/>
<path d="M26.2958 5.91837C26.2746 5.90695 26.2338 5.9151 26.2354 5.93469V6.56128C26.2354 6.59066 26.3072 6.59066 26.3072 6.56128V5.93469C26.3072 5.93632 26.3056 5.92489 26.2958 5.91837Z" fill="#5F5F60"/>
<path d="M23.959 14.0565C23.9818 14.0451 24.021 14.0516 24.021 14.0712V14.6994C24.021 14.7271 23.9476 14.7271 23.9476 14.6994L23.9492 14.0728C23.9492 14.0745 23.9508 14.0614 23.959 14.0565Z" fill="#5F5F60"/>
<path d="M25.4081 13.2194C25.4293 13.208 25.4701 13.2161 25.4701 13.2357V13.8622C25.4701 13.89 25.3967 13.8916 25.3967 13.8622V13.2357C25.3967 13.2373 25.3983 13.2259 25.4081 13.2194Z" fill="#5F5F60"/>
<path d="M26.8571 12.3838C26.8784 12.3708 26.9192 12.379 26.9176 12.3985V13.0252C26.9176 13.0545 26.8457 13.0545 26.8457 13.0252V12.3985C26.8457 12.4002 26.8473 12.3887 26.8571 12.3838Z" fill="#5F5F60"/>
<path d="M28.3029 11.5482C28.3242 11.5352 28.365 11.545 28.365 11.5629V12.1912C28.365 12.219 28.2915 12.219 28.2915 12.1912V11.5629C28.2931 11.5646 28.2931 11.5531 28.3029 11.5482Z" fill="#5F5F60"/>
<path d="M29.7487 10.7145C29.7699 10.7014 29.8107 10.7096 29.8107 10.7292V11.3558C29.8107 11.3852 29.7373 11.3852 29.7373 11.3574V10.7292C29.7373 10.7308 29.7406 10.7194 29.7487 10.7145Z" fill="#5F5F60"/>
<path d="M31.1947 9.87897C31.2159 9.86591 31.2583 9.87407 31.2583 9.89365V10.5202C31.2583 10.5496 31.1832 10.5496 31.1832 10.5219V9.89365C31.1832 9.89528 31.1849 9.88386 31.1947 9.87897Z" fill="#5F5F60"/>
<path d="M17.9537 10.5888C17.9749 10.5758 18.0173 10.5839 18.0173 10.6035V11.2301C18.0173 11.2578 17.9423 11.2595 17.9423 11.2301V10.6035C17.9423 10.6051 17.9439 10.5937 17.9537 10.5888Z" fill="#5F5F60"/>
<path d="M19.4012 9.75167C19.4224 9.73862 19.4632 9.74841 19.4632 9.76799V10.393C19.4632 10.4223 19.3898 10.424 19.3898 10.3946V9.76799C19.3898 9.76962 19.3914 9.75657 19.4012 9.75167Z" fill="#5F5F60"/>
<path d="M20.8486 8.91601C20.8714 8.90296 20.9106 8.91112 20.9106 8.9307V9.55741C20.9106 9.58679 20.8372 9.58679 20.8372 9.55904V8.9307C20.8372 8.93234 20.8404 8.92091 20.8486 8.91601Z" fill="#5F5F60"/>
<path d="M22.2976 8.08057C22.3189 8.06751 22.3597 8.07567 22.3597 8.09689V8.09362V8.72036C22.3597 8.74974 22.2862 8.75137 22.2862 8.72199V8.09526C22.2862 8.09689 22.2878 8.0871 22.2976 8.08057Z" fill="#5F5F60"/>
<path d="M23.7418 7.24506C23.763 7.23364 23.8038 7.24017 23.8038 7.26138V7.25974V7.88783C23.8038 7.91556 23.7304 7.91556 23.7304 7.88783V7.26138C23.732 7.26301 23.7337 7.25159 23.7418 7.24506Z" fill="#5F5F60"/>
<path d="M25.1876 6.40952C25.2088 6.39809 25.2496 6.40625 25.2496 6.42584V7.05255C25.2496 7.08193 25.1762 7.08193 25.1762 7.05255V6.42584C25.1762 6.42747 25.1778 6.41605 25.1876 6.40952Z" fill="#5F5F60"/>
<path d="M22.6698 14.923C22.6567 14.923 22.6453 14.9213 22.6355 14.9148L16.6189 11.4553C16.5976 11.4422 16.5846 11.4194 16.5846 11.3949C16.5846 11.3688 16.5976 11.3476 16.6189 11.3345L26.1554 5.83358C26.1782 5.82053 26.2027 5.82053 26.2256 5.83358L32.203 9.31431C32.2242 9.32737 32.2373 9.35021 32.2373 9.37469C32.2373 9.4008 32.2242 9.42202 32.203 9.43507L22.7057 14.9148C22.6942 14.9197 22.6812 14.923 22.6698 14.923ZM16.7951 11.3949L22.6714 14.7728L32.0301 9.37306L26.1913 5.97229L16.7951 11.3949Z" fill="#5F5F60"/>
<path d="M42.3759 26.9383C42.3547 26.9268 42.3155 26.935 42.3155 26.9546V26.953V27.5812C42.3155 27.6089 42.3873 27.6106 42.3873 27.5812V26.9546C42.3873 26.9562 42.3857 26.9432 42.3759 26.9383Z" fill="#5F5F60"/>
<path d="M40.9382 26.0945C40.917 26.0815 40.8779 26.0896 40.8779 26.1092V26.7342C40.8779 26.7636 40.9496 26.7652 40.9496 26.7375V26.1092C40.948 26.1109 40.9464 26.0994 40.9382 26.0945Z" fill="#5F5F60"/>
<path d="M39.499 25.2477C39.4777 25.2347 39.437 25.2428 39.4386 25.2624V25.2608V25.889C39.4386 25.9184 39.5104 25.92 39.5104 25.889V25.2641C39.5104 25.2657 39.5087 25.2526 39.499 25.2477Z" fill="#5F5F60"/>
<path d="M38.0596 24.4023C38.0384 24.3893 37.9976 24.3974 37.9976 24.417V25.0437C37.9976 25.0714 38.071 25.073 38.071 25.0453V24.417C38.071 24.417 38.0678 24.4072 38.0596 24.4023Z" fill="#5F5F60"/>
<path d="M36.622 23.5571C36.6008 23.544 36.56 23.5522 36.56 23.5718V24.1984C36.56 24.2261 36.6334 24.2278 36.6334 24.2V23.5718C36.6334 23.5734 36.6302 23.562 36.622 23.5571Z" fill="#5F5F60"/>
<path d="M43.8022 27.777C43.781 27.7656 43.7402 27.7722 43.7418 27.7934L43.7402 27.7917L43.7418 28.42C43.7402 28.4478 43.8136 28.4494 43.8136 28.42V27.7934C43.8136 27.795 43.812 27.7819 43.8022 27.777Z" fill="#5F5F60"/>
<path d="M52.4821 21.1371C52.4609 21.124 52.4201 21.1322 52.4201 21.1518V21.7768C52.4201 21.8062 52.4935 21.8078 52.4935 21.7784V21.1534C52.4935 21.1534 52.4903 21.142 52.4821 21.1371Z" fill="#5F5F60"/>
<path d="M51.0477 20.2787C51.0265 20.2657 50.9857 20.2739 50.9857 20.2934V20.9201C50.9857 20.9479 51.0591 20.9511 51.0591 20.9217V20.2951C51.0591 20.2967 51.0575 20.2853 51.0477 20.2787Z" fill="#5F5F60"/>
<path d="M49.6133 19.4237C49.5921 19.4106 49.5513 19.4171 49.5513 19.4367V20.065C49.5513 20.0927 49.6247 20.0943 49.6247 20.0666V19.4383C49.6247 19.44 49.6231 19.4286 49.6133 19.4237Z" fill="#5F5F60"/>
<path d="M48.1805 18.5654C48.1576 18.554 48.1168 18.5605 48.1185 18.5801H48.1168L48.1185 19.2067C48.1168 19.2361 48.1903 19.2377 48.1903 19.2083V18.5817C48.1903 18.5833 48.1887 18.5703 48.1805 18.5654Z" fill="#5F5F60"/>
<path d="M46.7478 17.7102C46.7266 17.6988 46.6857 17.7053 46.6857 17.7265V17.7249V18.3515C46.6857 18.3809 46.7592 18.3825 46.7592 18.3532V17.7265C46.7592 17.7282 46.7576 17.7167 46.7478 17.7102Z" fill="#5F5F60"/>
<path d="M53.9017 21.984C53.8805 21.971 53.8397 21.9791 53.8397 21.9987V22.6253C53.8397 22.6531 53.9131 22.6547 53.9131 22.627V22.0003C53.9131 22.002 53.9099 21.9905 53.9017 21.984Z" fill="#5F5F60"/>
<path d="M38.0939 22.5584C38.1152 22.5454 38.1559 22.5535 38.1559 22.5731V23.1998C38.1559 23.2275 38.0825 23.2291 38.0825 23.1998L38.0842 22.5731C38.0842 22.5764 38.0858 22.5633 38.0939 22.5584Z" fill="#5F5F60"/>
<path d="M39.5431 21.7213C39.5643 21.7098 39.6051 21.7164 39.6051 21.7376V22.3626C39.6051 22.392 39.5317 22.3936 39.53 22.3626L39.5317 21.7376C39.5317 21.7392 39.5333 21.7262 39.5431 21.7213Z" fill="#5F5F60"/>
<path d="M40.9905 20.8842C41.0117 20.8728 41.0541 20.8809 41.0525 20.9005V21.5271C41.0525 21.5548 40.9807 21.5565 40.9807 21.5271V20.9005C40.9807 20.9021 40.9823 20.8891 40.9905 20.8842Z" fill="#5F5F60"/>
<path d="M42.4379 20.0502C42.4591 20.0372 42.4999 20.0453 42.4999 20.0649V20.6915C42.4999 20.7209 42.4265 20.7209 42.4265 20.6931V20.0665C42.4281 20.0665 42.4298 20.0551 42.4379 20.0502Z" fill="#5F5F60"/>
<path d="M43.8837 19.2147C43.905 19.2033 43.9457 19.2115 43.9457 19.2294V19.8577C43.9457 19.8855 43.8723 19.8855 43.8723 19.8577V19.2311C43.8723 19.2327 43.8739 19.2213 43.8837 19.2147Z" fill="#5F5F60"/>
<path d="M45.3297 18.3809C45.3509 18.3678 45.3917 18.376 45.3917 18.3955V19.0221C45.3917 19.0515 45.3182 19.0515 45.3182 19.0238V18.3955C45.3182 18.3972 45.3199 18.3858 45.3297 18.3809Z" fill="#5F5F60"/>
<path d="M45.6755 27.4964C45.6967 27.485 45.7375 27.4915 45.7375 27.5111V28.1394C45.7375 28.1672 45.6641 28.1672 45.6641 28.1394V27.5127C45.6641 27.5144 45.6657 27.5013 45.6755 27.4964Z" fill="#5F5F60"/>
<path d="M48.04 26.6283C48.0629 26.6152 48.1036 26.6234 48.102 26.6446V26.643V27.2696C48.102 27.299 48.0286 27.299 48.0286 27.2696L48.0303 26.6446C48.0303 26.6462 48.0319 26.6332 48.04 26.6283Z" fill="#5F5F60"/>
<path d="M49.4891 25.7911C49.5103 25.7797 49.5511 25.7878 49.5511 25.8074V26.4341C49.5511 26.4618 49.4777 26.4635 49.4777 26.4341V25.8074C49.4777 25.8091 49.4793 25.796 49.4891 25.7911Z" fill="#5F5F60"/>
<path d="M50.9366 24.9556C50.9562 24.9425 50.9987 24.9507 50.997 24.9702H50.9987L50.997 25.5968C50.997 25.6262 50.9236 25.6262 50.9236 25.5984V24.9702C50.9252 24.9719 50.9285 24.9605 50.9366 24.9556Z" fill="#5F5F60"/>
<path d="M52.3808 24.1217C52.4037 24.1087 52.4445 24.1185 52.4445 24.1364V24.763C52.4445 24.7924 52.3694 24.7924 52.3694 24.7647V24.1364C52.3694 24.138 52.3726 24.1266 52.3808 24.1217Z" fill="#5F5F60"/>
<path d="M53.3665 23.0203C53.3877 23.0088 53.4285 23.0154 53.4285 23.035V23.6632C53.4285 23.691 53.355 23.691 53.355 23.6632V23.0366C53.355 23.0382 53.3583 23.0252 53.3665 23.0203Z" fill="#5F5F60"/>
<path d="M42.81 22.9598L42.8084 23.2339L39.9689 24.8837L39.9706 24.6112L42.81 22.9598Z" fill="#2B2E33"/>
<path d="M39.9705 24.6112L39.9689 24.8837L38.4692 24.0155V23.743L39.9705 24.6112Z" fill="#25272B"/>
<path d="M42.81 22.9598L39.9706 24.6112L38.4692 23.7431L41.3103 22.0933L42.81 22.9598Z" fill="#30333A"/>
<path d="M47.9128 20.0143L47.9095 20.2869L45.0701 21.9382L45.0717 21.6657L47.9128 20.0143Z" fill="#2B2E33"/>
<path d="M45.0717 21.6657L45.07 21.9382L43.5704 21.0718L43.572 20.7993L45.0717 21.6657Z" fill="#25272B"/>
<path d="M47.9127 20.0143L45.0716 21.6658L43.5719 20.7992L46.4113 19.1478L47.9127 20.0143Z" fill="#30333A"/>
<path d="M47.841 24.1754C47.3302 24.4741 46.4996 24.4741 45.9839 24.1754C45.7261 24.0269 45.5956 23.8295 45.5956 23.6353L45.5923 24.0024C45.5923 24.1966 45.7212 24.3925 45.979 24.5426C46.4931 24.8396 47.3253 24.8396 47.8361 24.5426C48.0906 24.3941 48.2179 24.2015 48.2179 24.009L48.2212 23.6418C48.2212 23.8344 48.0939 24.0286 47.841 24.1754Z" fill="#84898C"/>
<path d="M47.8345 23.1017C47.3204 22.803 46.4898 22.803 45.9774 23.1017C45.4666 23.3987 45.4683 23.8801 45.9839 24.1754C46.498 24.4741 47.3286 24.4741 47.841 24.1754C48.3518 23.8784 48.3501 23.397 47.8345 23.1017Z" fill="#EDEEF0"/>
<path d="M47.4787 20.863C47.1752 21.0392 46.6823 21.0392 46.3755 20.863C46.2205 20.7732 46.1438 20.6557 46.1438 20.5399L46.1422 23.5409C46.1405 23.6567 46.2189 23.7742 46.3723 23.8623C46.6791 24.0386 47.1719 24.0386 47.4771 23.8623C47.6272 23.7742 47.7039 23.66 47.7039 23.5457L47.7072 20.5464C47.7055 20.6606 47.6305 20.7732 47.4787 20.863Z" fill="#84898C"/>
<path d="M47.4754 20.2232C47.1686 20.0469 46.6757 20.0469 46.3722 20.2232C46.067 20.3978 46.0687 20.685 46.3755 20.8629C46.6823 21.0407 47.1751 21.0391 47.4786 20.8629C47.7838 20.685 47.7822 20.3994 47.4754 20.2232Z" fill="#EDEEF0"/>
<path d="M46.8193 20.6034L46.8666 20.574L47.8098 21.1192L47.7625 21.1469L46.8193 20.6034Z" fill="#EDEEF0"/>
<path d="M46.8194 20.6034L47.7626 21.1468L47.2747 21.0701L46.8177 20.8057L46.8194 20.6034Z" fill="#9AA0A4"/>
<path d="M49.9363 21.9447C49.9053 21.9268 49.6801 22.3233 49.7095 22.3412L46.6726 20.5854C46.6415 20.5691 46.6252 20.5348 46.6252 20.4842C46.622 20.3814 46.6938 20.2541 46.7835 20.2019C46.8276 20.1741 46.8716 20.1709 46.8994 20.1888L49.9363 21.9447Z" fill="url(#paint8_linear_7_13532)"/>
<path d="M50.4306 22.4506C50.4372 22.6057 50.0325 22.5175 49.711 22.3413C49.68 22.3233 49.6637 22.2891 49.6621 22.2385C49.6604 22.1357 49.7322 22.01 49.822 21.9578C49.8677 21.93 49.9085 21.9268 49.9395 21.9464C50.2055 22.1047 50.4274 22.3315 50.4306 22.4506Z" fill="#A52F2F"/>
<path d="M46.8602 20.0991L46.9092 20.0698L47.3677 20.334L47.3188 20.3634L46.8602 20.0991Z" fill="#EDEEF0"/>
<path d="M47.3187 20.3634L47.3677 20.334L47.8524 20.822L47.805 20.8497L47.3187 20.3634Z" fill="#D8D9DA"/>
<path d="M47.3187 20.3635L47.8051 20.8499L46.8602 20.3048V20.0991L47.3187 20.3635Z" fill="#9AA0A4"/>
<path d="M48.7091 20.8156L48.7532 20.7911L48.9163 20.8857L48.8739 20.9102L48.7091 20.8156Z" fill="#EDEEF0"/>
<path d="M48.8739 20.9102L48.9164 20.8857L48.9196 21.434L48.8772 21.4601L48.8739 20.9102Z" fill="#B9BFC2"/>
<path d="M48.7091 20.8156L48.8739 20.9103L48.8772 21.4602L48.7124 21.3639L48.7091 20.8156Z" fill="#9AA0A4"/>
<path d="M48.3811 20.6262L48.4219 20.6034L48.5916 20.6981L48.5492 20.7242L48.3811 20.6262Z" fill="#EDEEF0"/>
<path d="M48.5493 20.7242L48.5917 20.6981L48.5933 21.2464L48.5509 21.2725L48.5493 20.7242Z" fill="#B9BFC2"/>
<path d="M48.3827 21.1746L48.3811 20.6263L48.5492 20.7242L48.5508 21.2725L48.3827 21.1746Z" fill="#9AA0A4"/>
<path d="M46.8193 19.7614L46.8666 19.732L47.8098 20.277L47.7625 20.3064L46.8193 19.7614Z" fill="#EDEEF0"/>
<path d="M46.8194 19.7613L47.7626 20.3064L47.2747 20.2281L46.8177 19.9653L46.8194 19.7613Z" fill="#9AA0A4"/>
<path d="M49.9363 21.1027C49.9053 21.0848 49.6801 21.4813 49.7095 21.4993L46.6726 19.7466C46.6415 19.7287 46.6252 19.6928 46.6252 19.6438C46.622 19.541 46.6938 19.4137 46.7835 19.3615C46.8276 19.3338 46.8716 19.3321 46.8994 19.3501L49.9363 21.1027Z" fill="url(#paint9_linear_7_13532)"/>
<path d="M50.4306 21.6102C50.4372 21.7669 50.0325 21.6772 49.711 21.5009C49.68 21.4829 49.6637 21.4487 49.6621 21.3981C49.6604 21.2953 49.7322 21.168 49.822 21.1157C49.8677 21.088 49.9085 21.0847 49.9395 21.1043C50.2055 21.2643 50.4274 21.4911 50.4306 21.6102Z" fill="#A52F2F"/>
<path d="M46.8602 19.2571L46.9092 19.2294L47.3677 19.4954L47.3188 19.5215L46.8602 19.2571Z" fill="#EDEEF0"/>
<path d="M47.3187 19.5215L47.3677 19.4954L47.8524 19.9816L47.805 20.0093L47.3187 19.5215Z" fill="#D8D9DA"/>
<path d="M47.3187 19.5215L47.8051 20.0093L46.8602 19.4627V19.2571L47.3187 19.5215Z" fill="#9AA0A4"/>
<path d="M48.7091 19.9752L48.7532 19.9507L48.9163 20.0453L48.8739 20.0698L48.7091 19.9752Z" fill="#EDEEF0"/>
<path d="M48.8739 20.0698L48.9164 20.0453L48.9196 20.5953L48.8772 20.6181L48.8739 20.0698Z" fill="#B9BFC2"/>
<path d="M48.7091 19.975L48.8739 20.0697L48.8772 20.618L48.7124 20.525L48.7091 19.975Z" fill="#9AA0A4"/>
<path d="M48.3811 19.7875L48.4219 19.7614L48.5916 19.856L48.5492 19.8821L48.3811 19.7875Z" fill="#EDEEF0"/>
<path d="M48.5493 19.8821L48.5917 19.856L48.5933 20.4059L48.5509 20.4304L48.5493 19.8821Z" fill="#B9BFC2"/>
<path d="M48.3827 20.3341L48.3811 19.7875L48.5492 19.8821L48.5508 20.4304L48.3827 20.3341Z" fill="#9AA0A4"/>
<path d="M46.511 18.371L46.8406 18.1801L50.0929 20.0582L49.7633 20.2508L46.511 18.371Z" fill="#EDEEF0"/>
<path d="M49.7634 20.2509L50.093 20.0583L51.1211 21.2186L50.7915 21.4111L49.7634 20.2509Z" fill="#D8D9DA"/>
<path d="M49.7633 20.2509L50.7914 21.4111L46.5094 18.9372L46.511 18.371L49.7633 20.2509Z" fill="#9AA0A4"/>
<path d="M47.3107 20.6049L48.6292 19.8396L48.6243 21.6477L47.3058 22.4147L47.3107 20.6049Z" fill="#B9BFC2"/>
<path d="M45.3067 19.448L46.6269 18.6827L48.6292 19.8397L47.3106 20.605L45.3067 19.448Z" fill="#EDEEF0"/>
<path d="M47.3107 20.6049L47.3058 22.4147L45.3018 21.2577L45.3067 19.4479L47.3107 20.6049Z" fill="#9AA0A4"/>
<path d="M44.7078 21.8208L44.7551 21.7931L45.7 22.3364L45.651 22.3674L44.7078 21.8208Z" fill="#EDEEF0"/>
<path d="M44.7079 21.8209L45.6511 22.3676L45.1648 22.2893L44.7062 22.0249L44.7079 21.8209Z" fill="#9AA0A4"/>
<path d="M47.8246 23.1638C47.7953 23.1458 47.5684 23.5424 47.5978 23.5587L44.561 21.8061C44.53 21.7881 44.5136 21.7539 44.5136 21.7033C44.512 21.6005 44.5822 21.4748 44.6719 21.4226C44.7176 21.3948 44.76 21.3916 44.7878 21.4095L47.8246 23.1638Z" fill="url(#paint10_linear_7_13532)"/>
<path d="M48.3208 23.668C48.3273 23.8247 47.9226 23.7366 47.5995 23.5587C47.5685 23.5424 47.5522 23.5065 47.5522 23.4559C47.5505 23.3531 47.6223 23.2258 47.7104 23.1736C47.7561 23.1475 47.7986 23.1442 47.8296 23.1621C48.0939 23.3237 48.3159 23.5505 48.3208 23.668Z" fill="#A52F2F"/>
<path d="M44.7487 21.3181L44.7992 21.2888L45.2562 21.5548L45.2072 21.5809L44.7487 21.3181Z" fill="#EDEEF0"/>
<path d="M45.2072 21.581L45.2561 21.5549L45.7408 22.0412L45.6935 22.0689L45.2072 21.581Z" fill="#D8D9DA"/>
<path d="M45.2072 21.5809L45.6935 22.0689L44.7486 21.5238V21.3182L45.2072 21.5809Z" fill="#9AA0A4"/>
<path d="M46.5975 22.0346L46.6415 22.0101L46.8047 22.1048L46.7623 22.131L46.5975 22.0346Z" fill="#EDEEF0"/>
<path d="M46.7623 22.1308L46.8047 22.1047L46.808 22.653L46.7655 22.6775L46.7623 22.1308Z" fill="#B9BFC2"/>
<path d="M46.5975 22.0345L46.7623 22.1308L46.7656 22.6774L46.6007 22.5828L46.5975 22.0345Z" fill="#9AA0A4"/>
<path d="M46.2695 21.8452L46.3119 21.8207L46.48 21.917L46.4376 21.9415L46.2695 21.8452Z" fill="#EDEEF0"/>
<path d="M46.4376 21.9415L46.48 21.9171L46.4816 22.4654L46.4409 22.4899L46.4376 21.9415Z" fill="#B9BFC2"/>
<path d="M46.2727 22.3936L46.2695 21.8453L46.4375 21.9416L46.4408 22.4899L46.2727 22.3936Z" fill="#9AA0A4"/>
<path d="M44.7078 20.9803L44.7551 20.9509L45.7 21.496L45.651 21.5254L44.7078 20.9803Z" fill="#EDEEF0"/>
<path d="M44.7079 20.9803L45.6511 21.5253L45.1648 21.447L44.7062 21.1827L44.7079 20.9803Z" fill="#9AA0A4"/>
<path d="M47.8246 22.3216C47.7953 22.3037 47.5684 22.7002 47.5978 22.7182L44.561 20.9639C44.53 20.946 44.5136 20.9117 44.5136 20.8611C44.512 20.7583 44.5822 20.631 44.6719 20.5788C44.7176 20.551 44.76 20.5478 44.7878 20.5657L47.8246 22.3216Z" fill="url(#paint11_linear_7_13532)"/>
<path d="M48.3208 22.8292C48.3273 22.9842 47.9226 22.8961 47.5995 22.7198C47.5685 22.7019 47.5522 22.6676 47.5522 22.617C47.5505 22.5142 47.6223 22.3885 47.7104 22.3363C47.7561 22.3086 47.7986 22.3053 47.8296 22.3249C48.0939 22.4848 48.3159 22.71 48.3208 22.8292Z" fill="#A52F2F"/>
<path d="M44.7487 20.4761L44.7992 20.45L45.2562 20.7126L45.2072 20.7404L44.7487 20.4761Z" fill="#EDEEF0"/>
<path d="M45.2072 20.7404L45.2561 20.7127L45.7408 21.2006L45.6935 21.2267L45.2072 20.7404Z" fill="#D8D9DA"/>
<path d="M45.2072 20.7404L45.6935 21.2266L44.7486 20.6832V20.476L45.2072 20.7404Z" fill="#9AA0A4"/>
<path d="M46.5975 21.1941L46.6415 21.1697L46.8047 21.2643L46.7623 21.2888L46.5975 21.1941Z" fill="#EDEEF0"/>
<path d="M46.7623 21.2888L46.8047 21.2643L46.808 21.8126L46.7655 21.837L46.7623 21.2888Z" fill="#B9BFC2"/>
<path d="M46.5975 21.1941L46.7623 21.2887L46.7656 21.837L46.6007 21.7424L46.5975 21.1941Z" fill="#9AA0A4"/>
<path d="M46.2695 21.0048L46.3119 20.9803L46.48 21.0766L46.4376 21.101L46.2695 21.0048Z" fill="#EDEEF0"/>
<path d="M46.4376 21.1011L46.48 21.0767L46.4816 21.625L46.4409 21.6495L46.4376 21.1011Z" fill="#B9BFC2"/>
<path d="M46.2727 21.5532L46.2695 21.0048L46.4375 21.1011L46.4408 21.6495L46.2727 21.5532Z" fill="#9AA0A4"/>
<path d="M44.3993 19.59L44.7289 19.399L47.9812 21.2774L47.6516 21.4683L44.3993 19.59Z" fill="#EDEEF0"/>
<path d="M47.6517 21.4683L47.9813 21.2774L49.011 22.4393L48.6814 22.6302L47.6517 21.4683Z" fill="#D8D9DA"/>
<path d="M47.6516 21.4683L48.6813 22.6302L44.3978 20.1563L44.3994 19.59L47.6516 21.4683Z" fill="#9AA0A4"/>
<path d="M80.6413 50.8041C81.9794 51.0114 82.7757 51.8044 82.4151 52.5779C82.0561 53.3514 80.6804 53.81 79.3423 53.6027C78.0042 53.3955 77.2095 52.6024 77.5685 51.8289C77.9275 51.0554 79.3015 50.5969 80.6413 50.8041Z" fill="#EDEEF0"/>
<path d="M80.7458 51.4209C80.3345 51.6592 79.6638 51.6592 79.2493 51.4209C79.0388 51.3002 78.936 51.1419 78.936 50.9819L78.9327 52.0622C78.9327 52.2205 79.0372 52.3788 79.2461 52.4996C79.6606 52.7395 80.3313 52.7395 80.7441 52.4996C80.9497 52.3821 81.0509 52.2254 81.0509 52.0688L81.0542 50.9885C81.0558 51.1451 80.9514 51.3018 80.7458 51.4209Z" fill="#84898C"/>
<path d="M80.7425 50.5545C80.3264 50.3146 79.6573 50.3146 79.2445 50.5545C78.83 50.7927 78.8332 51.1811 79.2494 51.421C79.6639 51.6592 80.3346 51.6592 80.7458 51.421C81.1603 51.1811 81.157 50.7944 80.7425 50.5545Z" fill="#EDEEF0"/>
<path d="M80.6952 48.89C80.3672 48.7056 80.1485 48.7464 80.0294 48.7937C80.1942 48.7333 80.4031 48.7594 80.6299 48.8933C81.1521 49.1951 81.5747 49.9262 81.5731 50.5267L81.5698 51.7554C81.5943 51.7407 81.6041 51.7114 81.6041 51.6673C81.6041 51.6396 81.6074 50.4843 81.6074 50.4728C81.6074 49.9817 81.3202 49.2784 80.6952 48.89Z" fill="#D9DBDD"/>
<path d="M81.4099 49.8168C81.3169 49.6079 81.1912 49.4105 81.0427 49.2391C80.9187 49.0971 80.7767 48.978 80.6282 48.8915C80.3655 48.7398 80.1256 48.7251 79.9559 48.8263L78.7336 49.5361C78.905 49.4349 79.1449 49.4496 79.4076 49.6014C79.5561 49.6895 79.6964 49.8086 79.8221 49.9506C79.9706 50.1203 80.0962 50.3178 80.1893 50.5267C80.2921 50.7617 80.3541 51.0081 80.3525 51.2382L80.3492 52.4653L81.5698 51.7555L81.5731 50.5267C81.5747 50.2982 81.5143 50.0502 81.4099 49.8168Z" fill="url(#paint12_linear_7_13532)"/>
<path opacity="0.5" d="M81.0443 49.2392L79.8237 49.9507C79.9722 50.1204 80.0978 50.3179 80.1908 50.5267L81.4114 49.8169C81.3184 49.608 81.1928 49.4105 81.0443 49.2392Z" fill="#DEDDDD"/>
<path d="M79.4092 49.6014C79.1465 49.4497 78.9066 49.435 78.7353 49.5362C78.3551 49.7711 78.4252 50.1383 78.422 51.3361C78.422 51.3752 78.422 51.3916 78.422 51.3916C80.5939 52.6481 79.9624 52.2825 80.2562 52.4506C80.217 52.4261 80.3018 52.4898 80.3508 52.4637L80.3541 51.2365C80.3541 50.636 79.9314 49.9049 79.4092 49.6014Z" fill="#9AA0A4"/>
<path d="M80.829 50.9608L80.8273 51.5548L81.1945 51.341L81.1978 50.7438C81.1978 50.5153 81.1374 50.2689 81.0329 50.0339C80.9399 49.825 80.8143 49.6259 80.6658 49.4578C80.5532 49.3289 80.4275 49.2196 80.2937 49.1364L79.9233 49.3518C80.0571 49.435 80.1827 49.5443 80.297 49.6732C80.4455 49.843 80.5711 50.042 80.6625 50.2509C80.7702 50.4859 80.829 50.7323 80.829 50.9608Z" fill="#84898C"/>
<path d="M81.9483 50.5724C81.9206 50.4908 81.9483 50.3995 82.0136 50.3619C82.0299 50.3538 82.0478 50.3489 82.0625 50.3489L80.9399 50.3554C80.9219 50.3554 80.9056 50.3603 80.8893 50.3701C80.8256 50.4044 80.7963 50.499 80.8256 50.579C80.8469 50.6393 80.8942 50.6769 80.9431 50.6769L82.0658 50.6687C82.0168 50.6671 81.9695 50.6328 81.9483 50.5724Z" fill="#CBCED0"/>
<path d="M82.0136 50.3619C82.0756 50.3276 82.1506 50.3635 82.18 50.4451C82.2077 50.525 82.18 50.6197 82.1164 50.6556C82.0527 50.6915 81.9777 50.6539 81.9483 50.5723C81.9222 50.4908 81.9483 50.3978 82.0136 50.3619Z" fill="#E1E7E9"/>
<path d="M84.0911 50.543C84.0699 50.4842 84.0911 50.4141 84.14 50.3864C84.1515 50.3798 84.1645 50.3749 84.1759 50.3749L82.079 50.388C82.0659 50.3896 82.0529 50.3913 82.0415 50.3978C81.9941 50.4255 81.9729 50.4957 81.9941 50.556C82.0105 50.6001 82.0447 50.6278 82.0823 50.6278L84.1792 50.6148C84.1417 50.6148 84.1074 50.5887 84.0911 50.543Z" fill="#CBCED0"/>
<path d="M84.2641 50.4484C84.2429 50.388 84.1874 50.3603 84.14 50.388C84.0911 50.4158 84.0699 50.4859 84.0911 50.5447C84.1123 50.605 84.1678 50.6344 84.2151 50.6067C84.2641 50.5806 84.2853 50.5088 84.2641 50.4484Z" fill="#E1E7E9"/>
<path d="M84.2364 50.463C84.2217 50.4239 84.1841 50.4043 84.1531 50.4239C84.1188 50.4418 84.1057 50.4875 84.1188 50.5266C84.1319 50.5658 84.1694 50.5853 84.2021 50.5674C84.2364 50.5511 84.2494 50.5038 84.2364 50.463Z" fill="#84898C"/>
<path opacity="0.4" d="M80.1109 52.1895C80.106 52.1895 80.0994 52.1863 80.0945 52.183L78.5949 51.3181C78.5851 51.3132 78.5786 51.3018 78.5786 51.2904L78.5818 50.2884C78.5818 49.9474 78.7581 49.7255 79.0273 49.7255C79.1383 49.7255 79.2574 49.7614 79.3798 49.8332C79.8024 50.0763 80.1451 50.6703 80.1435 51.1533L80.1419 52.1569C80.1419 52.1683 80.1353 52.1781 80.1255 52.183C80.1223 52.1863 80.1158 52.1895 80.1109 52.1895ZM78.6422 51.2724L80.0798 52.103L80.0831 51.1533C80.0847 50.6882 79.7567 50.1204 79.352 49.887C79.2395 49.8234 79.1285 49.7875 79.0306 49.7875C78.794 49.7875 78.6487 49.98 78.6471 50.2884L78.6422 51.2724Z" fill="#9AA0A4"/>
<path d="M25.6935 7.12604L25.6951 7.33328L26.702 7.92236L26.7003 7.71349L25.6935 7.12604Z" fill="#9AA0A4"/>
<path d="M26.7004 7.71346L26.702 7.92236L26.9565 7.77385V7.56494L26.7004 7.71346Z" fill="#B9BFC2"/>
<path d="M25.6935 7.12594L26.7004 7.71344L26.9565 7.56493L25.9481 6.97906L25.6935 7.12594Z" fill="#EDEEF0"/>
<path d="M26.0378 0.699742C26.0182 0.711165 25.9888 0.711165 25.9676 0.699742C25.9579 0.693214 25.9546 0.686687 25.9546 0.678528L25.9562 7.15693C25.9562 7.16508 25.9611 7.17324 25.9709 7.17814C25.9905 7.18956 26.0215 7.18956 26.041 7.17814C26.0508 7.17324 26.0557 7.16508 26.0557 7.15693L26.0525 0.678528C26.0508 0.686687 26.0476 0.693214 26.0378 0.699742Z" fill="url(#paint13_linear_7_13532)"/>
<path d="M26.6955 1.07995C26.6759 1.09137 26.6466 1.09137 26.6253 1.07995C26.6156 1.07505 26.6107 1.06689 26.6107 1.06036L26.6139 7.53874C26.6139 7.5469 26.6188 7.55343 26.6286 7.55832C26.6482 7.57138 26.6792 7.57138 26.6971 7.55832C26.7069 7.55343 26.7134 7.5469 26.7134 7.53874L26.7102 1.06036C26.7102 1.06689 26.7053 1.07505 26.6955 1.07995Z" fill="url(#paint14_linear_7_13532)"/>
<path d="M23.0336 10.7421L22.123 10.2133L22.2846 6.57922L23.1952 7.10794L23.0336 10.7421Z" fill="#9AA0A4"/>
<path d="M23.1952 7.10797L22.2846 6.57927L23.0434 6.14032L23.9524 6.66902L23.1952 7.10797Z" fill="url(#paint15_linear_7_13532)"/>
<path d="M23.9524 6.66888L24.1351 10.1073L23.0336 10.7421L23.1952 7.10786L23.9524 6.66888Z" fill="#B9BFC2"/>
<path d="M23.5476 4.41711L26.6922 4.19519L26.1929 4.31431L23.4611 4.53296L23.5476 4.41711Z" fill="url(#paint16_linear_7_13532)"/>
<path d="M23.5476 4.33556L26.6922 4.11365L26.1929 4.23276L23.4611 4.45142L23.5476 4.33556Z" fill="#EDEEF0"/>
<path d="M23.3077 4.47571C23.1543 4.50019 22.9976 4.47082 22.8916 4.40881C22.8394 4.37943 22.7986 4.3419 22.779 4.29947C22.7692 4.27662 22.7643 4.25704 22.7643 4.23419V6.4699C22.7643 6.49112 22.7675 6.51233 22.7773 6.53518C22.8002 6.57761 22.8377 6.61677 22.8899 6.64615C22.996 6.70816 23.1527 6.7359 23.3077 6.71142C23.5003 6.68205 23.6259 6.58087 23.6276 6.47317V4.23746C23.6276 4.34679 23.5019 4.44471 23.3077 4.47571Z" fill="url(#paint17_linear_7_13532)"/>
<path d="M23.5003 4.05642C23.5525 4.08743 23.5933 4.12496 23.6113 4.16902C23.6749 4.30121 23.5395 4.43992 23.3061 4.47582C23.1527 4.5003 22.996 4.47093 22.89 4.40892C22.8377 4.37954 22.7969 4.34201 22.7774 4.29958C22.717 4.16576 22.8524 4.02868 23.0825 3.99278C23.2359 3.96667 23.3958 3.99604 23.5003 4.05642Z" fill="#EDEEF0"/>
<path d="M22.957 4.67651L22.4543 6.14028L22.5882 6.23492L23.063 4.74179V4.6145L22.957 4.67651Z" fill="#C2C9CC"/>
<path d="M22.9275 4.58362L22.283 6.45367L22.6175 5.95434L23.0613 4.61462C23.0156 4.6081 22.97 4.5983 22.9275 4.58362Z" fill="#EDEEF0"/>
<path d="M24.1547 4.90813C23.1593 5.41401 22.4265 6.09776 22.1557 6.84679L22.1508 8.63531C22.6338 7.30371 24.5724 6.17609 26.8718 5.89215L26.8766 4.10199C25.8698 4.22764 24.9315 4.51322 24.1547 4.90813Z" fill="#30333A"/>
<path d="M22.0235 6.83051L22.0186 8.619L22.1524 8.63531L22.1573 6.84682L22.0235 6.83051Z" fill="#202226"/>
<path d="M26.8521 4.02374C24.5006 4.31421 22.5163 5.46954 22.0235 6.83048L22.1573 6.8468C22.6403 5.51523 24.579 4.38601 26.8782 4.10207L26.8521 4.02374Z" fill="#515661"/>
<path opacity="0.5" d="M26.8766 4.38278V4.35504C26.8064 4.36809 26.7362 4.37952 26.6644 4.38931V4.138C26.6563 4.13963 26.6481 4.14126 26.6383 4.1429V4.39583C26.4376 4.42847 26.2402 4.46437 26.0443 4.5068V4.24897C26.0362 4.25223 26.0264 4.25386 26.0166 4.25549V4.51333C25.8159 4.55902 25.6168 4.60961 25.4226 4.66836V4.40726C25.4145 4.41052 25.4047 4.41542 25.3949 4.41705V4.67815C25.1925 4.74016 24.9934 4.80706 24.8025 4.88213V4.62103C24.7927 4.62593 24.7829 4.62919 24.7748 4.63245V4.89192C24.5692 4.97351 24.3717 5.06326 24.1808 5.15791V4.89845C24.1726 4.90171 24.1628 4.90661 24.1547 4.90987C24.1547 4.90987 24.153 4.90987 24.153 4.9115V5.17097C24.1465 5.17423 24.14 5.17586 24.1351 5.17913C23.9295 5.28357 23.7385 5.3978 23.5574 5.51366V5.25746C23.5476 5.26235 23.5378 5.26888 23.5297 5.27377V5.52998C23.311 5.67358 23.1135 5.82534 22.9357 5.982V5.73886C22.9275 5.74701 22.9161 5.75517 22.9079 5.76333V6.00648C22.6697 6.22352 22.4673 6.45035 22.3156 6.6886V6.50746C22.3058 6.52378 22.296 6.53847 22.2862 6.55315V6.73266C22.2389 6.81099 22.1932 6.88932 22.154 6.96928V7.03618C22.1932 6.95133 22.2372 6.8681 22.2862 6.78651V7.04434C22.2389 7.12267 22.1916 7.20263 22.1524 7.28259V7.3495C22.1916 7.26628 22.2372 7.18142 22.2862 7.09819V7.35603C22.2372 7.43599 22.1916 7.51595 22.1524 7.59591V7.66119C22.1916 7.57633 22.2372 7.49147 22.2862 7.40988V7.66771C22.2372 7.74767 22.1916 7.82927 22.1508 7.9076V7.9745C22.1899 7.88801 22.2372 7.80479 22.2862 7.71993V7.97777C22.2372 8.05773 22.1899 8.13932 22.1508 8.21928V8.28782C22.1899 8.20133 22.2356 8.11648 22.2862 8.02999V8.33514C22.296 8.31883 22.3058 8.30251 22.3156 8.28782V7.98593C22.4673 7.74441 22.6664 7.50942 22.9079 7.28586V7.54859C22.9177 7.5388 22.9259 7.53064 22.9357 7.52248V7.26138C23.1119 7.10309 23.311 6.95133 23.5297 6.80609V7.05577C23.5378 7.04924 23.5476 7.04434 23.5574 7.03782V6.78977C23.7418 6.67065 23.9344 6.55479 24.1449 6.44871C24.1465 6.44708 24.1498 6.44545 24.1514 6.44545V6.69513C24.1596 6.69023 24.1694 6.68697 24.1791 6.68207V6.4324C24.3684 6.33612 24.5675 6.248 24.7731 6.16803V6.41934C24.7813 6.41444 24.7911 6.41118 24.8009 6.40792V6.15498C24.9918 6.07991 25.1925 6.01301 25.3932 5.951V6.20393C25.403 6.20067 25.4128 6.19904 25.421 6.19578V5.94121C25.6152 5.88246 25.8143 5.8335 26.015 5.78618V6.03912C26.0248 6.03585 26.0346 6.03422 26.0427 6.03259V5.78128C26.2385 5.73722 26.436 5.70132 26.6367 5.66869V5.92652C26.6465 5.92489 26.6547 5.92489 26.6644 5.92326V5.66216C26.7346 5.65237 26.8032 5.63931 26.8717 5.62789V5.60015C26.8032 5.6132 26.7346 5.62462 26.6644 5.63442V5.3521C26.7346 5.34068 26.8048 5.32926 26.8733 5.31784V5.29009C26.8048 5.30315 26.7346 5.31457 26.6644 5.32436V5.04042C26.7346 5.029 26.8048 5.01594 26.875 5.00615V4.97841C26.8048 4.98983 26.7346 5.00289 26.6644 5.01268V4.73037C26.7346 4.71894 26.8048 4.70589 26.875 4.6961V4.66672C26.8048 4.67978 26.7346 4.6912 26.6644 4.70099V4.42031C26.7346 4.40726 26.8064 4.39583 26.8766 4.38278ZM22.9112 7.25159C22.6729 7.46863 22.4706 7.69546 22.3188 7.93371V7.67587C22.4706 7.43436 22.6697 7.19937 22.9112 6.97744V7.25159ZM22.9112 6.9399C22.6729 7.15694 22.4706 7.38377 22.3188 7.62039V7.36419C22.4706 7.12104 22.6697 6.88605 22.9112 6.66412V6.9399ZM22.9112 6.62822C22.6729 6.84689 22.4706 7.07208 22.3188 7.31034V7.0525C22.4706 6.81099 22.6697 6.57763 22.9112 6.35407V6.62822ZM22.9112 6.31817C22.6729 6.5352 22.4706 6.76366 22.3188 7.00028V6.74082C22.4706 6.4993 22.6697 6.26431 22.9112 6.04238V6.31817ZM23.5329 6.77509C23.3143 6.91869 23.1168 7.07045 22.9389 7.22711V6.95133C23.1152 6.7914 23.3143 6.64127 23.5329 6.49604V6.77509ZM23.5329 6.4634C23.3143 6.60537 23.1168 6.75714 22.9389 6.91543V6.64127C23.1152 6.48135 23.3143 6.32959 23.5329 6.18598V6.4634ZM23.5329 6.15335C23.3143 6.29532 23.1168 6.44871 22.9389 6.60374V6.32959C23.1152 6.16967 23.3143 6.0179 23.5329 5.8743V6.15335ZM23.5329 5.84329C23.3143 5.98527 23.1168 6.13703 22.9389 6.29369V6.01953C23.1152 5.85798 23.3143 5.70785 23.5329 5.56425V5.84329ZM24.153 6.41445C24.1465 6.41771 24.14 6.41934 24.1351 6.42424C23.9295 6.52704 23.7385 6.64127 23.5574 6.75714V6.47809C23.7418 6.35896 23.9344 6.2431 24.1449 6.1354C24.1465 6.1354 24.1498 6.13376 24.1514 6.13376V6.41445H24.153ZM24.153 6.10439C24.1465 6.10766 24.14 6.10929 24.1351 6.11255C23.9295 6.21699 23.7385 6.32959 23.5574 6.44545V6.16803C23.7418 6.04728 23.9344 5.93305 24.1449 5.82534C24.1465 5.82534 24.1498 5.82371 24.1514 5.82371V6.10439H24.153ZM24.153 5.79271C24.1465 5.79597 24.14 5.7976 24.1351 5.80087C23.9295 5.90367 23.7385 6.0179 23.5574 6.1354V5.85635C23.7418 5.73722 23.9344 5.61973 24.1449 5.51366C24.1465 5.51366 24.1498 5.51203 24.1514 5.51203V5.79271H24.153ZM24.153 5.48102C24.1465 5.48428 24.14 5.48592 24.1351 5.49081C23.9295 5.59362 23.7385 5.70785 23.5574 5.82371V5.54466C23.7418 5.42554 23.9344 5.30968 24.1449 5.20197C24.1465 5.20197 24.1498 5.20197 24.1514 5.20034V5.48102H24.153ZM24.7748 6.1354C24.5692 6.21862 24.3717 6.30674 24.1808 6.40302V6.12234C24.3701 6.02606 24.5692 5.93794 24.7748 5.85635V6.1354ZM24.7748 5.82534C24.5692 5.90694 24.3717 5.99506 24.1808 6.09134V5.81066C24.3701 5.71438 24.5692 5.62626 24.7748 5.54466V5.82534ZM24.7748 5.51366C24.5692 5.59525 24.3717 5.68337 24.1808 5.77965V5.5006C24.3701 5.40432 24.5692 5.3162 24.7748 5.23461V5.51366ZM24.7748 5.20361C24.5692 5.2852 24.3717 5.37332 24.1808 5.4696V5.18892C24.3701 5.09264 24.5692 5.00452 24.7748 4.92129V5.20361ZM25.3949 5.92162C25.1925 5.98363 24.9934 6.05054 24.8025 6.12561V5.84493C24.9934 5.76823 25.1942 5.70295 25.3949 5.64094V5.92162ZM25.3949 5.61157C25.1925 5.67195 24.9934 5.73886 24.8025 5.81392V5.53161C24.9934 5.45654 25.1942 5.38964 25.3949 5.32926V5.61157ZM25.3949 5.29988C25.1925 5.3619 24.9934 5.4288 24.8025 5.50387V5.22156C24.9934 5.14649 25.1942 5.08122 25.3949 5.01757V5.29988ZM25.3949 4.9882C25.1925 5.05021 24.9934 5.11712 24.8025 5.19218V4.90987C24.9934 4.8348 25.1942 4.7679 25.3949 4.70589V4.9882ZM26.0166 5.75844C25.8159 5.80413 25.6168 5.85472 25.4226 5.91346V5.63115C25.6168 5.57241 25.8159 5.52345 26.0166 5.47613V5.75844ZM26.0166 5.44675C25.8159 5.49244 25.6168 5.54303 25.4226 5.60178V5.31947C25.6168 5.26072 25.8159 5.21176 26.0166 5.16444V5.44675ZM26.0166 5.13507C25.8159 5.18239 25.6168 5.23298 25.4226 5.29173V5.00778C25.6168 4.94904 25.8159 4.90008 26.0166 4.85276V5.13507ZM26.0166 4.82665C25.8159 4.87234 25.6168 4.92129 25.4226 4.98004V4.69773C25.6168 4.63735 25.8159 4.58839 26.0166 4.54107V4.82665ZM26.6383 5.64094C26.4376 5.67358 26.2402 5.70785 26.0443 5.75191V5.4696C26.2402 5.42554 26.4376 5.38801 26.6383 5.357V5.64094ZM26.6383 5.32926C26.4376 5.3619 26.2402 5.39616 26.0443 5.43859V5.15791C26.2402 5.11385 26.4376 5.07795 26.6383 5.04695V5.32926ZM26.6383 5.01757C26.4376 5.05021 26.2402 5.08611 26.0443 5.12854V4.84623C26.2402 4.80217 26.4376 4.76627 26.6383 4.73363V5.01757ZM26.6383 4.70589C26.4376 4.73853 26.2402 4.77279 26.0443 4.81685V4.53617C26.2402 4.49211 26.4376 4.45458 26.6383 4.42358V4.70589Z" fill="#30333A"/>
<path d="M24.6329 4.39748L23.4171 3.69576C23.347 3.65496 23.2605 3.65496 23.1903 3.69576C23.1218 3.73329 23.0793 3.80999 23.0793 3.88996V4.18207C23.0793 4.28977 23.285 4.28977 23.285 4.18207V3.88996L23.3143 3.872L24.53 4.57535C24.6035 4.61615 24.6475 4.69448 24.6475 4.77771V7.18313C24.6475 7.2174 24.6247 7.23372 24.6149 7.23861C24.6035 7.24514 24.579 7.25656 24.5496 7.23861L23.8757 6.85022C23.8071 6.88776 23.7386 6.93018 23.6733 6.96935L24.4485 7.41649C24.4892 7.44097 24.5382 7.45239 24.5823 7.45239C24.628 7.45239 24.6753 7.43934 24.7177 7.41649C24.8026 7.36753 24.8531 7.27941 24.8531 7.1815V4.77771C24.8531 4.62105 24.7683 4.47581 24.6329 4.39748Z" fill="url(#paint18_linear_7_13532)"/>
<path d="M57.7513 33.5326L53.1838 36.1713L49.8336 34.2359L54.4011 31.6004L57.7513 33.5326Z" fill="#9AA0A4"/>
<path d="M54.7177 31.5923L54.7161 31.948L54.0062 32.3609V32.0052L54.7177 31.5923Z" fill="#E0E0E0"/>
<path d="M54.0062 32.0051V32.3609L53.6014 32.1259V31.7701L54.0062 32.0051Z" fill="#D3D3D3"/>
<path d="M53.6015 31.7702L54.3114 31.3573L54.7177 31.5923L54.0062 32.0052L53.6015 31.7702Z" fill="#FFFFFD"/>
<path d="M55.2628 31.9072L55.2611 32.2613L54.5513 32.6741V32.3184L55.2628 31.9072Z" fill="#E0E0E0"/>
<path d="M54.5512 32.3184V32.6741L54.1449 32.4391L54.1465 32.085L54.5512 32.3184Z" fill="#D3D3D3"/>
<path d="M54.1465 32.0852L54.8564 31.6739L55.2628 31.9073L54.5513 32.3185L54.1465 32.0852Z" fill="#FFFFFD"/>
<path d="M55.8044 32.2205L55.8028 32.5747L55.093 32.9875V32.6334L55.8044 32.2205Z" fill="#E0E0E0"/>
<path d="M55.093 32.6334V32.9875L54.6867 32.7526L54.6883 32.3984L55.093 32.6334Z" fill="#D3D3D3"/>
<path d="M54.6883 32.3984L55.3982 31.9856L55.8045 32.2206L55.093 32.6334L54.6883 32.3984Z" fill="#FFFFFD"/>
<path d="M56.3495 32.5354L56.3479 32.8895L55.6381 33.3024V32.9466L56.3495 32.5354Z" fill="#E0E0E0"/>
<path d="M55.6381 32.9467V33.3024L55.2317 33.0674L55.2333 32.7118L55.6381 32.9467Z" fill="#D3D3D3"/>
<path d="M55.2333 32.7117L55.9432 32.3005L56.3495 32.5355L55.638 32.9467L55.2333 32.7117Z" fill="#FFFFFD"/>
<path d="M56.8913 32.8472L56.8897 33.2013L56.1798 33.6141V33.2601L56.8913 32.8472Z" fill="#E0E0E0"/>
<path d="M56.1797 33.26V33.6141L55.7734 33.3808L55.7751 33.0267L56.1797 33.26Z" fill="#D3D3D3"/>
<path d="M55.7751 33.0267L56.485 32.6138L56.8914 32.8472L56.1799 33.26L55.7751 33.0267Z" fill="#FFFFFD"/>
<path d="M57.4347 33.1638L57.4331 33.5179L56.7249 33.9291V33.575L57.4347 33.1638Z" fill="#E0E0E0"/>
<path d="M56.7249 33.575V33.9291L56.3185 33.6941V33.34L56.7249 33.575Z" fill="#D3D3D3"/>
<path d="M56.3185 33.34L57.03 32.9271L57.4348 33.1637L56.7249 33.575L56.3185 33.34Z" fill="#FFFFFD"/>
<path d="M53.8333 32.1063V32.462L53.1234 32.8732V32.5175L53.8333 32.1063Z" fill="#E0E0E0"/>
<path d="M53.1234 32.5175V32.8732L52.717 32.6399L52.7186 32.2841L53.1234 32.5175Z" fill="#D3D3D3"/>
<path d="M52.7187 32.2842L53.4285 31.8729L53.8333 32.1063L53.1234 32.5175L52.7187 32.2842Z" fill="#FFFFFD"/>
<path d="M54.3783 32.4212V32.7753L53.6668 33.1882L53.6684 32.8325L54.3783 32.4212Z" fill="#E0E0E0"/>
<path d="M53.6683 32.8325L53.6667 33.1882L53.262 32.9548L53.2637 32.5991L53.6683 32.8325Z" fill="#D3D3D3"/>
<path d="M53.2637 32.5991L53.9736 32.1863L54.3783 32.4213L53.6684 32.8325L53.2637 32.5991Z" fill="#FFFFFD"/>
<path d="M54.92 32.733L54.9184 33.0887L54.2102 33.5015V33.1458L54.92 32.733Z" fill="#E0E0E0"/>
<path d="M54.2102 33.1458V33.5015L53.8038 33.2666V32.9108L54.2102 33.1458Z" fill="#D3D3D3"/>
<path d="M53.8038 32.9108L54.5153 32.4996L54.92 32.733L54.2102 33.1458L53.8038 32.9108Z" fill="#FFFFFD"/>
<path d="M55.465 33.0479L55.4634 33.402L54.7535 33.8148L54.7552 33.4591L55.465 33.0479Z" fill="#E0E0E0"/>
<path d="M54.7552 33.4592L54.7536 33.8149L54.3473 33.5816L54.3489 33.2258L54.7552 33.4592Z" fill="#D3D3D3"/>
<path d="M54.3489 33.2258L55.0587 32.8145L55.465 33.0479L54.7552 33.4592L54.3489 33.2258Z" fill="#FFFFFD"/>
<path d="M56.0068 33.3612L56.0052 33.717L55.2953 34.1282L55.297 33.7741L56.0068 33.3612Z" fill="#E0E0E0"/>
<path d="M55.297 33.7741L55.2954 34.1282L54.8907 33.8932V33.5391L55.297 33.7741Z" fill="#D3D3D3"/>
<path d="M54.8907 33.5391L55.6022 33.1262L56.0069 33.3612L55.297 33.774L54.8907 33.5391Z" fill="#FFFFFD"/>
<path d="M56.5519 33.6745L56.5502 34.0303L55.8404 34.4431L55.842 34.0874L56.5519 33.6745Z" fill="#E0E0E0"/>
<path d="M55.842 34.0874L55.8404 34.4431L55.4341 34.2081L55.4357 33.854L55.842 34.0874Z" fill="#D3D3D3"/>
<path d="M55.4357 33.8539L56.1455 33.4411L56.5519 33.6744L55.842 34.0873L55.4357 33.8539Z" fill="#FFFFFD"/>
<path d="M52.9504 32.6203V32.9744L52.2389 33.3873L52.2405 33.0332L52.9504 32.6203Z" fill="#E0E0E0"/>
<path d="M52.2405 33.0332L52.2389 33.3873L51.8326 33.1523L51.8342 32.7982L52.2405 33.0332Z" fill="#D3D3D3"/>
<path d="M51.8342 32.7982L52.544 32.3853L52.9503 32.6203L52.2405 33.0332L51.8342 32.7982Z" fill="#FFFFFD"/>
<path d="M53.4954 32.9337L53.4938 33.2894L52.7839 33.7022L52.7856 33.3465L53.4954 32.9337Z" fill="#E0E0E0"/>
<path d="M52.7855 33.3465L52.7839 33.7022L52.3776 33.4672L52.3792 33.1132L52.7855 33.3465Z" fill="#D3D3D3"/>
<path d="M52.3793 33.1132L53.0891 32.7003L53.4954 32.9337L52.7856 33.3465L52.3793 33.1132Z" fill="#FFFFFD"/>
<path d="M54.0372 33.2471L54.0355 33.6011L53.3257 34.0139L53.3273 33.6598L54.0372 33.2471Z" fill="#E0E0E0"/>
<path d="M53.3273 33.6599L53.3257 34.014L52.9194 33.7806L52.921 33.4249L53.3273 33.6599Z" fill="#D3D3D3"/>
<path d="M52.921 33.4248L53.6308 33.0137L54.0372 33.247L53.3273 33.6598L52.921 33.4248Z" fill="#FFFFFD"/>
<path d="M54.5823 33.5619L54.5806 33.9177L53.8708 34.3289L53.8724 33.9731L54.5823 33.5619Z" fill="#E0E0E0"/>
<path d="M53.8724 33.9732L53.8707 34.3289L53.4644 34.0939L53.466 33.7382L53.8724 33.9732Z" fill="#D3D3D3"/>
<path d="M53.466 33.7381L54.1759 33.3269L54.5822 33.5619L53.8723 33.9731L53.466 33.7381Z" fill="#FFFFFD"/>
<path d="M55.124 33.8736L55.1223 34.2293L54.4125 34.6422V34.2865L55.124 33.8736Z" fill="#E0E0E0"/>
<path d="M54.4125 34.2865V34.6422L54.0062 34.4072L54.0079 34.0531L54.4125 34.2865Z" fill="#D3D3D3"/>
<path d="M54.0078 34.0531L54.7177 33.6402L55.124 33.8736L54.4125 34.2864L54.0078 34.0531Z" fill="#FFFFFD"/>
<path d="M55.6674 34.1885V34.5426L54.9559 34.9554L54.9576 34.6013L55.6674 34.1885Z" fill="#E0E0E0"/>
<path d="M54.9576 34.6014L54.9559 34.9556L54.5513 34.7222L54.5529 34.3664L54.9576 34.6014Z" fill="#D3D3D3"/>
<path d="M54.5529 34.3664L55.2627 33.9536L55.6674 34.1886L54.9576 34.6014L54.5529 34.3664Z" fill="#FFFFFD"/>
<path d="M52.0692 33.1311V33.4852L51.3594 33.8997V33.544L52.0692 33.1311Z" fill="#E0E0E0"/>
<path d="M51.3593 33.544V33.8997L50.953 33.6631L50.9546 33.3106L51.3593 33.544Z" fill="#D3D3D3"/>
<path d="M50.9546 33.3107L51.6644 32.8978L52.0692 33.1312L51.3593 33.5441L50.9546 33.3107Z" fill="#FFFFFD"/>
<path d="M52.6143 33.4478V33.8002L51.9028 34.2114L51.9044 33.859L52.6143 33.4478Z" fill="#E0E0E0"/>
<path d="M51.9043 33.8589L51.9027 34.2114L51.498 33.978L51.4996 33.6239L51.9043 33.8589Z" fill="#D3D3D3"/>
<path d="M51.4997 33.624L52.2079 33.2127L52.6143 33.4477L51.9044 33.8589L51.4997 33.624Z" fill="#FFFFFD"/>
<path d="M53.1559 33.7593L53.1543 34.1134L52.4461 34.5263V34.1722L53.1559 33.7593Z" fill="#E0E0E0"/>
<path d="M52.4462 34.1722V34.5263L52.0398 34.2913V33.9372L52.4462 34.1722Z" fill="#D3D3D3"/>
<path d="M52.0398 33.9372L52.7513 33.5244L53.156 33.7594L52.4461 34.1722L52.0398 33.9372Z" fill="#FFFFFD"/>
<path d="M53.701 34.0727L53.6994 34.4284L52.9895 34.8395L52.9911 34.4855L53.701 34.0727Z" fill="#E0E0E0"/>
<path d="M52.9911 34.4856L52.9895 34.8397L52.5848 34.6063V34.2522L52.9911 34.4856Z" fill="#D3D3D3"/>
<path d="M52.5848 34.2522L53.2947 33.8394L53.701 34.0727L52.9912 34.4855L52.5848 34.2522Z" fill="#FFFFFD"/>
<path d="M54.2428 34.386L54.2412 34.7418L53.5313 35.1547L53.5329 34.7989L54.2428 34.386Z" fill="#E0E0E0"/>
<path d="M53.533 34.7989L53.5314 35.1547L53.1266 34.9197V34.564L53.533 34.7989Z" fill="#D3D3D3"/>
<path d="M53.1266 34.5638L53.8382 34.151L54.2429 34.386L53.533 34.7988L53.1266 34.5638Z" fill="#FFFFFD"/>
<path d="M54.7878 34.6993L54.7862 35.0566L54.0764 35.4678V35.1121L54.7878 34.6993Z" fill="#E0E0E0"/>
<path d="M54.0764 35.1122V35.4679L53.6717 35.2329V34.8788L54.0764 35.1122Z" fill="#D3D3D3"/>
<path d="M53.6717 34.8788L54.3815 34.4659L54.7878 34.6993L54.0764 35.1121L53.6717 34.8788Z" fill="#FFFFFD"/>
<path d="M51.1864 33.6451V33.9993L50.4749 34.4105L50.4766 34.058L51.1864 33.6451Z" fill="#E0E0E0"/>
<path d="M50.4765 34.058L50.4749 34.4105L50.0685 34.1771L50.0702 33.823L50.4765 34.058Z" fill="#D3D3D3"/>
<path d="M50.0701 33.823L50.78 33.4101L51.1863 33.6451L50.4764 34.058L50.0701 33.823Z" fill="#FFFFFD"/>
<path d="M51.7314 33.96L51.7298 34.3141L51.0199 34.727L51.0215 34.3712L51.7314 33.96Z" fill="#E0E0E0"/>
<path d="M51.0215 34.3713L51.0198 34.7271L50.6135 34.4921L50.6152 34.1363L51.0215 34.3713Z" fill="#D3D3D3"/>
<path d="M50.6152 34.1364L51.3251 33.7268L51.7314 33.9601L51.0216 34.3713L50.6152 34.1364Z" fill="#FFFFFD"/>
<path d="M52.2731 34.2718L52.2715 34.6259L51.5616 35.0388L51.5633 34.6846L52.2731 34.2718Z" fill="#E0E0E0"/>
<path d="M51.5634 34.6846L51.5617 35.0387L51.1554 34.8054L51.157 34.4513L51.5634 34.6846Z" fill="#D3D3D3"/>
<path d="M51.157 34.4513L51.8668 34.0384L52.2731 34.2718L51.5633 34.6846L51.157 34.4513Z" fill="#FFFFFD"/>
<path d="M52.8166 34.5867V34.9425L52.1068 35.3537L52.1084 34.9996L52.8166 34.5867Z" fill="#E0E0E0"/>
<path d="M52.1083 34.9996L52.1067 35.3537L51.7004 35.1187L51.702 34.7646L52.1083 34.9996Z" fill="#D3D3D3"/>
<path d="M51.702 34.7646L52.4118 34.3518L52.8165 34.5868L52.1083 34.9996L51.702 34.7646Z" fill="#FFFFFD"/>
<path d="M53.36 34.9L53.3584 35.2541L52.6485 35.667V35.3113L53.36 34.9Z" fill="#E0E0E0"/>
<path d="M52.6484 35.3112V35.6669L52.2421 35.432L52.2438 35.0779L52.6484 35.3112Z" fill="#D3D3D3"/>
<path d="M52.2438 35.078L52.9536 34.6667L53.36 34.9001L52.6485 35.3113L52.2438 35.078Z" fill="#FFFFFD"/>
<path d="M53.9033 35.215V35.5674L53.1935 35.9803V35.6262L53.9033 35.215Z" fill="#E0E0E0"/>
<path d="M53.1935 35.6263V35.9803L52.7872 35.747L52.7889 35.3929L53.1935 35.6263Z" fill="#D3D3D3"/>
<path d="M52.7888 35.3929L53.4987 34.98L53.9034 35.215L53.1935 35.6262L52.7888 35.3929Z" fill="#FFFFFD"/>
<path d="M31.7738 30.3276C31.7526 30.3146 31.7118 30.3227 31.7118 30.3423V30.9689C31.7118 30.9966 31.7852 30.9999 31.7852 30.9705V30.344C31.7852 30.3456 31.7836 30.3325 31.7738 30.3276Z" fill="#5F5F60"/>
<path d="M30.3296 29.4627C30.3084 29.4513 30.2676 29.4578 30.2692 29.4774V30.1041C30.2692 30.1335 30.341 30.1351 30.341 30.1057V29.479C30.3394 29.4807 30.3377 29.4692 30.3296 29.4627Z" fill="#5F5F60"/>
<path d="M28.8855 28.5995C28.8643 28.5865 28.8235 28.5947 28.8235 28.6142V28.6126V29.2408C28.8235 29.2686 28.8969 29.2702 28.8969 29.2424V28.6159C28.8969 28.6175 28.8936 28.6061 28.8855 28.5995Z" fill="#5F5F60"/>
<path d="M27.4396 27.7346C27.4184 27.7216 27.3776 27.7297 27.3792 27.7493H27.3776L27.3792 28.3759C27.3776 28.4037 27.451 28.4069 27.451 28.3776V27.7509C27.451 27.7509 27.4494 27.7395 27.4396 27.7346Z" fill="#5F5F60"/>
<path d="M25.9955 26.868C25.9743 26.8566 25.9335 26.8632 25.9335 26.8827V27.5093C25.9335 27.5387 26.0069 27.5403 26.0069 27.5126L26.0053 26.8844C26.0053 26.8876 26.0036 26.8746 25.9955 26.868Z" fill="#5F5F60"/>
<path d="M24.5528 26.0065C24.5316 25.9934 24.4908 26 24.4925 26.0195V26.6462C24.4925 26.6755 24.5643 26.6772 24.5643 26.6494V26.0228C24.5626 26.0244 24.561 26.0114 24.5528 26.0065Z" fill="#5F5F60"/>
<path d="M32.8525 31.1093C32.8411 31.1093 32.828 31.106 32.8182 31.0995L24.3196 26.0146C24.2853 25.9934 24.2755 25.9526 24.2951 25.9184C24.313 25.8841 24.3571 25.8743 24.3914 25.8939L32.89 30.9788C32.9227 30.9983 32.9325 31.0408 32.9145 31.075C32.9015 31.0963 32.877 31.1093 32.8525 31.1093Z" fill="#5F5F60"/>
<path d="M43.1577 27.2206V27.4295L44.1646 28.017V27.8098L43.1577 27.2206Z" fill="#9AA0A4"/>
<path d="M44.1646 27.8098V28.017L44.4191 27.8702V27.6629L44.1646 27.8098Z" fill="#B9BFC2"/>
<path d="M43.1577 27.2207L44.1646 27.8098L44.4191 27.6629L43.4123 27.0738L43.1577 27.2207Z" fill="#EDEEF0"/>
<path d="M43.5004 20.796C43.4825 20.8074 43.4515 20.8074 43.4319 20.796C43.4221 20.7911 43.4172 20.783 43.4172 20.7764L43.4188 27.2548C43.4188 27.263 43.4253 27.2695 43.4351 27.276C43.4547 27.2875 43.4841 27.2858 43.5037 27.276C43.5135 27.2695 43.5184 27.263 43.5184 27.2548L43.5151 20.7764C43.5151 20.783 43.5102 20.7911 43.5004 20.796Z" fill="url(#paint19_linear_7_13532)"/>
<path d="M43.5003 20.7551C43.4824 20.7437 43.4514 20.7437 43.4318 20.7551C43.4122 20.7666 43.4122 20.7861 43.4318 20.7943C43.4514 20.8057 43.4824 20.8057 43.5003 20.7943C43.5215 20.7845 43.5215 20.7666 43.5003 20.7551Z" fill="#EDEEF0"/>
<path d="M44.158 21.1762C44.1384 21.1877 44.1091 21.1877 44.0879 21.1762C44.0797 21.1697 44.0748 21.1632 44.0748 21.155L44.0781 27.6336C44.0781 27.6418 44.0814 27.6499 44.0928 27.6548C44.1107 27.6662 44.1417 27.6662 44.1613 27.6548C44.1711 27.6499 44.176 27.6418 44.176 27.6336L44.1727 21.155C44.1727 21.1632 44.1678 21.1697 44.158 21.1762Z" fill="url(#paint20_linear_7_13532)"/>
<path d="M44.158 21.1371C44.1385 21.1241 44.1091 21.1241 44.0879 21.1371C44.0699 21.1469 44.0699 21.1665 44.0879 21.1763C44.1091 21.1877 44.1385 21.1877 44.158 21.1763C44.1776 21.1648 44.1776 21.1469 44.158 21.1371Z" fill="#EDEEF0"/>
<path d="M43.7435 27.8734C43.7304 27.8734 43.7173 27.8702 43.7076 27.8636L36.5437 23.5898C36.5225 23.5767 36.5095 23.5539 36.5095 23.5294C36.5095 23.5033 36.5225 23.4821 36.5437 23.4707L46.6171 17.6172C46.64 17.6041 46.6645 17.6041 46.6873 17.6172L53.8985 21.9188C53.9295 21.9367 53.9409 21.9742 53.9262 22.0069L53.1397 23.7807C53.1331 23.7954 53.1233 23.8068 53.1103 23.8133L46.9011 27.4018C46.8929 27.4051 46.8848 27.4083 46.875 27.41L43.7516 27.8751C43.75 27.8734 43.7467 27.8734 43.7435 27.8734ZM36.7183 23.5294L43.7581 27.7298L46.844 27.2713L53.0222 23.7007L53.7761 22.0036L46.653 17.7542L36.7183 23.5294Z" fill="#5F5F60"/>
<path d="M55.7376 36.5435L50.6854 39.4612L51.4491 42.5812L56.4964 39.639L55.7376 36.5435Z" fill="#30333A"/>
<path d="M55.7376 36.5435L53.4448 37.8685L56.4931 39.6292L55.7376 36.5435Z" fill="#9AA0A4"/>
<path d="M62.1997 32.813L57.1459 35.7291L57.9112 38.8509L62.9569 35.907L62.1997 32.813Z" fill="#30333A"/>
<path d="M62.1997 32.813L59.907 34.1364L62.9553 35.8988L62.1997 32.813Z" fill="#9AA0A4"/>
<path d="M29.6769 9.7745C29.2624 10.0079 28.6015 10.0013 28.2017 9.75981C28.0042 9.64232 27.9047 9.48892 27.9047 9.33716L27.9031 9.99969C27.9031 10.1515 28.001 10.3048 28.1984 10.4223C28.5999 10.6622 29.2607 10.6688 29.6752 10.437C29.8841 10.3195 29.9902 10.1645 29.9902 10.0062L29.9918 9.34205C29.9934 9.50034 29.8874 9.657 29.6769 9.7745Z" fill="url(#paint21_linear_7_13532)"/>
<path d="M29.6981 8.91939C29.2967 8.67951 28.6358 8.67298 28.2229 8.9047C27.8084 9.13643 27.8003 9.51828 28.2017 9.75816C28.6015 9.99804 29.2624 10.0046 29.6769 9.77285C30.0898 9.54276 30.0996 9.1609 29.6981 8.91939Z" fill="#C4C4C4"/>
<path d="M29.504 8.05131C28.9312 7.69884 27.9456 7.98278 27.9064 8.90639V9.17891C27.9048 9.3323 28.0043 9.48406 28.2018 9.60318C28.6032 9.84143 29.2641 9.84959 29.677 9.61787C29.8875 9.50038 29.9919 9.34209 29.9919 9.18543L29.9935 8.91129C29.987 8.42174 29.6835 8.16228 29.504 8.05131Z" fill="url(#paint22_radial_7_13532)"/>
<path d="M29.0111 8.16214C28.9768 8.18171 28.9246 8.18008 28.8936 8.16051C28.8593 8.14094 28.861 8.11158 28.8952 8.09201C28.9295 8.07244 28.9817 8.07407 29.0127 8.09364C29.0437 8.11321 29.0437 8.14257 29.0111 8.16214Z" fill="#DCDCDC"/>
<path d="M23.6456 13.2569C23.2327 13.4902 22.5718 13.4821 22.1704 13.2422C21.9729 13.1247 21.875 12.9713 21.875 12.8179L21.8734 13.4804C21.8734 13.6338 21.9713 13.7873 22.1687 13.9048C22.5702 14.1447 23.2311 14.1512 23.6439 13.9194C23.8545 13.8019 23.9605 13.6453 23.9605 13.487L23.9622 12.8244C23.9622 12.9827 23.8561 13.1377 23.6456 13.2569Z" fill="url(#paint23_linear_7_13532)"/>
<path d="M23.6683 12.4018C23.2669 12.1619 22.606 12.1553 22.1932 12.3871C21.7787 12.6188 21.7689 13.0007 22.1703 13.2406C22.5718 13.4788 23.2327 13.487 23.6455 13.2552C24.06 13.0251 24.0698 12.6433 23.6683 12.4018Z" fill="#C4C4C4"/>
<path d="M23.4709 11.5336C22.8981 11.1811 21.914 11.465 21.8749 12.3871V12.6612C21.8749 12.813 21.9728 12.9664 22.1719 13.0855C22.5733 13.3237 23.2342 13.3303 23.6471 13.1002C23.8576 12.9827 23.9621 12.8244 23.9621 12.6677L23.9637 12.3936C23.9555 11.9024 23.6536 11.6429 23.4709 11.5336Z" fill="url(#paint24_radial_7_13532)"/>
<path d="M22.9814 11.6429C22.9471 11.6624 22.8949 11.6608 22.8622 11.6412C22.8296 11.6217 22.8312 11.5923 22.8639 11.5727C22.8982 11.5532 22.952 11.5548 22.983 11.5744C23.014 11.5939 23.0124 11.6249 22.9814 11.6429Z" fill="#DCDCDC"/>
<path d="M60.5222 32.028C60.1975 32.2108 59.6785 32.2043 59.3636 32.0166C59.2085 31.9219 59.1318 31.8028 59.1318 31.6853L59.1302 31.8469C59.1286 31.966 59.2069 32.0852 59.3619 32.1782C59.6769 32.3659 60.1958 32.3724 60.5206 32.1912C60.6854 32.0966 60.767 31.9758 60.7686 31.8518V31.6886C60.7686 31.8126 60.6854 31.935 60.5222 32.028Z" fill="url(#paint25_linear_7_13532)"/>
<path d="M60.5369 31.3557C60.222 31.1681 59.703 31.1632 59.3799 31.3443C59.0552 31.5271 59.0487 31.8257 59.362 32.015C59.6769 32.2026 60.1959 32.2092 60.5206 32.0264C60.8453 31.8453 60.8535 31.545 60.5369 31.3557Z" fill="#898E92"/>
<path d="M60.385 30.6752C59.9363 30.3995 59.1644 30.6214 59.1334 31.3459L59.1318 31.5597C59.1318 31.6788 59.2085 31.798 59.3651 31.8926C59.6784 32.0803 60.199 32.0852 60.5221 31.904C60.6869 31.811 60.7685 31.687 60.7701 31.5646V31.3508C60.7636 30.9657 60.5254 30.7634 60.385 30.6752Z" fill="url(#paint26_radial_7_13532)"/>
<path d="M62.6959 32.8227L60.6217 31.6185C60.6103 31.612 60.594 31.6136 60.5761 31.6234C60.5418 31.6462 60.514 31.6935 60.514 31.7311C60.514 31.7523 60.5206 31.7653 60.532 31.7719L62.6061 32.9761C62.5947 32.968 62.5865 32.9549 62.5865 32.9353C62.5865 32.8962 62.6159 32.8472 62.6502 32.8276C62.6665 32.8179 62.6844 32.8162 62.6959 32.8227Z" fill="#CBCED0"/>
<path d="M62.6485 32.8277C62.6142 32.8489 62.5848 32.8962 62.5848 32.9354C62.5848 32.9762 62.6142 32.9925 62.6485 32.9696C62.6844 32.9484 62.7122 32.9011 62.7122 32.8619C62.7122 32.8228 62.686 32.8064 62.6485 32.8277Z" fill="#9AA0A4"/>
<path d="M50.4814 37.8228C50.1583 38.0056 49.6394 38.0007 49.3244 37.8114C49.1678 37.7184 49.0911 37.5992 49.0911 37.4801V37.6417C49.0895 37.7608 49.1662 37.8799 49.3228 37.9729C49.6361 38.1606 50.1567 38.1671 50.4798 37.986C50.6446 37.893 50.7278 37.7706 50.7278 37.6466L50.7295 37.4834C50.7311 37.6074 50.6479 37.7314 50.4814 37.8228Z" fill="url(#paint27_linear_7_13532)"/>
<path d="M50.4977 37.1521C50.1844 36.9644 49.6655 36.9595 49.3408 37.1406C49.016 37.3234 49.0095 37.6237 49.3245 37.8113C49.6394 38.0006 50.1583 38.0055 50.4814 37.8227C50.8045 37.6416 50.8127 37.3414 50.4977 37.1521Z" fill="#898E92"/>
<path d="M50.3459 36.4717C49.8971 36.1959 49.1236 36.4194 49.0926 37.1423V37.3577C49.091 37.4769 49.1677 37.596 49.3243 37.689C49.6393 37.8767 50.1582 37.8815 50.483 37.7004C50.6478 37.6074 50.7294 37.485 50.7294 37.361V37.1472C50.7245 36.7638 50.4862 36.5598 50.3459 36.4717Z" fill="url(#paint28_radial_7_13532)"/>
<path d="M52.6551 38.6191L50.5827 37.4149C50.5696 37.4084 50.5533 37.41 50.537 37.4214C50.5011 37.4426 50.4733 37.4899 50.4733 37.5275C50.4733 37.5487 50.4815 37.5617 50.4913 37.5683L52.5653 38.7725C52.5539 38.7643 52.5458 38.7512 52.5458 38.7317C52.5458 38.6941 52.5751 38.6436 52.611 38.624C52.629 38.6142 52.6437 38.6126 52.6551 38.6191Z" fill="#CBCED0"/>
<path d="M52.6111 38.6225C52.5752 38.6437 52.5458 38.6926 52.5458 38.7302C52.5458 38.771 52.5752 38.7873 52.6111 38.7661C52.6454 38.7449 52.6747 38.6959 52.6747 38.6567C52.6731 38.6192 52.6454 38.6029 52.6111 38.6225Z" fill="#9AA0A4"/>
<path d="M13.1364 11.8323C14.4745 12.0395 15.2692 12.8326 14.9102 13.6061C14.5512 14.3796 13.1756 14.8382 11.8374 14.6309C10.4993 14.4237 9.70461 13.629 10.0652 12.8555C10.4226 12.0836 11.7983 11.625 13.1364 11.8323Z" fill="#EDEEF0"/>
<path d="M13.4252 12.2744C12.9324 12.5616 12.1312 12.5616 11.6351 12.2744C11.3854 12.1308 11.2614 11.9431 11.2614 11.7538L11.2581 13.0447C11.2565 13.2323 11.3822 13.4216 11.6318 13.5652C12.1295 13.8524 12.9291 13.8524 13.4236 13.5652C13.6684 13.4233 13.7924 13.2372 13.7924 13.0512L13.7957 11.7604C13.794 11.9464 13.6716 12.1324 13.4252 12.2744Z" fill="#84898C"/>
<path d="M13.4203 11.2366C12.9226 10.951 12.123 10.951 11.6286 11.2366C11.1374 11.5254 11.139 11.9888 11.6351 12.2744C12.1312 12.5616 12.9324 12.5616 13.4252 12.2744C13.9197 11.9888 13.9164 11.5254 13.4203 11.2366Z" fill="#EDEEF0"/>
<path d="M9.15634 6.66413C9.15145 6.65433 9.12534 6.66249 9.0927 6.67718C9.08944 6.68044 9.08454 6.68208 9.08128 6.68534C9.05843 6.69676 9.03559 6.71308 9.00948 6.73267C8.93278 6.78978 8.8773 6.85179 8.8822 6.87138C8.8822 6.87301 8.88383 6.87464 8.88383 6.87464L10.7588 9.31598C10.7572 9.31598 10.7555 9.31598 10.7555 9.31435C10.7506 9.2915 10.8078 9.23112 10.8844 9.174C10.9089 9.15442 10.935 9.1381 10.9562 9.12505C10.9595 9.12341 10.9628 9.12178 10.966 9.12015C11.0003 9.1022 11.0248 9.09567 11.0313 9.10383L9.15634 6.66413Z" fill="#CCCFD1"/>
<path d="M10.9562 9.12501C10.935 9.13806 10.9089 9.15438 10.8844 9.17395C10.8078 9.23106 10.7506 9.29142 10.7555 9.31426C10.7604 9.32731 10.7914 9.31915 10.8339 9.29468C10.8567 9.28326 10.8828 9.26695 10.9089 9.24737C10.984 9.19353 11.0427 9.1299 11.0329 9.1087C11.0313 9.09401 11.0003 9.10217 10.9562 9.12501Z" fill="#B0B5B8"/>
<path d="M10.8191 8.75466C10.8093 8.74324 10.7767 8.75303 10.7326 8.77588C10.7294 8.77751 10.7261 8.77914 10.7212 8.7824C10.6935 8.79872 10.6641 8.81993 10.6315 8.84278C10.6298 8.84441 10.6282 8.84441 10.6282 8.84441C10.5303 8.9211 10.4585 9.00269 10.465 9.03043C10.465 9.03206 10.465 9.03369 10.4666 9.03369L11.498 10.3244C11.498 10.3244 11.498 10.3228 11.498 10.3211C11.4914 10.2934 11.5632 10.2134 11.6612 10.1368C11.6628 10.1368 11.6628 10.1351 11.6644 10.1351C11.6971 10.1106 11.7264 10.0911 11.7558 10.0747C11.7574 10.0715 11.7607 10.0698 11.7656 10.0666C11.808 10.0437 11.8407 10.034 11.8488 10.0454L10.8191 8.75466Z" fill="#CCCFD1"/>
<path d="M11.7542 10.0732C11.7248 10.0896 11.6954 10.1091 11.6628 10.1336C11.5649 10.2103 11.4914 10.2935 11.498 10.3213C11.5012 10.3408 11.5388 10.331 11.5959 10.2984C11.6236 10.2821 11.6546 10.2625 11.6889 10.2364C11.7868 10.1614 11.8586 10.0781 11.8554 10.052C11.8488 10.0308 11.808 10.0422 11.7542 10.0732Z" fill="#272727"/>
<path d="M13.3632 9.24901C12.9716 9.0287 12.7121 9.07929 12.5669 9.13477C12.7627 9.06297 13.0124 9.09724 13.2849 9.2539C13.9115 9.61619 14.4142 10.4876 14.4125 11.2073L14.4093 12.6744C14.437 12.6581 14.4501 12.6205 14.4501 12.5699C14.4501 12.5373 14.455 11.1567 14.455 11.142C14.455 10.5545 14.1123 9.7141 13.3632 9.24901Z" fill="#D9DBDD"/>
<path d="M14.2184 10.357C14.109 10.109 13.9573 9.87072 13.7794 9.66837C13.6293 9.49865 13.4628 9.35504 13.2833 9.25223C12.9716 9.07109 12.6877 9.05478 12.4804 9.1739L11.0215 10.0225C11.2272 9.90336 11.5111 9.92131 11.8261 10.1008C12.0039 10.2036 12.172 10.3472 12.3221 10.5186C12.4984 10.7193 12.6502 10.9576 12.7611 11.2072C12.8835 11.4879 12.9569 11.7833 12.9569 12.0558L12.952 13.5229L14.4126 12.6743L14.4158 11.2072C14.4158 10.9331 14.3424 10.6377 14.2184 10.357Z" fill="url(#paint29_linear_7_13532)"/>
<path opacity="0.5" d="M13.7809 9.6684L12.3204 10.5186C12.4967 10.7193 12.6484 10.9576 12.7594 11.2073L14.2199 10.3571C14.1089 10.109 13.9572 9.87075 13.7809 9.6684Z" fill="#DEDDDD"/>
<path d="M11.826 10.1009C11.5111 9.92141 11.2271 9.90346 11.0215 10.0226C10.5662 10.3016 10.6494 10.7422 10.6462 12.1733C10.6462 12.2207 10.6462 12.2403 10.6462 12.2403C13.2425 13.7399 12.4869 13.3026 12.8378 13.5049C12.7904 13.4756 12.8949 13.5539 12.9504 13.5212L12.9553 12.0542C12.9569 11.3362 12.451 10.4632 11.826 10.1009Z" fill="#9AA0A4"/>
<path opacity="0.4" d="M12.6665 13.1932C12.6583 13.1932 12.6534 13.1915 12.6469 13.1883L10.8551 12.1537C10.8437 12.1455 10.8355 12.1341 10.8355 12.1194L10.8388 10.9216C10.842 10.5136 11.0509 10.2509 11.374 10.2509C11.5046 10.2509 11.6482 10.2933 11.7934 10.3781C12.2993 10.6703 12.7105 11.3769 12.7073 11.9578V12.0052C12.7056 12.4784 12.704 12.9419 12.704 13.1556C12.704 13.1687 12.6958 13.1818 12.6844 13.1883C12.6795 13.1915 12.6714 13.1932 12.6665 13.1932ZM10.9106 12.0998L12.6306 13.0904C12.6306 12.8586 12.6322 12.436 12.6338 12.0052V11.9578C12.6355 11.3997 12.2422 10.7208 11.7575 10.4418C11.6253 10.3651 11.4915 10.3243 11.374 10.3243C11.0901 10.3243 10.9155 10.5544 10.9138 10.9216L10.9106 12.0998Z" fill="#9AA0A4"/>
<path d="M12.0284 9.44158L11.5927 9.69127C11.7983 9.57377 12.0838 9.58846 12.3972 9.77124L12.8329 9.51992C12.5196 9.33713 12.2356 9.32081 12.0284 9.44158Z" fill="#84898C"/>
<path d="M84.8401 58.7713C84.881 58.5406 84.6263 58.3026 84.2714 58.2397C83.9164 58.1768 83.5955 58.3129 83.5546 58.5436C83.5137 58.7744 83.7684 59.0124 84.1234 59.0753C84.4783 59.1381 84.7993 59.0021 84.8401 58.7713Z" fill="#30333A"/>
<path d="M84.3439 55.4467L84.3422 55.8629C84.3422 55.8759 84.339 55.889 84.3324 55.8988C84.2949 55.9804 84.1546 56.0277 84.0159 56.0049C83.9718 55.9983 83.931 55.9837 83.9 55.9673C83.8527 55.9396 83.8233 55.9004 83.8233 55.8613L83.8249 55.4451C83.8249 55.4859 83.8543 55.525 83.9016 55.5512C83.9343 55.5691 83.9718 55.5838 84.0175 55.5903C84.1562 55.6115 84.2965 55.5626 84.3341 55.4842C84.3406 55.4728 84.3439 55.4598 84.3439 55.4467Z" fill="url(#paint30_linear_7_13532)"/>
<path d="M84.2655 55.3407C84.3292 55.3766 84.3585 55.432 84.3341 55.4859C84.2965 55.5659 84.1562 55.6132 84.0175 55.592C83.9718 55.5838 83.9327 55.5691 83.9016 55.5528C83.838 55.5169 83.8086 55.4614 83.8331 55.4076C83.8706 55.3276 84.0126 55.2803 84.1497 55.3031C84.1954 55.308 84.2362 55.3227 84.2655 55.3407Z" fill="#E1E7E9"/>
<path d="M84.4745 55.2983V55.4582C84.4745 55.4778 84.4712 55.4974 84.4614 55.5169C84.4043 55.6377 84.1905 55.7095 83.9817 55.6769C83.9131 55.6671 83.8528 55.6442 83.8054 55.6181C83.732 55.5773 83.6896 55.5169 83.6896 55.4566L83.6912 55.295C83.6896 55.357 83.7336 55.4158 83.8071 55.4582C83.8528 55.4876 83.9131 55.5055 83.9817 55.5169C84.1922 55.5512 84.4059 55.4794 84.4614 55.357C84.4712 55.3374 84.4745 55.3178 84.4745 55.2983Z" fill="url(#paint31_linear_7_13532)"/>
<path d="M84.3586 55.1383C84.4565 55.1922 84.4989 55.2771 84.4614 55.3587C84.4059 55.4794 84.1921 55.5513 83.9816 55.5186C83.913 55.5072 83.8527 55.4876 83.807 55.4599C83.7091 55.406 83.6666 55.3211 83.7042 55.2412C83.7596 55.1188 83.9734 55.0486 84.1839 55.078C84.2525 55.0877 84.3129 55.109 84.3586 55.1383Z" fill="#E1E7E9"/>
<path d="M84.3439 54.9981L84.3422 55.2722C84.3422 55.2852 84.339 55.2999 84.3324 55.3097C84.2949 55.3897 84.1546 55.4386 84.0159 55.4158C83.9718 55.4076 83.931 55.3946 83.9 55.3782C83.8527 55.3489 83.8233 55.3113 83.8233 55.2722L83.8249 54.9965C83.8249 55.0356 83.8543 55.0748 83.9016 55.1025C83.9343 55.1205 83.9718 55.1351 84.0175 55.14C84.1562 55.1629 84.2965 55.1139 84.3341 55.034C84.3406 55.0226 84.3439 55.0095 84.3439 54.9981Z" fill="url(#paint32_linear_7_13532)"/>
<path d="M84.2655 54.8904C84.3292 54.9263 84.3585 54.9818 84.3341 55.034C84.2965 55.1156 84.1562 55.1629 84.0175 55.1401C83.9718 55.1335 83.9327 55.1188 83.9016 55.1025C83.838 55.0666 83.8086 55.0095 83.8331 54.9573C83.8706 54.8773 84.0126 54.8284 84.1497 54.8512C84.1954 54.8594 84.2362 54.8724 84.2655 54.8904Z" fill="#E1E7E9"/>
<path d="M84.4745 54.9116V55.0715C84.4745 55.0927 84.4712 55.109 84.4614 55.1302C84.4043 55.2494 84.1905 55.3228 83.9817 55.2901C83.9131 55.2804 83.8528 55.2591 83.8054 55.233C83.732 55.1906 83.6896 55.1302 83.6896 55.0699L83.6912 54.91C83.6896 54.972 83.7336 55.0291 83.8071 55.0731C83.8528 55.1009 83.9131 55.1205 83.9817 55.1302C84.1922 55.1645 84.4059 55.0927 84.4614 54.9687C84.4712 54.9508 84.4745 54.9312 84.4745 54.9116Z" fill="url(#paint33_linear_7_13532)"/>
<path d="M84.3586 54.7484C84.4565 54.8039 84.4989 54.8871 84.4614 54.9687C84.4059 55.0911 84.1921 55.1629 83.9816 55.1303C83.913 55.1205 83.8527 55.0992 83.807 55.0731C83.7091 55.016 83.6666 54.9328 83.7042 54.8512C83.7596 54.7304 83.9734 54.6586 84.1839 54.6913C84.2525 54.7011 84.3129 54.7223 84.3586 54.7484Z" fill="#E1E7E9"/>
<path d="M86.5143 54.1935L86.5127 54.6097C86.5127 54.6244 86.5094 54.6358 86.5046 54.6472C86.467 54.7288 86.3251 54.7745 86.188 54.7533C86.1423 54.7451 86.1015 54.7321 86.0705 54.7158C86.0232 54.6864 85.9938 54.6489 85.9938 54.6097L85.9955 54.1935C85.9955 54.2327 86.0248 54.2735 86.0722 54.2996C86.1048 54.3175 86.1439 54.3322 86.1896 54.3371C86.3267 54.3583 86.4687 54.311 86.5062 54.231C86.5111 54.218 86.5143 54.2065 86.5143 54.1935Z" fill="url(#paint34_linear_7_13532)"/>
<path d="M86.4375 54.0875C86.5012 54.1217 86.5305 54.1788 86.5061 54.2311C86.4685 54.3126 86.3266 54.3583 86.1895 54.3371C86.1438 54.3306 86.103 54.3159 86.072 54.2996C86.01 54.2637 85.979 54.2066 86.0051 54.1544C86.0394 54.0728 86.183 54.0271 86.32 54.0483C86.3657 54.0549 86.4065 54.0679 86.4375 54.0875Z" fill="#E1E7E9"/>
<path d="M86.6465 54.0467L86.6449 54.2066C86.6449 54.2262 86.6417 54.2442 86.6319 54.2637C86.5764 54.3845 86.3626 54.4579 86.1521 54.4253C86.0836 54.4139 86.0232 54.3927 85.9775 54.3665C85.9041 54.3257 85.8616 54.2654 85.8616 54.205V54.0435C85.8616 54.1038 85.9041 54.1626 85.9775 54.2066C86.0248 54.2344 86.0836 54.254 86.1521 54.2654C86.3626 54.2996 86.5764 54.2262 86.6335 54.1038C86.6417 54.0842 86.6465 54.0647 86.6465 54.0467Z" fill="url(#paint35_linear_7_13532)"/>
<path d="M86.5307 53.8835C86.6269 53.939 86.671 54.0222 86.6335 54.1038C86.5763 54.2245 86.3626 54.2979 86.1521 54.2653C86.0835 54.2539 86.0248 54.2327 85.9775 54.2066C85.8812 54.1511 85.8371 54.0679 85.8747 53.9863C85.9301 53.8656 86.1455 53.7938 86.3544 53.8248C86.423 53.8362 86.4833 53.8558 86.5307 53.8835Z" fill="#E1E7E9"/>
<path d="M86.5143 53.7432L86.5127 54.0189C86.5127 54.032 86.5094 54.045 86.5046 54.0565C86.467 54.1364 86.3251 54.1838 86.188 54.1625C86.1423 54.1544 86.1015 54.1413 86.0705 54.1234C86.0232 54.0956 85.9938 54.0565 85.9938 54.0189L85.9955 53.7415C85.9955 53.7823 86.0248 53.8215 86.0722 53.8492C86.1048 53.8672 86.1439 53.8802 86.1896 53.8868C86.3267 53.908 86.4687 53.859 86.5062 53.7807C86.5111 53.7693 86.5143 53.7562 86.5143 53.7432Z" fill="url(#paint36_linear_7_13532)"/>
<path d="M86.4375 53.6371C86.5012 53.673 86.5305 53.7284 86.5061 53.7823C86.4685 53.8622 86.3266 53.9095 86.1895 53.8883C86.1438 53.8801 86.103 53.8671 86.072 53.8508C86.01 53.8133 85.979 53.7578 86.0051 53.704C86.0394 53.624 86.183 53.5767 86.32 53.5996C86.3657 53.6045 86.4065 53.6191 86.4375 53.6371Z" fill="#E1E7E9"/>
<path d="M86.6465 53.6583L86.6449 53.8182C86.6449 53.8378 86.6417 53.8557 86.6319 53.8753C86.5764 53.9961 86.3626 54.0695 86.1521 54.0369C86.0836 54.0254 86.0232 54.0042 85.9775 53.9781C85.9041 53.9357 85.8616 53.8769 85.8616 53.8166V53.655C85.8616 53.717 85.9041 53.7741 85.9775 53.8182C86.0248 53.8459 86.0836 53.8655 86.1521 53.8769C86.3626 53.9112 86.5764 53.8378 86.6335 53.7154C86.6417 53.6975 86.6465 53.6779 86.6465 53.6583Z" fill="url(#paint37_linear_7_13532)"/>
<path d="M86.5307 53.4967C86.627 53.5522 86.6711 53.6354 86.6335 53.717C86.5764 53.8377 86.3626 53.9112 86.1521 53.8785C86.0836 53.8671 86.0248 53.8459 85.9775 53.8198C85.8812 53.7643 85.8372 53.6811 85.8747 53.5995C85.9302 53.4788 86.1456 53.407 86.3545 53.438C86.423 53.4478 86.4834 53.469 86.5307 53.4967Z" fill="#E1E7E9"/>
<path d="M51.813 22.2255L51.8146 22.4328L52.8215 23.0203V22.813L51.813 22.2255Z" fill="#9AA0A4"/>
<path d="M52.8215 22.813V23.0203L53.076 22.8718V22.6645L52.8215 22.813Z" fill="#B9BFC2"/>
<path d="M51.813 22.2256L52.8215 22.813L53.076 22.6645L52.0676 22.0771L51.813 22.2256Z" fill="#EDEEF0"/>
<path d="M52.1572 15.7994C52.1376 15.8092 52.1083 15.8108 52.0887 15.7994C52.0789 15.7929 52.074 15.7847 52.074 15.7782L52.0756 22.2565C52.0756 22.2631 52.0805 22.2712 52.0903 22.2778C52.1115 22.2875 52.1409 22.2875 52.1605 22.2778C52.1703 22.2712 52.1752 22.2631 52.1752 22.2565L52.1719 15.7782C52.1703 15.7864 52.1654 15.7929 52.1572 15.7994Z" fill="url(#paint38_linear_7_13532)"/>
<path d="M52.1573 15.7585C52.1377 15.7471 52.1083 15.7471 52.0871 15.7585C52.0675 15.7699 52.0675 15.7895 52.0888 15.7992C52.1083 15.8106 52.1377 15.809 52.1573 15.7992C52.1753 15.7862 52.1753 15.7699 52.1573 15.7585Z" fill="#EDEEF0"/>
<path d="M52.815 16.1795C52.7954 16.191 52.766 16.191 52.7448 16.1795C52.735 16.1746 52.7301 16.1665 52.7301 16.1583L52.7334 22.6367C52.7334 22.6432 52.7383 22.653 52.7481 22.6579C52.7677 22.6693 52.7987 22.6677 52.8166 22.6579C52.8281 22.6513 52.8329 22.6448 52.8329 22.6367L52.8297 16.1583C52.8297 16.1665 52.8248 16.1746 52.815 16.1795Z" fill="url(#paint39_linear_7_13532)"/>
<path d="M52.8148 16.1387C52.7953 16.1273 52.7643 16.1273 52.7447 16.1387C52.7268 16.1501 52.7268 16.1681 52.7447 16.1778C52.7659 16.1893 52.7953 16.1893 52.8148 16.1778C52.8344 16.1664 52.8344 16.1501 52.8148 16.1387Z" fill="#EDEEF0"/>
<path d="M17.934 11.6054V11.8143L18.9425 12.4002L18.9409 12.1929L17.934 11.6054Z" fill="#9AA0A4"/>
<path d="M18.9409 12.1928L18.9425 12.4L19.1971 12.2532L19.1955 12.046L18.9409 12.1928Z" fill="#B9BFC2"/>
<path d="M17.934 11.6054L18.9409 12.1929L19.1954 12.046L18.1886 11.4586L17.934 11.6054Z" fill="#EDEEF0"/>
<path d="M18.2783 5.17905C18.2587 5.19047 18.2294 5.19047 18.2082 5.17905C18.1984 5.17416 18.1935 5.166 18.1935 5.15784L18.1967 11.638C18.1967 11.6446 18.2016 11.6527 18.2114 11.6576C18.231 11.6691 18.262 11.6691 18.2799 11.6576C18.2897 11.6527 18.2946 11.6446 18.2946 11.638L18.293 5.15784C18.293 5.16763 18.2881 5.17416 18.2783 5.17905Z" fill="url(#paint40_linear_7_13532)"/>
<path d="M18.2784 5.14004C18.2588 5.12861 18.2278 5.12861 18.2082 5.14004C18.1886 5.15147 18.1886 5.16943 18.2082 5.17923C18.2294 5.19066 18.2588 5.19066 18.2784 5.17923C18.298 5.1678 18.298 5.15147 18.2784 5.14004Z" fill="#EDEEF0"/>
<path d="M18.936 5.56095C18.9164 5.57074 18.8854 5.57237 18.8658 5.56095C18.856 5.55442 18.8511 5.54789 18.8511 5.53973L18.8544 12.0182C18.8544 12.0247 18.8593 12.0329 18.8691 12.0394C18.8887 12.0492 18.9197 12.0492 18.9376 12.0394C18.9474 12.0329 18.9539 12.0247 18.9539 12.0182L18.9507 5.53973C18.9507 5.54789 18.9458 5.55442 18.936 5.56095Z" fill="url(#paint41_linear_7_13532)"/>
<path d="M18.9344 5.51857C18.9164 5.50716 18.8854 5.50716 18.8658 5.51857C18.8462 5.52998 18.8462 5.54954 18.8658 5.55932C18.8854 5.5691 18.9164 5.5691 18.936 5.55932C18.9556 5.54791 18.9556 5.52998 18.9344 5.51857Z" fill="#EDEEF0"/>
<path d="M76.0591 46.4684L69.8564 50.0471L57.0284 42.6416L63.2311 39.0597L76.0591 46.4684Z" fill="#2D3037"/>
<path d="M63.2311 39.5754L75.6136 46.7245L76.0591 46.4683L63.2311 39.0597V39.5754Z" fill="#25272B"/>
<path d="M63.2311 39.5754V39.0597L57.0284 42.6416L57.4739 42.8995L63.2311 39.5754Z" fill="#2B2E33"/>
<path d="M64.7193 41.6658L64.7177 42.0036L61.2125 44.0385L61.2141 43.7024L64.7193 41.6658Z" fill="#B9BFC2"/>
<path d="M61.2142 43.7022L61.2125 44.0384L59.362 42.9712L59.3653 42.6334L61.2142 43.7022Z" fill="#9AA0A4"/>
<path d="M64.7194 41.6657L61.2141 43.7023L59.3652 42.6334L62.8672 40.5968L64.7194 41.6657Z" fill="#EDEEF0"/>
<path d="M68.9017 44.081L68.9001 44.4172L65.3965 46.4537L65.3981 46.1176L68.9017 44.081Z" fill="#B9BFC2"/>
<path d="M65.3981 46.1175L65.3965 46.4537L63.546 45.3848V45.0486L65.3981 46.1175Z" fill="#9AA0A4"/>
<path d="M68.9017 44.0809L65.3981 46.1176L63.546 45.0486L67.0496 43.012L68.9017 44.0809Z" fill="#EDEEF0"/>
<path d="M73.0858 46.4962L73.0842 46.8339L69.5806 48.8688V48.5326L73.0858 46.4962Z" fill="#B9BFC2"/>
<path d="M69.5806 48.5326V48.8688L67.7301 47.8015V47.4621L69.5806 48.5326Z" fill="#9AA0A4"/>
<path d="M73.0859 46.4961L69.5806 48.5326L67.7301 47.4621L71.2337 45.4272L73.0859 46.4961Z" fill="#EDEEF0"/>
<defs>
<linearGradient id="paint0_linear_7_13532" x1="2.01691" y1="10.3956" x2="2.53632" y2="10.3956" gradientUnits="userSpaceOnUse">
<stop stop-color="#9AA0A4"/>
<stop offset="1" stop-color="#B9BFC2"/>
</linearGradient>
<linearGradient id="paint1_linear_7_13532" x1="1.88295" y1="10.1598" x2="2.66868" y2="10.1598" gradientUnits="userSpaceOnUse">
<stop stop-color="#9AA0A4"/>
<stop offset="1" stop-color="#B9BFC2"/>
</linearGradient>
<linearGradient id="paint2_linear_7_13532" x1="2.01691" y1="9.87617" x2="2.53632" y2="9.87617" gradientUnits="userSpaceOnUse">
<stop stop-color="#9AA0A4"/>
<stop offset="1" stop-color="#B9BFC2"/>
</linearGradient>
<linearGradient id="paint3_linear_7_13532" x1="1.88295" y1="9.7709" x2="2.66868" y2="9.7709" gradientUnits="userSpaceOnUse">
<stop stop-color="#9AA0A4"/>
<stop offset="1" stop-color="#B9BFC2"/>
</linearGradient>
<linearGradient id="paint4_linear_7_13532" x1="6.84076" y1="7.61005" x2="7.36182" y2="7.61005" gradientUnits="userSpaceOnUse">
<stop stop-color="#9AA0A4"/>
<stop offset="1" stop-color="#B9BFC2"/>
</linearGradient>
<linearGradient id="paint5_linear_7_13532" x1="6.70856" y1="7.37416" x2="7.49412" y2="7.37416" gradientUnits="userSpaceOnUse">
<stop stop-color="#9AA0A4"/>
<stop offset="1" stop-color="#B9BFC2"/>
</linearGradient>
<linearGradient id="paint6_linear_7_13532" x1="6.84076" y1="7.09055" x2="7.36182" y2="7.09055" gradientUnits="userSpaceOnUse">
<stop stop-color="#9AA0A4"/>
<stop offset="1" stop-color="#B9BFC2"/>
</linearGradient>
<linearGradient id="paint7_linear_7_13532" x1="6.7085" y1="6.98691" x2="7.49406" y2="6.98691" gradientUnits="userSpaceOnUse">
<stop stop-color="#9AA0A4"/>
<stop offset="1" stop-color="#B9BFC2"/>
</linearGradient>
<linearGradient id="paint8_linear_7_13532" x1="48.362" y1="21.0345" x2="48.1332" y2="21.4308" gradientUnits="userSpaceOnUse">
<stop stop-color="#EDEEF0"/>
<stop offset="0.1921" stop-color="#D9DBDD"/>
<stop offset="0.2402" stop-color="#DFE1E3"/>
<stop offset="0.371" stop-color="#EAEBED"/>
<stop offset="0.5222" stop-color="#EDEEF0"/>
<stop offset="0.6203" stop-color="#D8DADD"/>
<stop offset="0.7549" stop-color="#C2C6C8"/>
<stop offset="0.8838" stop-color="#B5B9BC"/>
<stop offset="1" stop-color="#B0B5B8"/>
</linearGradient>
<linearGradient id="paint9_linear_7_13532" x1="48.362" y1="20.1946" x2="48.1334" y2="20.5906" gradientUnits="userSpaceOnUse">
<stop stop-color="#EDEEF0"/>
<stop offset="0.1921" stop-color="#D9DBDD"/>
<stop offset="0.2402" stop-color="#DFE1E3"/>
<stop offset="0.371" stop-color="#EAEBED"/>
<stop offset="0.5222" stop-color="#EDEEF0"/>
<stop offset="0.6203" stop-color="#D8DADD"/>
<stop offset="0.7549" stop-color="#C2C6C8"/>
<stop offset="0.8838" stop-color="#B5B9BC"/>
<stop offset="1" stop-color="#B0B5B8"/>
</linearGradient>
<linearGradient id="paint10_linear_7_13532" x1="46.2506" y1="22.2535" x2="46.0221" y2="22.6494" gradientUnits="userSpaceOnUse">
<stop stop-color="#EDEEF0"/>
<stop offset="0.1921" stop-color="#D9DBDD"/>
<stop offset="0.2402" stop-color="#DFE1E3"/>
<stop offset="0.371" stop-color="#EAEBED"/>
<stop offset="0.5222" stop-color="#EDEEF0"/>
<stop offset="0.6203" stop-color="#D8DADD"/>
<stop offset="0.7549" stop-color="#C2C6C8"/>
<stop offset="0.8838" stop-color="#B5B9BC"/>
<stop offset="1" stop-color="#B0B5B8"/>
</linearGradient>
<linearGradient id="paint11_linear_7_13532" x1="46.2522" y1="21.4137" x2="46.0232" y2="21.81" gradientUnits="userSpaceOnUse">
<stop stop-color="#EDEEF0"/>
<stop offset="0.1921" stop-color="#D9DBDD"/>
<stop offset="0.2402" stop-color="#DFE1E3"/>
<stop offset="0.371" stop-color="#EAEBED"/>
<stop offset="0.5222" stop-color="#EDEEF0"/>
<stop offset="0.6203" stop-color="#D8DADD"/>
<stop offset="0.7549" stop-color="#C2C6C8"/>
<stop offset="0.8838" stop-color="#B5B9BC"/>
<stop offset="1" stop-color="#B0B5B8"/>
</linearGradient>
<linearGradient id="paint12_linear_7_13532" x1="79.6542" y1="49.0038" x2="81.3267" y2="51.9007" gradientUnits="userSpaceOnUse">
<stop stop-color="#C0C4C6"/>
<stop offset="0.4037" stop-color="#D9DBDD"/>
<stop offset="0.4648" stop-color="#D4D6D8"/>
<stop offset="0.7998" stop-color="#BABEC1"/>
<stop offset="1" stop-color="#B0B5B8"/>
</linearGradient>
<linearGradient id="paint13_linear_7_13532" x1="25.9544" y1="3.93192" x2="26.0547" y2="3.93192" gradientUnits="userSpaceOnUse">
<stop stop-color="#9AA0A4"/>
<stop offset="1" stop-color="#B9BFC2"/>
</linearGradient>
<linearGradient id="paint14_linear_7_13532" x1="26.611" y1="4.3144" x2="26.713" y2="4.3144" gradientUnits="userSpaceOnUse">
<stop stop-color="#9AA0A4"/>
<stop offset="1" stop-color="#B9BFC2"/>
</linearGradient>
<linearGradient id="paint15_linear_7_13532" x1="22.2844" y1="6.62512" x2="23.9529" y2="6.62512" gradientUnits="userSpaceOnUse">
<stop stop-color="#9AA0A4"/>
<stop offset="1" stop-color="#B9BFC2"/>
</linearGradient>
<linearGradient id="paint16_linear_7_13532" x1="23.4605" y1="4.36391" x2="26.6922" y2="4.36391" gradientUnits="userSpaceOnUse">
<stop stop-color="#A3AAAE"/>
<stop offset="1" stop-color="#C3CACD"/>
</linearGradient>
<linearGradient id="paint17_linear_7_13532" x1="22.764" y1="5.47607" x2="23.6277" y2="5.47607" gradientUnits="userSpaceOnUse">
<stop stop-color="#A3AAAE"/>
<stop offset="1" stop-color="#C3CACD"/>
</linearGradient>
<linearGradient id="paint18_linear_7_13532" x1="22.8964" y1="6.18539" x2="24.5302" y2="5.21414" gradientUnits="userSpaceOnUse">
<stop stop-color="#A3AAAE"/>
<stop offset="0.4183" stop-color="#C3CACD"/>
<stop offset="0.6513" stop-color="#CFD4D6"/>
<stop offset="1" stop-color="#DCDFE1"/>
</linearGradient>
<linearGradient id="paint19_linear_7_13532" x1="43.4173" y1="24.0305" x2="43.5177" y2="24.0305" gradientUnits="userSpaceOnUse">
<stop stop-color="#9AA0A4"/>
<stop offset="1" stop-color="#B9BFC2"/>
</linearGradient>
<linearGradient id="paint20_linear_7_13532" x1="44.0755" y1="24.4098" x2="44.1758" y2="24.4098" gradientUnits="userSpaceOnUse">
<stop stop-color="#9AA0A4"/>
<stop offset="1" stop-color="#B9BFC2"/>
</linearGradient>
<linearGradient id="paint21_linear_7_13532" x1="30.0993" y1="9.97342" x2="28.1849" y2="9.97342" gradientUnits="userSpaceOnUse">
<stop stop-color="#E0E0E0"/>
<stop offset="1" stop-color="#D3D3D3"/>
</linearGradient>
<radialGradient id="paint22_radial_7_13532" cx="0" cy="0" r="1" gradientUnits="userSpaceOnUse" gradientTransform="translate(29.1624 8.08183) scale(1.84954)">
<stop stop-color="#FFFFFD"/>
<stop offset="0.2901" stop-color="#F2F2F1"/>
<stop offset="0.5769" stop-color="#E0E0E0"/>
<stop offset="1" stop-color="#D3D3D3"/>
</radialGradient>
<linearGradient id="paint23_linear_7_13532" x1="24.0692" y1="13.4538" x2="22.1547" y2="13.4538" gradientUnits="userSpaceOnUse">
<stop stop-color="#E0E0E0"/>
<stop offset="1" stop-color="#D3D3D3"/>
</linearGradient>
<radialGradient id="paint24_radial_7_13532" cx="0" cy="0" r="1" gradientUnits="userSpaceOnUse" gradientTransform="translate(23.1304 11.5621) scale(1.85023)">
<stop stop-color="#FFFFFD"/>
<stop offset="0.2901" stop-color="#F2F2F1"/>
<stop offset="0.5769" stop-color="#E0E0E0"/>
<stop offset="1" stop-color="#D3D3D3"/>
</radialGradient>
<linearGradient id="paint25_linear_7_13532" x1="59.1302" y1="32.0034" x2="60.7685" y2="32.0034" gradientUnits="userSpaceOnUse">
<stop stop-color="#9AA0A4"/>
<stop offset="1" stop-color="#B9BFC2"/>
</linearGradient>
<radialGradient id="paint26_radial_7_13532" cx="0" cy="0" r="1" gradientUnits="userSpaceOnUse" gradientTransform="translate(60.1166 30.6997) scale(1.45103)">
<stop stop-color="#EDEEF0"/>
<stop offset="0.1843" stop-color="#E0E2E4"/>
<stop offset="0.5273" stop-color="#BCC2C5"/>
<stop offset="0.5577" stop-color="#B9BFC2"/>
<stop offset="1" stop-color="#9AA0A4"/>
</radialGradient>
<linearGradient id="paint27_linear_7_13532" x1="49.0921" y1="37.7993" x2="50.7303" y2="37.7993" gradientUnits="userSpaceOnUse">
<stop stop-color="#9AA0A4"/>
<stop offset="1" stop-color="#B9BFC2"/>
</linearGradient>
<radialGradient id="paint28_radial_7_13532" cx="0" cy="0" r="1" gradientUnits="userSpaceOnUse" gradientTransform="translate(50.0768 36.4942) scale(1.45235)">
<stop stop-color="#EDEEF0"/>
<stop offset="0.1843" stop-color="#E0E2E4"/>
<stop offset="0.5273" stop-color="#BCC2C5"/>
<stop offset="0.5577" stop-color="#B9BFC2"/>
<stop offset="1" stop-color="#9AA0A4"/>
</radialGradient>
<linearGradient id="paint29_linear_7_13532" x1="12.1188" y1="9.38197" x2="14.1197" y2="12.8476" gradientUnits="userSpaceOnUse">
<stop stop-color="#C0C4C6"/>
<stop offset="0.4037" stop-color="#D9DBDD"/>
<stop offset="0.4648" stop-color="#D4D6D8"/>
<stop offset="0.7998" stop-color="#BABEC1"/>
<stop offset="1" stop-color="#B0B5B8"/>
</linearGradient>
<linearGradient id="paint30_linear_7_13532" x1="83.823" y1="55.7273" x2="84.344" y2="55.7273" gradientUnits="userSpaceOnUse">
<stop stop-color="#9AA0A4"/>
<stop offset="1" stop-color="#B9BFC2"/>
</linearGradient>
<linearGradient id="paint31_linear_7_13532" x1="83.6892" y1="55.4898" x2="84.4748" y2="55.4898" gradientUnits="userSpaceOnUse">
<stop stop-color="#B4BCC0"/>
<stop offset="1" stop-color="#CBD2D5"/>
</linearGradient>
<linearGradient id="paint32_linear_7_13532" x1="83.823" y1="55.2079" x2="84.344" y2="55.2079" gradientUnits="userSpaceOnUse">
<stop stop-color="#9AA0A4"/>
<stop offset="1" stop-color="#B9BFC2"/>
</linearGradient>
<linearGradient id="paint33_linear_7_13532" x1="83.6892" y1="55.1027" x2="84.4748" y2="55.1027" gradientUnits="userSpaceOnUse">
<stop stop-color="#B4BCC0"/>
<stop offset="1" stop-color="#CBD2D5"/>
</linearGradient>
<linearGradient id="paint34_linear_7_13532" x1="85.9937" y1="54.4749" x2="86.5147" y2="54.4749" gradientUnits="userSpaceOnUse">
<stop stop-color="#9AA0A4"/>
<stop offset="1" stop-color="#B9BFC2"/>
</linearGradient>
<linearGradient id="paint35_linear_7_13532" x1="85.8613" y1="54.2375" x2="86.647" y2="54.2375" gradientUnits="userSpaceOnUse">
<stop stop-color="#B4BCC0"/>
<stop offset="1" stop-color="#CBD2D5"/>
</linearGradient>
<linearGradient id="paint36_linear_7_13532" x1="85.9937" y1="53.9553" x2="86.5147" y2="53.9553" gradientUnits="userSpaceOnUse">
<stop stop-color="#9AA0A4"/>
<stop offset="1" stop-color="#B9BFC2"/>
</linearGradient>
<linearGradient id="paint37_linear_7_13532" x1="85.8613" y1="53.85" x2="86.647" y2="53.85" gradientUnits="userSpaceOnUse">
<stop stop-color="#B4BCC0"/>
<stop offset="1" stop-color="#CBD2D5"/>
</linearGradient>
<linearGradient id="paint38_linear_7_13532" x1="52.0736" y1="19.0314" x2="52.174" y2="19.0314" gradientUnits="userSpaceOnUse">
<stop stop-color="#9AA0A4"/>
<stop offset="1" stop-color="#B9BFC2"/>
</linearGradient>
<linearGradient id="paint39_linear_7_13532" x1="52.7303" y1="19.4122" x2="52.8323" y2="19.4122" gradientUnits="userSpaceOnUse">
<stop stop-color="#9AA0A4"/>
<stop offset="1" stop-color="#B9BFC2"/>
</linearGradient>
<linearGradient id="paint40_linear_7_13532" x1="18.1935" y1="8.41312" x2="18.294" y2="8.41312" gradientUnits="userSpaceOnUse">
<stop stop-color="#9AA0A4"/>
<stop offset="1" stop-color="#B9BFC2"/>
</linearGradient>
<linearGradient id="paint41_linear_7_13532" x1="18.8518" y1="8.79235" x2="18.9538" y2="8.79235" gradientUnits="userSpaceOnUse">
<stop stop-color="#9AA0A4"/>
<stop offset="1" stop-color="#B9BFC2"/>
</linearGradient>
</defs>
</svg>
